<?xml version="1.0" encoding="UTF-8" standalone="no"?>
<!-- Generated by graphviz version 2.50.0 (20211204.2007)
 -->

<!-- Title: G Pages: 1 -->

<svg
   width="848.13092pt"
   height="1185.8789pt"
   viewBox="0 0 847.21401 1185.8789"
   version="1.1"
   id="svg1356"
   sodipodi:docname="digraph1.svg"
   inkscape:version="1.1.1 (c3084ef, 2021-09-22)"
   xmlns:inkscape="http://www.inkscape.org/namespaces/inkscape"
   xmlns:sodipodi="http://sodipodi.sourceforge.net/DTD/sodipodi-0.dtd"
   xmlns="http://www.w3.org/2000/svg"
   xmlns:svg="http://www.w3.org/2000/svg">
  <defs
     id="defs1360">
    <inkscape:path-effect
       effect="bspline"
       id="path-effect2562"
       is_visible="true"
       lpeversion="1"
       weight="33.333333"
       steps="2"
       helper_size="0"
       apply_no_weight="true"
       apply_with_weight="true"
       only_selected="false" />
    <inkscape:path-effect
       effect="bspline"
       id="path-effect2313"
       is_visible="true"
       lpeversion="1"
       weight="33.333333"
       steps="2"
       helper_size="0"
       apply_no_weight="true"
       apply_with_weight="true"
       only_selected="false" />
    <marker
       style="overflow:visible"
       id="marker1904"
       refX="0"
       refY="0"
       orient="auto"
       inkscape:stockid="Arrow2Lstart"
       inkscape:isstock="true">
      <path
         transform="matrix(1.1,0,0,1.1,1.1,0)"
         d="M 8.7185878,4.0337352 -2.2072895,0.01601326 8.7185884,-4.0017078 c -1.7454984,2.3720609 -1.7354408,5.6174519 -6e-7,8.035443 z"
         style="fill:context-stroke;fill-rule:evenodd;stroke:context-stroke;stroke-width:0.625;stroke-linejoin:round"
         id="path1902" />
    </marker>
    <marker
       style="overflow:visible"
       id="Arrow2Lstart"
       refX="0"
       refY="0"
       orient="auto"
       inkscape:stockid="Arrow2Lstart"
       inkscape:isstock="true">
      <path
         transform="matrix(1.1,0,0,1.1,1.1,0)"
         d="M 8.7185878,4.0337352 -2.2072895,0.01601326 8.7185884,-4.0017078 c -1.7454984,2.3720609 -1.7354408,5.6174519 -6e-7,8.035443 z"
         style="fill:context-stroke;fill-rule:evenodd;stroke:context-stroke;stroke-width:0.625;stroke-linejoin:round"
         id="path1636" />
    </marker>
    <marker
       style="overflow:visible"
       id="Arrow1Mstart"
       refX="0"
       refY="0"
       orient="auto"
       inkscape:stockid="Arrow1Mstart"
       inkscape:isstock="true">
      <path
         transform="matrix(0.4,0,0,0.4,4,0)"
         style="fill:context-stroke;fill-rule:evenodd;stroke:context-stroke;stroke-width:1pt"
         d="M 0,0 5,-5 -12.5,0 5,5 Z"
         id="path1624" />
    </marker>
    <marker
       style="overflow:visible"
       id="Arrow1Lend"
       refX="0"
       refY="0"
       orient="auto"
       inkscape:stockid="Arrow1Lend"
       inkscape:isstock="true">
      <path
         transform="matrix(-0.8,0,0,-0.8,-10,0)"
         style="fill:context-stroke;fill-rule:evenodd;stroke:context-stroke;stroke-width:1pt"
         d="M 0,0 5,-5 -12.5,0 5,5 Z"
         id="path1621" />
    </marker>
    <inkscape:path-effect
       effect="bspline"
       id="path-effect1536"
       is_visible="true"
       lpeversion="1"
       weight="33.333333"
       steps="2"
       helper_size="0"
       apply_no_weight="true"
       apply_with_weight="true"
       only_selected="false" />
  </defs>
  <sodipodi:namedview
     id="namedview1358"
     pagecolor="#ffffff"
     bordercolor="#999999"
     borderopacity="1"
     inkscape:pageshadow="0"
     inkscape:pageopacity="0"
     inkscape:pagecheckerboard="0"
     inkscape:document-units="pt"
     showgrid="false"
     fit-margin-top="0"
     fit-margin-left="0"
     fit-margin-right="0"
     fit-margin-bottom="0"
     inkscape:zoom="0.35063663"
     inkscape:cx="583.22486"
     inkscape:cy="768.60195"
     inkscape:window-width="1280"
     inkscape:window-height="747"
     inkscape:window-x="0"
     inkscape:window-y="25"
     inkscape:window-maximized="0"
     inkscape:current-layer="svg1356" />
  <polygon
     fill="#ffffff"
     stroke="transparent"
     points="328.64,-1693 328.64,4 -4,4 -4,-1693 "
     id="polygon826"
     transform="matrix(2.5496961,0,0,0.69880902,9.2815157,1183.0837)"
     style="stroke-width:0.749166" />
  <g
     id="node1"
     class="node"
     transform="translate(128.57364,1097.043)">
    <title
       id="title828">GTACGGC</title>
    <ellipse
       fill="none"
       stroke="#000000"
       cx="136.64999"
       cy="-714"
       rx="52.790001"
       ry="18"
       id="ellipse830" />
    <text
       text-anchor="middle"
       x="136.64999"
       y="-710.29999"
       font-family="Times, serif"
       font-size="14px"
       id="text832">GTACGGC</text>
  </g>
  <g
     id="node2"
     class="node"
     transform="translate(128.57364,1097.043)">
    <title
       id="title835">TACGGCG</title>
    <ellipse
       fill="none"
       stroke="#000000"
       cx="52.650002"
       cy="-627"
       rx="52.790001"
       ry="18"
       id="ellipse837" />
    <text
       text-anchor="middle"
       x="52.650002"
       y="-623.29999"
       font-family="Times, serif"
       font-size="14px"
       id="text839">TACGGCG</text>
  </g>
  <g
     id="edge1"
     class="edge"
     transform="translate(128.57364,1097.043)">
    <title
       id="title842">GTACGGC-&gt;TACGGCG</title>
    <path
       fill="none"
       stroke="#000000"
       d="M 120.45,-696.61 C 107.78,-683.79 90,-665.8 75.83,-651.46"
       id="path844" />
    <polygon
       fill="#000000"
       stroke="#000000"
       points="73.33,-653.91 78.31,-648.99 68.79,-644.34 "
       id="polygon846" />
    <text
       text-anchor="middle"
       x="104.15"
       y="-666.79999"
       font-family="Times, serif"
       font-size="14px"
       id="text848">6</text>
  </g>
  <g
     id="node3"
     class="node"
     transform="translate(128.57364,1097.043)">
    <title
       id="title851">CGGCGCC</title>
    <ellipse
       fill="none"
       stroke="#000000"
       cx="141.64999"
       cy="-540"
       rx="53.09"
       ry="18"
       id="ellipse853" />
    <text
       text-anchor="middle"
       x="141.64999"
       y="-536.29999"
       font-family="Times, serif"
       font-size="14px"
       id="text855">CGGCGCC</text>
  </g>
  <g
     id="edge2"
     class="edge"
     transform="translate(128.57364,1097.043)">
    <title
       id="title858">GTACGGC-&gt;CGGCGCC</title>
    <path
       fill="none"
       stroke="#000000"
       d="m 137.14,-695.88 c 0.87,29.88 2.67,91.77 3.71,127.61"
       id="path860" />
    <polygon
       fill="#000000"
       stroke="#000000"
       points="137.36,-567.95 144.36,-568.15 141.15,-558.05 "
       id="polygon862" />
    <text
       text-anchor="middle"
       x="142.14999"
       y="-623.29999"
       font-family="Times, serif"
       font-size="14px"
       id="text864">4</text>
  </g>
  <g
     id="edge11"
     class="edge"
     transform="translate(128.57364,1097.043)">
    <title
       id="title867">TACGGCG-&gt;CGGCGCC</title>
    <path
       fill="none"
       stroke="#000000"
       d="m 69.81,-609.61 c 13.42,12.82 32.25,30.81 47.27,45.15"
       id="path869" />
    <polygon
       fill="#000000"
       stroke="#000000"
       points="114.89,-561.71 119.72,-566.78 124.54,-557.34 "
       id="polygon871" />
    <text
       text-anchor="middle"
       x="106.15"
       y="-579.79999"
       font-family="Times, serif"
       font-size="14px"
       id="text873">5</text>
  </g>
  <g
     id="node12"
     class="node"
     transform="translate(128.57364,1097.043)">
    <title
       id="title876">GGCGCCG</title>
    <ellipse
       fill="none"
       stroke="#000000"
       cx="150.64999"
       cy="-453"
       rx="53.889999"
       ry="18"
       id="ellipse878" />
    <text
       text-anchor="middle"
       x="150.64999"
       y="-449.29999"
       font-family="Times, serif"
       font-size="14px"
       id="text880">GGCGCCG</text>
  </g>
  <g
     id="edge12"
     class="edge"
     transform="translate(128.57364,1097.043)">
    <title
       id="title883">TACGGCG-&gt;GGCGCCG</title>
    <path
       fill="none"
       stroke="#000000"
       d="m 52.59,-608.99 c 0.64,21.62 4.2,59.42 20.06,86.99 10.9,18.96 29.08,35.27 45.15,47.16"
       id="path885" />
    <polygon
       fill="#000000"
       stroke="#000000"
       points="115.78,-471.98 119.84,-477.68 125.96,-469.03 "
       id="polygon887" />
    <text
       text-anchor="middle"
       x="76.150002"
       y="-536.29999"
       font-family="Times, serif"
       font-size="14px"
       id="text889">4</text>
  </g>
  <g
     id="edge21"
     class="edge"
     transform="translate(128.57364,1097.043)">
    <title
       id="title892">CGGCGCC-&gt;GGCGCCG</title>
    <path
       fill="none"
       stroke="#000000"
       d="m 143.47,-521.8 c 1.23,11.64 2.88,27.25 4.29,40.56"
       id="path894" />
    <polygon
       fill="#000000"
       stroke="#000000"
       points="144.29,-480.75 151.25,-481.49 148.83,-471.18 "
       id="polygon896" />
    <text
       text-anchor="middle"
       x="150.14999"
       y="-492.79999"
       font-family="Times, serif"
       font-size="14px"
       id="text898">6</text>
  </g>
  <g
     id="node16"
     class="node"
     transform="translate(128.57364,1097.043)">
    <title
       id="title901">GCGCCGC</title>
    <ellipse
       fill="none"
       stroke="#000000"
       cx="192.64999"
       cy="-366"
       rx="53.09"
       ry="18"
       id="ellipse903" />
    <text
       text-anchor="middle"
       x="192.64999"
       y="-362.29999"
       font-family="Times, serif"
       font-size="14px"
       id="text905">GCGCCGC</text>
  </g>
  <g
     id="edge20"
     class="edge"
     transform="translate(128.57364,1097.043)">
    <title
       id="title908">CGGCGCC-&gt;GCGCCGC</title>
    <path
       fill="none"
       stroke="#000000"
       d="m 166.01,-523.89 c 16.88,12 37.97,30.47 47.64,52.89 10.87,25.23 1.94,56.37 -7.4,77.96"
       id="path910" />
    <polygon
       fill="#000000"
       stroke="#000000"
       points="203.02,-394.39 209.37,-391.45 202,-383.85 "
       id="polygon912" />
    <text
       text-anchor="middle"
       x="221.14999"
       y="-449.29999"
       font-family="Times, serif"
       font-size="14px"
       id="text914">5</text>
  </g>
  <g
     id="node17"
     class="node"
     transform="translate(128.57364,1097.043)">
    <title
       id="title917">CGCCGCT</title>
    <ellipse
       fill="none"
       stroke="#000000"
       cx="112.65"
       cy="-279"
       rx="51.990002"
       ry="18"
       id="ellipse919" />
    <text
       text-anchor="middle"
       x="112.65"
       y="-275.29999"
       font-family="Times, serif"
       font-size="14px"
       id="text921">CGCCGCT</text>
  </g>
  <g
     id="edge22"
     class="edge"
     transform="translate(128.57364,1097.043)">
    <title
       id="title924">CGGCGCC-&gt;CGCCGCT</title>
    <path
       fill="none"
       stroke="#000000"
       d="m 123.52,-522.85 c -12.76,12.66 -28.78,31.49 -35.87,51.85 -19.63,56.28 0.19,126.78 14.04,164.42"
       id="path926" />
    <polygon
       fill="#000000"
       stroke="#000000"
       points="98.56,-304.97 105.1,-307.47 105.41,-296.88 "
       id="polygon928" />
    <text
       text-anchor="middle"
       x="84.150002"
       y="-405.79999"
       font-family="Times, serif"
       font-size="14px"
       id="text930">4</text>
  </g>
  <g
     id="node4"
     class="node"
     transform="translate(518.57364,1877.043)">
    <title
       id="title933">GCATTAT</title>
    <ellipse
       fill="none"
       stroke="#000000"
       cx="190.64999"
       cy="-1671"
       rx="49.290001"
       ry="18"
       id="ellipse935" />
    <text
       text-anchor="middle"
       x="190.64999"
       y="-1667.3"
       font-family="Times, serif"
       font-size="14px"
       id="text937">GCATTAT</text>
  </g>
  <g
     id="node5"
     class="node"
     transform="translate(518.57364,1877.043)">
    <title
       id="title940">CATTATA</title>
    <ellipse
       fill="none"
       stroke="#000000"
       cx="267.64999"
       cy="-1584"
       rx="48.990002"
       ry="18"
       id="ellipse942" />
    <text
       text-anchor="middle"
       x="267.64999"
       y="-1580.3"
       font-family="Times, serif"
       font-size="14px"
       id="text944">CATTATA</text>
  </g>
  <g
     id="edge3"
     class="edge"
     transform="translate(518.57364,1877.043)">
    <title
       id="title947">GCATTAT-&gt;CATTATA</title>
    <path
       fill="none"
       stroke="#000000"
       d="m 205.49,-1653.61 c 11.51,12.7 27.61,30.48 40.54,44.75"
       id="path949" />
    <polygon
       fill="#000000"
       stroke="#000000"
       points="243.54,-1606.4 248.72,-1611.1 252.84,-1601.34 "
       id="polygon951" />
    <text
       text-anchor="middle"
       x="237.14999"
       y="-1623.8"
       font-family="Times, serif"
       font-size="14px"
       id="text953">6</text>
  </g>
  <g
     id="node6"
     class="node"
     transform="translate(518.57364,1877.043)">
    <title
       id="title956">TTATATA</title>
    <ellipse
       fill="none"
       stroke="#000000"
       cx="193.64999"
       cy="-1410"
       rx="48.189999"
       ry="18"
       id="ellipse958" />
    <text
       text-anchor="middle"
       x="193.64999"
       y="-1406.3"
       font-family="Times, serif"
       font-size="14px"
       id="text960">TTATATA</text>
  </g>
  <g
     id="edge4"
     class="edge"
     transform="translate(518.57364,1877.043)">
    <title
       id="title963">GCATTAT-&gt;TTATATA</title>
    <path
       fill="none"
       stroke="#000000"
       d="m 190.85,-1652.6 c 0.51,44.14 1.86,160.77 2.48,214.18"
       id="path965" />
    <polygon
       fill="#000000"
       stroke="#000000"
       points="189.83,-1438.28 196.83,-1438.36 193.44,-1428.32 "
       id="polygon967" />
    <text
       text-anchor="middle"
       x="195.14999"
       y="-1536.8"
       font-family="Times, serif"
       font-size="14px"
       id="text969">4</text>
  </g>
  <g
     id="node7"
     class="node"
     transform="translate(518.57364,1877.043)">
    <title
       id="title972">ATTATAT</title>
    <ellipse
       fill="none"
       stroke="#000000"
       cx="115.65"
       cy="-1497"
       rx="47.389999"
       ry="18"
       id="ellipse974" />
    <text
       text-anchor="middle"
       x="115.65"
       y="-1493.3"
       font-family="Times, serif"
       font-size="14px"
       id="text976">ATTATAT</text>
  </g>
  <g
     id="edge5"
     class="edge"
     transform="translate(518.57364,1877.043)">
    <title
       id="title979">GCATTAT-&gt;ATTATAT</title>
    <path
       fill="none"
       stroke="#000000"
       d="m 183.32,-1653.19 c -13.11,30.05 -40.65,93.21 -56.25,129"
       id="path981" />
    <polygon
       fill="#000000"
       stroke="#000000"
       points="123.79,-1525.44 130.21,-1522.64 123,-1514.87 "
       id="polygon983" />
    <text
       text-anchor="middle"
       x="163.14999"
       y="-1580.3"
       font-family="Times, serif"
       font-size="14px"
       id="text985">5</text>
  </g>
  <g
     id="edge14"
     class="edge"
     transform="translate(518.57364,1877.043)">
    <title
       id="title988">CATTATA-&gt;TTATATA</title>
    <path
       fill="none"
       stroke="#000000"
       d="m 260.42,-1566.19 c -12.94,30.05 -40.11,93.21 -55.51,129"
       id="path990" />
    <polygon
       fill="#000000"
       stroke="#000000"
       points="201.64,-1438.44 208.07,-1435.68 200.9,-1427.87 "
       id="polygon992" />
    <text
       text-anchor="middle"
       x="241.14999"
       y="-1493.3"
       font-family="Times, serif"
       font-size="14px"
       id="text994">5</text>
  </g>
  <g
     id="edge15"
     class="edge"
     transform="translate(518.57364,1877.043)">
    <title
       id="title997">CATTATA-&gt;ATTATAT</title>
    <path
       fill="none"
       stroke="#000000"
       d="m 248.52,-1567.31 c -13.43,10.54 -32.09,24.29 -49.87,34.31 -12.72,7.17 -27.2,13.76 -40.47,19.24"
       id="path999" />
    <polygon
       fill="#000000"
       stroke="#000000"
       points="156.75,-1516.95 159.37,-1510.46 148.78,-1509.96 "
       id="polygon1001" />
    <text
       text-anchor="middle"
       x="225.14999"
       y="-1536.8"
       font-family="Times, serif"
       font-size="14px"
       id="text1003">6</text>
  </g>
  <g
     id="node8"
     class="node"
     transform="translate(518.57364,1877.043)">
    <title
       id="title1006">TATATTG</title>
    <ellipse
       fill="none"
       stroke="#000000"
       cx="191.64999"
       cy="-1236"
       rx="48.189999"
       ry="18"
       id="ellipse1008" />
    <text
       text-anchor="middle"
       x="191.64999"
       y="-1232.3"
       font-family="Times, serif"
       font-size="14px"
       id="text1010">TATATTG</text>
  </g>
  <g
     id="edge13"
     class="edge"
     transform="translate(518.57364,1877.043)">
    <title
       id="title1013">CATTATA-&gt;TATATTG</title>
    <path
       fill="none"
       stroke="#000000"
       d="m 270.86,-1565.81 c 2.93,17.12 6.79,44.18 6.79,67.81 0,0 0,0 0,176 0,29.22 -25.44,51.8 -48.64,66.32"
       id="path1015" />
    <polygon
       fill="#000000"
       stroke="#000000"
       points="227.1,-1258.62 230.67,-1252.6 220.28,-1250.52 "
       id="polygon1017" />
    <text
       text-anchor="middle"
       x="281.14999"
       y="-1406.3"
       font-family="Times, serif"
       font-size="14px"
       id="text1019">4</text>
  </g>
  <g
     id="edge18"
     class="edge"
     transform="translate(518.57364,1877.043)">
    <title
       id="title1022">TTATATA-&gt;TATATTG</title>
    <path
       fill="none"
       stroke="#000000"
       d="m 197.94,-1391.72 c 4.59,20.63 10.82,56.16 7.71,86.72 -1.4,13.68 -4.33,28.67 -7.15,41.08"
       id="path1024" />
    <polygon
       fill="#000000"
       stroke="#000000"
       points="195.09,-1264.72 201.9,-1263.1 196.19,-1254.18 "
       id="polygon1026" />
    <text
       text-anchor="middle"
       x="209.14999"
       y="-1319.3"
       font-family="Times, serif"
       font-size="14px"
       id="text1028">4</text>
  </g>
  <g
     id="node10"
     class="node"
     transform="translate(518.57364,1877.043)">
    <title
       id="title1031">ATATATT</title>
    <ellipse
       fill="none"
       stroke="#000000"
       cx="149.64999"
       cy="-1323"
       rx="47.389999"
       ry="18"
       id="ellipse1033" />
    <text
       text-anchor="middle"
       x="149.64999"
       y="-1319.3"
       font-family="Times, serif"
       font-size="14px"
       id="text1035">ATATATT</text>
  </g>
  <g
     id="edge19"
     class="edge"
     transform="translate(518.57364,1877.043)">
    <title
       id="title1038">TTATATA-&gt;ATATATT</title>
    <path
       fill="none"
       stroke="#000000"
       d="m 184.95,-1392.21 c -6.27,12.11 -14.84,28.68 -21.97,42.45"
       id="path1040" />
    <polygon
       fill="#000000"
       stroke="#000000"
       points="159.81,-1351.25 166.03,-1348.03 158.32,-1340.76 "
       id="polygon1042" />
    <text
       text-anchor="middle"
       x="177.14999"
       y="-1362.8"
       font-family="Times, serif"
       font-size="14px"
       id="text1044">5</text>
  </g>
  <g
     id="edge29"
     class="edge"
     transform="translate(518.57364,1877.043)">
    <title
       id="title1047">ATTATAT-&gt;TTATATA</title>
    <path
       fill="none"
       stroke="#000000"
       d="m 130.68,-1479.61 c 11.66,12.7 27.97,30.48 41.07,44.75"
       id="path1049" />
    <polygon
       fill="#000000"
       stroke="#000000"
       points="169.31,-1432.34 174.47,-1437.07 178.65,-1427.34 "
       id="polygon1051" />
    <text
       text-anchor="middle"
       x="162.14999"
       y="-1449.8"
       font-family="Times, serif"
       font-size="14px"
       id="text1053">6</text>
  </g>
  <g
     id="edge26"
     class="edge"
     transform="translate(518.57364,1877.043)">
    <title
       id="title1056">ATTATAT-&gt;TATATTG</title>
    <path
       fill="none"
       stroke="#000000"
       d="m 107.59,-1478.99 c -15.27,34.86 -44.28,116.02 -13.94,173.99 12.04,23.02 35.81,39.8 56.92,50.94"
       id="path1058" />
    <polygon
       fill="#000000"
       stroke="#000000"
       points="149.21,-1250.83 152.34,-1257.09 159.72,-1249.49 "
       id="polygon1060" />
    <text
       text-anchor="middle"
       x="84.150002"
       y="-1362.8"
       font-family="Times, serif"
       font-size="14px"
       id="text1062">5</text>
  </g>
  <g
     id="node9"
     class="node"
     transform="translate(518.57364,1877.043)">
    <title
       id="title1065">ATATTGC</title>
    <ellipse
       fill="none"
       stroke="#000000"
       cx="118.65"
       cy="-1149"
       rx="49.290001"
       ry="18"
       id="ellipse1067" />
    <text
       text-anchor="middle"
       x="118.65"
       y="-1145.3"
       font-family="Times, serif"
       font-size="14px"
       id="text1069">ATATTGC</text>
  </g>
  <g
     id="edge28"
     class="edge"
     transform="translate(518.57364,1877.043)">
    <title
       id="title1072">ATTATAT-&gt;ATATTGC</title>
    <path
       fill="none"
       stroke="#000000"
       d="m 89.34,-1481.89 c -22.98,14.46 -52.69,39.26 -52.69,70.89 0,0 0,0 0,176 0,28.24 23.73,50.69 45.66,65.42"
       id="path1074" />
    <polygon
       fill="#000000"
       stroke="#000000"
       points="80.57,-1166.54 84.32,-1172.45 90.88,-1164.13 "
       id="polygon1076" />
    <text
       text-anchor="middle"
       x="40.150002"
       y="-1319.3"
       font-family="Times, serif"
       font-size="14px"
       id="text1078">4</text>
  </g>
  <g
     id="edge27"
     class="edge"
     transform="translate(518.57364,1877.043)">
    <title
       id="title1081">ATTATAT-&gt;ATATATT</title>
    <path
       fill="none"
       stroke="#000000"
       d="m 117.14,-1478.93 c 2,20.72 6.05,56.64 12.51,86.93 2.92,13.73 7.21,28.72 11.07,41.13"
       id="path1083" />
    <polygon
       fill="#000000"
       stroke="#000000"
       points="137.44,-1349.61 144.11,-1351.73 143.81,-1341.14 "
       id="polygon1085" />
    <text
       text-anchor="middle"
       x="133.14999"
       y="-1406.3"
       font-family="Times, serif"
       font-size="14px"
       id="text1087">4</text>
  </g>
  <g
     id="edge6"
     class="edge"
     transform="translate(518.57364,1877.043)">
    <title
       id="title1090">TATATTG-&gt;ATATTGC</title>
    <path
       fill="none"
       stroke="#000000"
       d="m 177.57,-1218.61 c -10.81,12.58 -25.89,30.15 -38.1,44.36"
       id="path1092" />
    <polygon
       fill="#000000"
       stroke="#000000"
       points="136.54,-1176.21 141.85,-1171.64 132.68,-1166.34 "
       id="polygon1094" />
    <text
       text-anchor="middle"
       x="162.14999"
       y="-1188.8"
       font-family="Times, serif"
       font-size="14px"
       id="text1096">6</text>
  </g>
  <g
     id="node13"
     class="node"
     transform="translate(518.57364,1877.043)">
    <title
       id="title1099">TTGCGCG</title>
    <ellipse
       fill="none"
       stroke="#000000"
       cx="118.65"
       cy="-1062"
       rx="51.990002"
       ry="18"
       id="ellipse1101" />
    <text
       text-anchor="middle"
       x="118.65"
       y="-1058.3"
       font-family="Times, serif"
       font-size="14px"
       id="text1103">TTGCGCG</text>
  </g>
  <g
     id="edge16"
     class="edge"
     transform="translate(518.57364,1877.043)">
    <title
       id="title1106">ATATTGC-&gt;TTGCGCG</title>
    <path
       fill="none"
       stroke="#000000"
       d="m 118.65,-1130.8 c 0,11.64 0,27.25 0,40.56"
       id="path1108" />
    <polygon
       fill="#000000"
       stroke="#000000"
       points="115.15,-1090.18 122.15,-1090.18 118.65,-1080.18 "
       id="polygon1110" />
    <text
       text-anchor="middle"
       x="122.15"
       y="-1101.8"
       font-family="Times, serif"
       font-size="14px"
       id="text1112">4</text>
  </g>
  <g
     id="edge7"
     class="edge"
     transform="translate(518.57364,1877.043)">
    <title
       id="title1115">ATATATT-&gt;TATATTG</title>
    <path
       fill="none"
       stroke="#000000"
       d="m 157.94,-1305.21 c 5.99,12.11 14.17,28.68 20.98,42.45"
       id="path1117" />
    <polygon
       fill="#000000"
       stroke="#000000"
       points="175.8,-1261.17 182.07,-1264.27 183.36,-1253.76 "
       id="polygon1119" />
    <text
       text-anchor="middle"
       x="176.14999"
       y="-1275.8"
       font-family="Times, serif"
       font-size="14px"
       id="text1121">6</text>
  </g>
  <g
     id="edge8"
     class="edge"
     transform="translate(518.57364,1877.043)">
    <title
       id="title1124">ATATATT-&gt;ATATTGC</title>
    <path
       fill="none"
       stroke="#000000"
       d="m 142.94,-1304.96 c -5.05,13.58 -11.7,33.2 -15.29,50.96 -5.21,25.71 -7.4,55.6 -8.33,76.72"
       id="path1126" />
    <polygon
       fill="#000000"
       stroke="#000000"
       points="115.82,-1177.22 122.81,-1176.96 118.94,-1167.1 "
       id="polygon1128" />
    <text
       text-anchor="middle"
       x="131.14999"
       y="-1232.3"
       font-family="Times, serif"
       font-size="14px"
       id="text1130">5</text>
  </g>
  <g
     id="node11"
     class="node"
     transform="translate(128.57364,1097.043)">
    <title
       id="title1133">GCGTACG</title>
    <ellipse
       fill="none"
       stroke="#000000"
       cx="52.650002"
       cy="-801"
       rx="52.790001"
       ry="18"
       id="ellipse1135" />
    <text
       text-anchor="middle"
       x="52.650002"
       y="-797.29999"
       font-family="Times, serif"
       font-size="14px"
       id="text1137">GCGTACG</text>
  </g>
  <g
     id="edge9"
     class="edge"
     transform="translate(128.57364,1097.043)">
    <title
       id="title1140">GCGTACG-&gt;GTACGGC</title>
    <path
       fill="none"
       stroke="#000000"
       d="m 68.84,-783.61 c 12.67,12.82 30.45,30.81 44.62,45.15"
       id="path1142" />
    <polygon
       fill="#000000"
       stroke="#000000"
       points="110.98,-735.99 115.96,-740.91 120.5,-731.34 "
       id="polygon1144" />
    <text
       text-anchor="middle"
       x="104.15"
       y="-753.79999"
       font-family="Times, serif"
       font-size="14px"
       id="text1146">5</text>
  </g>
  <g
     id="edge10"
     class="edge"
     transform="translate(128.57364,1097.043)">
    <title
       id="title1149">GCGTACG-&gt;TACGGCG</title>
    <path
       fill="none"
       stroke="#000000"
       d="m 52.65,-782.88 c 0,29.88 0,91.77 0,127.61"
       id="path1151" />
    <polygon
       fill="#000000"
       stroke="#000000"
       points="49.15,-655.05 56.15,-655.05 52.65,-645.05 "
       id="polygon1153" />
    <text
       text-anchor="middle"
       x="56.150002"
       y="-710.29999"
       font-family="Times, serif"
       font-size="14px"
       id="text1155">4</text>
  </g>
  <g
     id="edge30"
     class="edge"
     transform="translate(128.57364,1097.043)">
    <title
       id="title1158">GGCGCCG-&gt;GCGCCGC</title>
    <path
       fill="none"
       stroke="#000000"
       d="m 158.94,-435.21 c 5.95,12.03 14.07,28.46 20.84,42.18"
       id="path1160" />
    <polygon
       fill="#000000"
       stroke="#000000"
       points="176.65,-391.46 182.93,-394.57 184.22,-384.05 "
       id="polygon1162" />
    <text
       text-anchor="middle"
       x="177.14999"
       y="-405.79999"
       font-family="Times, serif"
       font-size="14px"
       id="text1164">6</text>
  </g>
  <g
     id="edge31"
     class="edge"
     transform="translate(128.57364,1097.043)">
    <title
       id="title1167">GGCGCCG-&gt;CGCCGCT</title>
    <path
       fill="none"
       stroke="#000000"
       d="m 142.43,-435.1 c -6.19,13.51 -14.35,33.09 -18.78,51.1 -6.3,25.52 -8.99,55.43 -10.14,76.61"
       id="path1169" />
    <polygon
       fill="#000000"
       stroke="#000000"
       points="110,-307.33 116.99,-307.01 113.03,-297.18 "
       id="polygon1171" />
    <text
       text-anchor="middle"
       x="127.15"
       y="-362.29999"
       font-family="Times, serif"
       font-size="14px"
       id="text1173">5</text>
  </g>
  <g
     id="node18"
     class="node"
     transform="translate(128.57364,1097.043)">
    <title
       id="title1176">GCCGCTA</title>
    <ellipse
       fill="none"
       stroke="#000000"
       cx="272.64999"
       cy="-192"
       rx="51.990002"
       ry="18"
       id="ellipse1178" />
    <text
       text-anchor="middle"
       x="272.64999"
       y="-188.3"
       font-family="Times, serif"
       font-size="14px"
       id="text1180">GCCGCTA</text>
  </g>
  <g
     id="edge32"
     class="edge"
     transform="translate(128.57364,1097.043)">
    <title
       id="title1183">GGCGCCG-&gt;GCCGCTA</title>
    <path
       fill="none"
       stroke="#000000"
       d="m 184.99,-439.04 c 23.78,10.88 53.89,28.9 69.66,55.04 30.9,51.22 27.3,124.59 22.4,163.81"
       id="path1185" />
    <polygon
       fill="#000000"
       stroke="#000000"
       points="273.55,-220.46 280.49,-219.51 275.66,-210.08 "
       id="polygon1187" />
    <text
       text-anchor="middle"
       x="280.14999"
       y="-318.79999"
       font-family="Times, serif"
       font-size="14px"
       id="text1189">4</text>
  </g>
  <g
     id="node19"
     class="node"
     transform="translate(518.57364,1877.043)">
    <title
       id="title1192">GCGCGTA</title>
    <ellipse
       fill="none"
       stroke="#000000"
       cx="52.650002"
       cy="-975"
       rx="52.790001"
       ry="18"
       id="ellipse1194" />
    <text
       text-anchor="middle"
       x="52.650002"
       y="-971.29999"
       font-family="Times, serif"
       font-size="14px"
       id="text1196">GCGCGTA</text>
  </g>
  <g
     id="edge38"
     class="edge"
     transform="translate(518.57364,1877.043)">
    <title
       id="title1199">TTGCGCG-&gt;GCGCGTA</title>
    <path
       fill="none"
       stroke="#000000"
       d="m 105.61,-1044.21 c -9.65,12.42 -22.94,29.54 -33.79,43.51"
       id="path1201" />
    <polygon
       fill="#000000"
       stroke="#000000"
       points="68.8,-1002.51 74.33,-998.22 65.43,-992.47 "
       id="polygon1203" />
    <text
       text-anchor="middle"
       x="93.150002"
       y="-1014.8"
       font-family="Times, serif"
       font-size="14px"
       id="text1205">5</text>
  </g>
  <g
     id="node20"
     class="node"
     transform="translate(128.57364,1097.043)">
    <title
       id="title1208">CGCGTAC</title>
    <ellipse
       fill="none"
       stroke="#000000"
       cx="135.64999"
       cy="-888"
       rx="51.990002"
       ry="18"
       id="ellipse1210" />
    <text
       text-anchor="middle"
       x="135.64999"
       y="-884.29999"
       font-family="Times, serif"
       font-size="14px"
       id="text1212">CGCGTAC</text>
  </g>
  <text
     text-anchor="middle"
     x="273.28519"
     y="148.23665"
     font-family="Times, serif"
     font-size="14px"
     id="text1221">4</text>
  <g
     id="node14"
     class="node"
     transform="translate(128.57364,1097.043)">
    <title
       id="title1224">CCGCTAC</title>
    <ellipse
       fill="none"
       stroke="#000000"
       cx="184.64999"
       cy="-105"
       rx="51.990002"
       ry="18"
       id="ellipse1226" />
    <text
       text-anchor="middle"
       x="184.64999"
       y="-101.3"
       font-family="Times, serif"
       font-size="14px"
       id="text1228">CCGCTAC</text>
  </g>
  <g
     id="node15"
     class="node"
     transform="translate(128.57364,1097.043)">
    <title
       id="title1231">CGCTACA</title>
    <ellipse
       fill="none"
       stroke="#000000"
       cx="184.64999"
       cy="-18"
       rx="51.990002"
       ry="18"
       id="ellipse1233" />
    <text
       text-anchor="middle"
       x="184.64999"
       y="-14.3"
       font-family="Times, serif"
       font-size="14px"
       id="text1235">CGCTACA</text>
  </g>
  <g
     id="edge17"
     class="edge"
     transform="translate(128.57364,1097.043)">
    <title
       id="title1238">CCGCTAC-&gt;CGCTACA</title>
    <path
       fill="none"
       stroke="#000000"
       d="m 184.65,-86.8 c 0,11.64 0,27.25 0,40.56"
       id="path1240" />
    <polygon
       fill="#000000"
       stroke="#000000"
       points="181.15,-46.18 188.15,-46.18 184.65,-36.18 "
       id="polygon1242" />
    <text
       text-anchor="middle"
       x="188.14999"
       y="-57.799999"
       font-family="Times, serif"
       font-size="14px"
       id="text1244">6</text>
  </g>
  <g
     id="edge23"
     class="edge"
     transform="translate(128.57364,1097.043)">
    <title
       id="title1247">GCGCCGC-&gt;CCGCTAC</title>
    <path
       fill="none"
       stroke="#000000"
       d="m 192.11,-347.6 c -1.37,44.14 -4.97,160.77 -6.62,214.18"
       id="path1249" />
    <polygon
       fill="#000000"
       stroke="#000000"
       points="181.99,-133.42 188.99,-133.21 185.18,-123.32 "
       id="polygon1251" />
    <text
       text-anchor="middle"
       x="192.14999"
       y="-231.8"
       font-family="Times, serif"
       font-size="14px"
       id="text1253">4</text>
  </g>
  <g
     id="edge24"
     class="edge"
     transform="translate(128.57364,1097.043)">
    <title
       id="title1256">GCGCCGC-&gt;CGCCGCT</title>
    <path
       fill="none"
       stroke="#000000"
       d="m 177.22,-348.61 c -11.95,12.7 -28.68,30.48 -42.12,44.75"
       id="path1258" />
    <polygon
       fill="#000000"
       stroke="#000000"
       points="132.33,-306.02 137.43,-301.22 128.02,-296.34 "
       id="polygon1260" />
    <text
       text-anchor="middle"
       x="160.14999"
       y="-318.79999"
       font-family="Times, serif"
       font-size="14px"
       id="text1262">6</text>
  </g>
  <g
     id="edge25"
     class="edge"
     transform="translate(128.57364,1097.043)">
    <title
       id="title1265">GCGCCGC-&gt;GCCGCTA</title>
    <path
       fill="none"
       stroke="#000000"
       d="m 200.61,-347.88 c 14.05,30.21 43.33,93.16 59.91,128.8"
       id="path1267" />
    <polygon
       fill="#000000"
       stroke="#000000"
       points="257.44,-217.39 263.79,-220.34 264.83,-209.8 "
       id="polygon1269" />
    <text
       text-anchor="middle"
       x="243.14999"
       y="-275.29999"
       font-family="Times, serif"
       font-size="14px"
       id="text1271">5</text>
  </g>
  <g
     id="edge34"
     class="edge"
     transform="translate(128.57364,1097.043)">
    <title
       id="title1274">CGCCGCT-&gt;CCGCTAC</title>
    <path
       fill="none"
       stroke="#000000"
       d="m 119.81,-260.88 c 12.62,30.14 38.86,92.84 53.8,128.53"
       id="path1276" />
    <polygon
       fill="#000000"
       stroke="#000000"
       points="170.42,-130.92 176.87,-133.63 177.51,-123.05 "
       id="polygon1278" />
    <text
       text-anchor="middle"
       x="159.14999"
       y="-188.3"
       font-family="Times, serif"
       font-size="14px"
       id="text1280">5</text>
  </g>
  <g
     id="edge33"
     class="edge"
     transform="translate(128.57364,1097.043)">
    <title
       id="title1283">CGCCGCT-&gt;CGCTACA</title>
    <path
       fill="none"
       stroke="#000000"
       d="m 109.98,-260.82 c -4.58,34.5 -11.22,114.02 13.67,173.82 7.21,17.34 20.8,33.19 33.33,45.21"
       id="path1285" />
    <polygon
       fill="#000000"
       stroke="#000000"
       points="154.84,-39 159.58,-44.15 164.58,-34.81 "
       id="polygon1287" />
    <text
       text-anchor="middle"
       x="113.15"
       y="-144.8"
       font-family="Times, serif"
       font-size="14px"
       id="text1289">4</text>
  </g>
  <g
     id="edge35"
     class="edge"
     transform="translate(128.57364,1097.043)">
    <title
       id="title1292">CGCCGCT-&gt;GCCGCTA</title>
    <path
       fill="none"
       stroke="#000000"
       d="m 126.48,-261.61 c 9.93,10.86 24.16,24.69 39.17,33.61 16.65,9.9 36.46,17.38 54.47,22.83"
       id="path1294" />
    <polygon
       fill="#000000"
       stroke="#000000"
       points="219.33,-201.75 221.27,-208.48 229.91,-202.35 "
       id="polygon1296" />
    <text
       text-anchor="middle"
       x="169.14999"
       y="-231.8"
       font-family="Times, serif"
       font-size="14px"
       id="text1298">6</text>
  </g>
  <g
     id="edge41"
     class="edge"
     transform="translate(128.57364,1097.043)">
    <title
       id="title1301">GCCGCTA-&gt;CCGCTAC</title>
    <path
       fill="none"
       stroke="#000000"
       d="m 255.68,-174.61 c -13.27,12.82 -31.9,30.81 -46.75,45.15"
       id="path1303" />
    <polygon
       fill="#000000"
       stroke="#000000"
       points="206.32,-131.8 211.18,-126.77 201.56,-122.34 "
       id="polygon1305" />
    <text
       text-anchor="middle"
       x="237.14999"
       y="-144.8"
       font-family="Times, serif"
       font-size="14px"
       id="text1307">6</text>
  </g>
  <g
     id="edge40"
     class="edge"
     transform="translate(128.57364,1097.043)">
    <title
       id="title1310">GCCGCTA-&gt;CGCTACA</title>
    <path
       fill="none"
       stroke="#000000"
       d="m 270.73,-173.89 c -2.94,21.39 -9.91,58.62 -25.08,86.89 -8.95,16.66 -22.8,32.56 -35.04,44.78"
       id="path1312" />
    <polygon
       fill="#000000"
       stroke="#000000"
       points="208.01,-44.57 212.88,-39.54 203.25,-35.1 "
       id="polygon1314" />
    <text
       text-anchor="middle"
       x="262.14999"
       y="-101.3"
       font-family="Times, serif"
       font-size="14px"
       id="text1316">5</text>
  </g>
  <text
     text-anchor="middle"
     x="310.89261"
     y="150.0677"
     font-family="Times, serif"
     font-size="14px"
     id="text1334">6</text>
  <g
     id="edge42"
     class="edge"
     transform="translate(128.57364,1097.043)">
    <title
       id="title1337">CGCGTAC-&gt;GTACGGC</title>
    <path
       fill="none"
       stroke="#000000"
       d="m 135.74,-869.88 c 0.18,29.88 0.54,91.77 0.75,127.61"
       id="path1339" />
    <polygon
       fill="#000000"
       stroke="#000000"
       points="132.99,-742.03 139.99,-742.07 136.55,-732.05 "
       id="polygon1341" />
    <text
       text-anchor="middle"
       x="139.14999"
       y="-797.29999"
       font-family="Times, serif"
       font-size="14px"
       id="text1343">4</text>
  </g>
  <g
     id="edge43"
     class="edge"
     transform="translate(128.57364,1097.043)">
    <title
       id="title1346">CGCGTAC-&gt;GCGTACG</title>
    <path
       fill="none"
       stroke="#000000"
       d="m 119.64,-870.61 c -12.4,12.7 -29.76,30.48 -43.7,44.75"
       id="path1348" />
    <polygon
       fill="#000000"
       stroke="#000000"
       points="73.08,-827.94 78.09,-823.05 68.6,-818.34 "
       id="polygon1350" />
    <text
       text-anchor="middle"
       x="103.15"
       y="-840.79999"
       font-family="Times, serif"
       font-size="14px"
       id="text1352">6</text>
  </g>
  <path
     style="fill:none;stroke:#000000;stroke-width:1.00063;stroke-linecap:butt;stroke-linejoin:miter;stroke-miterlimit:3.9;stroke-dasharray:none;stroke-opacity:1;marker-start:url(#marker1904)"
     d="M 166.59868,269.51694 C 168.11115,181.79399 169.62363,94.070288 215.75474,50.208054 261.88585,6.3458209 352.63269,6.3458209 401.78867,182.80545 c 49.15598,176.45962 56.71822,529.36402 78.02517,681.66647 21.30694,152.30248 56.35773,103.99763 91.4098,55.69106"
     id="path1534"
     inkscape:path-effect="#path-effect1536"
     inkscape:original-d="m 166.59868,269.51694 c 1.51173,-87.72296 3.02421,-175.446665 4.53744,-263.1711191 90.74973,7.5e-4 181.49657,7.5e-4 272.24598,0 7.56179,352.9192691 15.12403,705.8236691 22.68716,1058.7343791 35.05142,-48.3059 70.10217,-96.61075 105.15438,-144.91722" />
  <text
     text-anchor="middle"
     x="157.72365"
     y="208.243"
     font-family="Times, serif"
     font-size="14px"
     id="text1998">5</text>
  <path
     style="fill:none;stroke:#000000;stroke-width:1.00063;stroke-linecap:butt;stroke-linejoin:miter;stroke-miterlimit:4;stroke-dasharray:none;stroke-opacity:1;marker-end:url(#Arrow1Lend)"
     d="m 658.15393,835.18359 c 0.50416,111.41991 1.00832,222.83921 -105.1197,279.30461 C 446.9062,1170.9537 234.15526,1172.4661 125.76136,993.23429 17.36746,814.00244 13.334267,454.03996 52.154943,274.56204 90.975618,95.084115 171.63953,96.08615 214.20788,111.21609 c 42.56835,15.12995 46.66867,45.36982 50.70185,75.11457"
     id="path2311"
     inkscape:path-effect="#path-effect2313"
     inkscape:original-d="m 658.15393,835.18359 c 0.50341,111.41991 1.00757,222.83921 1.51248,334.25761 -212.7602,1.5133 -425.51114,3.0257 -638.265604,4.5374 C 17.366706,814.00245 13.333506,454.03997 9.3009857,94.069525 90.975686,95.078612 171.63952,96.086912 252.80992,97.094477 c 4.0326,29.242573 8.06579,59.491543 12.09981,89.236183" />
  <path
     style="fill:none;stroke:#000000;stroke-width:1.00063;stroke-linecap:butt;stroke-linejoin:miter;stroke-miterlimit:3.9;stroke-dasharray:none;stroke-opacity:1;marker-start:url(#marker1904)"
     d="M 287.04641,183.9322 C 298.82539,125.74593 310.60432,67.559958 336.66049,37.961209 362.71666,8.36246 403.04859,7.3541602 426.99662,183.30962 c 23.94803,175.95545 31.51027,528.85985 52.81722,681.1623 21.30694,152.30248 56.35773,103.99763 91.4098,55.69106"
     id="path2558"
     inkscape:path-effect="#path-effect2562"
     inkscape:original-d="m 287.04641,183.9322 c 11.77841,-58.18639 23.55733,-116.372359 35.33748,-174.5614191 40.33279,-1.00759 80.66472,-2.01589 120.99821,-3.02496 7.56179,352.9192691 15.12403,705.8236691 22.68716,1058.7343791 35.05142,-48.3059 70.10217,-96.61075 105.15438,-144.91722"
     sodipodi:nodetypes="ccccc" />
</svg>
