<?xml version="1.0" encoding="UTF-8" standalone="no"?>
<!-- Generated by graphviz version 3.0.0 (20220226.1711)
 -->

<!-- Title: G Pages: 1 -->

<svg
   width="562.83423pt"
   height="1001.2347pt"
   viewBox="0 0 562.11997 1001.2347"
   version="1.1"
   id="svg1193"
   sodipodi:docname="test.svg"
   inkscape:version="1.1.1 (c3084ef, 2021-09-22)"
   xmlns:inkscape="http://www.inkscape.org/namespaces/inkscape"
   xmlns:sodipodi="http://sodipodi.sourceforge.net/DTD/sodipodi-0.dtd"
   xmlns="http://www.w3.org/2000/svg"
   xmlns:svg="http://www.w3.org/2000/svg">
  <defs
     id="defs1197">
    <marker
       style="overflow:visible"
       id="Arrow1Lend"
       refX="0"
       refY="0"
       orient="auto"
       inkscape:stockid="Arrow1Lend"
       inkscape:isstock="true">
      <path
         transform="matrix(-0.8,0,0,-0.8,-10,0)"
         style="fill:context-stroke;fill-rule:evenodd;stroke:context-stroke;stroke-width:1pt"
         d="M 0,0 5,-5 -12.5,0 5,5 Z"
         id="path1608" />
    </marker>
    <inkscape:path-effect
       effect="bspline"
       id="path-effect1603"
       is_visible="true"
       lpeversion="1"
       weight="33.333333"
       steps="2"
       helper_size="0"
       apply_no_weight="true"
       apply_with_weight="true"
       only_selected="false" />
  </defs>
  <sodipodi:namedview
     id="namedview1195"
     pagecolor="#ffffff"
     bordercolor="#999999"
     borderopacity="1"
     inkscape:pageshadow="0"
     inkscape:pageopacity="0"
     inkscape:pagecheckerboard="0"
     inkscape:document-units="pt"
     showgrid="false"
     fit-margin-top="0"
     fit-margin-left="0"
     fit-margin-right="0"
     fit-margin-bottom="0"
     inkscape:zoom="0.17500893"
     inkscape:cx="499.97449"
     inkscape:cy="1128.5139"
     inkscape:window-width="1280"
     inkscape:window-height="747"
     inkscape:window-x="0"
     inkscape:window-y="25"
     inkscape:window-maximized="0"
     inkscape:current-layer="svg1193" />
  <polygon
     fill="#ffffff"
     stroke="transparent"
     points="192.75,-1696 192.75,4 -4,4 -4,-1696 "
     id="polygon826"
     transform="matrix(2.8606567,0,0,0.58896158,11.317634,998.87884)"
     style="stroke-width:0.770413" />
  <g
     id="node1"
     class="node"
     transform="translate(3.8750072,1777.4244)">
    <title
       id="title828">GTGC</title>
    <ellipse
       fill="none"
       stroke="#000000"
       cx="124.75"
       cy="-1674"
       rx="34.389999"
       ry="18"
       id="ellipse830" />
    <text
       text-anchor="middle"
       x="124.75"
       y="-1670.3"
       font-family="Times, serif"
       font-size="14px"
       id="text832">GTGC</text>
  </g>
  <g
     id="node2"
     class="node"
     transform="translate(3.8750072,1777.4244)">
    <title
       id="title835">TGCG</title>
    <ellipse
       fill="none"
       stroke="#000000"
       cx="124.75"
       cy="-1602"
       rx="34.389999"
       ry="18"
       id="ellipse837" />
    <text
       text-anchor="middle"
       x="124.75"
       y="-1598.3"
       font-family="Times, serif"
       font-size="14px"
       id="text839">TGCG</text>
  </g>
  <g
     id="edge1"
     class="edge"
     transform="translate(3.8750072,1777.4244)">
    <title
       id="title842">GTGC-&gt;TGCG</title>
    <path
       fill="none"
       stroke="#000000"
       d="m 124.75,-1655.7 c 0,7.72 0,16.99 0,25.59"
       id="path844" />
    <polygon
       fill="#000000"
       stroke="#000000"
       points="124.75,-1620.1 121.25,-1630.1 128.25,-1630.1 "
       id="polygon846" />
  </g>
  <g
     id="node3"
     class="node"
     transform="translate(3.8750072,1777.4244)">
    <title
       id="title849">GCGC</title>
    <ellipse
       fill="none"
       stroke="#000000"
       cx="124.75"
       cy="-1530"
       rx="35.189999"
       ry="18"
       id="ellipse851" />
    <text
       text-anchor="middle"
       x="124.75"
       y="-1526.3"
       font-family="Times, serif"
       font-size="14px"
       id="text853">GCGC</text>
  </g>
  <g
     id="edge2"
     class="edge"
     transform="translate(3.8750072,1777.4244)">
    <title
       id="title856">TGCG-&gt;GCGC</title>
    <path
       fill="none"
       stroke="#000000"
       d="m 124.75,-1583.7 c 0,7.72 0,16.99 0,25.59"
       id="path858" />
    <polygon
       fill="#000000"
       stroke="#000000"
       points="124.75,-1548.1 121.25,-1558.1 128.25,-1558.1 "
       id="polygon860" />
  </g>
  <g
     id="node4"
     class="node"
     transform="translate(3.8750072,1777.4244)">
    <title
       id="title863">CGCT</title>
    <ellipse
       fill="none"
       stroke="#000000"
       cx="124.75"
       cy="-1458"
       rx="34.389999"
       ry="18"
       id="ellipse865" />
    <text
       text-anchor="middle"
       x="124.75"
       y="-1454.3"
       font-family="Times, serif"
       font-size="14px"
       id="text867">CGCT</text>
  </g>
  <g
     id="edge3"
     class="edge"
     transform="translate(3.8750072,1777.4244)">
    <title
       id="title870">GCGC-&gt;CGCT</title>
    <path
       fill="none"
       stroke="#000000"
       d="m 124.75,-1511.7 c 0,7.72 0,16.99 0,25.59"
       id="path872" />
    <polygon
       fill="#000000"
       stroke="#000000"
       points="124.75,-1476.1 121.25,-1486.1 128.25,-1486.1 "
       id="polygon874" />
  </g>
  <g
     id="node5"
     class="node"
     transform="translate(3.8750072,1777.4244)">
    <title
       id="title877">GCTA</title>
    <ellipse
       fill="none"
       stroke="#000000"
       cx="124.75"
       cy="-1386"
       rx="34.389999"
       ry="18"
       id="ellipse879" />
    <text
       text-anchor="middle"
       x="124.75"
       y="-1382.3"
       font-family="Times, serif"
       font-size="14px"
       id="text881">GCTA</text>
  </g>
  <g
     id="edge4"
     class="edge"
     transform="translate(3.8750072,1777.4244)">
    <title
       id="title884">CGCT-&gt;GCTA</title>
    <path
       fill="none"
       stroke="#000000"
       d="m 124.75,-1439.7 c 0,7.72 0,16.99 0,25.59"
       id="path886" />
    <polygon
       fill="#000000"
       stroke="#000000"
       points="124.75,-1404.1 121.25,-1414.1 128.25,-1414.1 "
       id="polygon888" />
  </g>
  <g
     id="node6"
     class="node"
     transform="translate(3.8750072,1777.4244)">
    <title
       id="title891">CTAA</title>
    <ellipse
       fill="none"
       stroke="#000000"
       cx="124.75"
       cy="-1314"
       rx="34.389999"
       ry="18"
       id="ellipse893" />
    <text
       text-anchor="middle"
       x="124.75"
       y="-1310.3"
       font-family="Times, serif"
       font-size="14px"
       id="text895">CTAA</text>
  </g>
  <g
     id="edge5"
     class="edge"
     transform="translate(3.8750072,1777.4244)">
    <title
       id="title898">GCTA-&gt;CTAA</title>
    <path
       fill="none"
       stroke="#000000"
       d="m 124.75,-1367.7 c 0,7.72 0,16.99 0,25.59"
       id="path900" />
    <polygon
       fill="#000000"
       stroke="#000000"
       points="124.75,-1332.1 121.25,-1342.1 128.25,-1342.1 "
       id="polygon902" />
  </g>
  <g
     id="node7"
     class="node"
     transform="translate(3.8750072,1777.4244)">
    <title
       id="title905">TAAT</title>
    <ellipse
       fill="none"
       stroke="#000000"
       cx="124.75"
       cy="-1242"
       rx="32.490002"
       ry="18"
       id="ellipse907" />
    <text
       text-anchor="middle"
       x="124.75"
       y="-1238.3"
       font-family="Times, serif"
       font-size="14px"
       id="text909">TAAT</text>
  </g>
  <g
     id="edge6"
     class="edge"
     transform="translate(3.8750072,1777.4244)">
    <title
       id="title912">CTAA-&gt;TAAT</title>
    <path
       fill="none"
       stroke="#000000"
       d="m 124.75,-1295.7 c 0,7.72 0,16.99 0,25.59"
       id="path914" />
    <polygon
       fill="#000000"
       stroke="#000000"
       points="124.75,-1260.1 121.25,-1270.1 128.25,-1270.1 "
       id="polygon916" />
  </g>
  <g
     id="node8"
     class="node"
     transform="translate(3.8750072,1777.4244)">
    <title
       id="title919">AATC</title>
    <ellipse
       fill="none"
       stroke="#000000"
       cx="124.75"
       cy="-1170"
       rx="33.599998"
       ry="18"
       id="ellipse921" />
    <text
       text-anchor="middle"
       x="124.75"
       y="-1166.3"
       font-family="Times, serif"
       font-size="14px"
       id="text923">AATC</text>
  </g>
  <g
     id="edge7"
     class="edge"
     transform="translate(3.8750072,1777.4244)">
    <title
       id="title926">TAAT-&gt;AATC</title>
    <path
       fill="none"
       stroke="#000000"
       d="m 124.75,-1223.7 c 0,7.72 0,16.99 0,25.59"
       id="path928" />
    <polygon
       fill="#000000"
       stroke="#000000"
       points="124.75,-1188.1 121.25,-1198.1 128.25,-1198.1 "
       id="polygon930" />
  </g>
  <g
     id="node9"
     class="node"
     transform="translate(3.8750072,1777.4244)">
    <title
       id="title933">ATCG</title>
    <ellipse
       fill="none"
       stroke="#000000"
       cx="124.75"
       cy="-1098"
       rx="33.599998"
       ry="18"
       id="ellipse935" />
    <text
       text-anchor="middle"
       x="124.75"
       y="-1094.3"
       font-family="Times, serif"
       font-size="14px"
       id="text937">ATCG</text>
  </g>
  <g
     id="edge8"
     class="edge"
     transform="translate(3.8750072,1777.4244)">
    <title
       id="title940">AATC-&gt;ATCG</title>
    <path
       fill="none"
       stroke="#000000"
       d="m 124.75,-1151.7 c 0,7.72 0,16.99 0,25.59"
       id="path942" />
    <polygon
       fill="#000000"
       stroke="#000000"
       points="124.75,-1116.1 121.25,-1126.1 128.25,-1126.1 "
       id="polygon944" />
  </g>
  <g
     id="node10"
     class="node"
     transform="translate(3.8750072,1777.4244)">
    <title
       id="title947">TCGG</title>
    <ellipse
       fill="none"
       stroke="#000000"
       cx="124.75"
       cy="-1026"
       rx="34.389999"
       ry="18"
       id="ellipse949" />
    <text
       text-anchor="middle"
       x="124.75"
       y="-1022.3"
       font-family="Times, serif"
       font-size="14px"
       id="text951">TCGG</text>
  </g>
  <g
     id="edge9"
     class="edge"
     transform="translate(3.8750072,1777.4244)">
    <title
       id="title954">ATCG-&gt;TCGG</title>
    <path
       fill="none"
       stroke="#000000"
       d="m 124.75,-1079.7 c 0,7.72 0,16.99 0,25.59"
       id="path956" />
    <polygon
       fill="#000000"
       stroke="#000000"
       points="124.75,-1044.1 121.25,-1054.1 128.25,-1054.1 "
       id="polygon958" />
  </g>
  <g
     id="node11"
     class="node"
     transform="translate(3.8750072,1777.4244)">
    <title
       id="title961">CGGA</title>
    <ellipse
       fill="none"
       stroke="#000000"
       cx="124.75"
       cy="-954"
       rx="36"
       ry="18"
       id="ellipse963" />
    <text
       text-anchor="middle"
       x="124.75"
       y="-950.29999"
       font-family="Times, serif"
       font-size="14px"
       id="text965">CGGA</text>
  </g>
  <g
     id="edge10"
     class="edge"
     transform="translate(3.8750072,1777.4244)">
    <title
       id="title968">TCGG-&gt;CGGA</title>
    <path
       fill="none"
       stroke="#000000"
       d="m 124.75,-1007.7 c 0,7.72 0,16.99 0,25.59"
       id="path970" />
    <polygon
       fill="#000000"
       stroke="#000000"
       points="124.75,-972.1 121.25,-982.1 128.25,-982.1 "
       id="polygon972" />
  </g>
  <g
     id="node12"
     class="node"
     transform="translate(303.875,982.4244)">
    <title
       id="title975">GGAG</title>
    <ellipse
       fill="none"
       stroke="#000000"
       cx="124.75"
       cy="-882"
       rx="36.290001"
       ry="18"
       id="ellipse977" />
    <text
       text-anchor="middle"
       x="124.75"
       y="-878.29999"
       font-family="Times, serif"
       font-size="14px"
       id="text979">GGAG</text>
  </g>
  <g
     id="node13"
     class="node"
     transform="translate(303.875,982.4244)">
    <title
       id="title989">GAGA</title>
    <ellipse
       fill="none"
       stroke="#000000"
       cx="124.75"
       cy="-810"
       rx="36.290001"
       ry="18"
       id="ellipse991" />
    <text
       text-anchor="middle"
       x="124.75"
       y="-806.29999"
       font-family="Times, serif"
       font-size="14px"
       id="text993">GAGA</text>
  </g>
  <g
     id="edge12"
     class="edge"
     transform="translate(303.875,982.4244)">
    <title
       id="title996">GGAG-&gt;GAGA</title>
    <path
       fill="none"
       stroke="#000000"
       d="m 124.75,-863.7 c 0,7.72 0,16.99 0,25.59"
       id="path998" />
    <polygon
       fill="#000000"
       stroke="#000000"
       points="128.25,-838.1 124.75,-828.1 121.25,-838.1 "
       id="polygon1000" />
  </g>
  <g
     id="node14"
     class="node"
     transform="translate(303.875,982.4244)">
    <title
       id="title1003">AGAC</title>
    <ellipse
       fill="none"
       stroke="#000000"
       cx="124.75"
       cy="-738"
       rx="36"
       ry="18"
       id="ellipse1005" />
    <text
       text-anchor="middle"
       x="124.75"
       y="-734.29999"
       font-family="Times, serif"
       font-size="14px"
       id="text1007">AGAC</text>
  </g>
  <g
     id="edge13"
     class="edge"
     transform="translate(303.875,982.4244)">
    <title
       id="title1010">GAGA-&gt;AGAC</title>
    <path
       fill="none"
       stroke="#000000"
       d="m 124.75,-791.7 c 0,7.72 0,16.99 0,25.59"
       id="path1012" />
    <polygon
       fill="#000000"
       stroke="#000000"
       points="128.25,-766.1 124.75,-756.1 121.25,-766.1 "
       id="polygon1014" />
  </g>
  <g
     id="node15"
     class="node"
     transform="translate(303.875,982.4244)">
    <title
       id="title1017">GACG</title>
    <ellipse
       fill="none"
       stroke="#000000"
       cx="35.75"
       cy="-666"
       rx="36"
       ry="18"
       id="ellipse1019" />
    <text
       text-anchor="middle"
       x="35.75"
       y="-662.29999"
       font-family="Times, serif"
       font-size="14px"
       id="text1021">GACG</text>
  </g>
  <g
     id="edge14"
     class="edge"
     transform="translate(303.875,982.4244)">
    <title
       id="title1024">AGAC-&gt;GACG</title>
    <path
       fill="none"
       stroke="#000000"
       d="m 106.31,-722.5 c -12.77,10.05 -29.96,23.57 -44.18,34.75"
       id="path1026" />
    <polygon
       fill="#000000"
       stroke="#000000"
       points="64.19,-684.92 54.16,-681.49 59.86,-690.42 "
       id="polygon1028" />
  </g>
  <g
     id="node16"
     class="node"
     transform="translate(303.875,982.4244)">
    <title
       id="title1031">GACA</title>
    <ellipse
       fill="none"
       stroke="#000000"
       cx="124.75"
       cy="-666"
       rx="36"
       ry="18"
       id="ellipse1033" />
    <text
       text-anchor="middle"
       x="124.75"
       y="-662.29999"
       font-family="Times, serif"
       font-size="14px"
       id="text1035">GACA</text>
  </g>
  <g
     id="edge15"
     class="edge"
     transform="translate(303.875,982.4244)">
    <title
       id="title1038">AGAC-&gt;GACA</title>
    <path
       fill="none"
       stroke="#000000"
       d="m 124.75,-719.7 c 0,7.72 0,16.99 0,25.59"
       id="path1040" />
    <polygon
       fill="#000000"
       stroke="#000000"
       points="128.25,-694.1 124.75,-684.1 121.25,-694.1 "
       id="polygon1042" />
  </g>
  <g
     id="node17"
     class="node"
     transform="translate(303.875,982.4244)">
    <title
       id="title1045">ACGA</title>
    <ellipse
       fill="none"
       stroke="#000000"
       cx="35.75"
       cy="-594"
       rx="36"
       ry="18"
       id="ellipse1047" />
    <text
       text-anchor="middle"
       x="35.75"
       y="-590.29999"
       font-family="Times, serif"
       font-size="14px"
       id="text1049">ACGA</text>
  </g>
  <g
     id="edge16"
     class="edge"
     transform="translate(303.875,982.4244)">
    <title
       id="title1052">GACG-&gt;ACGA</title>
    <path
       fill="none"
       stroke="#000000"
       d="m 35.75,-647.7 c 0,7.72 0,16.99 0,25.59"
       id="path1054" />
    <polygon
       fill="#000000"
       stroke="#000000"
       points="39.25,-622.1 35.75,-612.1 32.25,-622.1 "
       id="polygon1056" />
  </g>
  <g
     id="node26"
     class="node"
     transform="translate(303.875,982.4244)">
    <title
       id="title1059">ACAC</title>
    <ellipse
       fill="none"
       stroke="#000000"
       cx="124.75"
       cy="-594"
       rx="35.189999"
       ry="18"
       id="ellipse1061" />
    <text
       text-anchor="middle"
       x="124.75"
       y="-590.29999"
       font-family="Times, serif"
       font-size="14px"
       id="text1063">ACAC</text>
  </g>
  <g
     id="edge26"
     class="edge"
     transform="translate(303.875,982.4244)">
    <title
       id="title1066">GACA-&gt;ACAC</title>
    <path
       fill="none"
       stroke="#000000"
       d="m 124.75,-647.7 c 0,7.72 0,16.99 0,25.59"
       id="path1068" />
    <polygon
       fill="#000000"
       stroke="#000000"
       points="128.25,-622.1 124.75,-612.1 121.25,-622.1 "
       id="polygon1070" />
  </g>
  <g
     id="node18"
     class="node"
     transform="translate(303.875,982.4244)">
    <title
       id="title1073">CGAA</title>
    <ellipse
       fill="none"
       stroke="#000000"
       cx="80.75"
       cy="-522"
       rx="36"
       ry="18"
       id="ellipse1075" />
    <text
       text-anchor="middle"
       x="80.75"
       y="-518.29999"
       font-family="Times, serif"
       font-size="14px"
       id="text1077">CGAA</text>
  </g>
  <g
     id="edge17"
     class="edge"
     transform="translate(303.875,982.4244)">
    <title
       id="title1080">ACGA-&gt;CGAA</title>
    <path
       fill="none"
       stroke="#000000"
       d="m 46.18,-576.76 c 5.43,8.44 12.2,18.96 18.29,28.45"
       id="path1082" />
    <polygon
       fill="#000000"
       stroke="#000000"
       points="67.59,-549.94 70.05,-539.63 61.7,-546.15 "
       id="polygon1084" />
  </g>
  <g
     id="node19"
     class="node"
     transform="translate(303.875,982.4244)">
    <title
       id="title1087">GAAT</title>
    <ellipse
       fill="none"
       stroke="#000000"
       cx="80.75"
       cy="-450"
       rx="34.389999"
       ry="18"
       id="ellipse1089" />
    <text
       text-anchor="middle"
       x="80.75"
       y="-446.29999"
       font-family="Times, serif"
       font-size="14px"
       id="text1091">GAAT</text>
  </g>
  <g
     id="edge18"
     class="edge"
     transform="translate(303.875,982.4244)">
    <title
       id="title1094">CGAA-&gt;GAAT</title>
    <path
       fill="none"
       stroke="#000000"
       d="m 80.75,-503.7 c 0,7.72 0,16.99 0,25.59"
       id="path1096" />
    <polygon
       fill="#000000"
       stroke="#000000"
       points="84.25,-478.1 80.75,-468.1 77.25,-478.1 "
       id="polygon1098" />
  </g>
  <g
     id="node20"
     class="node"
     transform="translate(303.875,982.4244)">
    <title
       id="title1101">AATT</title>
    <ellipse
       fill="none"
       stroke="#000000"
       cx="80.75"
       cy="-378"
       rx="33.290001"
       ry="18"
       id="ellipse1103" />
    <text
       text-anchor="middle"
       x="80.75"
       y="-374.29999"
       font-family="Times, serif"
       font-size="14px"
       id="text1105">AATT</text>
  </g>
  <g
     id="edge19"
     class="edge"
     transform="translate(303.875,982.4244)">
    <title
       id="title1108">GAAT-&gt;AATT</title>
    <path
       fill="none"
       stroke="#000000"
       d="m 80.75,-431.7 c 0,7.72 0,16.99 0,25.59"
       id="path1110" />
    <polygon
       fill="#000000"
       stroke="#000000"
       points="84.25,-406.1 80.75,-396.1 77.25,-406.1 "
       id="polygon1112" />
  </g>
  <g
     id="node21"
     class="node"
     transform="translate(303.875,982.4244)">
    <title
       id="title1115">ATTT</title>
    <ellipse
       fill="none"
       stroke="#000000"
       cx="80.75"
       cy="-306"
       rx="32.490002"
       ry="18"
       id="ellipse1117" />
    <text
       text-anchor="middle"
       x="80.75"
       y="-302.29999"
       font-family="Times, serif"
       font-size="14px"
       id="text1119">ATTT</text>
  </g>
  <g
     id="edge20"
     class="edge"
     transform="translate(303.875,982.4244)">
    <title
       id="title1122">AATT-&gt;ATTT</title>
    <path
       fill="none"
       stroke="#000000"
       d="m 80.75,-359.7 c 0,7.72 0,16.99 0,25.59"
       id="path1124" />
    <polygon
       fill="#000000"
       stroke="#000000"
       points="84.25,-334.1 80.75,-324.1 77.25,-334.1 "
       id="polygon1126" />
  </g>
  <g
     id="node22"
     class="node"
     transform="translate(303.875,982.4244)">
    <title
       id="title1129">TTTA</title>
    <ellipse
       fill="none"
       stroke="#000000"
       cx="80.75"
       cy="-234"
       rx="32.490002"
       ry="18"
       id="ellipse1131" />
    <text
       text-anchor="middle"
       x="80.75"
       y="-230.3"
       font-family="Times, serif"
       font-size="14px"
       id="text1133">TTTA</text>
  </g>
  <g
     id="edge21"
     class="edge"
     transform="translate(303.875,982.4244)">
    <title
       id="title1136">ATTT-&gt;TTTA</title>
    <path
       fill="none"
       stroke="#000000"
       d="m 80.75,-287.7 c 0,7.72 0,16.99 0,25.59"
       id="path1138" />
    <polygon
       fill="#000000"
       stroke="#000000"
       points="84.25,-262.1 80.75,-252.1 77.25,-262.1 "
       id="polygon1140" />
  </g>
  <g
     id="node23"
     class="node"
     transform="translate(303.875,982.4244)">
    <title
       id="title1143">TTAA</title>
    <ellipse
       fill="none"
       stroke="#000000"
       cx="81.75"
       cy="-162"
       rx="33.599998"
       ry="18"
       id="ellipse1145" />
    <text
       text-anchor="middle"
       x="81.75"
       y="-158.3"
       font-family="Times, serif"
       font-size="14px"
       id="text1147">TTAA</text>
  </g>
  <g
     id="edge22"
     class="edge"
     transform="translate(303.875,982.4244)">
    <title
       id="title1150">TTTA-&gt;TTAA</title>
    <path
       fill="none"
       stroke="#000000"
       d="m 80.99,-215.7 c 0.11,7.72 0.25,16.99 0.37,25.59"
       id="path1152" />
    <polygon
       fill="#000000"
       stroke="#000000"
       points="84.86,-190.15 81.5,-180.1 77.86,-190.05 "
       id="polygon1154" />
  </g>
  <g
     id="node24"
     class="node"
     transform="translate(303.875,982.4244)">
    <title
       id="title1157">TAAG</title>
    <ellipse
       fill="none"
       stroke="#000000"
       cx="104.75"
       cy="-90"
       rx="34.389999"
       ry="18"
       id="ellipse1159" />
    <text
       text-anchor="middle"
       x="104.75"
       y="-86.300003"
       font-family="Times, serif"
       font-size="14px"
       id="text1161">TAAG</text>
  </g>
  <g
     id="edge23"
     class="edge"
     transform="translate(303.875,982.4244)">
    <title
       id="title1164">TTAA-&gt;TAAG</title>
    <path
       fill="none"
       stroke="#000000"
       d="m 87.31,-144.05 c 2.63,7.99 5.83,17.72 8.76,26.65"
       id="path1166" />
    <polygon
       fill="#000000"
       stroke="#000000"
       points="99.43,-118.38 99.23,-107.79 92.78,-116.2 "
       id="polygon1168" />
  </g>
  <g
     id="node25"
     class="node"
     transform="translate(303.875,982.4244)">
    <title
       id="title1171">AAGA</title>
    <ellipse
       fill="none"
       stroke="#000000"
       cx="135.75"
       cy="-18"
       rx="36.290001"
       ry="18"
       id="ellipse1173" />
    <text
       text-anchor="middle"
       x="135.75"
       y="-14.3"
       font-family="Times, serif"
       font-size="14px"
       id="text1175">AAGA</text>
  </g>
  <g
     id="edge24"
     class="edge"
     transform="translate(303.875,982.4244)">
    <title
       id="title1178">TAAG-&gt;AAGA</title>
    <path
       fill="none"
       stroke="#000000"
       d="m 112.09,-72.41 c 3.58,8.07 7.97,17.98 11.99,27.06"
       id="path1180" />
    <polygon
       fill="#000000"
       stroke="#000000"
       points="127.39,-46.52 128.24,-35.96 120.99,-43.68 "
       id="polygon1182" />
  </g>
  <g
     id="edge25"
     class="edge"
     transform="translate(303.875,982.4244)">
    <title
       id="title1185">AAGA-&gt;AGAC</title>
    <path
       fill="none"
       stroke="#000000"
       d="m 146.22,-35.31 c 15.44,-25.66 42.53,-77.54 42.53,-125.69 0,-434 0,-434 0,-434 0,-40.45 -1.15,-52.71 -19,-89 -5.39,-10.95 -13.53,-21.51 -21.42,-30.29"
       id="path1187" />
    <polygon
       fill="#000000"
       stroke="#000000"
       points="145.55,-712.13 141.24,-721.81 150.65,-716.93 "
       id="polygon1189" />
  </g>
  <path
     style="fill:none;stroke:#000000;stroke-width:1.00063;stroke-linecap:butt;stroke-linejoin:miter;stroke-miterlimit:4;stroke-dasharray:none;stroke-opacity:1;marker-end:url(#Arrow1Lend)"
     d="m 130.05304,845.06072 c 0,45.96037 0,91.91992 20.96039,115.15189 20.9604,23.23197 62.87876,23.73701 84.59556,-134.09406 21.7168,-157.83106 23.23192,-473.98634 51.26314,-632.57259 28.03122,-158.586239 82.57558,-159.59632 110.10048,-152.525067 27.52491,7.071252 28.02995,22.222464 28.53497,37.373204"
     id="path1601"
     inkscape:path-effect="#path-effect1603"
     inkscape:original-d="m 130.05304,845.06072 c 7.5e-4,45.96037 7.5e-4,91.91992 0,137.87879 41.92078,0.5058 83.83914,1.01085 125.75757,1.51515 1.51593,-316.16717 3.03106,-632.32245 4.54546,-948.484804 54.54729,-1.009371 109.09165,-2.019451 163.63636,-3.030303 0.50581,15.152568 1.01085,30.30378 1.51515,45.454544" />
</svg>
