<?xml version="1.0" encoding="UTF-8" standalone="no"?>
<!-- Generated by graphviz version 3.0.0 (20220226.1711)
 -->

<!-- Title: G Pages: 1 -->

<svg
   width="722.75366pt"
   height="1097.6313pt"
   viewBox="0 0 723.33065 1097.6313"
   version="1.1"
   id="svg1347"
   sodipodi:docname="test.svg"
   inkscape:version="1.1.1 (c3084ef, 2021-09-22)"
   xmlns:inkscape="http://www.inkscape.org/namespaces/inkscape"
   xmlns:sodipodi="http://sodipodi.sourceforge.net/DTD/sodipodi-0.dtd"
   xmlns="http://www.w3.org/2000/svg"
   xmlns:svg="http://www.w3.org/2000/svg">
  <defs
     id="defs1351">
    <inkscape:path-effect
       effect="bspline"
       id="path-effect2973"
       is_visible="true"
       lpeversion="1"
       weight="33.333333"
       steps="2"
       helper_size="0"
       apply_no_weight="true"
       apply_with_weight="true"
       only_selected="false" />
    <inkscape:path-effect
       effect="bspline"
       id="path-effect2757"
       is_visible="true"
       lpeversion="1"
       weight="33.333333"
       steps="2"
       helper_size="0"
       apply_no_weight="true"
       apply_with_weight="true"
       only_selected="false" />
    <marker
       style="overflow:visible"
       id="Arrow1Lend"
       refX="0"
       refY="0"
       orient="auto"
       inkscape:stockid="Arrow1Lend"
       inkscape:isstock="true">
      <path
         transform="matrix(-0.8,0,0,-0.8,-10,0)"
         style="fill:context-stroke;fill-rule:evenodd;stroke:context-stroke;stroke-width:1pt"
         d="M 0,0 5,-5 -12.5,0 5,5 Z"
         id="path2010" />
    </marker>
    <inkscape:path-effect
       effect="bspline"
       id="path-effect2005"
       is_visible="true"
       lpeversion="1"
       weight="33.333333"
       steps="2"
       helper_size="0"
       apply_no_weight="true"
       apply_with_weight="true"
       only_selected="false" />
  </defs>
  <sodipodi:namedview
     id="namedview1349"
     pagecolor="#ffffff"
     bordercolor="#999999"
     borderopacity="1"
     inkscape:pageshadow="0"
     inkscape:pageopacity="0"
     inkscape:pagecheckerboard="0"
     inkscape:document-units="pt"
     showgrid="false"
     inkscape:zoom="0.35001786"
     inkscape:cx="807.10168"
     inkscape:cy="1147.0843"
     inkscape:window-width="1280"
     inkscape:window-height="747"
     inkscape:window-x="0"
     inkscape:window-y="25"
     inkscape:window-maximized="0"
     inkscape:current-layer="svg1347"
     fit-margin-top="0"
     fit-margin-left="0"
     fit-margin-right="0"
     fit-margin-bottom="0" />
  <polygon
     fill="#ffffff"
     stroke="transparent"
     points="234.19,4 -4,4 -4,-1696 234.19,-1696 "
     id="polygon826"
     transform="matrix(2.9217117,0,0,0.64618093,39.094985,1095.2443)"
     style="stroke-width:0.727787" />
  <g
     id="node1"
     class="node"
     transform="translate(31.408138,1811.9841)">
    <title
       id="title828">GTGC</title>
    <ellipse
       fill="none"
       stroke="#000000"
       cx="99.75"
       cy="-1674"
       rx="34.389999"
       ry="18"
       id="ellipse830" />
    <text
       text-anchor="middle"
       x="99.75"
       y="-1670.3"
       font-family="Times, serif"
       font-size="14px"
       id="text832">GTGC</text>
  </g>
  <g
     id="node2"
     class="node"
     transform="translate(31.408138,1811.9841)">
    <title
       id="title835">TGCG</title>
    <ellipse
       fill="none"
       stroke="#000000"
       cx="99.75"
       cy="-1602"
       rx="34.389999"
       ry="18"
       id="ellipse837" />
    <text
       text-anchor="middle"
       x="99.75"
       y="-1598.3"
       font-family="Times, serif"
       font-size="14px"
       id="text839">TGCG</text>
  </g>
  <g
     id="edge1"
     class="edge"
     transform="translate(31.408138,1811.9841)">
    <title
       id="title842">GTGC-&gt;TGCG</title>
    <path
       fill="none"
       stroke="#000000"
       d="m 99.75,-1655.7 c 0,7.72 0,16.99 0,25.59"
       id="path844" />
    <polygon
       fill="#000000"
       stroke="#000000"
       points="99.75,-1620.1 96.25,-1630.1 103.25,-1630.1 "
       id="polygon846" />
  </g>
  <g
     id="node3"
     class="node"
     transform="translate(31.408138,1811.9841)">
    <title
       id="title849">GCGC</title>
    <ellipse
       fill="none"
       stroke="#000000"
       cx="99.75"
       cy="-1530"
       rx="35.189999"
       ry="18"
       id="ellipse851" />
    <text
       text-anchor="middle"
       x="99.75"
       y="-1526.3"
       font-family="Times, serif"
       font-size="14px"
       id="text853">GCGC</text>
  </g>
  <g
     id="edge2"
     class="edge"
     transform="translate(31.408138,1811.9841)">
    <title
       id="title856">TGCG-&gt;GCGC</title>
    <path
       fill="none"
       stroke="#000000"
       d="m 99.75,-1583.7 c 0,7.72 0,16.99 0,25.59"
       id="path858" />
    <polygon
       fill="#000000"
       stroke="#000000"
       points="99.75,-1548.1 96.25,-1558.1 103.25,-1558.1 "
       id="polygon860" />
  </g>
  <g
     id="node4"
     class="node"
     transform="translate(31.408138,1811.9841)">
    <title
       id="title863">CGCT</title>
    <ellipse
       fill="none"
       stroke="#000000"
       cx="99.75"
       cy="-1458"
       rx="34.389999"
       ry="18"
       id="ellipse865" />
    <text
       text-anchor="middle"
       x="99.75"
       y="-1454.3"
       font-family="Times, serif"
       font-size="14px"
       id="text867">CGCT</text>
  </g>
  <g
     id="edge3"
     class="edge"
     transform="translate(31.408138,1811.9841)">
    <title
       id="title870">GCGC-&gt;CGCT</title>
    <path
       fill="none"
       stroke="#000000"
       d="m 99.75,-1511.7 c 0,7.72 0,16.99 0,25.59"
       id="path872" />
    <polygon
       fill="#000000"
       stroke="#000000"
       points="99.75,-1476.1 96.25,-1486.1 103.25,-1486.1 "
       id="polygon874" />
  </g>
  <g
     id="node5"
     class="node"
     transform="translate(31.408138,1811.9841)">
    <title
       id="title877">GCTA</title>
    <ellipse
       fill="none"
       stroke="#000000"
       cx="99.75"
       cy="-1386"
       rx="34.389999"
       ry="18"
       id="ellipse879" />
    <text
       text-anchor="middle"
       x="99.75"
       y="-1382.3"
       font-family="Times, serif"
       font-size="14px"
       id="text881">GCTA</text>
  </g>
  <g
     id="edge4"
     class="edge"
     transform="translate(31.408138,1811.9841)">
    <title
       id="title884">CGCT-&gt;GCTA</title>
    <path
       fill="none"
       stroke="#000000"
       d="m 99.75,-1439.7 c 0,7.72 0,16.99 0,25.59"
       id="path886" />
    <polygon
       fill="#000000"
       stroke="#000000"
       points="99.75,-1404.1 96.25,-1414.1 103.25,-1414.1 "
       id="polygon888" />
  </g>
  <g
     id="node6"
     class="node"
     transform="translate(31.408138,1811.9841)">
    <title
       id="title891">CTAA</title>
    <ellipse
       fill="none"
       stroke="#000000"
       cx="99.75"
       cy="-1314"
       rx="34.389999"
       ry="18"
       id="ellipse893" />
    <text
       text-anchor="middle"
       x="99.75"
       y="-1310.3"
       font-family="Times, serif"
       font-size="14px"
       id="text895">CTAA</text>
  </g>
  <g
     id="edge5"
     class="edge"
     transform="translate(31.408138,1811.9841)">
    <title
       id="title898">GCTA-&gt;CTAA</title>
    <path
       fill="none"
       stroke="#000000"
       d="m 99.75,-1367.7 c 0,7.72 0,16.99 0,25.59"
       id="path900" />
    <polygon
       fill="#000000"
       stroke="#000000"
       points="99.75,-1332.1 96.25,-1342.1 103.25,-1342.1 "
       id="polygon902" />
  </g>
  <g
     id="node7"
     class="node"
     transform="translate(31.408138,1811.9841)">
    <title
       id="title905">TAAT</title>
    <ellipse
       fill="none"
       stroke="#000000"
       cx="99.75"
       cy="-1242"
       rx="32.490002"
       ry="18"
       id="ellipse907" />
    <text
       text-anchor="middle"
       x="99.75"
       y="-1238.3"
       font-family="Times, serif"
       font-size="14px"
       id="text909">TAAT</text>
  </g>
  <g
     id="edge6"
     class="edge"
     transform="translate(31.408138,1811.9841)">
    <title
       id="title912">CTAA-&gt;TAAT</title>
    <path
       fill="none"
       stroke="#000000"
       d="m 93.87,-1296.05 c -0.83,7.82 -1.07,17.3 -0.71,26.07"
       id="path914" />
    <polygon
       fill="#000000"
       stroke="#000000"
       points="93.89,-1259.79 89.68,-1269.51 96.66,-1270.01 "
       id="polygon916" />
  </g>
  <g
     id="edge7"
     class="edge"
     transform="translate(31.408138,1811.9841)">
    <title
       id="title919">CTAA-&gt;TAAT</title>
    <path
       fill="none"
       stroke="#000000"
       d="m 105.63,-1296.05 c 0.83,7.82 1.06,17.3 0.71,26.07"
       id="path921" />
    <polygon
       fill="#000000"
       stroke="#000000"
       points="105.61,-1259.79 102.83,-1270.01 109.81,-1269.51 "
       id="polygon923" />
  </g>
  <g
     id="node8"
     class="node"
     transform="translate(31.408138,1811.9841)">
    <title
       id="title926">AATC</title>
    <ellipse
       fill="none"
       stroke="#000000"
       cx="99.75"
       cy="-1170"
       rx="33.599998"
       ry="18"
       id="ellipse928" />
    <text
       text-anchor="middle"
       x="99.75"
       y="-1166.3"
       font-family="Times, serif"
       font-size="14px"
       id="text930">AATC</text>
  </g>
  <g
     id="edge8"
     class="edge"
     transform="translate(31.408138,1811.9841)">
    <title
       id="title933">TAAT-&gt;AATC</title>
    <path
       fill="none"
       stroke="#000000"
       d="m 93.87,-1224.05 c -0.83,7.82 -1.07,17.3 -0.71,26.07"
       id="path935" />
    <polygon
       fill="#000000"
       stroke="#000000"
       points="93.89,-1187.79 89.68,-1197.51 96.66,-1198.01 "
       id="polygon937" />
  </g>
  <g
     id="edge9"
     class="edge"
     transform="translate(31.408138,1811.9841)">
    <title
       id="title940">TAAT-&gt;AATC</title>
    <path
       fill="none"
       stroke="#000000"
       d="m 105.63,-1224.05 c 0.83,7.82 1.06,17.3 0.71,26.07"
       id="path942" />
    <polygon
       fill="#000000"
       stroke="#000000"
       points="105.61,-1187.79 102.83,-1198.01 109.81,-1197.51 "
       id="polygon944" />
  </g>
  <g
     id="node9"
     class="node"
     transform="translate(31.408138,1811.9841)">
    <title
       id="title947">ATCG</title>
    <ellipse
       fill="none"
       stroke="#000000"
       cx="99.75"
       cy="-1098"
       rx="33.599998"
       ry="18"
       id="ellipse949" />
    <text
       text-anchor="middle"
       x="99.75"
       y="-1094.3"
       font-family="Times, serif"
       font-size="14px"
       id="text951">ATCG</text>
  </g>
  <g
     id="edge10"
     class="edge"
     transform="translate(31.408138,1811.9841)">
    <title
       id="title954">AATC-&gt;ATCG</title>
    <path
       fill="none"
       stroke="#000000"
       d="m 93.87,-1152.05 c -0.83,7.82 -1.07,17.3 -0.71,26.07"
       id="path956" />
    <polygon
       fill="#000000"
       stroke="#000000"
       points="93.89,-1115.79 89.68,-1125.51 96.66,-1126.01 "
       id="polygon958" />
  </g>
  <g
     id="edge11"
     class="edge"
     transform="translate(31.408138,1811.9841)">
    <title
       id="title961">AATC-&gt;ATCG</title>
    <path
       fill="none"
       stroke="#000000"
       d="m 105.63,-1152.05 c 0.83,7.82 1.06,17.3 0.71,26.07"
       id="path963" />
    <polygon
       fill="#000000"
       stroke="#000000"
       points="105.61,-1115.79 102.83,-1126.01 109.81,-1125.51 "
       id="polygon965" />
  </g>
  <g
     id="node10"
     class="node"
     transform="translate(31.408138,1811.9841)">
    <title
       id="title968">TCGG</title>
    <ellipse
       fill="none"
       stroke="#000000"
       cx="99.75"
       cy="-1026"
       rx="34.389999"
       ry="18"
       id="ellipse970" />
    <text
       text-anchor="middle"
       x="99.75"
       y="-1022.3"
       font-family="Times, serif"
       font-size="14px"
       id="text972">TCGG</text>
  </g>
  <g
     id="edge12"
     class="edge"
     transform="translate(31.408138,1811.9841)">
    <title
       id="title975">ATCG-&gt;TCGG</title>
    <path
       fill="none"
       stroke="#000000"
       d="m 93.87,-1080.05 c -0.83,7.82 -1.07,17.3 -0.71,26.07"
       id="path977" />
    <polygon
       fill="#000000"
       stroke="#000000"
       points="93.89,-1043.79 89.68,-1053.51 96.66,-1054.01 "
       id="polygon979" />
  </g>
  <g
     id="edge13"
     class="edge"
     transform="translate(31.408138,1811.9841)">
    <title
       id="title982">ATCG-&gt;TCGG</title>
    <path
       fill="none"
       stroke="#000000"
       d="m 105.63,-1080.05 c 0.83,7.82 1.06,17.3 0.71,26.07"
       id="path984" />
    <polygon
       fill="#000000"
       stroke="#000000"
       points="105.61,-1043.79 102.83,-1054.01 109.81,-1053.51 "
       id="polygon986" />
  </g>
  <g
     id="node11"
     class="node"
     transform="translate(31.408138,1811.9841)">
    <title
       id="title989">CGGA</title>
    <ellipse
       fill="none"
       stroke="#000000"
       cx="99.75"
       cy="-954"
       rx="36"
       ry="18"
       id="ellipse991" />
    <text
       text-anchor="middle"
       x="99.75"
       y="-950.29999"
       font-family="Times, serif"
       font-size="14px"
       id="text993">CGGA</text>
  </g>
  <g
     id="edge14"
     class="edge"
     transform="translate(31.408138,1811.9841)">
    <title
       id="title996">TCGG-&gt;CGGA</title>
    <path
       fill="none"
       stroke="#000000"
       d="m 93.87,-1008.05 c -0.83,7.82 -1.07,17.3 -0.71,26.07"
       id="path998" />
    <polygon
       fill="#000000"
       stroke="#000000"
       points="93.89,-971.79 89.68,-981.51 96.66,-982.01 "
       id="polygon1000" />
  </g>
  <g
     id="edge15"
     class="edge"
     transform="translate(31.408138,1811.9841)">
    <title
       id="title1003">TCGG-&gt;CGGA</title>
    <path
       fill="none"
       stroke="#000000"
       d="m 105.63,-1008.05 c 0.83,7.82 1.06,17.3 0.71,26.07"
       id="path1005" />
    <polygon
       fill="#000000"
       stroke="#000000"
       points="105.61,-971.79 102.83,-982.01 109.81,-981.51 "
       id="polygon1007" />
  </g>
  <g
     id="node12"
     class="node"
     transform="translate(421.71939,1031.3603)">
    <title
       id="title1010">GGAG</title>
    <ellipse
       fill="none"
       stroke="#000000"
       cx="99.75"
       cy="-882"
       rx="36.290001"
       ry="18"
       id="ellipse1012" />
    <text
       text-anchor="middle"
       x="99.75"
       y="-878.29999"
       font-family="Times, serif"
       font-size="14px"
       id="text1014">GGAG</text>
  </g>
  <g
     id="node13"
     class="node"
     transform="translate(421.71939,1031.3603)">
    <title
       id="title1031">GAGA</title>
    <ellipse
       fill="none"
       stroke="#000000"
       cx="99.75"
       cy="-810"
       rx="36.290001"
       ry="18"
       id="ellipse1033" />
    <text
       text-anchor="middle"
       x="99.75"
       y="-806.29999"
       font-family="Times, serif"
       font-size="14px"
       id="text1035">GAGA</text>
  </g>
  <g
     id="edge18"
     class="edge"
     transform="translate(421.71939,1031.3603)">
    <title
       id="title1038">GGAG-&gt;GAGA</title>
    <path
       fill="none"
       stroke="#000000"
       d="m 93.87,-864.05 c -0.83,7.82 -1.07,17.3 -0.71,26.07"
       id="path1040" />
    <polygon
       fill="#000000"
       stroke="#000000"
       points="89.68,-837.51 96.66,-838.01 93.89,-827.79 "
       id="polygon1042" />
  </g>
  <g
     id="edge19"
     class="edge"
     transform="translate(421.71939,1031.3603)">
    <title
       id="title1045">GGAG-&gt;GAGA</title>
    <path
       fill="none"
       stroke="#000000"
       d="m 105.63,-864.05 c 0.83,7.82 1.06,17.3 0.71,26.07"
       id="path1047" />
    <polygon
       fill="#000000"
       stroke="#000000"
       points="102.83,-838.01 109.81,-837.51 105.61,-827.79 "
       id="polygon1049" />
  </g>
  <g
     id="node14"
     class="node"
     transform="translate(421.71939,1031.3603)">
    <title
       id="title1052">AGAC</title>
    <ellipse
       fill="none"
       stroke="#000000"
       cx="99.75"
       cy="-738"
       rx="36"
       ry="18"
       id="ellipse1054" />
    <text
       text-anchor="middle"
       x="99.75"
       y="-734.29999"
       font-family="Times, serif"
       font-size="14px"
       id="text1056">AGAC</text>
  </g>
  <g
     id="edge20"
     class="edge"
     transform="translate(421.71939,1031.3603)">
    <title
       id="title1059">GAGA-&gt;AGAC</title>
    <path
       fill="none"
       stroke="#000000"
       d="m 93.87,-792.05 c -0.83,7.82 -1.07,17.3 -0.71,26.07"
       id="path1061" />
    <polygon
       fill="#000000"
       stroke="#000000"
       points="89.68,-765.51 96.66,-766.01 93.89,-755.79 "
       id="polygon1063" />
  </g>
  <g
     id="edge21"
     class="edge"
     transform="translate(421.71939,1031.3603)">
    <title
       id="title1066">GAGA-&gt;AGAC</title>
    <path
       fill="none"
       stroke="#000000"
       d="m 105.63,-792.05 c 0.83,7.82 1.06,17.3 0.71,26.07"
       id="path1068" />
    <polygon
       fill="#000000"
       stroke="#000000"
       points="102.83,-766.01 109.81,-765.51 105.61,-755.79 "
       id="polygon1070" />
  </g>
  <g
     id="node15"
     class="node"
     transform="translate(421.71939,1031.3603)">
    <title
       id="title1073">GACG</title>
    <ellipse
       fill="none"
       stroke="#000000"
       cx="35.75"
       cy="-666"
       rx="36"
       ry="18"
       id="ellipse1075" />
    <text
       text-anchor="middle"
       x="35.75"
       y="-662.29999"
       font-family="Times, serif"
       font-size="14px"
       id="text1077">GACG</text>
  </g>
  <g
     id="edge22"
     class="edge"
     transform="translate(421.71939,1031.3603)">
    <title
       id="title1080">AGAC-&gt;GACG</title>
    <path
       fill="none"
       stroke="#000000"
       d="m 80.89,-722.5 c -9.35,8.98 -20.39,20.73 -29.31,31.1"
       id="path1082" />
    <polygon
       fill="#000000"
       stroke="#000000"
       points="48.67,-693.37 54.05,-688.89 44.96,-683.45 "
       id="polygon1084" />
  </g>
  <g
     id="edge24"
     class="edge"
     transform="translate(421.71939,1031.3603)">
    <title
       id="title1087">AGAC-&gt;GACG</title>
    <path
       fill="none"
       stroke="#000000"
       d="m 90.42,-720.41 c -7.65,9.5 -18.5,21.53 -28.59,31.76"
       id="path1089" />
    <polygon
       fill="#000000"
       stroke="#000000"
       points="59.32,-691.09 64.24,-686.11 54.67,-681.57 "
       id="polygon1091" />
  </g>
  <g
     id="node16"
     class="node"
     transform="translate(421.71939,1031.3603)">
    <title
       id="title1094">GACA</title>
    <ellipse
       fill="none"
       stroke="#000000"
       cx="163.75"
       cy="-666"
       rx="36"
       ry="18"
       id="ellipse1096" />
    <text
       text-anchor="middle"
       x="163.75"
       y="-662.29999"
       font-family="Times, serif"
       font-size="14px"
       id="text1098">GACA</text>
  </g>
  <g
     id="edge23"
     class="edge"
     transform="translate(421.71939,1031.3603)">
    <title
       id="title1101">AGAC-&gt;GACA</title>
    <path
       fill="none"
       stroke="#000000"
       d="m 113.95,-721.46 c 8.33,9.11 19.03,20.81 28.37,31.03"
       id="path1103" />
    <polygon
       fill="#000000"
       stroke="#000000"
       points="139.81,-688 144.97,-692.72 149.14,-682.98 "
       id="polygon1105" />
  </g>
  <g
     id="node17"
     class="node"
     transform="translate(421.71939,1031.3603)">
    <title
       id="title1108">ACGA</title>
    <ellipse
       fill="none"
       stroke="#000000"
       cx="35.75"
       cy="-594"
       rx="36"
       ry="18"
       id="ellipse1110" />
    <text
       text-anchor="middle"
       x="35.75"
       y="-590.29999"
       font-family="Times, serif"
       font-size="14px"
       id="text1112">ACGA</text>
  </g>
  <g
     id="edge25"
     class="edge"
     transform="translate(421.71939,1031.3603)">
    <title
       id="title1115">GACG-&gt;ACGA</title>
    <path
       fill="none"
       stroke="#000000"
       d="m 29.87,-648.05 c -0.83,7.82 -1.07,17.3 -0.71,26.07"
       id="path1117" />
    <polygon
       fill="#000000"
       stroke="#000000"
       points="25.68,-621.51 32.66,-622.01 29.89,-611.79 "
       id="polygon1119" />
  </g>
  <g
     id="edge26"
     class="edge"
     transform="translate(421.71939,1031.3603)">
    <title
       id="title1122">GACG-&gt;ACGA</title>
    <path
       fill="none"
       stroke="#000000"
       d="m 41.63,-648.05 c 0.83,7.82 1.06,17.3 0.71,26.07"
       id="path1124" />
    <polygon
       fill="#000000"
       stroke="#000000"
       points="38.83,-622.01 45.81,-621.51 41.61,-611.79 "
       id="polygon1126" />
  </g>
  <g
     id="node26"
     class="node"
     transform="translate(421.71939,1031.3603)">
    <title
       id="title1129">ACAC</title>
    <ellipse
       fill="none"
       stroke="#000000"
       cx="163.75"
       cy="-594"
       rx="35.189999"
       ry="18"
       id="ellipse1131" />
    <text
       text-anchor="middle"
       x="163.75"
       y="-590.29999"
       font-family="Times, serif"
       font-size="14px"
       id="text1133">ACAC</text>
  </g>
  <g
     id="edge43"
     class="edge"
     transform="translate(421.71939,1031.3603)">
    <title
       id="title1136">GACA-&gt;ACAC</title>
    <path
       fill="none"
       stroke="#000000"
       d="m 163.75,-647.7 c 0,7.72 0,16.99 0,25.59"
       id="path1138" />
    <polygon
       fill="#000000"
       stroke="#000000"
       points="160.25,-622.1 167.25,-622.1 163.75,-612.1 "
       id="polygon1140" />
  </g>
  <g
     id="node18"
     class="node"
     transform="translate(421.71939,1031.3603)">
    <title
       id="title1143">CGAA</title>
    <ellipse
       fill="none"
       stroke="#000000"
       cx="35.75"
       cy="-522"
       rx="36"
       ry="18"
       id="ellipse1145" />
    <text
       text-anchor="middle"
       x="35.75"
       y="-518.29999"
       font-family="Times, serif"
       font-size="14px"
       id="text1147">CGAA</text>
  </g>
  <g
     id="edge27"
     class="edge"
     transform="translate(421.71939,1031.3603)">
    <title
       id="title1150">ACGA-&gt;CGAA</title>
    <path
       fill="none"
       stroke="#000000"
       d="m 29.87,-576.05 c -0.83,7.82 -1.07,17.3 -0.71,26.07"
       id="path1152" />
    <polygon
       fill="#000000"
       stroke="#000000"
       points="25.68,-549.51 32.66,-550.01 29.89,-539.79 "
       id="polygon1154" />
  </g>
  <g
     id="edge28"
     class="edge"
     transform="translate(421.71939,1031.3603)">
    <title
       id="title1157">ACGA-&gt;CGAA</title>
    <path
       fill="none"
       stroke="#000000"
       d="m 41.63,-576.05 c 0.83,7.82 1.06,17.3 0.71,26.07"
       id="path1159" />
    <polygon
       fill="#000000"
       stroke="#000000"
       points="38.83,-550.01 45.81,-549.51 41.61,-539.79 "
       id="polygon1161" />
  </g>
  <g
     id="node19"
     class="node"
     transform="translate(421.71939,1031.3603)">
    <title
       id="title1164">GAAT</title>
    <ellipse
       fill="none"
       stroke="#000000"
       cx="35.75"
       cy="-450"
       rx="34.389999"
       ry="18"
       id="ellipse1166" />
    <text
       text-anchor="middle"
       x="35.75"
       y="-446.29999"
       font-family="Times, serif"
       font-size="14px"
       id="text1168">GAAT</text>
  </g>
  <g
     id="edge29"
     class="edge"
     transform="translate(421.71939,1031.3603)">
    <title
       id="title1171">CGAA-&gt;GAAT</title>
    <path
       fill="none"
       stroke="#000000"
       d="m 29.87,-504.05 c -0.83,7.82 -1.07,17.3 -0.71,26.07"
       id="path1173" />
    <polygon
       fill="#000000"
       stroke="#000000"
       points="25.68,-477.51 32.66,-478.01 29.89,-467.79 "
       id="polygon1175" />
  </g>
  <g
     id="edge30"
     class="edge"
     transform="translate(421.71939,1031.3603)">
    <title
       id="title1178">CGAA-&gt;GAAT</title>
    <path
       fill="none"
       stroke="#000000"
       d="m 41.63,-504.05 c 0.83,7.82 1.06,17.3 0.71,26.07"
       id="path1180" />
    <polygon
       fill="#000000"
       stroke="#000000"
       points="38.83,-478.01 45.81,-477.51 41.61,-467.79 "
       id="polygon1182" />
  </g>
  <g
     id="node20"
     class="node"
     transform="translate(421.71939,1031.3603)">
    <title
       id="title1185">AATT</title>
    <ellipse
       fill="none"
       stroke="#000000"
       cx="35.75"
       cy="-378"
       rx="33.290001"
       ry="18"
       id="ellipse1187" />
    <text
       text-anchor="middle"
       x="35.75"
       y="-374.29999"
       font-family="Times, serif"
       font-size="14px"
       id="text1189">AATT</text>
  </g>
  <g
     id="edge31"
     class="edge"
     transform="translate(421.71939,1031.3603)">
    <title
       id="title1192">GAAT-&gt;AATT</title>
    <path
       fill="none"
       stroke="#000000"
       d="m 29.87,-432.05 c -0.83,7.82 -1.07,17.3 -0.71,26.07"
       id="path1194" />
    <polygon
       fill="#000000"
       stroke="#000000"
       points="25.68,-405.51 32.66,-406.01 29.89,-395.79 "
       id="polygon1196" />
  </g>
  <g
     id="edge32"
     class="edge"
     transform="translate(421.71939,1031.3603)">
    <title
       id="title1199">GAAT-&gt;AATT</title>
    <path
       fill="none"
       stroke="#000000"
       d="m 41.63,-432.05 c 0.83,7.82 1.06,17.3 0.71,26.07"
       id="path1201" />
    <polygon
       fill="#000000"
       stroke="#000000"
       points="38.83,-406.01 45.81,-405.51 41.61,-395.79 "
       id="polygon1203" />
  </g>
  <g
     id="node21"
     class="node"
     transform="translate(421.71939,1031.3603)">
    <title
       id="title1206">ATTT</title>
    <ellipse
       fill="none"
       stroke="#000000"
       cx="35.75"
       cy="-306"
       rx="32.490002"
       ry="18"
       id="ellipse1208" />
    <text
       text-anchor="middle"
       x="35.75"
       y="-302.29999"
       font-family="Times, serif"
       font-size="14px"
       id="text1210">ATTT</text>
  </g>
  <g
     id="edge33"
     class="edge"
     transform="translate(421.71939,1031.3603)">
    <title
       id="title1213">AATT-&gt;ATTT</title>
    <path
       fill="none"
       stroke="#000000"
       d="m 29.87,-360.05 c -0.83,7.82 -1.07,17.3 -0.71,26.07"
       id="path1215" />
    <polygon
       fill="#000000"
       stroke="#000000"
       points="25.68,-333.51 32.66,-334.01 29.89,-323.79 "
       id="polygon1217" />
  </g>
  <g
     id="edge34"
     class="edge"
     transform="translate(421.71939,1031.3603)">
    <title
       id="title1220">AATT-&gt;ATTT</title>
    <path
       fill="none"
       stroke="#000000"
       d="m 41.63,-360.05 c 0.83,7.82 1.06,17.3 0.71,26.07"
       id="path1222" />
    <polygon
       fill="#000000"
       stroke="#000000"
       points="38.83,-334.01 45.81,-333.51 41.61,-323.79 "
       id="polygon1224" />
  </g>
  <g
     id="node22"
     class="node"
     transform="translate(421.71939,1031.3603)">
    <title
       id="title1227">TTTA</title>
    <ellipse
       fill="none"
       stroke="#000000"
       cx="35.75"
       cy="-234"
       rx="32.490002"
       ry="18"
       id="ellipse1229" />
    <text
       text-anchor="middle"
       x="35.75"
       y="-230.3"
       font-family="Times, serif"
       font-size="14px"
       id="text1231">TTTA</text>
  </g>
  <g
     id="edge35"
     class="edge"
     transform="translate(421.71939,1031.3603)">
    <title
       id="title1234">ATTT-&gt;TTTA</title>
    <path
       fill="none"
       stroke="#000000"
       d="m 29.87,-288.05 c -0.83,7.82 -1.07,17.3 -0.71,26.07"
       id="path1236" />
    <polygon
       fill="#000000"
       stroke="#000000"
       points="25.68,-261.51 32.66,-262.01 29.89,-251.79 "
       id="polygon1238" />
  </g>
  <g
     id="edge36"
     class="edge"
     transform="translate(421.71939,1031.3603)">
    <title
       id="title1241">ATTT-&gt;TTTA</title>
    <path
       fill="none"
       stroke="#000000"
       d="m 41.63,-288.05 c 0.83,7.82 1.06,17.3 0.71,26.07"
       id="path1243" />
    <polygon
       fill="#000000"
       stroke="#000000"
       points="38.83,-262.01 45.81,-261.51 41.61,-251.79 "
       id="polygon1245" />
  </g>
  <g
     id="node23"
     class="node"
     transform="translate(421.71939,1031.3603)">
    <title
       id="title1248">TTAA</title>
    <ellipse
       fill="none"
       stroke="#000000"
       cx="35.75"
       cy="-162"
       rx="33.599998"
       ry="18"
       id="ellipse1250" />
    <text
       text-anchor="middle"
       x="35.75"
       y="-158.3"
       font-family="Times, serif"
       font-size="14px"
       id="text1252">TTAA</text>
  </g>
  <g
     id="edge37"
     class="edge"
     transform="translate(421.71939,1031.3603)">
    <title
       id="title1255">TTTA-&gt;TTAA</title>
    <path
       fill="none"
       stroke="#000000"
       d="m 29.87,-216.05 c -0.83,7.82 -1.07,17.3 -0.71,26.07"
       id="path1257" />
    <polygon
       fill="#000000"
       stroke="#000000"
       points="25.68,-189.51 32.66,-190.01 29.89,-179.79 "
       id="polygon1259" />
  </g>
  <g
     id="edge38"
     class="edge"
     transform="translate(421.71939,1031.3603)">
    <title
       id="title1262">TTTA-&gt;TTAA</title>
    <path
       fill="none"
       stroke="#000000"
       d="m 41.63,-216.05 c 0.83,7.82 1.06,17.3 0.71,26.07"
       id="path1264" />
    <polygon
       fill="#000000"
       stroke="#000000"
       points="38.83,-190.01 45.81,-189.51 41.61,-179.79 "
       id="polygon1266" />
  </g>
  <g
     id="node24"
     class="node"
     transform="translate(421.71939,1031.3603)">
    <title
       id="title1269">TAAG</title>
    <ellipse
       fill="none"
       stroke="#000000"
       cx="35.75"
       cy="-90"
       rx="34.389999"
       ry="18"
       id="ellipse1271" />
    <text
       text-anchor="middle"
       x="35.75"
       y="-86.300003"
       font-family="Times, serif"
       font-size="14px"
       id="text1273">TAAG</text>
  </g>
  <g
     id="edge39"
     class="edge"
     transform="translate(421.71939,1031.3603)">
    <title
       id="title1276">TTAA-&gt;TAAG</title>
    <path
       fill="none"
       stroke="#000000"
       d="m 29.87,-144.05 c -0.83,7.82 -1.07,17.3 -0.71,26.07"
       id="path1278" />
    <polygon
       fill="#000000"
       stroke="#000000"
       points="25.68,-117.51 32.66,-118.01 29.89,-107.79 "
       id="polygon1280" />
  </g>
  <g
     id="edge40"
     class="edge"
     transform="translate(421.71939,1031.3603)">
    <title
       id="title1283">TTAA-&gt;TAAG</title>
    <path
       fill="none"
       stroke="#000000"
       d="m 41.63,-144.05 c 0.83,7.82 1.06,17.3 0.71,26.07"
       id="path1285" />
    <polygon
       fill="#000000"
       stroke="#000000"
       points="38.83,-118.01 45.81,-117.51 41.61,-107.79 "
       id="polygon1287" />
  </g>
  <g
     id="node25"
     class="node"
     transform="translate(421.71939,1031.3603)">
    <title
       id="title1290">AAGA</title>
    <ellipse
       fill="none"
       stroke="#000000"
       cx="67.75"
       cy="-18"
       rx="36.290001"
       ry="18"
       id="ellipse1292" />
    <text
       text-anchor="middle"
       x="67.75"
       y="-14.3"
       font-family="Times, serif"
       font-size="14px"
       id="text1294">AAGA</text>
  </g>
  <g
     id="edge41"
     class="edge"
     transform="translate(421.71939,1031.3603)">
    <title
       id="title1297">TAAG-&gt;AAGA</title>
    <path
       fill="none"
       stroke="#000000"
       d="m 43.33,-72.41 c 3.73,8.16 8.32,18.19 12.5,27.34"
       id="path1299" />
    <polygon
       fill="#000000"
       stroke="#000000"
       points="52.65,-43.6 59.02,-46.51 60,-35.96 "
       id="polygon1301" />
  </g>
  <g
     id="edge42"
     class="edge"
     transform="translate(421.71939,1031.3603)">
    <title
       id="title1304">AAGA-&gt;AGAC</title>
    <path
       fill="none"
       stroke="#000000"
       d="m 74.07,-35.77 c 9.32,-26.29 25.68,-78.98 25.68,-125.23 0,-434 0,-434 0,-434 0,-40 0,-86.35 0,-114.92"
       id="path1306" />
    <polygon
       fill="#000000"
       stroke="#000000"
       points="103.25,-709.95 96.25,-709.95 99.75,-719.95 "
       id="polygon1308" />
  </g>
  <g
     id="node27"
     class="node"
     transform="translate(421.71939,1031.3603)">
    <title
       id="title1311">CACT</title>
    <ellipse
       fill="none"
       stroke="#000000"
       cx="164.75"
       cy="-522"
       rx="34.389999"
       ry="18"
       id="ellipse1313" />
    <text
       text-anchor="middle"
       x="164.75"
       y="-518.29999"
       font-family="Times, serif"
       font-size="14px"
       id="text1315">CACT</text>
  </g>
  <g
     id="edge44"
     class="edge"
     transform="translate(421.71939,1031.3603)">
    <title
       id="title1318">ACAC-&gt;CACT</title>
    <path
       fill="none"
       stroke="#000000"
       d="m 163.99,-575.7 c 0.11,7.72 0.25,16.99 0.37,25.59"
       id="path1320" />
    <polygon
       fill="#000000"
       stroke="#000000"
       points="160.86,-550.05 167.86,-550.15 164.5,-540.1 "
       id="polygon1322" />
  </g>
  <g
     id="node28"
     class="node"
     transform="translate(421.71939,1031.3603)">
    <title
       id="title1325">ACTA</title>
    <ellipse
       fill="none"
       stroke="#000000"
       cx="195.75"
       cy="-450"
       rx="34.389999"
       ry="18"
       id="ellipse1327" />
    <text
       text-anchor="middle"
       x="195.75"
       y="-446.29999"
       font-family="Times, serif"
       font-size="14px"
       id="text1329">ACTA</text>
  </g>
  <g
     id="edge45"
     class="edge"
     transform="translate(421.71939,1031.3603)">
    <title
       id="title1332">CACT-&gt;ACTA</title>
    <path
       fill="none"
       stroke="#000000"
       d="m 172.09,-504.41 c 3.58,8.07 7.97,17.98 11.99,27.06"
       id="path1334" />
    <polygon
       fill="#000000"
       stroke="#000000"
       points="180.99,-475.68 187.39,-478.52 188.24,-467.96 "
       id="polygon1336" />
  </g>
  <g
     id="edge46"
     class="edge"
     transform="translate(31.408138,1811.9841)">
    <title
       id="title1339">ACTA-&gt;CTAA</title>
    <polygon
       fill="#000000"
       stroke="#000000"
       points="123.22,-1300.8 133.62,-1298.75 130.07,-1292.71 "
       id="polygon1343" />
  </g>
  <path
     style="fill:none;stroke:#000000;stroke-width:0.996795;stroke-linecap:butt;stroke-linejoin:miter;stroke-miterlimit:4;stroke-dasharray:none;stroke-opacity:1;marker-end:url(#Arrow1Lend)"
     d="m 122.93889,878.0351 c 0,38.41527 0,76.82971 36.14103,95.78386 36.14103,18.95415 108.41801,18.44872 145.3165,-145.32118 36.89848,-163.7699 38.41478,-490.78535 66.72114,-653.7978 28.30635,-163.012446 83.3986,-162.00158 111.45147,-143.046307 28.05287,18.955273 29.06376,55.852653 30.07465,92.749997"
     id="path2003"
     inkscape:path-effect="#path-effect2005"
     inkscape:original-d="m 122.93889,878.0351 c 7.5e-4,38.41527 7.5e-4,76.82971 0,115.24348 72.28207,-0.50471 144.55905,-1.01015 216.83962,-1.51636 1.51715,-327.03434 3.03345,-654.04979 4.54909,-981.085627 55.0963,1.01168 110.18855,2.02255 165.28335,3.03272 1.01168,36.899613 2.02257,73.796993 3.03273,110.694357"
     sodipodi:nodetypes="cccccc" />
  <path
     style="fill:none;stroke:#000000;stroke-width:0.996795;stroke-linecap:butt;stroke-linejoin:miter;stroke-miterlimit:4;stroke-dasharray:none;stroke-opacity:1;marker-end:url(#Arrow1Lend)"
     d="m 137.95086,878.0351 c 0,38.41527 0,76.82971 36.14103,95.78386 36.14103,18.95415 108.41801,18.44872 145.3165,-145.32118 36.89848,-163.7699 38.41478,-490.78535 66.72114,-653.7978 C 414.43588,11.687534 469.52813,12.6984 497.581,31.653673 c 28.05287,18.955273 29.06376,55.852653 30.07465,92.749997"
     id="path2753"
     inkscape:path-effect="#path-effect2757"
     inkscape:original-d="m 137.95086,878.0351 c 7.5e-4,38.41527 7.5e-4,76.82971 0,115.24348 72.28207,-0.50471 144.55905,-1.01015 216.83962,-1.51636 1.51715,-327.03434 3.03345,-654.04979 4.54909,-981.085627 55.0963,1.01168 110.18855,2.02255 165.28335,3.03272 1.01168,36.899613 2.02257,73.796993 3.03273,110.694357"
     sodipodi:nodetypes="cccccc" />
  <path
     style="fill:none;stroke:#000000;stroke-width:0.996795;stroke-linecap:butt;stroke-linejoin:miter;stroke-miterlimit:4;stroke-dasharray:none;stroke-opacity:1;marker-end:url(#Arrow1Lend)"
     d="m 620.30531,602.0574 c 0.50545,157.70068 1.01091,315.40388 -33.10755,396.02339 -34.11845,80.61951 -102.85878,84.15761 -206.98361,85.67401 -104.12484,1.5163 -243.62726,1.0109 -314.391168,-85.42304 C -4.9409294,911.89785 -6.9627044,739.54156 7.9485807,642.74653 22.859866,545.95151 54.702811,524.72288 86.546219,503.49394"
     id="path2971"
     inkscape:path-effect="#path-effect2973"
     inkscape:original-d="m 620.30531,602.0574 c 7.5e-4,157.7023 1.01166,315.40388 1.51636,473.1047 -68.74232,3.539 -137.48265,7.0771 -206.2251,10.6145 -139.50726,-0.5047 -279.00968,-1.0102 -418.5156533,-1.5164 C -4.9401883,911.89784 -6.9619623,739.54155 -8.9845283,567.1811 22.860442,545.95237 54.703387,524.72374 86.546219,503.49394" />
</svg>
