<?xml version="1.0" encoding="UTF-8" standalone="no"?>
<!-- Created with Vectornator (http://vectornator.io/) -->

<svg
   height="187.45457"
   stroke-miterlimit="10"
   style="clip-rule:evenodd;fill-rule:nonzero;stroke-linecap:round;stroke-linejoin:round"
   version="1.1"
   viewBox="0 0 284.52359 187.45458"
   width="284.52359"
   xml:space="preserve"
   id="svg465"
   sodipodi:docname="betweenness.svg"
   inkscape:export-filename="matrix.png"
   inkscape:export-xdpi="96"
   inkscape:export-ydpi="96"
   inkscape:version="1.2.1 (9c6d41e4, 2022-07-14)"
   xmlns:inkscape="http://www.inkscape.org/namespaces/inkscape"
   xmlns:sodipodi="http://sodipodi.sourceforge.net/DTD/sodipodi-0.dtd"
   xmlns="http://www.w3.org/2000/svg"
   xmlns:svg="http://www.w3.org/2000/svg"
   xmlns:vectornator="http://vectornator.io"><sodipodi:namedview
   id="namedview467"
   pagecolor="#ffffff"
   bordercolor="#999999"
   borderopacity="1"
   inkscape:showpageshadow="0"
   inkscape:pageopacity="1"
   inkscape:pagecheckerboard="0"
   inkscape:deskcolor="#d1d1d1"
   showgrid="false"
   inkscape:zoom="1.5856219"
   inkscape:cx="223.57158"
   inkscape:cy="286.00765"
   inkscape:window-width="3008"
   inkscape:window-height="1639"
   inkscape:window-x="0"
   inkscape:window-y="25"
   inkscape:window-maximized="0"
   inkscape:current-layer="svg465" />
<defs
   id="defs239">



































































<clipPath
   clipPathUnits="userSpaceOnUse"
   id="clipPath397"><g
     id="g401"><rect
       height="595.34998"
       width="841.995"
       x="0"
       y="0"
       id="rect399" /></g></clipPath><clipPath
   clipPathUnits="userSpaceOnUse"
   id="clipPath403"><g
     id="g407"><rect
       height="595.34998"
       width="841.995"
       x="0"
       y="0"
       id="rect405" /></g></clipPath><clipPath
   clipPathUnits="userSpaceOnUse"
   id="clipPath409"><g
     id="g413"><rect
       height="595.34998"
       width="841.995"
       x="0"
       y="0"
       id="rect411" /></g></clipPath><clipPath
   clipPathUnits="userSpaceOnUse"
   id="clipPath415"><g
     id="g419"><rect
       height="595.34998"
       width="841.995"
       x="0"
       y="0"
       id="rect417" /></g></clipPath><clipPath
   clipPathUnits="userSpaceOnUse"
   id="clipPath421"><g
     id="g425"><rect
       height="595.34998"
       width="841.995"
       x="0"
       y="0"
       id="rect423" /></g></clipPath><clipPath
   clipPathUnits="userSpaceOnUse"
   id="clipPath427"><g
     id="g431"><rect
       height="595.34998"
       width="841.995"
       x="0"
       y="0"
       id="rect429" /></g></clipPath><clipPath
   clipPathUnits="userSpaceOnUse"
   id="clipPath433"><g
     id="g437"><rect
       height="595.34998"
       width="841.995"
       x="0"
       y="0"
       id="rect435" /></g></clipPath><clipPath
   clipPathUnits="userSpaceOnUse"
   id="clipPath439"><g
     id="g443"><rect
       height="595.34998"
       width="841.995"
       x="0"
       y="0"
       id="rect441" /></g></clipPath><clipPath
   clipPathUnits="userSpaceOnUse"
   id="clipPath445"><g
     id="g449"><rect
       height="595.34998"
       width="841.995"
       x="0"
       y="0"
       id="rect447" /></g></clipPath><clipPath
   clipPathUnits="userSpaceOnUse"
   id="clipPath451"><g
     id="g455"><rect
       height="595.34998"
       width="841.995"
       x="0"
       y="0"
       id="rect453" /></g></clipPath><clipPath
   clipPathUnits="userSpaceOnUse"
   id="clipPath457"><g
     id="g461"><rect
       height="595.34998"
       width="841.995"
       x="0"
       y="0"
       id="rect459" /></g></clipPath><clipPath
   clipPathUnits="userSpaceOnUse"
   id="clipPath463"><g
     id="g467"><rect
       height="595.34998"
       width="841.995"
       x="0"
       y="0"
       id="rect465" /></g></clipPath><clipPath
   clipPathUnits="userSpaceOnUse"
   id="clipPath469"><g
     id="g473"><rect
       height="595.34998"
       width="841.995"
       x="0"
       y="0"
       id="rect471" /></g></clipPath><clipPath
   clipPathUnits="userSpaceOnUse"
   id="clipPath475"><g
     id="g479"><rect
       height="595.34998"
       width="841.995"
       x="0"
       y="0"
       id="rect477" /></g></clipPath><clipPath
   clipPathUnits="userSpaceOnUse"
   id="clipPath481"><g
     id="g485"><rect
       height="595.34998"
       width="841.995"
       x="0"
       y="0"
       id="rect483" /></g></clipPath><clipPath
   clipPathUnits="userSpaceOnUse"
   id="clipPath487"><g
     id="g491"><rect
       height="595.34998"
       width="841.995"
       x="0"
       y="0"
       id="rect489" /></g></clipPath><clipPath
   clipPathUnits="userSpaceOnUse"
   id="clipPath493"><g
     id="g497"><rect
       height="595.34998"
       width="841.995"
       x="0"
       y="0"
       id="rect495" /></g></clipPath><clipPath
   clipPathUnits="userSpaceOnUse"
   id="clipPath499"><g
     id="g503"><rect
       height="595.34998"
       width="841.995"
       x="0"
       y="0"
       id="rect501" /></g></clipPath><clipPath
   clipPathUnits="userSpaceOnUse"
   id="clipPath505"><g
     id="g509"><rect
       height="595.34998"
       width="841.995"
       x="0"
       y="0"
       id="rect507" /></g></clipPath><clipPath
   clipPathUnits="userSpaceOnUse"
   id="clipPath511"><g
     id="g515"><rect
       height="595.34998"
       width="841.995"
       x="0"
       y="0"
       id="rect513" /></g></clipPath><clipPath
   clipPathUnits="userSpaceOnUse"
   id="clipPath517"><g
     id="g521"><rect
       height="595.34998"
       width="841.995"
       x="0"
       y="0"
       id="rect519" /></g></clipPath><clipPath
   clipPathUnits="userSpaceOnUse"
   id="clipPath523"><g
     id="g527"><rect
       height="595.34998"
       width="841.995"
       x="0"
       y="0"
       id="rect525" /></g></clipPath><clipPath
   clipPathUnits="userSpaceOnUse"
   id="clipPath529"><g
     id="g533"><rect
       height="595.34998"
       width="841.995"
       x="0"
       y="0"
       id="rect531" /></g></clipPath><clipPath
   clipPathUnits="userSpaceOnUse"
   id="clipPath535"><g
     id="g539"><rect
       height="595.34998"
       width="841.995"
       x="0"
       y="0"
       id="rect537" /></g></clipPath><clipPath
   clipPathUnits="userSpaceOnUse"
   id="clipPath541"><g
     id="g545"><rect
       height="595.34998"
       width="841.995"
       x="0"
       y="0"
       id="rect543" /></g></clipPath><clipPath
   clipPathUnits="userSpaceOnUse"
   id="clipPath547"><g
     id="g551"><rect
       height="595.34998"
       width="841.995"
       x="0"
       y="0"
       id="rect549" /></g></clipPath><clipPath
   clipPathUnits="userSpaceOnUse"
   id="clipPath553"><g
     id="g557"><rect
       height="595.34998"
       width="841.995"
       x="0"
       y="0"
       id="rect555" /></g></clipPath><clipPath
   clipPathUnits="userSpaceOnUse"
   id="clipPath559"><g
     id="g563"><rect
       height="595.34998"
       width="841.995"
       x="0"
       y="0"
       id="rect561" /></g></clipPath><clipPath
   clipPathUnits="userSpaceOnUse"
   id="clipPath565"><g
     id="g569"><rect
       height="595.34998"
       width="841.995"
       x="0"
       y="0"
       id="rect567" /></g></clipPath><clipPath
   clipPathUnits="userSpaceOnUse"
   id="clipPath571"><g
     id="g575"><rect
       height="595.34998"
       width="841.995"
       x="0"
       y="0"
       id="rect573" /></g></clipPath><clipPath
   clipPathUnits="userSpaceOnUse"
   id="clipPath577"><g
     id="g581"><rect
       height="595.34998"
       width="841.995"
       x="0"
       y="0"
       id="rect579" /></g></clipPath><clipPath
   clipPathUnits="userSpaceOnUse"
   id="clipPath583"><g
     id="g587"><rect
       height="595.34998"
       width="841.995"
       x="0"
       y="0"
       id="rect585" /></g></clipPath><clipPath
   clipPathUnits="userSpaceOnUse"
   id="clipPath589"><g
     id="g593"><rect
       height="595.34998"
       width="841.995"
       x="0"
       y="0"
       id="rect591" /></g></clipPath><clipPath
   clipPathUnits="userSpaceOnUse"
   id="clipPath595"><g
     id="g599"><rect
       height="595.34998"
       width="841.995"
       x="0"
       y="0"
       id="rect597" /></g></clipPath><clipPath
   clipPathUnits="userSpaceOnUse"
   id="clipPath601"><g
     id="g605"><rect
       height="595.34998"
       width="841.995"
       x="0"
       y="0"
       id="rect603" /></g></clipPath><clipPath
   clipPathUnits="userSpaceOnUse"
   id="clipPath607"><g
     id="g611"><rect
       height="595.34998"
       width="841.995"
       x="0"
       y="0"
       id="rect609" /></g></clipPath><clipPath
   clipPathUnits="userSpaceOnUse"
   id="clipPath613"><g
     id="g617"><rect
       height="595.34998"
       width="841.995"
       x="0"
       y="0"
       id="rect615" /></g></clipPath><clipPath
   clipPathUnits="userSpaceOnUse"
   id="clipPath619"><g
     id="g623"><rect
       height="595.34998"
       width="841.995"
       x="0"
       y="0"
       id="rect621" /></g></clipPath><clipPath
   clipPathUnits="userSpaceOnUse"
   id="clipPath625"><g
     id="g629"><rect
       height="595.34998"
       width="841.995"
       x="0"
       y="0"
       id="rect627" /></g></clipPath><clipPath
   clipPathUnits="userSpaceOnUse"
   id="clipPath631"><g
     id="g635"><rect
       height="595.34998"
       width="841.995"
       x="0"
       y="0"
       id="rect633" /></g></clipPath><clipPath
   clipPathUnits="userSpaceOnUse"
   id="clipPath637"><g
     id="g641"><rect
       height="595.34998"
       width="841.995"
       x="0"
       y="0"
       id="rect639" /></g></clipPath><clipPath
   clipPathUnits="userSpaceOnUse"
   id="clipPath643"><g
     id="g647"><rect
       height="595.34998"
       width="841.995"
       x="0"
       y="0"
       id="rect645" /></g></clipPath><clipPath
   clipPathUnits="userSpaceOnUse"
   id="clipPath649"><g
     id="g653"><rect
       height="595.34998"
       width="841.995"
       x="0"
       y="0"
       id="rect651" /></g></clipPath><clipPath
   clipPathUnits="userSpaceOnUse"
   id="clipPath655"><g
     id="g659"><rect
       height="595.34998"
       width="841.995"
       x="0"
       y="0"
       id="rect657" /></g></clipPath><clipPath
   clipPathUnits="userSpaceOnUse"
   id="clipPath661"><g
     id="g665"><rect
       height="595.34998"
       width="841.995"
       x="0"
       y="0"
       id="rect663" /></g></clipPath><clipPath
   clipPathUnits="userSpaceOnUse"
   id="clipPath667"><g
     id="g671"><rect
       height="595.34998"
       width="841.995"
       x="0"
       y="0"
       id="rect669" /></g></clipPath><clipPath
   clipPathUnits="userSpaceOnUse"
   id="clipPath673"><g
     id="g677"><rect
       height="595.34998"
       width="841.995"
       x="0"
       y="0"
       id="rect675" /></g></clipPath><clipPath
   clipPathUnits="userSpaceOnUse"
   id="clipPath679"><g
     id="g683"><rect
       height="595.34998"
       width="841.995"
       x="0"
       y="0"
       id="rect681" /></g></clipPath><clipPath
   clipPathUnits="userSpaceOnUse"
   id="clipPath685"><g
     id="g689"><rect
       height="595.34998"
       width="841.995"
       x="0"
       y="0"
       id="rect687" /></g></clipPath><clipPath
   clipPathUnits="userSpaceOnUse"
   id="clipPath691"><g
     id="g695"><rect
       height="595.34998"
       width="841.995"
       x="0"
       y="0"
       id="rect693" /></g></clipPath><clipPath
   clipPathUnits="userSpaceOnUse"
   id="clipPath697"><g
     id="g701"><rect
       height="595.34998"
       width="841.995"
       x="0"
       y="0"
       id="rect699" /></g></clipPath><clipPath
   clipPathUnits="userSpaceOnUse"
   id="clipPath703"><g
     id="g707"><rect
       height="595.34998"
       width="841.995"
       x="0"
       y="0"
       id="rect705" /></g></clipPath><clipPath
   clipPathUnits="userSpaceOnUse"
   id="clipPath709"><g
     id="g713"><rect
       height="595.34998"
       width="841.995"
       x="0"
       y="0"
       id="rect711" /></g></clipPath><clipPath
   clipPathUnits="userSpaceOnUse"
   id="clipPath715"><g
     id="g719"><rect
       height="595.34998"
       width="841.995"
       x="0"
       y="0"
       id="rect717" /></g></clipPath><clipPath
   clipPathUnits="userSpaceOnUse"
   id="clipPath721"><g
     id="g725"><rect
       height="595.34998"
       width="841.995"
       x="0"
       y="0"
       id="rect723" /></g></clipPath><clipPath
   clipPathUnits="userSpaceOnUse"
   id="clipPath727"><g
     id="g731"><rect
       height="595.34998"
       width="841.995"
       x="0"
       y="0"
       id="rect729" /></g></clipPath><clipPath
   clipPathUnits="userSpaceOnUse"
   id="clipPath733"><g
     id="g737"><rect
       height="595.34998"
       width="841.995"
       x="0"
       y="0"
       id="rect735" /></g></clipPath><clipPath
   clipPathUnits="userSpaceOnUse"
   id="clipPath739"><g
     id="g743"><rect
       height="595.34998"
       width="841.995"
       x="0"
       y="0"
       id="rect741" /></g></clipPath><clipPath
   clipPathUnits="userSpaceOnUse"
   id="clipPath745"><g
     id="g749"><rect
       height="595.34998"
       width="841.995"
       x="0"
       y="0"
       id="rect747" /></g></clipPath><clipPath
   clipPathUnits="userSpaceOnUse"
   id="clipPath751"><g
     id="g755"><rect
       height="595.34998"
       width="841.995"
       x="0"
       y="0"
       id="rect753" /></g></clipPath><clipPath
   clipPathUnits="userSpaceOnUse"
   id="clipPath757"><g
     id="g761"><rect
       height="595.34998"
       width="841.995"
       x="0"
       y="0"
       id="rect759" /></g></clipPath><clipPath
   clipPathUnits="userSpaceOnUse"
   id="clipPath763"><g
     id="g767"><rect
       height="595.34998"
       width="841.995"
       x="0"
       y="0"
       id="rect765" /></g></clipPath><clipPath
   clipPathUnits="userSpaceOnUse"
   id="clipPath769"><g
     id="g773"><rect
       height="595.34998"
       width="841.995"
       x="0"
       y="0"
       id="rect771" /></g></clipPath><clipPath
   clipPathUnits="userSpaceOnUse"
   id="clipPath775"><g
     id="g779"><rect
       height="595.34998"
       width="841.995"
       x="0"
       y="0"
       id="rect777" /></g></clipPath><clipPath
   clipPathUnits="userSpaceOnUse"
   id="clipPath781"><g
     id="g785"><rect
       height="595.34998"
       width="841.995"
       x="0"
       y="0"
       id="rect783" /></g></clipPath><clipPath
   clipPathUnits="userSpaceOnUse"
   id="clipPath787"><g
     id="g791"><rect
       height="595.34998"
       width="841.995"
       x="0"
       y="0"
       id="rect789" /></g></clipPath>







































<clipPath
   clipPathUnits="userSpaceOnUse"
   id="clipPath844"><g
     id="g850"><g
       id="g848"><rect
         height="595.34998"
         width="841.995"
         x="0"
         y="0"
         id="rect846" /></g></g></clipPath><clipPath
   clipPathUnits="userSpaceOnUse"
   id="clipPath852"><g
     id="g858"><g
       id="g856"><rect
         height="595.34998"
         width="841.995"
         x="0"
         y="0"
         id="rect854" /></g></g></clipPath><clipPath
   clipPathUnits="userSpaceOnUse"
   id="clipPath860"><g
     id="g866"><g
       id="g864"><rect
         height="595.34998"
         width="841.995"
         x="0"
         y="0"
         id="rect862" /></g></g></clipPath><clipPath
   clipPathUnits="userSpaceOnUse"
   id="clipPath868"><g
     id="g874"><g
       id="g872"><rect
         height="595.34998"
         width="841.995"
         x="0"
         y="0"
         id="rect870" /></g></g></clipPath><clipPath
   clipPathUnits="userSpaceOnUse"
   id="clipPath876"><g
     id="g882"><g
       id="g880"><rect
         height="595.34998"
         width="841.995"
         x="0"
         y="0"
         id="rect878" /></g></g></clipPath><clipPath
   clipPathUnits="userSpaceOnUse"
   id="clipPath884"><g
     id="g890"><g
       id="g888"><rect
         height="595.34998"
         width="841.995"
         x="0"
         y="0"
         id="rect886" /></g></g></clipPath><clipPath
   clipPathUnits="userSpaceOnUse"
   id="clipPath892"><g
     id="g898"><g
       id="g896"><rect
         height="595.34998"
         width="841.995"
         x="0"
         y="0"
         id="rect894" /></g></g></clipPath><clipPath
   clipPathUnits="userSpaceOnUse"
   id="clipPath900"><g
     id="g906"><g
       id="g904"><rect
         height="595.34998"
         width="841.995"
         x="0"
         y="0"
         id="rect902" /></g></g></clipPath><clipPath
   clipPathUnits="userSpaceOnUse"
   id="clipPath908"><g
     id="g914"><g
       id="g912"><rect
         height="595.34998"
         width="841.995"
         x="0"
         y="0"
         id="rect910" /></g></g></clipPath><clipPath
   clipPathUnits="userSpaceOnUse"
   id="clipPath916"><g
     id="g922"><g
       id="g920"><rect
         height="595.34998"
         width="841.995"
         x="0"
         y="0"
         id="rect918" /></g></g></clipPath><clipPath
   clipPathUnits="userSpaceOnUse"
   id="clipPath924"><g
     id="g930"><g
       id="g928"><rect
         height="595.34998"
         width="841.995"
         x="0"
         y="0"
         id="rect926" /></g></g></clipPath><clipPath
   clipPathUnits="userSpaceOnUse"
   id="clipPath932"><g
     id="g938"><g
       id="g936"><rect
         height="595.34998"
         width="841.995"
         x="0"
         y="0"
         id="rect934" /></g></g></clipPath><clipPath
   clipPathUnits="userSpaceOnUse"
   id="clipPath940"><g
     id="g946"><g
       id="g944"><rect
         height="595.34998"
         width="841.995"
         x="0"
         y="0"
         id="rect942" /></g></g></clipPath><clipPath
   clipPathUnits="userSpaceOnUse"
   id="clipPath948"><g
     id="g954"><g
       id="g952"><rect
         height="595.34998"
         width="841.995"
         x="0"
         y="0"
         id="rect950" /></g></g></clipPath><clipPath
   clipPathUnits="userSpaceOnUse"
   id="clipPath956"><g
     id="g962"><g
       id="g960"><rect
         height="595.34998"
         width="841.995"
         x="0"
         y="0"
         id="rect958" /></g></g></clipPath><clipPath
   clipPathUnits="userSpaceOnUse"
   id="clipPath964"><g
     id="g970"><g
       id="g968"><rect
         height="595.34998"
         width="841.995"
         x="0"
         y="0"
         id="rect966" /></g></g></clipPath><clipPath
   clipPathUnits="userSpaceOnUse"
   id="clipPath972"><g
     id="g978"><g
       id="g976"><rect
         height="595.34998"
         width="841.995"
         x="0"
         y="0"
         id="rect974" /></g></g></clipPath><clipPath
   clipPathUnits="userSpaceOnUse"
   id="clipPath980"><g
     id="g986"><g
       id="g984"><rect
         height="595.34998"
         width="841.995"
         x="0"
         y="0"
         id="rect982" /></g></g></clipPath><clipPath
   clipPathUnits="userSpaceOnUse"
   id="clipPath988"><g
     id="g994"><g
       id="g992"><rect
         height="595.34998"
         width="841.995"
         x="0"
         y="0"
         id="rect990" /></g></g></clipPath><clipPath
   clipPathUnits="userSpaceOnUse"
   id="clipPath996"><g
     id="g1002"><g
       id="g1000"><rect
         height="595.34998"
         width="841.995"
         x="0"
         y="0"
         id="rect998" /></g></g></clipPath><clipPath
   clipPathUnits="userSpaceOnUse"
   id="clipPath1004"><g
     id="g1010"><g
       id="g1008"><rect
         height="595.34998"
         width="841.995"
         x="0"
         y="0"
         id="rect1006" /></g></g></clipPath><clipPath
   clipPathUnits="userSpaceOnUse"
   id="clipPath1012"><g
     id="g1018"><g
       id="g1016"><rect
         height="595.34998"
         width="841.995"
         x="0"
         y="0"
         id="rect1014" /></g></g></clipPath><clipPath
   clipPathUnits="userSpaceOnUse"
   id="clipPath1020"><g
     id="g1026"><g
       id="g1024"><rect
         height="595.34998"
         width="841.995"
         x="0"
         y="0"
         id="rect1022" /></g></g></clipPath><clipPath
   clipPathUnits="userSpaceOnUse"
   id="clipPath1028"><g
     id="g1034"><g
       id="g1032"><rect
         height="595.34998"
         width="841.995"
         x="0"
         y="0"
         id="rect1030" /></g></g></clipPath><clipPath
   clipPathUnits="userSpaceOnUse"
   id="clipPath1036"><g
     id="g1042"><g
       id="g1040"><rect
         height="595.34998"
         width="841.995"
         x="0"
         y="0"
         id="rect1038" /></g></g></clipPath><clipPath
   clipPathUnits="userSpaceOnUse"
   id="clipPath1044"><g
     id="g1050"><g
       id="g1048"><rect
         height="595.34998"
         width="841.995"
         x="0"
         y="0"
         id="rect1046" /></g></g></clipPath><clipPath
   clipPathUnits="userSpaceOnUse"
   id="clipPath1052"><g
     id="g1058"><g
       id="g1056"><rect
         height="595.34998"
         width="841.995"
         x="0"
         y="0"
         id="rect1054" /></g></g></clipPath><clipPath
   clipPathUnits="userSpaceOnUse"
   id="clipPath1060"><g
     id="g1066"><g
       id="g1064"><rect
         height="595.34998"
         width="841.995"
         x="0"
         y="0"
         id="rect1062" /></g></g></clipPath><clipPath
   clipPathUnits="userSpaceOnUse"
   id="clipPath1068"><g
     id="g1074"><g
       id="g1072"><rect
         height="595.34998"
         width="841.995"
         x="0"
         y="0"
         id="rect1070" /></g></g></clipPath><clipPath
   clipPathUnits="userSpaceOnUse"
   id="clipPath1076"><g
     id="g1082"><g
       id="g1080"><rect
         height="595.34998"
         width="841.995"
         x="0"
         y="0"
         id="rect1078" /></g></g></clipPath><clipPath
   clipPathUnits="userSpaceOnUse"
   id="clipPath1084"><g
     id="g1090"><g
       id="g1088"><rect
         height="595.34998"
         width="841.995"
         x="0"
         y="0"
         id="rect1086" /></g></g></clipPath><clipPath
   clipPathUnits="userSpaceOnUse"
   id="clipPath1092"><g
     id="g1098"><g
       id="g1096"><rect
         height="595.34998"
         width="841.995"
         x="0"
         y="0"
         id="rect1094" /></g></g></clipPath><clipPath
   clipPathUnits="userSpaceOnUse"
   id="clipPath1100"><g
     id="g1106"><g
       id="g1104"><rect
         height="595.34998"
         width="841.995"
         x="0"
         y="0"
         id="rect1102" /></g></g></clipPath><clipPath
   clipPathUnits="userSpaceOnUse"
   id="clipPath1108"><g
     id="g1114"><g
       id="g1112"><rect
         height="595.34998"
         width="841.995"
         x="0"
         y="0"
         id="rect1110" /></g></g></clipPath><clipPath
   clipPathUnits="userSpaceOnUse"
   id="clipPath1116"><g
     id="g1122"><g
       id="g1120"><rect
         height="595.34998"
         width="841.995"
         x="0"
         y="0"
         id="rect1118" /></g></g></clipPath><clipPath
   clipPathUnits="userSpaceOnUse"
   id="clipPath1124"><g
     id="g1130"><g
       id="g1128"><rect
         height="595.34998"
         width="841.995"
         x="0"
         y="0"
         id="rect1126" /></g></g></clipPath><clipPath
   clipPathUnits="userSpaceOnUse"
   id="clipPath1132"><g
     id="g1138"><g
       id="g1136"><rect
         height="595.34998"
         width="841.995"
         x="0"
         y="0"
         id="rect1134" /></g></g></clipPath><clipPath
   clipPathUnits="userSpaceOnUse"
   id="clipPath1140"><g
     id="g1146"><g
       id="g1144"><rect
         height="595.34998"
         width="841.995"
         x="0"
         y="0"
         id="rect1142" /></g></g></clipPath><clipPath
   clipPathUnits="userSpaceOnUse"
   id="clipPath1148"><g
     id="g1154"><g
       id="g1152"><rect
         height="595.34998"
         width="841.995"
         x="0"
         y="0"
         id="rect1150" /></g></g></clipPath></defs>

<path
   d="m 204.854,47.7086 c 0,-16.4313 12.246,-29.7516 27.352,-29.7516 15.106,0 27.352,13.3203 27.352,29.7516 0,16.4314 -12.246,29.7517 -27.352,29.7517 -15.106,0 -27.352,-13.3203 -27.352,-29.7517 z"
   fill="none"
   opacity="1"
   stroke="#000002"
   stroke-linecap="butt"
   stroke-linejoin="round"
   stroke-width="1.77558"
   vectornator:layerName="Oval 1"
   id="path244"
   clip-path="url(#clipPath1148)"
   transform="translate(-203.96621,-17.06921)" /><path
   d="m 432.898,173.884 c 0,-16.431 12.246,-29.751 27.352,-29.751 15.106,0 27.352,13.32 27.352,29.751 0,16.432 -12.246,29.752 -27.352,29.752 -15.106,0 -27.352,-13.32 -27.352,-29.752 z"
   fill="none"
   opacity="1"
   stroke="#000002"
   stroke-linecap="butt"
   stroke-linejoin="round"
   stroke-width="1.77558"
   vectornator:layerName="Oval 4"
   id="path246"
   clip-path="url(#clipPath1140)"
   transform="translate(-203.96621,-17.06921)" /><path
   d="m 329.421,173.884 c 0,-16.431 12.246,-29.751 27.352,-29.751 15.107,0 27.353,13.32 27.353,29.751 0,16.432 -12.246,29.752 -27.353,29.752 -15.106,0 -27.352,-13.32 -27.352,-29.752 z"
   fill="none"
   opacity="1"
   stroke="#000002"
   stroke-linecap="butt"
   stroke-linejoin="round"
   stroke-width="1.77558"
   vectornator:layerName="Oval 5"
   id="path248"
   clip-path="url(#clipPath1132)"
   transform="translate(-203.96621,-17.06921)" /><path
   d="m 329.421,47.7086 c 0,-16.4313 12.246,-29.7516 27.352,-29.7516 15.107,0 27.353,13.3203 27.353,29.7516 0,16.4314 -12.246,29.7517 -27.353,29.7517 -15.106,0 -27.352,-13.3203 -27.352,-29.7517 z"
   fill="none"
   opacity="1"
   stroke="#000002"
   stroke-linecap="butt"
   stroke-linejoin="round"
   stroke-width="1.77558"
   vectornator:layerName="Oval 6"
   id="path250"
   clip-path="url(#clipPath1124)"
   transform="translate(-203.96621,-17.06921)" /><path
   d="m 432.898,47.7086 c 0,-16.4313 12.246,-29.7516 27.352,-29.7516 15.106,0 27.352,13.3203 27.352,29.7516 0,16.4314 -12.246,29.7517 -27.352,29.7517 -15.106,0 -27.352,-13.3203 -27.352,-29.7517 z"
   fill="none"
   opacity="1"
   stroke="#000002"
   stroke-linecap="butt"
   stroke-linejoin="round"
   stroke-width="1.77558"
   vectornator:layerName="Oval 7"
   id="path252"
   clip-path="url(#clipPath1116)"
   transform="translate(-203.96621,-17.06921)" /><path
   d="m 259.558,47.7086 h 69.863"
   fill="none"
   opacity="1"
   stroke="#000002"
   stroke-linecap="butt"
   stroke-linejoin="round"
   stroke-width="1.77558"
   vectornator:layerName="Line 1"
   id="path254"
   clip-path="url(#clipPath1108)"
   transform="translate(-203.96621,-17.06921)" /><path
   d="m 384.126,47.7086 h 48.772"
   fill="none"
   opacity="1"
   stroke="#000002"
   stroke-linecap="butt"
   stroke-linejoin="round"
   stroke-width="1.77558"
   vectornator:layerName="Line 2"
   id="path256"
   clip-path="url(#clipPath1100)"
   transform="translate(-203.96621,-17.06921)" /><path
   d="M 460.25,77.4603 V 144.133"
   fill="none"
   opacity="1"
   stroke="#000002"
   stroke-linecap="butt"
   stroke-linejoin="round"
   stroke-width="1.77558"
   vectornator:layerName="Line 3"
   id="path258"
   clip-path="url(#clipPath1092)"
   transform="translate(-203.96621,-17.06921)" /><path
   d="M 356.773,77.4603 V 144.133"
   fill="none"
   opacity="1"
   stroke="#000002"
   stroke-linecap="butt"
   stroke-linejoin="round"
   stroke-width="1.77558"
   vectornator:layerName="Line 5"
   id="path260"
   clip-path="url(#clipPath1084)"
   transform="translate(-203.96621,-17.06921)" /><path
   d="m 384.126,173.884 h 48.772"
   fill="none"
   opacity="1"
   stroke="#000002"
   stroke-linecap="butt"
   stroke-linejoin="round"
   stroke-width="1.77558"
   vectornator:layerName="Line 6"
   id="path262"
   clip-path="url(#clipPath1076)"
   transform="translate(-203.96621,-17.06921)" /><path
   d="M 376.335,154.22 442.172,66.9689"
   fill="none"
   opacity="1"
   stroke="#000002"
   stroke-linecap="butt"
   stroke-linejoin="round"
   stroke-width="1.77558"
   vectornator:layerName="Line 8"
   id="path264"
   clip-path="url(#clipPath1068)"
   transform="translate(-203.96621,-17.06921)" /><path
   d="m 229.11,38.9851 c 0,-1.3029 0.865,-2.1109 0,0.2422 -0.594,1.6147 -1.199,3.2247 -1.782,4.8443 -1.338,3.7197 -2.883,7.6858 -3.562,11.6263 -0.233,1.349 0,4.1176 0,4.1176 0,0 0,-0.8074 0,-1.2111 0,-1.9589 0.875,-4.3921 1.336,-6.2975 1.217,-5.0333 2.626,-10.1837 4.899,-14.7751 0.952,-1.9233 1.48,-5.0865 1.558,-5.0865 0.306,0 0.163,0.6424 0.223,0.9688 0.502,2.7282 0.484,5.6745 0.891,8.4775 0.716,4.9333 1.96,9.7804 3.34,14.5329 0.418,1.4383 1.113,4.3599 1.113,4.3599 0,0 0.223,-1.7726 0.223,-2.6644"
   fill="none"
   opacity="1"
   stroke="#000002"
   stroke-linecap="round"
   stroke-linejoin="round"
   stroke-width="1.77558"
   vectornator:layerName="Curve 1"
   id="path266"
   clip-path="url(#clipPath1060)"
   transform="translate(-203.96621,-17.06921)" /><path
   d="m 224.879,50.8536 c -0.516,-1.1228 3.713,-1.0098 4.454,-1.2111 0.324,-0.0881 5.567,-1.4511 5.567,-1.2111 0,0.4348 -0.756,0.29 -1.114,0.4845"
   fill="none"
   opacity="1"
   stroke="#000002"
   stroke-linecap="round"
   stroke-linejoin="round"
   stroke-width="1.77558"
   vectornator:layerName="Curve 2"
   id="path268"
   clip-path="url(#clipPath1052)"
   transform="translate(-203.96621,-17.06921)" /><path
   d="m 463.377,40.525 c -0.945,0 -1.344,0.0329 -1.344,1.2184 0,0.3249 -0.211,1.2045 0,0.9747 1.117,-1.2148 2.447,-9.6423 -0.672,-8.2851 -4.492,1.9545 -8.73,18.5282 -5.377,22.175 2.29,2.4903 9.857,-5.0108 9.857,-6.0921 0,-0.4595 -0.896,0.5153 -0.896,0.9748"
   fill="none"
   opacity="1"
   stroke="#000002"
   stroke-linecap="round"
   stroke-linejoin="round"
   stroke-width="1.77558"
   vectornator:layerName="Curve 5"
   id="path270"
   clip-path="url(#clipPath1044)"
   transform="translate(-203.96621,-17.06921)" /><path
   d="m 354.723,39.0629 c 1.083,-2.3564 -0.905,1.4116 -1.12,3.1679 -0.379,3.0903 -0.494,6.1622 -0.672,9.2599 -0.061,1.057 -0.224,3.1678 -0.224,3.1678 0,0 -0.224,-1.6205 -0.224,-2.4368"
   fill="none"
   opacity="1"
   stroke="#000002"
   stroke-linecap="round"
   stroke-linejoin="round"
   stroke-width="1.77558"
   vectornator:layerName="Curve 6"
   id="path272"
   clip-path="url(#clipPath1036)"
   transform="translate(-203.96621,-17.06921)" /><path
   d="m 355.171,39.3066 c -0.473,0 6.813,-4.474 7.841,0 0.781,3.3986 -3.597,5.7111 -6.048,6.092 -0.188,0.0292 -2.465,-0.0213 -2.465,0 0,0.4941 0.89,0.2437 1.344,0.2437 1.62,0 3.768,-0.155 5.153,0.9747 9.516,7.7627 -2.232,9.991 -7.841,9.991"
   fill="none"
   opacity="1"
   stroke="#000002"
   stroke-linecap="round"
   stroke-linejoin="round"
   stroke-width="1.77558"
   vectornator:layerName="Curve 7"
   id="path274"
   clip-path="url(#clipPath1028)"
   transform="translate(-203.96621,-17.06921)" /><path
   d="m 457.104,166.021 c 0,-5.099 -1.534,3.605 -1.568,3.899 -0.392,3.413 -0.339,6.953 -1.344,10.234 -0.121,0.393 0.157,1.219 -0.224,1.219 -0.181,0 0.224,-3.457 0.224,-3.899 0,-3.697 0.896,-7.299 0.896,-10.966 0,-0.422 -0.134,-2.924 -0.672,-2.924 -0.638,0 0.221,1.459 0.672,1.949 0.829,0.902 1.446,1.455 2.464,2.194 2.406,1.744 5.353,4.567 6.497,7.554 1.983,5.175 -5.513,8.529 -9.185,8.529"
   fill="none"
   opacity="1"
   stroke="#000002"
   stroke-linecap="round"
   stroke-linejoin="round"
   stroke-width="1.77558"
   vectornator:layerName="Curve 8"
   id="path276"
   clip-path="url(#clipPath1020)"
   transform="translate(-203.96621,-17.06921)" /><path
   d="m 350.915,164.559 c -0.276,-0.15 -1.204,-0.244 -0.896,-0.244 2.035,0 7.228,0.179 8.737,-1.462 0.321,-0.349 -0.904,0.124 -1.344,0.244 -0.528,0.143 -1.038,0.359 -1.569,0.487 -2.055,0.497 -4.197,1.011 -6.272,1.462 -0.302,0.066 -0.896,0.244 -0.896,0.244 0,0 0.672,0.194 0.672,0.487 0,2.898 -0.896,5.833 -0.896,8.773 0,3.264 -1.251,5.91 -1.121,6.335 0.326,1.064 10.307,-1.218 9.858,-1.218"
   fill="none"
   opacity="1"
   stroke="#000002"
   stroke-linecap="round"
   stroke-linejoin="round"
   stroke-width="1.77558"
   vectornator:layerName="Curve 9"
   id="path278"
   clip-path="url(#clipPath1012)"
   transform="translate(-203.96621,-17.06921)" /><path
   d="m 347.554,173.088 c -0.298,0 0.598,0 0.897,0 1.697,0 3.277,-0.475 4.928,-0.731 0.219,-0.034 2.327,-1.144 1.12,-0.488"
   fill="none"
   opacity="1"
   stroke="#000002"
   stroke-linecap="round"
   stroke-linejoin="round"
   stroke-width="1.77558"
   vectornator:layerName="Curve 10"
   id="path280"
   clip-path="url(#clipPath1004)"
   transform="translate(-203.96621,-17.06921)" /><path
   d="m 608.892,914.135 c 0,-5.02 -0.335,-10.042 -0.835,-15.037"
   fill="none"
   opacity="1"
   stroke="#000002"
   stroke-linecap="round"
   stroke-linejoin="round"
   stroke-width="1.77558"
   vectornator:layerName="Curve 1"
   id="path324"
   clip-path="url(#clipPath787)"
   transform="translate(-203.96621,-17.06921)" />


</svg>
