<?xml version="1.0" encoding="UTF-8" standalone="no"?>
<!-- Created with Vectornator (http://vectornator.io/) -->

<svg
   height="253.34158"
   stroke-miterlimit="10"
   style="clip-rule:evenodd;fill-rule:nonzero;stroke-linecap:round;stroke-linejoin:round"
   version="1.1"
   viewBox="0 0 708.51087 253.34159"
   width="708.51086"
   xml:space="preserve"
   id="svg63"
   sodipodi:docname="clique.svg"
   inkscape:version="1.2.1 (9c6d41e4, 2022-07-14)"
   xmlns:inkscape="http://www.inkscape.org/namespaces/inkscape"
   xmlns:sodipodi="http://sodipodi.sourceforge.net/DTD/sodipodi-0.dtd"
   xmlns="http://www.w3.org/2000/svg"
   xmlns:svg="http://www.w3.org/2000/svg"
   xmlns:vectornator="http://vectornator.io"><sodipodi:namedview
   id="namedview65"
   pagecolor="#ffffff"
   bordercolor="#999999"
   borderopacity="1"
   inkscape:showpageshadow="0"
   inkscape:pageopacity="1"
   inkscape:pagecheckerboard="0"
   inkscape:deskcolor="#d1d1d1"
   showgrid="false"
   inkscape:zoom="1.5856219"
   inkscape:cx="197.71422"
   inkscape:cy="140.32349"
   inkscape:window-width="3008"
   inkscape:window-height="1639"
   inkscape:window-x="0"
   inkscape:window-y="25"
   inkscape:window-maximized="0"
   inkscape:current-layer="Layer-1" />
<defs
   id="defs9" />
<clipPath
   id="ArtboardFrame">
<rect
   height="595.34998"
   width="841.995"
   x="0"
   y="0"
   id="rect11" />
</clipPath>
<g
   clip-path="url(#ArtboardFrame)"
   id="Layer-1"
   vectornator:layerName="Layer 1"
   transform="translate(-65.21591,-126.14121)">
<path
   d="m 608.892,914.135 c 0,-5.02 -0.335,-10.042 -0.835,-15.037"
   fill="none"
   opacity="1"
   stroke="#000002"
   stroke-linecap="round"
   stroke-linejoin="round"
   stroke-width="1.77558"
   vectornator:layerName="Curve 1"
   id="path14" />
<path
   d="m 281.54,317.905 c 0,-11.173 9.645,-20.23 21.543,-20.23 11.898,0 21.544,9.057 21.544,20.23 0,11.173 -9.646,20.23 -21.544,20.23 -11.898,0 -21.543,-9.057 -21.543,-20.23 z"
   fill="none"
   opacity="1"
   stroke="#000002"
   stroke-linecap="butt"
   stroke-linejoin="round"
   stroke-width="1.77558"
   vectornator:layerName="Oval 1"
   id="path16" />
<path
   d="m 176.974,317.905 c 0,-11.173 9.646,-20.23 21.544,-20.23 11.898,0 21.544,9.057 21.544,20.23 0,11.173 -9.646,20.23 -21.544,20.23 -11.898,0 -21.544,-9.057 -21.544,-20.23 z"
   fill="none"
   opacity="1"
   stroke="#000002"
   stroke-linecap="butt"
   stroke-linejoin="round"
   stroke-width="1.77558"
   vectornator:layerName="Oval 2"
   id="path18" />
<path
   d="m 281.54,187.718 c 0,-11.172 9.645,-20.23 21.543,-20.23 11.898,0 21.544,9.058 21.544,20.23 0,11.173 -9.646,20.23 -21.544,20.23 -11.898,0 -21.543,-9.057 -21.543,-20.23 z"
   fill="none"
   opacity="1"
   stroke="#000002"
   stroke-linecap="butt"
   stroke-linejoin="round"
   stroke-width="1.77558"
   vectornator:layerName="Oval 3"
   id="path20" />
<path
   d="m 176.974,187.718 c 0,-11.172 9.646,-20.23 21.544,-20.23 11.898,0 21.544,9.058 21.544,20.23 0,11.173 -9.646,20.23 -21.544,20.23 -11.898,0 -21.544,-9.057 -21.544,-20.23 z"
   fill="none"
   opacity="1"
   stroke="#000002"
   stroke-linecap="butt"
   stroke-linejoin="round"
   stroke-width="1.77558"
   vectornator:layerName="Oval 4"
   id="path22" />
<path
   d="m 66.1037,247.357 c 0,-11.172 9.6454,-20.23 21.5436,-20.23 11.8982,0 21.5437,9.058 21.5437,20.23 0,11.173 -9.6455,20.23 -21.5437,20.23 -11.8982,0 -21.5436,-9.057 -21.5436,-20.23 z"
   fill="none"
   opacity="1"
   stroke="#000002"
   stroke-linecap="butt"
   stroke-linejoin="round"
   stroke-width="1.77558"
   vectornator:layerName="Oval 5"
   id="path24" />
<path
   d="m 497.501,247.357 c 0,-11.172 9.645,-20.23 21.544,-20.23 11.898,0 21.543,9.058 21.543,20.23 0,11.173 -9.645,20.23 -21.543,20.23 -11.899,0 -21.544,-9.057 -21.544,-20.23 z"
   fill="none"
   opacity="1"
   stroke="#000002"
   stroke-linecap="butt"
   stroke-linejoin="round"
   stroke-width="1.77558"
   vectornator:layerName="Oval 6"
   id="path26" />
<path
   d="m 608.057,147.258 c 0,-11.172 9.645,-20.229 21.544,-20.229 11.898,0 21.543,9.057 21.543,20.229 0,11.173 -9.645,20.23 -21.543,20.23 -11.899,0 -21.544,-9.057 -21.544,-20.23 z"
   fill="none"
   opacity="1"
   stroke="#000002"
   stroke-linecap="butt"
   stroke-linejoin="round"
   stroke-width="1.77558"
   vectornator:layerName="Oval 7"
   id="path28" />
<path
   d="m 629.601,358.365 c 0,-11.173 9.645,-20.23 21.543,-20.23 11.898,0 21.544,9.057 21.544,20.23 0,11.173 -9.646,20.23 -21.544,20.23 -11.898,0 -21.543,-9.057 -21.543,-20.23 z"
   fill="none"
   opacity="1"
   stroke="#000002"
   stroke-linecap="butt"
   stroke-linejoin="round"
   stroke-width="1.77558"
   vectornator:layerName="Oval 8"
   id="path30" />
<path
   d="m 729.752,247.357 c 0,-11.172 9.645,-20.23 21.543,-20.23 11.898,0 21.544,9.058 21.544,20.23 0,11.173 -9.646,20.23 -21.544,20.23 -11.898,0 -21.543,-9.057 -21.543,-20.23 z"
   fill="none"
   opacity="1"
   stroke="#000002"
   stroke-linecap="butt"
   stroke-linejoin="round"
   stroke-width="1.77558"
   vectornator:layerName="Oval 9"
   id="path32" />
<path
   d="M 109.191,239.402 176.974,194.93"
   fill="none"
   opacity="1"
   stroke="#000002"
   stroke-linecap="butt"
   stroke-linejoin="round"
   stroke-width="1.77558"
   vectornator:layerName="Line 1"
   id="path34" />
<path
   d="m 198.518,207.948 v 89.727"
   fill="none"
   opacity="1"
   stroke="#000002"
   stroke-linecap="butt"
   stroke-linejoin="round"
   stroke-width="1.77558"
   vectornator:layerName="Line 2"
   id="path36" />
<path
   d="M 220.062,317.905 H 281.54"
   fill="none"
   opacity="1"
   stroke="#000002"
   stroke-linecap="butt"
   stroke-linejoin="round"
   stroke-width="1.77558"
   vectornator:layerName="Line 3"
   id="path38" />
<path
   d="m 303.083,207.948 v 89.727"
   fill="none"
   opacity="1"
   stroke="#000002"
   stroke-linecap="butt"
   stroke-linejoin="round"
   stroke-width="1.77558"
   vectornator:layerName="Line 4"
   id="path40" />
<path
   d="M 220.062,187.718 H 281.54"
   fill="none"
   opacity="1"
   stroke="#000002"
   stroke-linecap="butt"
   stroke-linejoin="round"
   stroke-width="1.77558"
   vectornator:layerName="Line 5"
   id="path42" />
<path
   d="M 214.74,302.9 289.4,203.739"
   fill="none"
   opacity="1"
   stroke="#000002"
   stroke-linecap="butt"
   stroke-linejoin="round"
   stroke-width="1.77558"
   vectornator:layerName="Line 6"
   id="path44" />
<path
   d="M 214.74,203.739 289.4,302.9"
   fill="none"
   opacity="1"
   stroke="#000002"
   stroke-linecap="butt"
   stroke-linejoin="round"
   stroke-width="1.77558"
   vectornator:layerName="Line 7"
   id="path46" />
<path
   d="M 324.627,317.905 497.501,253.319"
   fill="none"
   opacity="1"
   stroke="#000002"
   stroke-linecap="butt"
   stroke-linejoin="round"
   stroke-width="1.77558"
   vectornator:layerName="Line 8"
   id="path48" />
<path
   d="m 324.627,187.718 172.874,51.684"
   fill="none"
   opacity="1"
   stroke="#000002"
   stroke-linecap="butt"
   stroke-linejoin="round"
   stroke-width="1.77558"
   vectornator:layerName="Line 9"
   id="path50" />
<path
   d="m 533.837,227.127 75.055,-68.128"
   fill="none"
   opacity="1"
   stroke="#000002"
   stroke-linecap="butt"
   stroke-linejoin="round"
   stroke-width="1.77558"
   vectornator:layerName="Line 10"
   id="path52" />
<path
   d="m 672.688,345.651 69.455,-78.064"
   fill="none"
   opacity="1"
   stroke="#000002"
   stroke-linecap="butt"
   stroke-linejoin="round"
   stroke-width="1.77558"
   vectornator:layerName="Line 11"
   id="path54" />
<path
   d="m 651.144,158.999 78.608,80.403"
   fill="none"
   opacity="1"
   stroke="#000002"
   stroke-linecap="butt"
   stroke-linejoin="round"
   stroke-width="1.77558"
   vectornator:layerName="Line 12"
   id="path56" />
<path
   d="M 540.588,252.812 H 729.752"
   fill="none"
   opacity="1"
   stroke="#000002"
   stroke-linecap="butt"
   stroke-linejoin="round"
   stroke-width="1.77558"
   vectornator:layerName="Line 13"
   id="path58" />
<path
   d="m 629.601,167.488 5.569,178.163"
   fill="none"
   opacity="1"
   stroke="#000002"
   stroke-linecap="butt"
   stroke-linejoin="round"
   stroke-width="1.77558"
   vectornator:layerName="Line 14"
   id="path60" />
</g>
<text
   xml:space="preserve"
   style="font-size:32px;line-height:1.25;font-family:Arial;-inkscape-font-specification:Arial;letter-spacing:0px;word-spacing:0px"
   x="13.93284"
   y="132.11707"
   id="text225"><tspan
     sodipodi:role="line"
     id="tspan223"
     x="13.93284"
     y="132.11707">9</tspan></text><text
   xml:space="preserve"
   style="font-size:32px;line-height:1.25;font-family:Arial;-inkscape-font-specification:Arial;letter-spacing:0px;word-spacing:0px"
   x="124.61496"
   y="73.149666"
   id="text333"><tspan
     sodipodi:role="line"
     id="tspan331"
     x="124.61496"
     y="73.149666">7</tspan></text><text
   xml:space="preserve"
   style="font-size:32px;line-height:1.25;font-family:Arial;-inkscape-font-specification:Arial;letter-spacing:0px;word-spacing:0px"
   x="229.30576"
   y="72.519005"
   id="text337"><tspan
     sodipodi:role="line"
     id="tspan335"
     x="229.30576"
     y="72.519005">5</tspan></text><text
   xml:space="preserve"
   style="font-size:32px;line-height:1.25;font-family:Arial;-inkscape-font-specification:Arial;letter-spacing:0px;word-spacing:0px"
   x="229.62109"
   y="201.49048"
   id="text341"><tspan
     sodipodi:role="line"
     id="tspan339"
     x="229.62109"
     y="201.49048">6</tspan></text><text
   xml:space="preserve"
   style="font-size:32px;line-height:1.25;font-family:Arial;-inkscape-font-specification:Arial;letter-spacing:0px;word-spacing:0px"
   x="124.61497"
   y="202.43649"
   id="text345"><tspan
     sodipodi:role="line"
     id="tspan343"
     x="124.61497"
     y="202.43649">8</tspan></text><text
   xml:space="preserve"
   style="font-size:32px;line-height:1.25;font-family:Arial;-inkscape-font-specification:Arial;letter-spacing:0px;word-spacing:0px"
   x="445.30933"
   y="132.74774"
   id="text349"
   inkscape:transform-center-x="273.70964"
   inkscape:transform-center-y="20.181356"><tspan
     sodipodi:role="line"
     id="tspan347"
     x="445.30933"
     y="132.74774">4</tspan></text><text
   xml:space="preserve"
   style="font-size:32px;line-height:1.25;font-family:Arial;-inkscape-font-specification:Arial;letter-spacing:0px;word-spacing:0px"
   x="555.99146"
   y="32.47163"
   id="text353"
   inkscape:transform-center-x="273.70964"
   inkscape:transform-center-y="20.181356"><tspan
     sodipodi:role="line"
     id="tspan351"
     x="555.99146"
     y="32.47163">3</tspan></text><text
   xml:space="preserve"
   style="font-size:32px;line-height:1.25;font-family:Arial;-inkscape-font-specification:Arial;letter-spacing:0px;word-spacing:0px"
   x="678.34094"
   y="132.11707"
   id="text357"
   inkscape:transform-center-x="273.70964"
   inkscape:transform-center-y="20.181356"><tspan
     sodipodi:role="line"
     id="tspan355"
     x="678.34094"
     y="132.11707">1</tspan></text><text
   xml:space="preserve"
   style="font-size:32px;line-height:1.25;font-family:Arial;-inkscape-font-specification:Arial;letter-spacing:0px;word-spacing:0px"
   x="579.32617"
   y="242.79919"
   id="text361"
   inkscape:transform-center-x="273.70964"
   inkscape:transform-center-y="20.181356"><tspan
     sodipodi:role="line"
     id="tspan359"
     x="579.32617"
     y="242.79919">2</tspan></text></svg>
