<?xml version="1.0" encoding="UTF-8" standalone="no"?>
<!-- Created with Vectornator (http://vectornator.io/) -->

<svg
   height="351.99799"
   stroke-miterlimit="10"
   style="clip-rule:evenodd;fill-rule:nonzero;stroke-linecap:round;stroke-linejoin:round"
   version="1.1"
   viewBox="0 0 493.83057 351.998"
   width="493.83057"
   xml:space="preserve"
   id="svg511"
   sodipodi:docname="graphs.svg"
   inkscape:version="1.2.1 (9c6d41e4, 2022-07-14)"
   xmlns:inkscape="http://www.inkscape.org/namespaces/inkscape"
   xmlns:sodipodi="http://sodipodi.sourceforge.net/DTD/sodipodi-0.dtd"
   xmlns="http://www.w3.org/2000/svg"
   xmlns:svg="http://www.w3.org/2000/svg"
   xmlns:vectornator="http://vectornator.io"><sodipodi:namedview
   id="namedview513"
   pagecolor="#ffffff"
   bordercolor="#999999"
   borderopacity="1"
   inkscape:showpageshadow="0"
   inkscape:pageopacity="1"
   inkscape:pagecheckerboard="0"
   inkscape:deskcolor="#d1d1d1"
   showgrid="false"
   inkscape:zoom="2.242408"
   inkscape:cx="241.48148"
   inkscape:cy="216.50832"
   inkscape:window-width="3008"
   inkscape:window-height="1639"
   inkscape:window-x="0"
   inkscape:window-y="25"
   inkscape:window-maximized="0"
   inkscape:current-layer="svg511" />
<defs
   id="defs262" />

<g
   id="Layer-1"
   vectornator:layerName="Layer 1"
   transform="translate(-184.12121,-84.23281)">
<g
   opacity="1"
   vectornator:layerName="Group 1"
   id="g344">
<path
   d="m 185.009,102.183 c 0,-9.4235 7.639,-17.0624 17.062,-17.0624 9.423,0 17.061,7.6389 17.061,17.0624 0,9.423 -7.638,17.061 -17.061,17.061 -9.423,0 -17.062,-7.638 -17.062,-17.061 z"
   fill="none"
   opacity="1"
   stroke="#000002"
   stroke-linecap="butt"
   stroke-linejoin="round"
   stroke-width="1.77558"
   vectornator:layerName="Oval 1"
   id="path266" />
<path
   d="m 327.26,174.541 c 0,-9.423 7.639,-17.061 17.062,-17.061 9.423,0 17.062,7.638 17.062,17.061 0,9.423 -7.639,17.062 -17.062,17.062 -9.423,0 -17.062,-7.639 -17.062,-17.062 z"
   fill="none"
   opacity="1"
   stroke="#000002"
   stroke-linecap="butt"
   stroke-linejoin="round"
   stroke-width="1.77558"
   vectornator:layerName="Oval 4"
   id="path268" />
<path
   d="m 262.712,174.541 c 0,-9.423 7.639,-17.061 17.062,-17.061 9.423,0 17.062,7.638 17.062,17.061 0,9.423 -7.639,17.062 -17.062,17.062 -9.423,0 -17.062,-7.639 -17.062,-17.062 z"
   fill="none"
   opacity="1"
   stroke="#000002"
   stroke-linecap="butt"
   stroke-linejoin="round"
   stroke-width="1.77558"
   vectornator:layerName="Oval 5"
   id="path270" />
<path
   d="m 262.712,102.183 c 0,-9.4235 7.639,-17.0624 17.062,-17.0624 9.423,0 17.062,7.6389 17.062,17.0624 0,9.423 -7.639,17.061 -17.062,17.061 -9.423,0 -17.062,-7.638 -17.062,-17.061 z"
   fill="none"
   opacity="1"
   stroke="#000002"
   stroke-linecap="butt"
   stroke-linejoin="round"
   stroke-width="1.77558"
   vectornator:layerName="Oval 6"
   id="path272" />
<path
   d="m 327.26,102.183 c 0,-9.4235 7.639,-17.0624 17.062,-17.0624 9.423,0 17.062,7.6389 17.062,17.0624 0,9.423 -7.639,17.061 -17.062,17.061 -9.423,0 -17.062,-7.638 -17.062,-17.061 z"
   fill="none"
   opacity="1"
   stroke="#000002"
   stroke-linecap="butt"
   stroke-linejoin="round"
   stroke-width="1.77558"
   vectornator:layerName="Oval 7"
   id="path274" />
<path
   d="m 219.132,102.183 h 43.58"
   fill="none"
   opacity="1"
   stroke="#000002"
   stroke-linecap="butt"
   stroke-linejoin="round"
   stroke-width="1.77558"
   vectornator:layerName="Line 1"
   id="path276" />
<path
   d="M 296.836,102.183 H 327.26"
   fill="none"
   opacity="1"
   stroke="#000002"
   stroke-linecap="butt"
   stroke-linejoin="round"
   stroke-width="1.77558"
   vectornator:layerName="Line 2"
   id="path278" />
<path
   d="M 344.322,119.244 V 157.48"
   fill="none"
   opacity="1"
   stroke="#000002"
   stroke-linecap="butt"
   stroke-linejoin="round"
   stroke-width="1.77558"
   vectornator:layerName="Line 3"
   id="path280" />
<path
   d="M 279.774,119.244 V 157.48"
   fill="none"
   opacity="1"
   stroke="#000002"
   stroke-linecap="butt"
   stroke-linejoin="round"
   stroke-width="1.77558"
   vectornator:layerName="Line 5"
   id="path282" />
<path
   d="M 296.836,174.541 H 327.26"
   fill="none"
   opacity="1"
   stroke="#000002"
   stroke-linecap="butt"
   stroke-linejoin="round"
   stroke-width="1.77558"
   vectornator:layerName="Line 6"
   id="path284" />
<path
   d="m 291.977,163.265 41.068,-50.037"
   fill="none"
   opacity="1"
   stroke="#000002"
   stroke-linecap="butt"
   stroke-linejoin="round"
   stroke-width="1.77558"
   vectornator:layerName="Line 8"
   id="path286" />
<path
   d="m 200.139,97.1797 c 0,-0.7471 0.54,-1.2105 0,0.1389 -0.37,0.9261 -0.747,1.8493 -1.111,2.7784 -0.835,2.133 -1.799,4.407 -2.222,6.667 -0.145,0.774 0,2.362 0,2.362 0,0 0,-0.463 0,-0.695 0,-1.123 0.546,-2.519 0.833,-3.612 0.76,-2.886 1.638,-5.8396 3.056,-8.4727 0.594,-1.103 0.923,-2.917 0.972,-2.917 0.191,0 0.102,0.3684 0.139,0.5556 0.313,1.5646 0.302,3.2542 0.556,4.8617 0.447,2.8294 1.223,5.6084 2.083,8.3344 0.261,0.825 0.695,2.5 0.695,2.5 0,0 0.139,-1.016 0.139,-1.528"
   fill="none"
   opacity="1"
   stroke="#000002"
   stroke-linecap="round"
   stroke-linejoin="round"
   stroke-width="1.77558"
   vectornator:layerName="Curve 1"
   id="path288" />
<path
   d="m 197.5,103.986 c -0.322,-0.644 2.317,-0.579 2.778,-0.694 0.202,-0.051 3.473,-0.833 3.473,-0.695 0,0.249 -0.472,0.166 -0.695,0.278"
   fill="none"
   opacity="1"
   stroke="#000002"
   stroke-linecap="round"
   stroke-linejoin="round"
   stroke-width="1.77558"
   vectornator:layerName="Curve 2"
   id="path290" />
<path
   d="m 346.272,98.0628 c -0.589,0 -0.838,0.0189 -0.838,0.6988 0,0.1863 -0.132,0.6907 0,0.559 0.696,-0.6967 1.526,-5.5297 -0.42,-4.7514 -2.802,1.1209 -5.445,10.6258 -3.354,12.7168 1.429,1.428 6.149,-2.873 6.149,-3.494 0,-0.263 -0.559,0.296 -0.559,0.559"
   fill="none"
   opacity="1"
   stroke="#000002"
   stroke-linecap="round"
   stroke-linejoin="round"
   stroke-width="1.77558"
   vectornator:layerName="Curve 5"
   id="path292" />
<path
   d="m 278.495,97.2244 c 0.676,-1.3514 -0.564,0.8095 -0.698,1.8167 -0.237,1.7719 -0.309,3.5339 -0.42,5.3099 -0.037,0.607 -0.139,1.817 -0.139,1.817 0,0 -0.14,-0.929 -0.14,-1.397"
   fill="none"
   opacity="1"
   stroke="#000002"
   stroke-linecap="round"
   stroke-linejoin="round"
   stroke-width="1.77558"
   vectornator:layerName="Curve 6"
   id="path294" />
<path
   d="m 278.775,97.3641 c -0.295,0 4.25,-2.5657 4.891,0 0.487,1.949 -2.244,3.2749 -3.773,3.4939 -0.117,0.017 -1.537,-0.012 -1.537,0 0,0.283 0.555,0.14 0.838,0.14 1.011,0 2.35,-0.089 3.214,0.558 5.936,4.452 -1.392,5.73 -4.891,5.73"
   fill="none"
   opacity="1"
   stroke="#000002"
   stroke-linecap="round"
   stroke-linejoin="round"
   stroke-width="1.77558"
   vectornator:layerName="Curve 7"
   id="path296" />
<path
   d="m 342.359,170.032 c 0,-2.924 -0.957,2.067 -0.978,2.236 -0.245,1.957 -0.211,3.987 -0.838,5.869 -0.076,0.226 0.097,0.699 -0.14,0.699 -0.113,0 0.14,-1.982 0.14,-2.236 0,-2.12 0.559,-4.186 0.559,-6.289 0,-0.242 -0.084,-1.676 -0.42,-1.676 -0.398,0 0.138,0.836 0.42,1.117 0.517,0.518 0.901,0.835 1.537,1.258 1.5,1.001 3.339,2.62 4.052,4.332 1.237,2.968 -3.439,4.891 -5.729,4.891"
   fill="none"
   opacity="1"
   stroke="#000002"
   stroke-linecap="round"
   stroke-linejoin="round"
   stroke-width="1.77558"
   vectornator:layerName="Curve 8"
   id="path298" />
<path
   d="m 276.12,169.193 c -0.172,-0.085 -0.751,-0.139 -0.559,-0.139 1.269,0 4.509,0.102 5.45,-0.839 0.2,-0.2 -0.564,0.071 -0.839,0.14 -0.329,0.082 -0.647,0.206 -0.978,0.28 -1.282,0.284 -2.619,0.579 -3.913,0.838 -0.188,0.038 -0.559,0.14 -0.559,0.14 0,0 0.419,0.111 0.419,0.279 0,1.662 -0.559,3.345 -0.559,5.031 0,1.872 -0.779,3.39 -0.698,3.633 0.203,0.61 6.429,-0.698 6.149,-0.698"
   fill="none"
   opacity="1"
   stroke="#000002"
   stroke-linecap="round"
   stroke-linejoin="round"
   stroke-width="1.77558"
   vectornator:layerName="Curve 9"
   id="path300" />
<path
   d="m 274.023,174.085 c -0.186,0 0.373,0 0.559,0 1.059,0 2.045,-0.273 3.075,-0.42 0.136,-0.019 1.451,-0.656 0.699,-0.279"
   fill="none"
   opacity="1"
   stroke="#000002"
   stroke-linecap="round"
   stroke-linejoin="round"
   stroke-width="1.77558"
   vectornator:layerName="Curve 10"
   id="path302" />
<path
   d="m 306.934,186.242 c 0.195,0.107 -0.032,-0.016 -0.21,0.28 -0.241,0.402 -0.329,1.085 -0.419,1.537 -0.18,0.897 -0.93,4.31 0.279,4.612 2.807,0.702 1.989,-6.816 0.839,-7.966 -0.168,-0.168 -1.652,0.906 -0.489,1.537 z"
   fill="none"
   opacity="1"
   stroke="#000002"
   stroke-linecap="round"
   stroke-linejoin="round"
   stroke-width="1.77558"
   vectornator:layerName="Curve 11"
   id="path304" />
<path
   d="m 311.755,190.435 c -0.047,-0.093 -0.093,-0.186 -0.14,-0.28"
   fill="none"
   opacity="1"
   stroke="#000002"
   stroke-linecap="round"
   stroke-linejoin="round"
   stroke-width="1.77558"
   vectornator:layerName="Curve 12"
   id="path306" />
<path
   d="m 315.388,187.5 c 0,-0.413 -0.348,-2.375 0.14,-2.375 0.761,0 1.556,0.751 2.236,0.978 0.22,0.073 0.881,0.059 1.118,0 0.192,-0.048 0.617,-0.419 0.419,-0.419 -0.389,0 -0.664,1.712 -0.699,1.956 -0.238,1.667 -0.473,3.388 -0.838,5.031 -0.063,0.284 -0.34,2.357 0,1.677"
   fill="none"
   opacity="1"
   stroke="#000002"
   stroke-linecap="round"
   stroke-linejoin="round"
   stroke-width="1.77558"
   vectornator:layerName="Curve 13"
   id="path308" />
<path
   d="m 351.163,137.331 c 0,-0.167 -0.232,-0.838 -0.14,-0.978 0.4,-0.598 3.339,-1.507 3.494,-0.419 0.454,3.175 -4.472,4.894 -4.472,7.127 0,0.008 1.643,-0.255 1.817,-0.279 0.966,-0.139 2.107,-0.28 3.074,-0.28"
   fill="none"
   opacity="1"
   stroke="#000002"
   stroke-linecap="round"
   stroke-linejoin="round"
   stroke-width="1.77558"
   vectornator:layerName="Curve 14"
   id="path310" />
<path
   d="m 364.229,136.144 c -0.073,-0.148 -0.003,-0.637 0.07,-0.49 0.107,0.213 0.004,0.637 -0.07,0.49 z"
   fill="none"
   opacity="1"
   stroke="#000002"
   stroke-linecap="round"
   stroke-linejoin="round"
   stroke-width="1.77558"
   vectornator:layerName="Curve 15"
   id="path312" />
<path
   d="m 363.601,136.074 c 0.808,-1.618 0.559,4.509 0.559,5.17 0,0.45 0.089,1.091 0,1.538 -0.038,0.188 -0.332,0.559 -0.14,0.559 0.251,0 0.2,-0.461 0.279,-0.699"
   fill="none"
   opacity="1"
   stroke="#000002"
   stroke-linecap="round"
   stroke-linejoin="round"
   stroke-width="1.77558"
   vectornator:layerName="Curve 16"
   id="path314" />
<path
   d="m 358.43,141.244 c 0.047,-0.093 0.093,-0.186 0.14,-0.279"
   fill="none"
   opacity="1"
   stroke="#000002"
   stroke-linecap="round"
   stroke-linejoin="round"
   stroke-width="1.77558"
   vectornator:layerName="Curve 17"
   id="path316" />
<path
   d="m 305.327,91.0756 c -0.46,-0.2298 3.163,-0.6904 3.493,-0.1398 1.055,1.7584 -2.655,2.3809 -2.655,3.4937 0,0.2329 0.466,0 0.699,0 1.067,0 3.148,0.6911 2.375,2.2359 -0.405,0.8118 -5.235,2.0317 -5.729,1.5372 -0.136,-0.1358 0.367,-0.1398 0.559,-0.1398"
   fill="none"
   opacity="1"
   stroke="#000002"
   stroke-linecap="round"
   stroke-linejoin="round"
   stroke-width="1.77558"
   vectornator:layerName="Curve 18"
   id="path318" />
<path
   d="m 313.641,95.8968 c 0.23,-0.6268 0.858,0.6543 0.35,0.9083 -0.817,0.4087 -0.385,-0.8128 -0.35,-0.9083 z"
   fill="none"
   opacity="1"
   stroke="#000002"
   stroke-linecap="round"
   stroke-linejoin="round"
   stroke-width="1.77558"
   vectornator:layerName="Curve 19"
   id="path320" />
<path
   d="m 317.904,89.1191 c -0.293,-0.5857 -0.14,1.203 -0.14,1.5372 0,0.7149 -0.654,2.9316 -0.28,3.4937 0.458,0.6859 3.452,-0.9783 4.193,-0.9783"
   fill="none"
   opacity="1"
   stroke="#000002"
   stroke-linecap="round"
   stroke-linejoin="round"
   stroke-width="1.77558"
   vectornator:layerName="Curve 20"
   id="path322" />
<path
   d="m 321.258,91.2153 c 0,2.006 -0.28,4.1009 -0.28,6.1488"
   fill="none"
   opacity="1"
   stroke="#000002"
   stroke-linecap="round"
   stroke-linejoin="round"
   stroke-width="1.77558"
   vectornator:layerName="Curve 21"
   id="path324" />
<path
   d="m 314.62,142.572 c 0.151,0.989 -1.497,5.693 0.768,5.24 2.47,-0.493 2.778,-5.379 1.118,-6.707 -0.874,-0.7 -1.99,0.787 -1.886,1.467 z"
   fill="none"
   opacity="1"
   stroke="#000002"
   stroke-linecap="round"
   stroke-linejoin="round"
   stroke-width="1.77558"
   vectornator:layerName="Curve 22"
   id="path326" />
<path
   d="m 321.258,146.555 -0.42,0.139"
   fill="none"
   opacity="1"
   stroke="#000002"
   stroke-linecap="round"
   stroke-linejoin="round"
   stroke-width="1.77558"
   vectornator:layerName="Curve 23"
   id="path328" />
<path
   d="m 325.31,140.126 c 0.355,-0.71 1.547,-0.419 2.236,-0.419 0.422,0 1.635,0.049 1.258,-0.14 -0.819,-0.409 -3.595,0.48 -4.472,0.699 -0.09,0.023 -0.238,-0.083 -0.279,0 -0.438,0.876 -0.14,2.935 -0.14,2.935 0,0 1.766,-0.531 2.655,-0.419 1.023,0.127 1.924,0.781 2.096,1.816 0.493,2.959 -5.067,2.534 -3.633,1.817"
   fill="none"
   opacity="1"
   stroke="#000002"
   stroke-linecap="round"
   stroke-linejoin="round"
   stroke-width="1.77558"
   vectornator:layerName="Curve 24"
   id="path330" />
<path
   d="m 260.328,138.31 c -0.712,-1.425 2.045,-2.923 2.935,-1.677 1.022,1.431 -1.991,4.366 -2.795,5.17 -0.161,0.162 -1.487,1.308 -1.397,1.398 0.315,0.315 4.016,0 3.633,0"
   fill="none"
   opacity="1"
   stroke="#000002"
   stroke-linecap="round"
   stroke-linejoin="round"
   stroke-width="1.77558"
   vectornator:layerName="Curve 25"
   id="path332" />
<path
   d="m 266.617,142.223 c -0.186,-0.373 -0.233,-0.327 0.14,-0.14"
   fill="none"
   opacity="1"
   stroke="#000002"
   stroke-linecap="round"
   stroke-linejoin="round"
   stroke-width="1.77558"
   vectornator:layerName="Curve 26"
   id="path334" />
<path
   d="m 271.089,136.912 c 0,-0.186 0.186,-0.559 0,-0.559 -0.238,0 -0.14,0.461 -0.14,0.699 0,2.107 -0.14,4.187 -0.14,6.289"
   fill="none"
   opacity="1"
   stroke="#000002"
   stroke-linecap="round"
   stroke-linejoin="round"
   stroke-width="1.77558"
   vectornator:layerName="Curve 27"
   id="path336" />
<path
   d="m 234.755,90.6563 c 0.075,-0.2253 0.14,-0.9362 0.14,-0.6987 0,0.9668 -0.28,9.8038 -0.28,5.7296"
   fill="none"
   opacity="1"
   stroke="#000002"
   stroke-linecap="round"
   stroke-linejoin="round"
   stroke-width="1.77558"
   vectornator:layerName="Curve 28"
   id="path338" />
<path
   d="m 238.249,95.5474 c 0,-0.4112 -0.066,-0.2136 0.279,-0.559"
   fill="none"
   opacity="1"
   stroke="#000002"
   stroke-linecap="round"
   stroke-linejoin="round"
   stroke-width="1.77558"
   vectornator:layerName="Curve 29"
   id="path340" />
<path
   d="m 244.118,89.5384 c -1.055,-0.5274 3.243,-0.6988 3.633,-0.6988 0.14,0 0.42,-0.1397 0.42,0 0,0.1473 -0.28,0.0932 -0.42,0.1398 -1.19,0.3968 -3.333,0.312 -4.332,0.9782 -0.231,0.1541 -0.31,3.4936 -0.279,3.4936 0.562,0 4.719,-0.7098 4.192,1.3975 -0.33,1.3189 -0.9,2.5841 -2.376,2.7949 -2.092,0.2989 -2.272,-0.8568 -1.397,-0.4192"
   fill="none"
   opacity="1"
   stroke="#000002"
   stroke-linecap="round"
   stroke-linejoin="round"
   stroke-width="1.77558"
   vectornator:layerName="Curve 30"
   id="path342" />
</g>
<path
   d="m 497.728,343.041 c 0,-9.423 7.639,-17.062 17.062,-17.062 9.423,0 17.061,7.639 17.061,17.062 0,9.423 -7.638,17.062 -17.061,17.062 -9.423,0 -17.062,-7.639 -17.062,-17.062 z"
   fill="none"
   opacity="1"
   stroke="#000002"
   stroke-linecap="butt"
   stroke-linejoin="round"
   stroke-width="1.77558"
   vectornator:layerName="Oval 1"
   id="path346" />
<path
   d="m 639.979,415.4 c 0,-9.423 7.639,-17.062 17.062,-17.062 9.423,0 17.062,7.639 17.062,17.062 0,9.423 -7.639,17.062 -17.062,17.062 -9.423,0 -17.062,-7.639 -17.062,-17.062 z"
   fill="none"
   opacity="1"
   stroke="#000002"
   stroke-linecap="butt"
   stroke-linejoin="round"
   stroke-width="1.77558"
   vectornator:layerName="Oval 4"
   id="path348" />
<path
   d="m 575.431,415.4 c 0,-9.423 7.639,-17.062 17.062,-17.062 9.423,0 17.062,7.639 17.062,17.062 0,9.423 -7.639,17.062 -17.062,17.062 -9.423,0 -17.062,-7.639 -17.062,-17.062 z"
   fill="none"
   opacity="1"
   stroke="#000002"
   stroke-linecap="butt"
   stroke-linejoin="round"
   stroke-width="1.77558"
   vectornator:layerName="Oval 5"
   id="path350" />
<path
   d="m 575.431,343.041 c 0,-9.423 7.639,-17.062 17.062,-17.062 9.423,0 17.062,7.639 17.062,17.062 0,9.423 -7.639,17.062 -17.062,17.062 -9.423,0 -17.062,-7.639 -17.062,-17.062 z"
   fill="none"
   opacity="1"
   stroke="#000002"
   stroke-linecap="butt"
   stroke-linejoin="round"
   stroke-width="1.77558"
   vectornator:layerName="Oval 6"
   id="path352" />
<path
   d="m 639.979,343.041 c 0,-9.423 7.639,-17.062 17.062,-17.062 9.423,0 17.062,7.639 17.062,17.062 0,9.423 -7.639,17.062 -17.062,17.062 -9.423,0 -17.062,-7.639 -17.062,-17.062 z"
   fill="none"
   opacity="1"
   stroke="#000002"
   stroke-linecap="butt"
   stroke-linejoin="round"
   stroke-width="1.77558"
   vectornator:layerName="Oval 7"
   id="path354" />
<path
   d="m 531.851,343.041 h 43.58"
   fill="none"
   opacity="1"
   stroke="#000002"
   stroke-linecap="butt"
   stroke-linejoin="round"
   stroke-width="1.77558"
   vectornator:layerName="Line 1"
   id="path356" />
<path
   d="m 609.555,343.041 h 30.424"
   fill="none"
   opacity="1"
   stroke="#000002"
   stroke-linecap="butt"
   stroke-linejoin="round"
   stroke-width="1.77558"
   vectornator:layerName="Line 2"
   id="path358" />
<path
   d="m 657.041,360.103 v 38.235"
   fill="none"
   opacity="1"
   stroke="#000002"
   stroke-linecap="butt"
   stroke-linejoin="round"
   stroke-width="1.77558"
   vectornator:layerName="Line 3"
   id="path360" />
<path
   d="m 592.493,360.103 v 38.235"
   fill="none"
   opacity="1"
   stroke="#000002"
   stroke-linecap="butt"
   stroke-linejoin="round"
   stroke-width="1.77558"
   vectornator:layerName="Line 5"
   id="path362" />
<path
   d="m 609.555,415.4 h 30.424"
   fill="none"
   opacity="1"
   stroke="#000002"
   stroke-linecap="butt"
   stroke-linejoin="round"
   stroke-width="1.77558"
   vectornator:layerName="Line 6"
   id="path364" />
<path
   d="m 604.696,404.124 41.068,-50.037"
   fill="none"
   opacity="1"
   stroke="#000002"
   stroke-linecap="butt"
   stroke-linejoin="round"
   stroke-width="1.77558"
   vectornator:layerName="Line 8"
   id="path366" />
<path
   d="m 512.858,338.039 c 0,-0.748 0.54,-1.211 0,0.138 -0.37,0.927 -0.747,1.85 -1.111,2.779 -0.835,2.133 -1.799,4.407 -2.222,6.667 -0.145,0.774 0,2.361 0,2.361 0,0 0,-0.463 0,-0.694 0,-1.124 0.545,-2.519 0.833,-3.612 0.76,-2.886 1.638,-5.84 3.056,-8.473 0.594,-1.103 0.923,-2.917 0.972,-2.917 0.191,0 0.102,0.369 0.139,0.556 0.313,1.564 0.302,3.254 0.556,4.861 0.447,2.83 1.223,5.609 2.083,8.335 0.261,0.825 0.695,2.5 0.695,2.5 0,0 0.139,-1.017 0.139,-1.528"
   fill="none"
   opacity="1"
   stroke="#000002"
   stroke-linecap="round"
   stroke-linejoin="round"
   stroke-width="1.77558"
   vectornator:layerName="Curve 1"
   id="path368" />
<path
   d="m 510.219,344.845 c -0.322,-0.644 2.317,-0.579 2.778,-0.695 0.202,-0.05 3.473,-0.832 3.473,-0.694 0,0.249 -0.472,0.166 -0.695,0.278"
   fill="none"
   opacity="1"
   stroke="#000002"
   stroke-linecap="round"
   stroke-linejoin="round"
   stroke-width="1.77558"
   vectornator:layerName="Curve 2"
   id="path370" />
<path
   d="m 658.991,338.922 c -0.589,0 -0.838,0.019 -0.838,0.698 0,0.187 -0.132,0.691 0,0.559 0.696,-0.696 1.526,-5.529 -0.42,-4.751 -2.802,1.121 -5.445,10.626 -3.354,12.717 1.429,1.428 6.149,-2.874 6.149,-3.494 0,-0.263 -0.559,0.296 -0.559,0.559"
   fill="none"
   opacity="1"
   stroke="#000002"
   stroke-linecap="round"
   stroke-linejoin="round"
   stroke-width="1.77558"
   vectornator:layerName="Curve 5"
   id="path372" />
<path
   d="m 591.214,338.083 c 0.676,-1.351 -0.564,0.81 -0.698,1.817 -0.237,1.772 -0.309,3.534 -0.42,5.31 -0.038,0.606 -0.139,1.817 -0.139,1.817 0,0 -0.14,-0.929 -0.14,-1.397"
   fill="none"
   opacity="1"
   stroke="#000002"
   stroke-linecap="round"
   stroke-linejoin="round"
   stroke-width="1.77558"
   vectornator:layerName="Curve 6"
   id="path374" />
<path
   d="m 591.494,338.223 c -0.295,0 4.25,-2.566 4.891,0 0.487,1.949 -2.244,3.275 -3.773,3.494 -0.117,0.016 -1.537,-0.013 -1.537,0 0,0.283 0.555,0.139 0.838,0.139 1.01,0 2.35,-0.089 3.214,0.559 5.936,4.452 -1.392,5.73 -4.891,5.73"
   fill="none"
   opacity="1"
   stroke="#000002"
   stroke-linecap="round"
   stroke-linejoin="round"
   stroke-width="1.77558"
   vectornator:layerName="Curve 7"
   id="path376" />
<path
   d="m 655.078,410.891 c 0,-2.924 -0.957,2.067 -0.978,2.236 -0.245,1.957 -0.211,3.987 -0.838,5.869 -0.076,0.225 0.097,0.699 -0.14,0.699 -0.113,0 0.14,-1.982 0.14,-2.236 0,-2.12 0.558,-4.186 0.558,-6.289 0,-0.242 -0.083,-1.677 -0.419,-1.677 -0.398,0 0.138,0.837 0.419,1.118 0.518,0.517 0.902,0.834 1.538,1.258 1.5,1 3.339,2.619 4.052,4.332 1.237,2.968 -3.439,4.891 -5.729,4.891"
   fill="none"
   opacity="1"
   stroke="#000002"
   stroke-linecap="round"
   stroke-linejoin="round"
   stroke-width="1.77558"
   vectornator:layerName="Curve 8"
   id="path378" />
<path
   d="m 588.839,410.052 c -0.172,-0.086 -0.751,-0.139 -0.559,-0.139 1.269,0 4.509,0.102 5.45,-0.839 0.2,-0.2 -0.564,0.071 -0.839,0.14 -0.329,0.082 -0.647,0.206 -0.978,0.279 -1.282,0.285 -2.619,0.58 -3.913,0.839 -0.188,0.038 -0.559,0.14 -0.559,0.14 0,0 0.419,0.111 0.419,0.279 0,1.662 -0.559,3.345 -0.559,5.031 0,1.872 -0.78,3.39 -0.698,3.633 0.203,0.61 6.429,-0.698 6.149,-0.698"
   fill="none"
   opacity="1"
   stroke="#000002"
   stroke-linecap="round"
   stroke-linejoin="round"
   stroke-width="1.77558"
   vectornator:layerName="Curve 9"
   id="path380" />
<path
   d="m 586.742,414.943 c -0.186,0 0.373,0 0.559,0 1.059,0 2.045,-0.272 3.075,-0.419 0.136,-0.019 1.451,-0.656 0.699,-0.279"
   fill="none"
   opacity="1"
   stroke="#000002"
   stroke-linecap="round"
   stroke-linejoin="round"
   stroke-width="1.77558"
   vectornator:layerName="Curve 10"
   id="path382" />
<path
   d="m 185.009,345.922 c 0,-9.423 7.639,-17.062 17.062,-17.062 9.423,0 17.061,7.639 17.061,17.062 0,9.423 -7.638,17.062 -17.061,17.062 -9.423,0 -17.062,-7.639 -17.062,-17.062 z"
   fill="none"
   opacity="1"
   stroke="#000002"
   stroke-linecap="butt"
   stroke-linejoin="round"
   stroke-width="1.77558"
   vectornator:layerName="Oval 1"
   id="path384" />
<path
   d="m 327.26,418.281 c 0,-9.423 7.639,-17.062 17.062,-17.062 9.423,0 17.062,7.639 17.062,17.062 0,9.423 -7.639,17.062 -17.062,17.062 -9.423,0 -17.062,-7.639 -17.062,-17.062 z"
   fill="none"
   opacity="1"
   stroke="#000002"
   stroke-linecap="butt"
   stroke-linejoin="round"
   stroke-width="1.77558"
   vectornator:layerName="Oval 4"
   id="path386" />
<path
   d="m 262.712,418.281 c 0,-9.423 7.639,-17.062 17.062,-17.062 9.423,0 17.062,7.639 17.062,17.062 0,9.423 -7.639,17.062 -17.062,17.062 -9.423,0 -17.062,-7.639 -17.062,-17.062 z"
   fill="none"
   opacity="1"
   stroke="#000002"
   stroke-linecap="butt"
   stroke-linejoin="round"
   stroke-width="1.77558"
   vectornator:layerName="Oval 5"
   id="path388" />
<path
   d="m 262.712,345.922 c 0,-9.423 7.639,-17.062 17.062,-17.062 9.423,0 17.062,7.639 17.062,17.062 0,9.423 -7.639,17.062 -17.062,17.062 -9.423,0 -17.062,-7.639 -17.062,-17.062 z"
   fill="none"
   opacity="1"
   stroke="#000002"
   stroke-linecap="butt"
   stroke-linejoin="round"
   stroke-width="1.77558"
   vectornator:layerName="Oval 6"
   id="path390" />
<path
   d="m 327.26,345.922 c 0,-9.423 7.639,-17.062 17.062,-17.062 9.423,0 17.062,7.639 17.062,17.062 0,9.423 -7.639,17.062 -17.062,17.062 -9.423,0 -17.062,-7.639 -17.062,-17.062 z"
   fill="none"
   opacity="1"
   stroke="#000002"
   stroke-linecap="butt"
   stroke-linejoin="round"
   stroke-width="1.77558"
   vectornator:layerName="Oval 7"
   id="path392" />
<g
   opacity="1"
   vectornator:layerName="Line 1"
   id="g400">
<path
   d="m 256.496,345.922 c -4.14,0 -37.364,0 -37.364,0"
   fill="none"
   stroke="#000002"
   stroke-linecap="butt"
   stroke-linejoin="round"
   stroke-width="1.77558"
   id="path394" />
<g
   fill="#000002"
   stroke="none"
   id="g398">
<path
   d="m 254.942,345.922 -4.661,6.215 12.429,-6.215 -12.429,-6.214 z"
   fill="#000002"
   id="path396" />
</g>
</g>
<g
   opacity="1"
   vectornator:layerName="Line 2"
   id="g408">
<path
   d="m 321.042,345.922 c -2.625,0 -24.206,0 -24.206,0"
   fill="none"
   stroke="#000002"
   stroke-linecap="butt"
   stroke-linejoin="round"
   stroke-width="1.77558"
   id="path402" />
<g
   fill="#000002"
   stroke="none"
   id="g406">
<path
   d="m 319.488,345.922 -4.661,6.215 12.429,-6.215 -12.429,-6.214 z"
   fill="#000002"
   id="path404" />
</g>
</g>
<g
   opacity="1"
   vectornator:layerName="Line 3"
   id="g416">
<path
   d="m 344.322,395.002 c 0,-3.554 0,-32.018 0,-32.018"
   fill="none"
   stroke="#000002"
   stroke-linecap="butt"
   stroke-linejoin="round"
   stroke-width="1.77558"
   id="path410" />
<g
   fill="#000002"
   stroke="none"
   id="g414">
<path
   d="m 344.322,393.449 -6.215,-4.661 6.215,12.429 6.214,-12.429 z"
   fill="#000002"
   id="path412" />
</g>
</g>
<g
   opacity="1"
   vectornator:layerName="Line 5"
   id="g424">
<path
   d="m 279.774,395.002 c 0,-3.554 0,-32.018 0,-32.018"
   fill="none"
   stroke="#000002"
   stroke-linecap="butt"
   stroke-linejoin="round"
   stroke-width="1.77558"
   id="path418" />
<g
   fill="#000002"
   stroke="none"
   id="g422">
<path
   d="m 279.774,393.449 -6.214,-4.661 6.214,12.429 6.215,-12.429 z"
   fill="#000002"
   id="path420" />
</g>
</g>
<g
   opacity="1"
   vectornator:layerName="Line 6"
   id="g432">
<path
   d="m 321.042,418.281 c -2.625,0 -24.206,0 -24.206,0"
   fill="none"
   stroke="#000002"
   stroke-linecap="butt"
   stroke-linejoin="round"
   stroke-width="1.77558"
   id="path426" />
<g
   fill="#000002"
   stroke="none"
   id="g430">
<path
   d="m 319.488,418.281 -4.661,6.214 12.429,-6.214 -12.429,-6.215 z"
   fill="#000002"
   id="path428" />
</g>
</g>
<g
   opacity="1"
   vectornator:layerName="Line 8"
   id="g440">
<path
   d="m 329.1,361.774 c -3.922,4.778 -37.123,45.23 -37.123,45.23"
   fill="none"
   stroke="#000002"
   stroke-linecap="butt"
   stroke-linejoin="round"
   stroke-width="1.77558"
   id="path434" />
<g
   fill="#000002"
   stroke="none"
   id="g438">
<path
   d="m 328.114,362.975 1.847,7.545 3.081,-13.55 -12.689,5.665 z"
   fill="#000002"
   id="path436" />
</g>
</g>
<path
   d="m 200.139,340.919 c 0,-0.747 0.54,-1.21 0,0.139 -0.37,0.926 -0.747,1.849 -1.111,2.778 -0.835,2.133 -1.799,4.408 -2.222,6.668 -0.145,0.773 0,2.361 0,2.361 0,0 0,-0.463 0,-0.694 0,-1.124 0.546,-2.519 0.833,-3.612 0.76,-2.886 1.638,-5.84 3.056,-8.473 0.594,-1.103 0.923,-2.917 0.972,-2.917 0.191,0 0.102,0.368 0.139,0.555 0.313,1.565 0.302,3.255 0.556,4.862 0.447,2.829 1.223,5.609 2.083,8.334 0.261,0.825 0.695,2.501 0.695,2.501 0,0 0.139,-1.017 0.139,-1.528"
   fill="none"
   opacity="1"
   stroke="#000002"
   stroke-linecap="round"
   stroke-linejoin="round"
   stroke-width="1.77558"
   vectornator:layerName="Curve 1"
   id="path442" />
<path
   d="m 197.5,347.726 c -0.322,-0.644 2.317,-0.58 2.778,-0.695 0.202,-0.05 3.473,-0.832 3.473,-0.694 0,0.249 -0.472,0.166 -0.695,0.277"
   fill="none"
   opacity="1"
   stroke="#000002"
   stroke-linecap="round"
   stroke-linejoin="round"
   stroke-width="1.77558"
   vectornator:layerName="Curve 2"
   id="path444" />
<path
   d="m 346.272,341.802 c -0.589,0 -0.838,0.019 -0.838,0.699 0,0.186 -0.132,0.691 0,0.559 0.696,-0.697 1.526,-5.53 -0.42,-4.751 -2.802,1.121 -5.445,10.625 -3.354,12.717 1.429,1.428 6.149,-2.874 6.149,-3.494 0,-0.264 -0.559,0.295 -0.559,0.559"
   fill="none"
   opacity="1"
   stroke="#000002"
   stroke-linecap="round"
   stroke-linejoin="round"
   stroke-width="1.77558"
   vectornator:layerName="Curve 5"
   id="path446" />
<path
   d="m 278.495,340.964 c 0.676,-1.351 -0.564,0.809 -0.698,1.817 -0.237,1.772 -0.309,3.533 -0.42,5.31 -0.037,0.606 -0.139,1.817 -0.139,1.817 0,0 -0.14,-0.93 -0.14,-1.398"
   fill="none"
   opacity="1"
   stroke="#000002"
   stroke-linecap="round"
   stroke-linejoin="round"
   stroke-width="1.77558"
   vectornator:layerName="Curve 6"
   id="path448" />
<path
   d="m 278.775,341.104 c -0.295,0 4.25,-2.566 4.891,0 0.487,1.949 -2.244,3.275 -3.773,3.493 -0.117,0.017 -1.537,-0.012 -1.537,0 0,0.284 0.555,0.14 0.838,0.14 1.011,0 2.35,-0.089 3.214,0.559 5.936,4.452 -1.392,5.73 -4.891,5.73"
   fill="none"
   opacity="1"
   stroke="#000002"
   stroke-linecap="round"
   stroke-linejoin="round"
   stroke-width="1.77558"
   vectornator:layerName="Curve 7"
   id="path450" />
<path
   d="m 342.359,413.771 c 0,-2.923 -0.957,2.068 -0.978,2.236 -0.245,1.958 -0.211,3.988 -0.838,5.87 -0.076,0.225 0.097,0.698 -0.14,0.698 -0.113,0 0.14,-1.982 0.14,-2.235 0,-2.12 0.559,-4.186 0.559,-6.289 0,-0.242 -0.084,-1.677 -0.42,-1.677 -0.398,0 0.138,0.837 0.42,1.118 0.517,0.517 0.901,0.834 1.537,1.258 1.5,1 3.339,2.619 4.052,4.332 1.237,2.968 -3.439,4.891 -5.729,4.891"
   fill="none"
   opacity="1"
   stroke="#000002"
   stroke-linecap="round"
   stroke-linejoin="round"
   stroke-width="1.77558"
   vectornator:layerName="Curve 8"
   id="path452" />
<path
   d="m 276.12,412.933 c -0.172,-0.086 -0.751,-0.14 -0.559,-0.14 1.269,0 4.509,0.103 5.45,-0.838 0.2,-0.201 -0.564,0.071 -0.839,0.14 -0.329,0.082 -0.647,0.205 -0.978,0.279 -1.282,0.285 -2.619,0.58 -3.913,0.838 -0.188,0.038 -0.559,0.14 -0.559,0.14 0,0 0.419,0.112 0.419,0.28 0,1.662 -0.559,3.345 -0.559,5.031 0,1.872 -0.779,3.389 -0.698,3.633 0.203,0.61 6.429,-0.699 6.149,-0.699"
   fill="none"
   opacity="1"
   stroke="#000002"
   stroke-linecap="round"
   stroke-linejoin="round"
   stroke-width="1.77558"
   vectornator:layerName="Curve 9"
   id="path454" />
<path
   d="m 274.023,417.824 c -0.186,0 0.373,0 0.559,0 1.059,0 2.045,-0.272 3.075,-0.419 0.136,-0.02 1.451,-0.656 0.699,-0.28"
   fill="none"
   opacity="1"
   stroke="#000002"
   stroke-linecap="round"
   stroke-linejoin="round"
   stroke-width="1.77558"
   vectornator:layerName="Curve 10"
   id="path456" />
<path
   d="m 500.689,102.183 c 0,-9.4235 7.639,-17.0624 17.062,-17.0624 9.423,0 17.062,7.6389 17.062,17.0624 0,9.423 -7.639,17.061 -17.062,17.061 -9.423,0 -17.062,-7.638 -17.062,-17.061 z"
   fill="none"
   opacity="1"
   stroke="#000002"
   stroke-linecap="butt"
   stroke-linejoin="round"
   stroke-width="1.77558"
   vectornator:layerName="Oval 1"
   id="path458" />
<path
   d="m 642.94,174.541 c 0,-9.423 7.639,-17.061 17.062,-17.061 9.423,0 17.062,7.638 17.062,17.061 0,9.423 -7.639,17.062 -17.062,17.062 -9.423,0 -17.062,-7.639 -17.062,-17.062 z"
   fill="none"
   opacity="1"
   stroke="#000002"
   stroke-linecap="butt"
   stroke-linejoin="round"
   stroke-width="1.77558"
   vectornator:layerName="Oval 4"
   id="path460" />
<path
   d="m 578.393,174.541 c 0,-9.423 7.639,-17.061 17.062,-17.061 9.423,0 17.062,7.638 17.062,17.061 0,9.423 -7.639,17.062 -17.062,17.062 -9.423,0 -17.062,-7.639 -17.062,-17.062 z"
   fill="none"
   opacity="1"
   stroke="#000002"
   stroke-linecap="butt"
   stroke-linejoin="round"
   stroke-width="1.77558"
   vectornator:layerName="Oval 5"
   id="path462" />
<path
   d="m 578.393,102.183 c 0,-9.4235 7.639,-17.0624 17.062,-17.0624 9.423,0 17.062,7.6389 17.062,17.0624 0,9.423 -7.639,17.061 -17.062,17.061 -9.423,0 -17.062,-7.638 -17.062,-17.061 z"
   fill="none"
   opacity="1"
   stroke="#000002"
   stroke-linecap="butt"
   stroke-linejoin="round"
   stroke-width="1.77558"
   vectornator:layerName="Oval 6"
   id="path464" />
<path
   d="m 642.94,102.183 c 0,-9.4235 7.639,-17.0624 17.062,-17.0624 9.423,0 17.062,7.6389 17.062,17.0624 0,9.423 -7.639,17.061 -17.062,17.061 -9.423,0 -17.062,-7.638 -17.062,-17.061 z"
   fill="none"
   opacity="1"
   stroke="#000002"
   stroke-linecap="butt"
   stroke-linejoin="round"
   stroke-width="1.77558"
   vectornator:layerName="Oval 7"
   id="path466" />
<path
   d="m 534.813,102.183 h 43.58"
   fill="none"
   opacity="1"
   stroke="#000002"
   stroke-linecap="butt"
   stroke-linejoin="round"
   stroke-width="1.77558"
   vectornator:layerName="Line 1"
   id="path468" />
<path
   d="M 612.517,102.183 H 642.94"
   fill="none"
   opacity="1"
   stroke="#000002"
   stroke-linecap="butt"
   stroke-linejoin="round"
   stroke-width="1.77558"
   vectornator:layerName="Line 2"
   id="path470" />
<path
   d="M 660.002,119.244 V 157.48"
   fill="none"
   opacity="1"
   stroke="#000002"
   stroke-linecap="butt"
   stroke-linejoin="round"
   stroke-width="1.77558"
   vectornator:layerName="Line 3"
   id="path472" />
<path
   d="M 595.455,119.244 V 157.48"
   fill="none"
   opacity="1"
   stroke="#000002"
   stroke-linecap="butt"
   stroke-linejoin="round"
   stroke-width="1.77558"
   vectornator:layerName="Line 5"
   id="path474" />
<path
   d="M 612.517,174.541 H 642.94"
   fill="none"
   opacity="1"
   stroke="#000002"
   stroke-linecap="butt"
   stroke-linejoin="round"
   stroke-width="1.77558"
   vectornator:layerName="Line 6"
   id="path476" />
<path
   d="m 607.657,163.265 41.068,-50.037"
   fill="none"
   opacity="1"
   stroke="#000002"
   stroke-linecap="butt"
   stroke-linejoin="round"
   stroke-width="1.77558"
   vectornator:layerName="Line 8"
   id="path478" />
<path
   d="m 515.82,97.1797 c 0,-0.7471 0.54,-1.2105 0,0.1389 -0.371,0.9261 -0.748,1.8493 -1.111,2.7784 -0.835,2.133 -1.799,4.407 -2.223,6.667 -0.145,0.774 0,2.362 0,2.362 0,0 0,-0.463 0,-0.695 0,-1.123 0.546,-2.519 0.833,-3.612 0.76,-2.886 1.639,-5.8396 3.056,-8.4727 0.594,-1.103 0.924,-2.917 0.973,-2.917 0.191,0 0.101,0.3684 0.139,0.5556 0.313,1.5646 0.301,3.2542 0.555,4.8617 0.447,2.8294 1.223,5.6084 2.084,8.3344 0.26,0.825 0.694,2.5 0.694,2.5 0,0 0.139,-1.016 0.139,-1.528"
   fill="none"
   opacity="1"
   stroke="#000002"
   stroke-linecap="round"
   stroke-linejoin="round"
   stroke-width="1.77558"
   vectornator:layerName="Curve 1"
   id="path480" />
<path
   d="m 513.181,103.986 c -0.322,-0.644 2.316,-0.579 2.778,-0.694 0.202,-0.051 3.472,-0.833 3.472,-0.695 0,0.249 -0.471,0.166 -0.694,0.278"
   fill="none"
   opacity="1"
   stroke="#000002"
   stroke-linecap="round"
   stroke-linejoin="round"
   stroke-width="1.77558"
   vectornator:layerName="Curve 2"
   id="path482" />
<path
   d="m 661.953,98.0628 c -0.59,0 -0.839,0.0189 -0.839,0.6988 0,0.1863 -0.132,0.6907 0,0.559 0.697,-0.6967 1.527,-5.5297 -0.419,-4.7514 -2.802,1.1209 -5.445,10.6258 -3.354,12.7168 1.428,1.428 6.149,-2.873 6.149,-3.494 0,-0.263 -0.559,0.296 -0.559,0.559"
   fill="none"
   opacity="1"
   stroke="#000002"
   stroke-linecap="round"
   stroke-linejoin="round"
   stroke-width="1.77558"
   vectornator:layerName="Curve 5"
   id="path484" />
<path
   d="m 594.176,97.2244 c 0.675,-1.3514 -0.565,0.8095 -0.699,1.8167 -0.236,1.7719 -0.308,3.5339 -0.419,5.3099 -0.038,0.607 -0.14,1.817 -0.14,1.817 0,0 -0.14,-0.929 -0.14,-1.397"
   fill="none"
   opacity="1"
   stroke="#000002"
   stroke-linecap="round"
   stroke-linejoin="round"
   stroke-width="1.77558"
   vectornator:layerName="Curve 6"
   id="path486" />
<path
   d="m 594.455,97.3641 c -0.295,0 4.25,-2.5657 4.891,0 0.488,1.949 -2.244,3.2749 -3.773,3.4939 -0.117,0.017 -1.537,-0.012 -1.537,0 0,0.283 0.555,0.14 0.839,0.14 1.01,0 2.35,-0.089 3.214,0.558 5.935,4.452 -1.392,5.73 -4.891,5.73"
   fill="none"
   opacity="1"
   stroke="#000002"
   stroke-linecap="round"
   stroke-linejoin="round"
   stroke-width="1.77558"
   vectornator:layerName="Curve 7"
   id="path488" />
<path
   d="m 658.04,170.032 c 0,-2.924 -0.958,2.067 -0.979,2.236 -0.244,1.957 -0.211,3.987 -0.838,5.869 -0.075,0.226 0.098,0.699 -0.14,0.699 -0.112,0 0.14,-1.982 0.14,-2.236 0,-2.12 0.559,-4.186 0.559,-6.289 0,-0.242 -0.084,-1.676 -0.419,-1.676 -0.398,0 0.137,0.836 0.419,1.117 0.517,0.518 0.902,0.835 1.537,1.258 1.501,1.001 3.339,2.62 4.053,4.332 1.236,2.968 -3.439,4.891 -5.73,4.891"
   fill="none"
   opacity="1"
   stroke="#000002"
   stroke-linecap="round"
   stroke-linejoin="round"
   stroke-width="1.77558"
   vectornator:layerName="Curve 8"
   id="path490" />
<path
   d="m 591.8,169.193 c -0.172,-0.085 -0.751,-0.139 -0.559,-0.139 1.27,0 4.509,0.102 5.45,-0.839 0.201,-0.2 -0.563,0.071 -0.838,0.14 -0.329,0.082 -0.647,0.206 -0.978,0.28 -1.283,0.284 -2.619,0.579 -3.913,0.838 -0.189,0.038 -0.559,0.14 -0.559,0.14 0,0 0.419,0.111 0.419,0.279 0,1.662 -0.559,3.345 -0.559,5.031 0,1.872 -0.78,3.39 -0.699,3.633 0.203,0.61 6.429,-0.698 6.149,-0.698"
   fill="none"
   opacity="1"
   stroke="#000002"
   stroke-linecap="round"
   stroke-linejoin="round"
   stroke-width="1.77558"
   vectornator:layerName="Curve 9"
   id="path492" />
<path
   d="m 589.704,174.085 c -0.186,0 0.373,0 0.559,0 1.059,0 2.045,-0.273 3.074,-0.42 0.137,-0.019 1.452,-0.656 0.699,-0.279"
   fill="none"
   opacity="1"
   stroke="#000002"
   stroke-linecap="round"
   stroke-linejoin="round"
   stroke-width="1.77558"
   vectornator:layerName="Curve 10"
   id="path494" />
<path
   d="m 534.813,106.168 h 43.58"
   fill="none"
   opacity="1"
   stroke="#fd8d33"
   stroke-linecap="butt"
   stroke-linejoin="round"
   stroke-width="1.77558"
   vectornator:layerName="Line 9"
   id="path496" />
<path
   d="M 663.49,119.244 V 157.48"
   fill="none"
   opacity="1"
   stroke="#fd8d33"
   stroke-linecap="butt"
   stroke-linejoin="round"
   stroke-width="1.77558"
   vectornator:layerName="Line 10"
   id="path498" />
<path
   d="M 612.517,178.718 H 642.94"
   fill="none"
   opacity="1"
   stroke="#fd8d33"
   stroke-linecap="butt"
   stroke-linejoin="round"
   stroke-width="1.77558"
   vectornator:layerName="Line 11"
   id="path500" />
<g
   opacity="1"
   vectornator:layerName="Curve 11"
   id="g508">
<path
   d="m 363.712,329.905 c 11.298,-9.788 14.596,-29.412 3.48,-40.528 -2.356,-2.357 -5.479,-6.17 -9.034,-6.678 -7.028,-1.004 -19.186,0.069 -25.139,4.321 -9.515,6.796 -14.556,27.451 -9.427,37.708 2.089,4.179 6.327,5.52 10.212,7.463"
   fill="none"
   stroke="#000002"
   stroke-linecap="round"
   stroke-linejoin="round"
   stroke-width="1.77558"
   id="path502" />
<g
   fill="#000002"
   stroke="none"
   id="g506">
<path
   d="m 365.002,329.039 0.406,-7.758 -6.856,12.087 13.783,-1.768 z"
   fill="#000002"
   id="path504" />
</g>
</g>
</g>
</svg>
