<?xml version="1.0" encoding="UTF-8" standalone="no"?>
<!-- Created with Vectornator (http://vectornator.io/) -->

<svg
   height="100%"
   stroke-miterlimit="10"
   style="fill-rule:nonzero;clip-rule:evenodd;stroke-linecap:round;stroke-linejoin:round;"
   version="1.1"
   viewBox="0 0 841.995 595.35"
   width="100%"
   xml:space="preserve"
   id="svg465"
   sodipodi:docname="matrix.svg"
   inkscape:export-filename="matrix.png"
   inkscape:export-xdpi="96"
   inkscape:export-ydpi="96"
   inkscape:version="1.2.1 (9c6d41e4, 2022-07-14)"
   xmlns:inkscape="http://www.inkscape.org/namespaces/inkscape"
   xmlns:sodipodi="http://sodipodi.sourceforge.net/DTD/sodipodi-0.dtd"
   xmlns="http://www.w3.org/2000/svg"
   xmlns:svg="http://www.w3.org/2000/svg"
   xmlns:vectornator="http://vectornator.io"><sodipodi:namedview
   id="namedview467"
   pagecolor="#ffffff"
   bordercolor="#999999"
   borderopacity="1"
   inkscape:showpageshadow="0"
   inkscape:pageopacity="1"
   inkscape:pagecheckerboard="0"
   inkscape:deskcolor="#d1d1d1"
   showgrid="false"
   inkscape:zoom="1.5856219"
   inkscape:cx="426.01581"
   inkscape:cy="302.40501"
   inkscape:window-width="3008"
   inkscape:window-height="1639"
   inkscape:window-x="0"
   inkscape:window-y="25"
   inkscape:window-maximized="0"
   inkscape:current-layer="svg465" />
<defs
   id="defs239" />
<clipPath
   id="ArtboardFrame">
<rect
   height="595.35"
   width="841.995"
   x="0"
   y="0"
   id="rect241" />
</clipPath>
<g
   clip-path="url(#ArtboardFrame)"
   id="Layer-1"
   vectornator:layerName="Layer 1">
<g
   opacity="1"
   vectornator:layerName="Group 1"
   id="g322">
<path
   d="M204.854 47.7086C204.854 31.2773 217.1 17.957 232.206 17.957C247.312 17.957 259.558 31.2773 259.558 47.7086C259.558 64.14 247.312 77.4603 232.206 77.4603C217.1 77.4603 204.854 64.14 204.854 47.7086Z"
   fill="none"
   opacity="1"
   stroke="#000002"
   stroke-linecap="butt"
   stroke-linejoin="round"
   stroke-width="1.77558"
   vectornator:layerName="Oval 1"
   id="path244" />
<path
   d="M432.898 173.884C432.898 157.453 445.144 144.133 460.25 144.133C475.356 144.133 487.602 157.453 487.602 173.884C487.602 190.316 475.356 203.636 460.25 203.636C445.144 203.636 432.898 190.316 432.898 173.884Z"
   fill="none"
   opacity="1"
   stroke="#000002"
   stroke-linecap="butt"
   stroke-linejoin="round"
   stroke-width="1.77558"
   vectornator:layerName="Oval 4"
   id="path246" />
<path
   d="M329.421 173.884C329.421 157.453 341.667 144.133 356.773 144.133C371.88 144.133 384.126 157.453 384.126 173.884C384.126 190.316 371.88 203.636 356.773 203.636C341.667 203.636 329.421 190.316 329.421 173.884Z"
   fill="none"
   opacity="1"
   stroke="#000002"
   stroke-linecap="butt"
   stroke-linejoin="round"
   stroke-width="1.77558"
   vectornator:layerName="Oval 5"
   id="path248" />
<path
   d="M329.421 47.7086C329.421 31.2773 341.667 17.957 356.773 17.957C371.88 17.957 384.126 31.2773 384.126 47.7086C384.126 64.14 371.88 77.4603 356.773 77.4603C341.667 77.4603 329.421 64.14 329.421 47.7086Z"
   fill="none"
   opacity="1"
   stroke="#000002"
   stroke-linecap="butt"
   stroke-linejoin="round"
   stroke-width="1.77558"
   vectornator:layerName="Oval 6"
   id="path250" />
<path
   d="M432.898 47.7086C432.898 31.2773 445.144 17.957 460.25 17.957C475.356 17.957 487.602 31.2773 487.602 47.7086C487.602 64.14 475.356 77.4603 460.25 77.4603C445.144 77.4603 432.898 64.14 432.898 47.7086Z"
   fill="none"
   opacity="1"
   stroke="#000002"
   stroke-linecap="butt"
   stroke-linejoin="round"
   stroke-width="1.77558"
   vectornator:layerName="Oval 7"
   id="path252" />
<path
   d="M259.558 47.7086L329.421 47.7086"
   fill="none"
   opacity="1"
   stroke="#000002"
   stroke-linecap="butt"
   stroke-linejoin="round"
   stroke-width="1.77558"
   vectornator:layerName="Line 1"
   id="path254" />
<path
   d="M384.126 47.7086L432.898 47.7086"
   fill="none"
   opacity="1"
   stroke="#000002"
   stroke-linecap="butt"
   stroke-linejoin="round"
   stroke-width="1.77558"
   vectornator:layerName="Line 2"
   id="path256" />
<path
   d="M460.25 77.4603L460.25 144.133"
   fill="none"
   opacity="1"
   stroke="#000002"
   stroke-linecap="butt"
   stroke-linejoin="round"
   stroke-width="1.77558"
   vectornator:layerName="Line 3"
   id="path258" />
<path
   d="M356.773 77.4603L356.773 144.133"
   fill="none"
   opacity="1"
   stroke="#000002"
   stroke-linecap="butt"
   stroke-linejoin="round"
   stroke-width="1.77558"
   vectornator:layerName="Line 5"
   id="path260" />
<path
   d="M384.126 173.884L432.898 173.884"
   fill="none"
   opacity="1"
   stroke="#000002"
   stroke-linecap="butt"
   stroke-linejoin="round"
   stroke-width="1.77558"
   vectornator:layerName="Line 6"
   id="path262" />
<path
   d="M376.335 154.22L442.172 66.9689"
   fill="none"
   opacity="1"
   stroke="#000002"
   stroke-linecap="butt"
   stroke-linejoin="round"
   stroke-width="1.77558"
   vectornator:layerName="Line 8"
   id="path264" />
<path
   d="M229.11 38.9851C229.11 37.6822 229.975 36.8742 229.11 39.2273C228.516 40.842 227.911 42.452 227.328 44.0716C225.99 47.7913 224.445 51.7574 223.766 55.6979C223.533 57.0469 223.766 59.8155 223.766 59.8155C223.766 59.8155 223.766 59.0081 223.766 58.6044C223.766 56.6455 224.641 54.2123 225.102 52.3069C226.319 47.2736 227.728 42.1232 230.001 37.5318C230.953 35.6085 231.481 32.4453 231.559 32.4453C231.865 32.4453 231.722 33.0877 231.782 33.4141C232.284 36.1423 232.266 39.0886 232.673 41.8916C233.389 46.8249 234.633 51.672 236.013 56.4245C236.431 57.8628 237.126 60.7844 237.126 60.7844C237.126 60.7844 237.349 59.0118 237.349 58.12"
   fill="none"
   opacity="1"
   stroke="#000002"
   stroke-linecap="round"
   stroke-linejoin="round"
   stroke-width="1.77558"
   vectornator:layerName="Curve 1"
   id="path266" />
<path
   d="M224.879 50.8536C224.363 49.7308 228.592 49.8438 229.333 49.6425C229.657 49.5544 234.9 48.1914 234.9 48.4314C234.9 48.8662 234.144 48.7214 233.786 48.9159"
   fill="none"
   opacity="1"
   stroke="#000002"
   stroke-linecap="round"
   stroke-linejoin="round"
   stroke-width="1.77558"
   vectornator:layerName="Curve 2"
   id="path268" />
<path
   d="M463.377 40.525C462.432 40.525 462.033 40.5579 462.033 41.7434C462.033 42.0683 461.822 42.9479 462.033 42.7181C463.15 41.5033 464.48 33.0758 461.361 34.433C456.869 36.3875 452.631 52.9612 455.984 56.608C458.274 59.0983 465.841 51.5972 465.841 50.5159C465.841 50.0564 464.945 51.0312 464.945 51.4907"
   fill="none"
   opacity="1"
   stroke="#000002"
   stroke-linecap="round"
   stroke-linejoin="round"
   stroke-width="1.77558"
   vectornator:layerName="Curve 5"
   id="path270" />
<path
   d="M354.723 39.0629C355.806 36.7065 353.818 40.4745 353.603 42.2308C353.224 45.3211 353.109 48.393 352.931 51.4907C352.87 52.5477 352.707 54.6585 352.707 54.6585C352.707 54.6585 352.483 53.038 352.483 52.2217"
   fill="none"
   opacity="1"
   stroke="#000002"
   stroke-linecap="round"
   stroke-linejoin="round"
   stroke-width="1.77558"
   vectornator:layerName="Curve 6"
   id="path272" />
<path
   d="M355.171 39.3066C354.698 39.3066 361.984 34.8326 363.012 39.3066C363.793 42.7052 359.415 45.0177 356.964 45.3986C356.776 45.4278 354.499 45.3773 354.499 45.3986C354.499 45.8927 355.389 45.6423 355.843 45.6423C357.463 45.6423 359.611 45.4873 360.996 46.617C370.512 54.3797 358.764 56.608 353.155 56.608"
   fill="none"
   opacity="1"
   stroke="#000002"
   stroke-linecap="round"
   stroke-linejoin="round"
   stroke-width="1.77558"
   vectornator:layerName="Curve 7"
   id="path274" />
<path
   d="M457.104 166.021C457.104 160.922 455.57 169.626 455.536 169.92C455.144 173.333 455.197 176.873 454.192 180.154C454.071 180.547 454.349 181.373 453.968 181.373C453.787 181.373 454.192 177.916 454.192 177.474C454.192 173.777 455.088 170.175 455.088 166.508C455.088 166.086 454.954 163.584 454.416 163.584C453.778 163.584 454.637 165.043 455.088 165.533C455.917 166.435 456.534 166.988 457.552 167.727C459.958 169.471 462.905 172.294 464.049 175.281C466.032 180.456 458.536 183.81 454.864 183.81"
   fill="none"
   opacity="1"
   stroke="#000002"
   stroke-linecap="round"
   stroke-linejoin="round"
   stroke-width="1.77558"
   vectornator:layerName="Curve 8"
   id="path276" />
<path
   d="M350.915 164.559C350.639 164.409 349.711 164.315 350.019 164.315C352.054 164.315 357.247 164.494 358.756 162.853C359.077 162.504 357.852 162.977 357.412 163.097C356.884 163.24 356.374 163.456 355.843 163.584C353.788 164.081 351.646 164.595 349.571 165.046C349.269 165.112 348.675 165.29 348.675 165.29C348.675 165.29 349.347 165.484 349.347 165.777C349.347 168.675 348.451 171.61 348.451 174.55C348.451 177.814 347.2 180.46 347.33 180.885C347.656 181.949 357.637 179.667 357.188 179.667"
   fill="none"
   opacity="1"
   stroke="#000002"
   stroke-linecap="round"
   stroke-linejoin="round"
   stroke-width="1.77558"
   vectornator:layerName="Curve 9"
   id="path278" />
<path
   d="M347.554 173.088C347.256 173.088 348.152 173.088 348.451 173.088C350.148 173.088 351.728 172.613 353.379 172.357C353.598 172.323 355.706 171.213 354.499 171.869"
   fill="none"
   opacity="1"
   stroke="#000002"
   stroke-linecap="round"
   stroke-linejoin="round"
   stroke-width="1.77558"
   vectornator:layerName="Curve 10"
   id="path280" />
<path
   d="M400.313 194.288C400.627 194.473 400.262 194.259 399.977 194.775C399.59 195.477 399.45 196.667 399.305 197.456C399.017 199.02 397.815 204.97 399.753 205.497C404.253 206.721 402.941 193.613 401.097 191.607C400.828 191.315 398.45 193.187 400.313 194.288Z"
   fill="none"
   opacity="1"
   stroke="#000002"
   stroke-linecap="round"
   stroke-linejoin="round"
   stroke-width="1.77558"
   vectornator:layerName="Curve 11"
   id="path282" />
<path
   d="M408.042 201.598C407.967 201.436 407.893 201.273 407.818 201.111"
   fill="none"
   opacity="1"
   stroke="#000002"
   stroke-linecap="round"
   stroke-linejoin="round"
   stroke-width="1.77558"
   vectornator:layerName="Curve 12"
   id="path284" />
<path
   d="M413.867 196.481C413.867 195.76 413.309 192.338 414.091 192.338C415.311 192.338 416.585 193.649 417.675 194.044C418.028 194.172 419.088 194.148 419.467 194.044C419.775 193.961 420.456 193.313 420.14 193.313C419.516 193.313 419.075 196.299 419.019 196.725C418.638 199.631 418.26 202.633 417.675 205.497C417.574 205.994 417.13 209.607 417.675 208.421"
   fill="none"
   opacity="1"
   stroke="#000002"
   stroke-linecap="round"
   stroke-linejoin="round"
   stroke-width="1.77558"
   vectornator:layerName="Curve 13"
   id="path286" />
<path
   d="M471.218 108.999C471.218 108.707 470.845 107.537 470.994 107.294C471.634 106.25 476.345 104.665 476.595 106.563C477.322 112.099 469.426 115.096 469.426 118.99C469.426 119.005 472.059 118.546 472.338 118.503C473.887 118.262 475.716 118.016 477.267 118.016"
   fill="none"
   opacity="1"
   stroke="#000002"
   stroke-linecap="round"
   stroke-linejoin="round"
   stroke-width="1.77558"
   vectornator:layerName="Curve 14"
   id="path288" />
<path
   d="M492.165 106.928C492.047 106.671 492.159 105.818 492.277 106.075C492.447 106.446 492.283 107.185 492.165 106.928Z"
   fill="none"
   opacity="1"
   stroke="#000002"
   stroke-linecap="round"
   stroke-linejoin="round"
   stroke-width="1.77558"
   vectornator:layerName="Curve 15"
   id="path290" />
<path
   d="M491.157 106.806C492.453 103.986 492.053 114.669 492.053 115.823C492.053 116.607 492.196 117.724 492.053 118.503C491.992 118.831 491.521 119.478 491.829 119.478C492.231 119.478 492.15 118.674 492.277 118.259"
   fill="none"
   opacity="1"
   stroke="#000002"
   stroke-linecap="round"
   stroke-linejoin="round"
   stroke-width="1.77558"
   vectornator:layerName="Curve 16"
   id="path292" />
<path
   d="M482.867 115.823C482.942 115.66 483.017 115.498 483.092 115.335"
   fill="none"
   opacity="1"
   stroke="#000002"
   stroke-linecap="round"
   stroke-linejoin="round"
   stroke-width="1.77558"
   vectornator:layerName="Curve 17"
   id="path294" />
<path
   d="M397.737 28.3409C397 27.9403 402.808 27.1371 403.337 28.0973C405.029 31.1634 399.081 32.2489 399.081 34.1893C399.081 34.5954 399.828 34.1893 400.201 34.1893C401.912 34.1893 405.248 35.3944 404.01 38.0882C403.359 39.5037 395.617 41.6309 394.824 40.7687C394.607 40.5319 395.413 40.525 395.72 40.525"
   fill="none"
   opacity="1"
   stroke="#000002"
   stroke-linecap="round"
   stroke-linejoin="round"
   stroke-width="1.77558"
   vectornator:layerName="Curve 18"
   id="path296" />
<path
   d="M411.066 36.7479C411.435 35.655 412.441 37.8889 411.627 38.3319C410.316 39.0444 411.01 36.9144 411.066 36.7479Z"
   fill="none"
   opacity="1"
   stroke="#000002"
   stroke-linecap="round"
   stroke-linejoin="round"
   stroke-width="1.77558"
   vectornator:layerName="Curve 19"
   id="path298" />
<path
   d="M417.899 24.9294C417.43 23.908 417.675 27.027 417.675 27.6099C417.675 28.8565 416.627 32.7219 417.227 33.7019C417.96 34.898 422.761 31.9962 423.948 31.9962"
   fill="none"
   opacity="1"
   stroke="#000002"
   stroke-linecap="round"
   stroke-linejoin="round"
   stroke-width="1.77558"
   vectornator:layerName="Curve 20"
   id="path300" />
<path
   d="M423.276 28.5846C423.276 32.0825 422.828 35.7355 422.828 39.3066"
   fill="none"
   opacity="1"
   stroke="#000002"
   stroke-linecap="round"
   stroke-linejoin="round"
   stroke-width="1.77558"
   vectornator:layerName="Curve 21"
   id="path302" />
<path
   d="M412.635 118.137C412.877 119.862 410.235 128.066 413.867 127.276C417.825 126.414 418.32 117.894 415.659 115.579C414.258 114.359 412.468 116.952 412.635 118.137Z"
   fill="none"
   opacity="1"
   stroke="#000002"
   stroke-linecap="round"
   stroke-linejoin="round"
   stroke-width="1.77558"
   vectornator:layerName="Curve 22"
   id="path304" />
<path
   d="M423.276 125.082L422.604 125.326"
   fill="none"
   opacity="1"
   stroke="#000002"
   stroke-linecap="round"
   stroke-linejoin="round"
   stroke-width="1.77558"
   vectornator:layerName="Curve 23"
   id="path306" />
<path
   d="M429.773 113.873C430.342 112.635 432.253 113.142 433.357 113.142C434.033 113.142 435.978 113.227 435.373 112.898C434.06 112.184 429.61 113.735 428.205 114.117C428.06 114.156 427.823 113.971 427.757 114.117C427.054 115.644 427.533 119.234 427.533 119.234C427.533 119.234 430.364 118.309 431.789 118.503C433.43 118.726 434.873 119.866 435.149 121.671C435.94 126.83 427.027 126.088 429.325 124.839"
   fill="none"
   opacity="1"
   stroke="#000002"
   stroke-linecap="round"
   stroke-linejoin="round"
   stroke-width="1.77558"
   vectornator:layerName="Curve 24"
   id="path308" />
<path
   d="M325.6 110.705C324.458 108.222 328.878 105.609 330.304 107.781C331.943 110.277 327.113 115.395 325.824 116.797C325.565 117.079 323.439 119.077 323.583 119.234C324.089 119.783 330.021 119.234 329.408 119.234"
   fill="none"
   opacity="1"
   stroke="#000002"
   stroke-linecap="round"
   stroke-linejoin="round"
   stroke-width="1.77558"
   vectornator:layerName="Curve 25"
   id="path310" />
<path
   d="M335.681 117.528C335.382 116.878 335.308 116.96 335.905 117.285"
   fill="none"
   opacity="1"
   stroke="#000002"
   stroke-linecap="round"
   stroke-linejoin="round"
   stroke-width="1.77558"
   vectornator:layerName="Curve 26"
   id="path312" />
<path
   d="M342.85 108.268C342.85 107.943 343.149 107.294 342.85 107.294C342.469 107.294 342.626 108.098 342.626 108.512C342.626 112.186 342.402 115.813 342.402 119.478"
   fill="none"
   opacity="1"
   stroke="#000002"
   stroke-linecap="round"
   stroke-linejoin="round"
   stroke-width="1.77558"
   vectornator:layerName="Curve 27"
   id="path314" />
<path
   d="M284.602 27.6099C284.723 27.217 284.826 25.9773 284.826 26.3915C284.826 28.0773 284.378 43.4869 284.378 36.3824"
   fill="none"
   opacity="1"
   stroke="#000002"
   stroke-linecap="round"
   stroke-linejoin="round"
   stroke-width="1.77558"
   vectornator:layerName="Curve 28"
   id="path316" />
<path
   d="M290.203 36.1387C290.203 35.4216 290.098 35.7662 290.651 35.164"
   fill="none"
   opacity="1"
   stroke="#000002"
   stroke-linecap="round"
   stroke-linejoin="round"
   stroke-width="1.77558"
   vectornator:layerName="Curve 29"
   id="path318" />
<path
   d="M299.612 25.6604C297.921 24.7408 304.811 24.442 305.437 24.442C305.661 24.442 306.109 24.1984 306.109 24.442C306.109 24.6989 305.661 24.6045 305.437 24.6857C303.529 25.3776 300.094 25.2299 298.492 26.3915C298.122 26.6601 297.995 32.4835 298.044 32.4835C298.946 32.4835 305.61 31.2458 304.765 34.9203C304.236 37.2202 303.322 39.4264 300.957 39.794C297.603 40.3151 297.313 38.2999 298.716 39.0629"
   fill="none"
   opacity="1"
   stroke="#000002"
   stroke-linecap="round"
   stroke-linejoin="round"
   stroke-width="1.77558"
   vectornator:layerName="Curve 30"
   id="path320" />
</g>
<path
   d="M608.892 914.135C608.892 909.115 608.557 904.093 608.057 899.098"
   fill="none"
   opacity="1"
   stroke="#000002"
   stroke-linecap="round"
   stroke-linejoin="round"
   stroke-width="1.77558"
   vectornator:layerName="Curve 1"
   id="path324" />
<path
   d="M223.772 297.675L223.772 550.871"
   fill="none"
   opacity="1"
   stroke="#000002"
   stroke-linecap="butt"
   stroke-linejoin="round"
   stroke-width="1.77558"
   vectornator:layerName="Line 1"
   id="path326" />
<path
   d="M549.217 280.009L549.217 533.205"
   fill="none"
   opacity="1"
   stroke="#000002"
   stroke-linecap="butt"
   stroke-linejoin="round"
   stroke-width="1.77558"
   vectornator:layerName="Line 2"
   id="path328" />
<g
   opacity="1"
   vectornator:layerName="Group 2"
   id="g334">
<path
   d="M223.772 297.675L242.89 297.675"
   fill="none"
   opacity="1"
   stroke="#000002"
   stroke-linecap="butt"
   stroke-linejoin="round"
   stroke-width="1.77558"
   vectornator:layerName="Line 2"
   id="path330" />
<path
   d="M223.772 550.871L242.89 550.871"
   fill="none"
   opacity="1"
   stroke="#000002"
   stroke-linecap="butt"
   stroke-linejoin="round"
   stroke-width="1.77558"
   vectornator:layerName="Line 3"
   id="path332" />
</g>
<g
   opacity="1"
   vectornator:layerName="Group 3"
   id="g340">
<path
   d="M549.217 533.137L530.1 533.205"
   fill="none"
   opacity="1"
   stroke="#000002"
   stroke-linecap="butt"
   stroke-linejoin="round"
   stroke-width="1.77558"
   vectornator:layerName="Line 2"
   id="path336" />
<path
   d="M548.317 279.942L529.199 280.01"
   fill="none"
   opacity="1"
   stroke="#000002"
   stroke-linecap="butt"
   stroke-linejoin="round"
   stroke-width="1.77558"
   vectornator:layerName="Line 3"
   id="path338" />
</g>
<path
   d="M207.514 312.701L204.901 305.095L202.123 312.701L207.514 312.701ZM203.682 302.541L206.319 302.541L212.565 319.755L210.01 319.755L208.264 314.599L201.455 314.599L199.592 319.755L197.201 319.755L203.682 302.541Z"
   fill="#000002"
   opacity="1"
   stroke="none"
   vectornator:layerName="Text 1"
   id="path342" />
<path
   d="M270.052 272.921L267.439 265.316L264.662 272.921L270.052 272.921ZM266.22 262.761L268.857 262.761L275.103 279.976L272.548 279.976L270.802 274.819L263.994 274.819L262.13 279.976L259.74 279.976L266.22 262.761Z"
   fill="#000002"
   opacity="1"
   stroke="none"
   vectornator:layerName="Text 2"
   id="path344" />
<path
   d="M198.901 513.622L211.451 513.622L211.451 515.731L201.174 515.731L201.174 520.958L210.678 520.958L210.678 522.95L201.174 522.95L201.174 528.786L211.627 528.786L211.627 530.837L198.901 530.837L198.901 513.622Z"
   fill="#000002"
   opacity="1"
   stroke="none"
   vectornator:layerName="Text 3"
   id="path346" />
<path
   d="M495.901 262.761L508.452 262.761L508.452 264.87L498.174 264.87L498.174 270.097L507.678 270.097L507.678 272.089L498.174 272.089L498.174 277.925L508.627 277.925L508.627 279.976L495.901 279.976L495.901 262.761Z"
   fill="#000002"
   opacity="1"
   stroke="none"
   vectornator:layerName="Text 10"
   id="path348" />
<path
   d="M205.287 469.804C206.076 469.804 206.725 469.722 207.233 469.558C208.139 469.254 208.881 468.668 209.459 467.801C209.92 467.105 210.252 466.215 210.455 465.129C210.572 464.48 210.631 463.879 210.631 463.324C210.631 461.191 210.207 459.535 209.36 458.355C208.512 457.176 207.147 456.586 205.264 456.586L201.127 456.586L201.127 469.804L205.287 469.804ZM198.783 454.582L205.756 454.582C208.123 454.582 209.959 455.422 211.264 457.101C212.428 458.617 213.01 460.558 213.01 462.926C213.01 464.754 212.666 466.406 211.979 467.883C210.768 470.492 208.686 471.797 205.733 471.797L198.783 471.797L198.783 454.582Z"
   fill="#000002"
   opacity="1"
   stroke="none"
   vectornator:layerName="Text 4"
   id="path350" />
<path
   d="M443.415 277.983C444.204 277.983 444.852 277.901 445.36 277.737C446.266 277.433 447.009 276.847 447.587 275.98C448.048 275.284 448.38 274.394 448.583 273.308C448.7 272.659 448.759 272.058 448.759 271.503C448.759 269.37 448.335 267.714 447.487 266.534C446.64 265.355 445.274 264.765 443.391 264.765L439.255 264.765L439.255 277.983L443.415 277.983ZM436.911 262.761L443.884 262.761C446.251 262.761 448.087 263.601 449.391 265.28C450.556 266.796 451.138 268.737 451.138 271.105C451.138 272.933 450.794 274.585 450.106 276.062C448.895 278.671 446.813 279.976 443.86 279.976L436.911 279.976L436.911 262.761Z"
   fill="#000002"
   opacity="1"
   stroke="none"
   vectornator:layerName="Text 9"
   id="path352" />
<path
   d="M205.932 400.67C208.111 400.67 209.803 401.244 211.006 402.392C212.209 403.541 212.877 404.846 213.01 406.307L210.736 406.307C210.479 405.197 209.965 404.318 209.195 403.67C208.426 403.021 207.346 402.697 205.955 402.697C204.26 402.697 202.891 403.293 201.848 404.484C200.805 405.676 200.283 407.502 200.283 409.963C200.283 411.978 200.754 413.613 201.695 414.867C202.637 416.121 204.041 416.748 205.908 416.748C207.627 416.748 208.936 416.088 209.834 414.767C210.311 414.072 210.666 413.158 210.901 412.025L213.174 412.025C212.971 413.838 212.299 415.357 211.158 416.584C209.791 418.06 207.947 418.799 205.627 418.799C203.627 418.799 201.947 418.193 200.588 416.982C198.799 415.381 197.904 412.908 197.904 409.564C197.904 407.025 198.576 404.943 199.92 403.318C201.373 401.553 203.377 400.67 205.932 400.67Z"
   fill="#000002"
   opacity="1"
   stroke="none"
   vectornator:layerName="Text 5"
   id="path354" />
<path
   d="M382.725 262.292C384.905 262.292 386.597 262.866 387.8 264.015C389.003 265.163 389.671 266.468 389.804 267.929L387.53 267.929C387.272 266.819 386.759 265.941 385.989 265.292C385.22 264.644 384.14 264.319 382.749 264.319C381.054 264.319 379.684 264.915 378.641 266.107C377.598 267.298 377.077 269.124 377.077 271.585C377.077 273.601 377.548 275.235 378.489 276.489C379.431 277.743 380.835 278.37 382.702 278.37C384.421 278.37 385.729 277.71 386.628 276.39C387.104 275.694 387.46 274.78 387.694 273.648L389.968 273.648C389.765 275.46 389.093 276.98 387.952 278.206C386.585 279.683 384.741 280.421 382.421 280.421C380.421 280.421 378.741 279.816 377.382 278.605C375.593 277.003 374.698 274.53 374.698 271.187C374.698 268.648 375.37 266.566 376.714 264.941C378.167 263.175 380.171 262.292 382.725 262.292Z"
   fill="#000002"
   opacity="1"
   stroke="none"
   vectornator:layerName="Text 8"
   id="path356" />
<path
   d="M205.147 357.836C206.131 357.836 206.897 357.699 207.444 357.426C208.303 356.996 208.733 356.223 208.733 355.105C208.733 353.98 208.276 353.223 207.361 352.832C206.846 352.613 206.08 352.504 205.065 352.504L200.904 352.504L200.904 357.836L205.147 357.836ZM205.932 365.781C207.361 365.781 208.381 365.367 208.99 364.539C209.373 364.016 209.565 363.383 209.565 362.641C209.565 361.391 209.006 360.539 207.889 360.086C207.295 359.844 206.51 359.723 205.533 359.723L200.904 359.723L200.904 365.781L205.932 365.781ZM198.619 350.559L206.014 350.559C208.029 350.559 209.463 351.16 210.315 352.363C210.815 353.074 211.065 353.894 211.065 354.824C211.065 355.91 210.756 356.801 210.139 357.496C209.819 357.863 209.358 358.199 208.756 358.504C209.639 358.84 210.299 359.219 210.736 359.641C211.51 360.391 211.897 361.426 211.897 362.746C211.897 363.855 211.549 364.859 210.854 365.758C209.815 367.101 208.162 367.773 205.897 367.773L198.619 367.773L198.619 350.559Z"
   fill="#000002"
   opacity="1"
   stroke="none"
   vectornator:layerName="Text 6"
   id="path358" />
<path
   d="M323.939 270.038C324.924 270.038 325.689 269.901 326.236 269.628C327.096 269.198 327.525 268.425 327.525 267.308C327.525 266.183 327.068 265.425 326.154 265.034C325.639 264.816 324.873 264.706 323.857 264.706L319.697 264.706L319.697 270.038L323.939 270.038ZM324.724 277.983C326.154 277.983 327.174 277.569 327.783 276.741C328.166 276.218 328.357 275.585 328.357 274.843C328.357 273.593 327.799 272.741 326.682 272.288C326.088 272.046 325.303 271.925 324.326 271.925L319.697 271.925L319.697 277.983L324.724 277.983ZM317.412 262.761L324.807 262.761C326.822 262.761 328.256 263.362 329.107 264.566C329.607 265.276 329.857 266.097 329.857 267.026C329.857 268.112 329.549 269.003 328.932 269.698C328.611 270.066 328.15 270.401 327.549 270.706C328.432 271.042 329.092 271.421 329.529 271.843C330.303 272.593 330.689 273.628 330.689 274.948C330.689 276.058 330.342 277.062 329.646 277.96C328.607 279.304 326.955 279.976 324.689 279.976L317.412 279.976L317.412 262.761Z"
   fill="#000002"
   opacity="1"
   stroke="none"
   vectornator:layerName="Text 7"
   id="path360" />
<path
   d="M267.374 305.511C263.219 304.927 264.686 316.771 266.167 316.983C269.464 317.454 273.572 311.833 274.136 309.013C274.591 306.739 273.614 305.054 272.446 303.217C271.787 302.182 271.335 301.304 270.031 301.044C267.769 300.591 268.719 305.7 267.374 305.511Z"
   fill="none"
   opacity="1"
   stroke="#000002"
   stroke-linecap="round"
   stroke-linejoin="round"
   stroke-width="1.77558"
   vectornator:layerName="Curve 2"
   id="path362" />
<path
   d="M314.102 302.303C314.286 301.936 314.57 299.439 314.444 299.566C313.762 300.247 314.102 308.151 314.102 309.489C314.102 310.743 314.102 311.998 314.102 313.252C314.102 313.481 314.102 313.937 314.102 313.937C314.102 313.937 314.102 313.024 314.102 312.568"
   fill="none"
   opacity="1"
   stroke="#000002"
   stroke-linecap="round"
   stroke-linejoin="round"
   stroke-width="1.77558"
   vectornator:layerName="Curve 3"
   id="path364" />
<path
   d="M322.314 309.489C322.051 309.568 320.485 310.87 320.945 309.489C321.133 308.925 323.87 309.021 322.314 309.489Z"
   fill="none"
   opacity="1"
   stroke="#000002"
   stroke-linecap="round"
   stroke-linejoin="round"
   stroke-width="1.77558"
   vectornator:layerName="Curve 4"
   id="path366" />
<path
   d="M330.184 298.197C332.337 298.197 333.939 297.172 336 296.828C336.338 296.772 337.027 297.171 337.027 296.828C337.027 295.875 333.247 297.404 332.921 297.513C331.604 297.952 328.693 297.745 327.788 298.197C327.334 298.424 328.131 303.585 328.131 304.014C328.131 304.242 328.131 304.698 328.131 304.698C328.131 304.698 329.226 302.782 330.184 302.645C332.75 302.279 335.614 302.468 336.343 305.383C337.863 311.465 334.687 311.884 329.499 311.884C329.029 311.884 330.447 311.752 330.868 311.542"
   fill="none"
   opacity="1"
   stroke="#000002"
   stroke-linecap="round"
   stroke-linejoin="round"
   stroke-width="1.77558"
   vectornator:layerName="Curve 5"
   id="path368" />
<path
   d="M377.573 302.303C378.678 304.872 375.919 313.97 380.824 312.568C384.631 311.48 385.232 299.552 382.193 298.539C379.024 297.483 376.258 299.243 377.573 302.303Z"
   fill="none"
   opacity="1"
   stroke="#000002"
   stroke-linecap="round"
   stroke-linejoin="round"
   stroke-width="1.77558"
   vectornator:layerName="Curve 6"
   id="path370" />
<path
   d="M437.281 302.645C437.73 303.175 436.939 304.005 436.939 304.698C436.939 305.383 436.939 306.067 436.939 306.751C436.939 308.678 437.172 313.414 439.334 314.279C444.869 316.493 447.278 304.087 444.467 301.277C442.788 299.598 440.845 299.275 438.65 300.592C438.097 300.924 437.668 301.445 437.281 301.961C437.128 302.165 436.759 302.826 436.939 302.645C437.23 302.355 436.833 302.116 437.281 302.645Z"
   fill="none"
   opacity="1"
   stroke="#000002"
   stroke-linecap="round"
   stroke-linejoin="round"
   stroke-width="1.77558"
   vectornator:layerName="Curve 7"
   id="path372" />
<path
   d="M499.897 300.934C499.577 300.971 499.536 300.25 499.213 300.25C498.978 300.25 498.553 303.844 498.529 304.014C498.11 306.943 497.383 312.866 502.293 311.884C507.969 310.748 506.981 300.491 504.003 297.513C501.488 294.998 500.726 300.839 499.897 300.934Z"
   fill="none"
   opacity="1"
   stroke="#000002"
   stroke-linecap="round"
   stroke-linejoin="round"
   stroke-width="1.77558"
   vectornator:layerName="Curve 8"
   id="path374" />
<path
   d="M248.406 349.864C248.178 349.408 247.95 348.039 247.722 348.495C246.443 351.054 248.718 355.614 248.406 358.418C248.26 359.735 247.927 360.403 247.38 361.498C247.266 361.726 247.038 362.182 247.038 362.182C247.038 362.182 247.722 360.813 248.064 360.129"
   fill="none"
   opacity="1"
   stroke="#000002"
   stroke-linecap="round"
   stroke-linejoin="round"
   stroke-width="1.77558"
   vectornator:layerName="Curve 9"
   id="path376" />
<path
   d="M255.934 360.129L256.618 360.129"
   fill="none"
   opacity="1"
   stroke="#000002"
   stroke-linecap="round"
   stroke-linejoin="round"
   stroke-width="1.77558"
   vectornator:layerName="Curve 10"
   id="path378" />
<path
   d="M265.857 349.18C265.496 349.18 265.205 348.339 265.514 348.153C266.653 347.47 270.97 347.965 272.358 347.811C273.159 347.722 273.962 347.627 274.753 347.469C275.003 347.419 275.692 347.127 275.437 347.127C274.871 347.127 266.235 348.813 266.199 348.838C265.356 349.4 265.635 353.547 265.857 354.654C265.907 354.904 265.944 355.339 266.199 355.339C266.929 355.339 267.201 354.147 267.91 353.97C272.08 352.928 275.205 353.824 275.779 358.418C276.219 361.937 273.285 362.427 270.647 362.866C269.801 363.007 266.801 364.057 267.567 362.524"
   fill="none"
   opacity="1"
   stroke="#000002"
   stroke-linecap="round"
   stroke-linejoin="round"
   stroke-width="1.77558"
   vectornator:layerName="Curve 11"
   id="path380" />
<path
   d="M321.287 347.469C321.384 347.777 321.683 346.64 321.972 346.785C322.532 347.065 321.107 349.882 320.945 350.206C319.96 352.176 319.74 360.088 323.683 359.102C328.974 357.78 331 344.66 327.446 341.994C324.898 340.083 320.588 345.249 321.287 347.469Z"
   fill="none"
   opacity="1"
   stroke="#000002"
   stroke-linecap="round"
   stroke-linejoin="round"
   stroke-width="1.77558"
   vectornator:layerName="Curve 12"
   id="path382" />
<path
   d="M368.848 341.994C371.602 341.994 375.923 342.732 372.954 346.442C371.702 348.008 369.822 348.732 369.875 348.838C370.123 349.334 377.438 347.633 376.376 352.944C375.879 355.425 369.592 357.421 367.48 356.365C366.599 355.925 367.055 354.997 367.822 354.997"
   fill="none"
   opacity="1"
   stroke="#000002"
   stroke-linecap="round"
   stroke-linejoin="round"
   stroke-width="1.77558"
   vectornator:layerName="Curve 13"
   id="path384" />
<path
   d="M382.535 352.944C381.622 352.944 381.851 352.715 381.851 353.628"
   fill="none"
   opacity="1"
   stroke="#000002"
   stroke-linecap="round"
   stroke-linejoin="round"
   stroke-width="1.77558"
   vectornator:layerName="Curve 14"
   id="path386" />
<path
   d="M385.957 344.047C385.957 338.172 385.799 349.417 385.957 350.206C386.007 350.456 386.051 350.829 386.299 350.891C387.486 351.187 393.462 348.495 392.458 348.495"
   fill="none"
   opacity="1"
   stroke="#000002"
   stroke-linecap="round"
   stroke-linejoin="round"
   stroke-width="1.77558"
   vectornator:layerName="Curve 15"
   id="path388" />
<path
   d="M392.115 345.074C391.605 344.819 391.089 343.705 391.089 343.705C391.089 343.705 391.431 346.209 391.431 347.469C391.431 349.241 393.043 355.879 392.458 357.049C392.254 357.458 392.254 356.089 392.458 355.681"
   fill="none"
   opacity="1"
   stroke="#000002"
   stroke-linecap="round"
   stroke-linejoin="round"
   stroke-width="1.77558"
   vectornator:layerName="Curve 16"
   id="path390" />
<path
   d="M433.004 344.732C435.207 345.579 430.596 352.633 435.57 353.628C440.466 354.607 440.69 343.097 438.308 341.31C437.11 340.411 434.183 340.987 433.175 341.994C431.859 343.311 431.886 345.126 432.149 345.074C432.94 344.916 432.213 344.427 433.004 344.732Z"
   fill="none"
   opacity="1"
   stroke="#000002"
   stroke-linecap="round"
   stroke-linejoin="round"
   stroke-width="1.77558"
   vectornator:layerName="Curve 17"
   id="path392" />
<path
   d="M488.948 343.363C488.948 340.957 496.134 337.885 495.449 341.994C494.987 344.769 489.541 350.59 487.579 352.944C487.373 353.191 486.895 353.305 486.895 353.628C486.895 354.098 487.803 353.378 488.264 353.286C488.617 353.215 488.937 353.014 489.29 352.944C490.651 352.671 496.445 352.601 495.449 352.601"
   fill="none"
   opacity="1"
   stroke="#000002"
   stroke-linecap="round"
   stroke-linejoin="round"
   stroke-width="1.77558"
   vectornator:layerName="Curve 18"
   id="path394" />
<path
   d="M500.924 348.838L500.924 349.522"
   fill="none"
   opacity="1"
   stroke="#000002"
   stroke-linecap="round"
   stroke-linejoin="round"
   stroke-width="1.77558"
   vectornator:layerName="Curve 19"
   id="path396" />
<path
   d="M510.847 340.283C510.847 339.713 510.847 338.573 510.847 338.573C510.847 338.573 510.847 341.538 510.847 343.021C510.847 345.74 511.294 348.894 510.847 351.575C510.674 352.612 510.162 354.654 510.162 354.654C510.162 354.654 510.162 353.514 510.162 352.944"
   fill="none"
   opacity="1"
   stroke="#000002"
   stroke-linecap="round"
   stroke-linejoin="round"
   stroke-width="1.77558"
   vectornator:layerName="Curve 20"
   id="path398" />
<path
   d="M254.394 403.755C254.822 402.962 255.168 402.087 255.25 401.189C255.31 400.526 254.433 402.269 254.223 402.9C253.737 404.359 253.881 403.565 253.881 405.295C253.881 406.835 253.243 415.678 256.96 414.191C260.794 412.658 261.792 403.464 259.698 400.847C256.073 396.315 251.752 408.649 254.394 403.755Z"
   fill="none"
   opacity="1"
   stroke="#000002"
   stroke-linecap="round"
   stroke-linejoin="round"
   stroke-width="1.77558"
   vectornator:layerName="Curve 21"
   id="path400" />
<path
   d="M313.418 399.136C314.101 397.769 318.158 396.832 318.55 398.794C318.872 400.406 316.661 403.033 315.471 403.926C315.062 404.232 313.741 404.25 314.102 404.61C315.431 405.939 321.85 402.141 320.603 408.374C320.022 411.278 315.437 413.498 312.733 412.822C311.654 412.552 309.934 409.883 311.707 410.769"
   fill="none"
   opacity="1"
   stroke="#000002"
   stroke-linecap="round"
   stroke-linejoin="round"
   stroke-width="1.77558"
   vectornator:layerName="Curve 22"
   id="path402" />
<path
   d="M326.762 409.059C325.85 409.515 325.964 409.173 326.42 410.085"
   fill="none"
   opacity="1"
   stroke="#000002"
   stroke-linecap="round"
   stroke-linejoin="round"
   stroke-width="1.77558"
   vectornator:layerName="Curve 23"
   id="path404" />
<path
   d="M331.894 399.478C331.543 398.422 331.552 397.845 331.552 396.741C331.552 396.513 331.552 397.197 331.552 397.425C331.552 398.451 331.552 399.478 331.552 400.504C331.552 402.033 331.076 404.55 331.552 405.979C332.297 408.212 338.745 404.607 340.106 403.926"
   fill="none"
   opacity="1"
   stroke="#000002"
   stroke-linecap="round"
   stroke-linejoin="round"
   stroke-width="1.77558"
   vectornator:layerName="Curve 24"
   id="path406" />
<path
   d="M340.106 401.873C339.846 401.353 340.175 400.573 339.764 400.162C339.74 400.138 339.463 403.979 339.422 404.268C339.001 407.217 339.08 410.16 339.08 413.165C339.08 414.077 339.08 415.902 339.08 415.902C339.08 415.902 339.08 414.761 339.08 414.191"
   fill="none"
   opacity="1"
   stroke="#000002"
   stroke-linecap="round"
   stroke-linejoin="round"
   stroke-width="1.77558"
   vectornator:layerName="Curve 25"
   id="path408" />
<path
   d="M382.364 396.57C383.102 396.66 383.2 394.013 382.535 394.345C380.688 395.269 378.917 407.983 384.93 405.979C388.501 404.789 390.588 395.318 388.352 392.635C387.548 391.671 385.314 391.095 384.246 391.95C383.388 392.637 382.665 394.33 382.535 395.372C382.478 395.825 382.991 396.741 382.535 396.741C382.065 396.741 381.626 396.479 382.364 396.57Z"
   fill="none"
   opacity="1"
   stroke="#000002"
   stroke-linecap="round"
   stroke-linejoin="round"
   stroke-width="1.77558"
   vectornator:layerName="Curve 26"
   id="path410" />
<path
   d="M427.701 392.292C426.052 388.994 433.119 388.592 433.517 390.582C434.269 394.337 431.151 398.423 428.727 400.847C427.874 401.7 426.632 402.846 425.648 403.584C425.24 403.89 424.279 403.758 424.279 404.268C424.279 404.718 425.851 403.265 425.99 403.242C426.879 403.094 428.148 403.242 429.069 403.242C430.328 403.242 431.694 403.469 432.833 402.9"
   fill="none"
   opacity="1"
   stroke="#000002"
   stroke-linecap="round"
   stroke-linejoin="round"
   stroke-width="1.77558"
   vectornator:layerName="Curve 27"
   id="path412" />
<path
   d="M437.623 400.162C438.536 400.618 438.194 400.276 438.65 401.189"
   fill="none"
   opacity="1"
   stroke="#000002"
   stroke-linecap="round"
   stroke-linejoin="round"
   stroke-width="1.77558"
   vectornator:layerName="Curve 28"
   id="path414" />
<path
   d="M446.178 391.608C446.178 391.027 446.095 389.377 445.835 389.897C444.817 391.933 446.906 402.513 445.835 403.584C445.655 403.764 445.607 403.128 445.493 402.9"
   fill="none"
   opacity="1"
   stroke="#000002"
   stroke-linecap="round"
   stroke-linejoin="round"
   stroke-width="1.77558"
   vectornator:layerName="Curve 29"
   id="path416" />
<path
   d="M486.382 389.213C486.382 389.673 486.322 387.398 486.211 387.844C485.876 389.183 486.09 398.713 487.237 399.478C489.223 400.802 492.501 390.872 492.028 389.213C491.802 388.422 491.241 387.742 490.659 387.16C489.857 386.358 487.459 385.911 486.553 386.818C485.94 387.431 485.869 388.435 485.869 389.213C485.869 389.669 485.724 391.014 485.869 390.582C486.236 389.478 486.382 388.299 486.382 389.213Z"
   fill="none"
   opacity="1"
   stroke="#000002"
   stroke-linecap="round"
   stroke-linejoin="round"
   stroke-width="1.77558"
   vectornator:layerName="Curve 30"
   id="path418" />
<path
   d="M497.844 396.056C497.958 395.828 498.073 395.6 498.187 395.372"
   fill="none"
   opacity="1"
   stroke="#000002"
   stroke-linecap="round"
   stroke-linejoin="round"
   stroke-width="1.77558"
   vectornator:layerName="Curve 31"
   id="path420" />
<path
   d="M506.741 385.791C502.925 383.883 513.509 384.081 513.926 384.081C514.154 384.081 513.47 384.081 513.242 384.081C512.094 384.081 511.259 384.266 510.162 384.423C509.004 384.588 504.818 384.292 504.003 385.107C503.713 385.398 504.688 385.722 504.688 386.134C504.688 386.932 504.688 387.73 504.688 388.529C504.688 389.329 503.825 392.456 504.346 392.977C504.706 393.337 504.605 391.891 505.03 391.608C505.421 391.347 505.935 391.343 506.399 391.266C508.774 390.87 511.361 391.786 511.873 394.345C512.411 397.032 505.03 402.041 505.03 398.794"
   fill="none"
   opacity="1"
   stroke="#000002"
   stroke-linecap="round"
   stroke-linejoin="round"
   stroke-width="1.77558"
   vectornator:layerName="Curve 32"
   id="path422" />
<path
   d="M251.486 456.962C250.466 457.472 251.733 454.653 251.486 453.54C251.341 452.891 250.621 454.606 250.459 455.251C250.052 456.88 250.117 458.365 250.117 460.041C250.117 463.03 249.375 472.374 254.907 470.99C260.679 469.548 260.577 458.183 257.303 454.909C255.695 453.301 253.45 455.213 252.512 456.619C252.312 456.92 252.331 457.323 252.17 457.646C251.986 458.014 251.527 459.082 251.486 458.672C251.338 457.193 252.626 456.391 251.486 456.962Z"
   fill="none"
   opacity="1"
   stroke="#000002"
   stroke-linecap="round"
   stroke-linejoin="round"
   stroke-width="1.77558"
   vectornator:layerName="Curve 33"
   id="path424" />
<path
   d="M326.42 451.658C325.945 450.994 326.073 448.981 325.393 449.434C324.713 449.887 324.367 454.138 324.367 454.909C324.367 459.025 323.12 466.107 329.499 464.831C333.987 463.934 331.629 451.133 329.841 448.75C328.618 447.119 326.631 451.953 326.42 451.658Z"
   fill="none"
   opacity="1"
   stroke="#000002"
   stroke-linecap="round"
   stroke-linejoin="round"
   stroke-width="1.77558"
   vectornator:layerName="Curve 34"
   id="path426" />
<path
   d="M371.586 449.434C371.586 446.586 376.963 445.256 378.087 448.065C379.488 451.568 374.964 454.952 372.954 456.962C372.148 457.767 372.323 457.683 371.243 458.33C370.806 458.593 369.365 459.015 369.875 459.015C372.995 459.015 376.148 457.988 379.455 457.988"
   fill="none"
   opacity="1"
   stroke="#000002"
   stroke-linecap="round"
   stroke-linejoin="round"
   stroke-width="1.77558"
   vectornator:layerName="Curve 35"
   id="path428" />
<path
   d="M385.614 453.54C385.5 453.768 385.386 453.996 385.272 454.224"
   fill="none"
   opacity="1"
   stroke="#000002"
   stroke-linecap="round"
   stroke-linejoin="round"
   stroke-width="1.77558"
   vectornator:layerName="Curve 36"
   id="path430" />
<path
   d="M392.115 447.039C391.887 446.583 391.941 445.67 391.431 445.67C390.791 445.67 391.431 448.939 391.431 449.434C391.431 452.285 391.431 455.137 391.431 457.988C391.431 458.458 391.563 457.04 391.773 456.619"
   fill="none"
   opacity="1"
   stroke="#000002"
   stroke-linecap="round"
   stroke-linejoin="round"
   stroke-width="1.77558"
   vectornator:layerName="Curve 37"
   id="path432" />
<path
   d="M438.479 442.933C439.799 441.695 437.155 442.193 436.939 443.275C436.37 446.122 434.597 458.997 440.703 456.962C444.143 455.815 444.467 445.613 444.467 442.933C444.467 442.232 444.562 440.373 443.782 439.853C442.022 438.68 436.528 444.762 438.479 442.933Z"
   fill="none"
   opacity="1"
   stroke="#000002"
   stroke-linecap="round"
   stroke-linejoin="round"
   stroke-width="1.77558"
   vectornator:layerName="Curve 38"
   id="path434" />
<path
   d="M492.028 440.709C491.063 434.666 487.503 453.578 493.054 450.803C495.839 449.41 496.645 439.624 494.423 438.143C493.137 437.285 492.209 441.847 492.028 440.709Z"
   fill="none"
   opacity="1"
   stroke="#000002"
   stroke-linecap="round"
   stroke-linejoin="round"
   stroke-width="1.77558"
   vectornator:layerName="Curve 39"
   id="path436" />
<path
   d="M500.24 446.355L499.897 447.039"
   fill="none"
   opacity="1"
   stroke="#000002"
   stroke-linecap="round"
   stroke-linejoin="round"
   stroke-width="1.77558"
   vectornator:layerName="Curve 40"
   id="path438" />
<path
   d="M505.714 441.222C503.525 436.844 509.804 439.511 512.558 439.511C512.786 439.511 512.069 439.394 511.873 439.511C511.458 439.76 511.115 440.135 510.847 440.538C510.353 441.279 510.066 442.757 509.82 443.617C509.115 446.087 508.732 448.654 508.109 451.145C507.821 452.3 507.083 454.566 507.083 454.566C507.083 454.566 507.425 453.668 507.425 453.198"
   fill="none"
   opacity="1"
   stroke="#000002"
   stroke-linecap="round"
   stroke-linejoin="round"
   stroke-width="1.77558"
   vectornator:layerName="Curve 41"
   id="path440" />
<path
   d="M245.498 513.59C245.468 513.83 245.156 512.906 244.985 513.077C244.226 513.835 244.55 527.553 249.091 525.737C254.943 523.396 253.227 512.509 250.801 508.629C248.025 504.186 245.859 510.707 245.498 513.59Z"
   fill="none"
   opacity="1"
   stroke="#000002"
   stroke-linecap="round"
   stroke-linejoin="round"
   stroke-width="1.77558"
   vectornator:layerName="Curve 42"
   id="path442" />
<path
   d="M317.866 512.735C316.466 509.936 322.16 509.057 323.34 511.024C325.482 514.592 320.054 527.105 315.813 527.105C311.873 527.105 316.627 521.331 318.55 520.946C322.227 520.211 321.735 524.25 324.025 525.395"
   fill="none"
   opacity="1"
   stroke="#000002"
   stroke-linecap="round"
   stroke-linejoin="round"
   stroke-width="1.77558"
   vectornator:layerName="Curve 43"
   id="path444" />
<path
   d="M330.184 522.315L330.868 522.657"
   fill="none"
   opacity="1"
   stroke="#000002"
   stroke-linecap="round"
   stroke-linejoin="round"
   stroke-width="1.77558"
   vectornator:layerName="Curve 44"
   id="path446" />
<path
   d="M338.396 514.103C337.479 512.27 337.631 515.675 337.711 516.156C338.054 518.214 338.1 520.245 338.396 522.315C338.542 523.338 338.738 525.395 338.738 525.395C338.738 525.395 338.738 524.482 338.738 524.026"
   fill="none"
   opacity="1"
   stroke="#000002"
   stroke-linecap="round"
   stroke-linejoin="round"
   stroke-width="1.77558"
   vectornator:layerName="Curve 45"
   id="path448" />
<path
   d="M378.771 512.735C379.202 512.816 378.805 510.408 378.087 511.366C377.268 512.458 376.994 521.587 378.087 522.315C379.112 522.999 380.314 520.509 380.482 519.92C381.227 517.313 381.86 513.613 380.824 511.024C379.547 507.83 374.798 511.986 378.771 512.735Z"
   fill="none"
   opacity="1"
   stroke="#000002"
   stroke-linecap="round"
   stroke-linejoin="round"
   stroke-width="1.77558"
   vectornator:layerName="Curve 46"
   id="path450" />
<path
   d="M387.667 518.38C387.443 514.608 387.434 519.928 387.667 519.578C387.99 519.094 387.681 518.615 387.667 518.38Z"
   fill="none"
   opacity="1"
   stroke="#000002"
   stroke-linecap="round"
   stroke-linejoin="round"
   stroke-width="1.77558"
   vectornator:layerName="Curve 47"
   id="path452" />
<path
   d="M395.879 508.286C393.364 505.772 400.19 507.055 401.012 506.233C401.334 505.911 400.099 506.233 399.643 506.233C399.301 506.233 398.952 506.166 398.617 506.233C397.696 506.417 394.99 506.803 394.511 507.602C393.951 508.535 393.514 514.818 394.511 515.814C394.672 515.975 395.005 515.941 395.195 515.814C396.663 514.835 400.74 512.226 402.038 515.472C403.374 518.812 401.577 521.72 398.959 523.684C397.407 524.848 394.853 524.969 394.853 522.657"
   fill="none"
   opacity="1"
   stroke="#000002"
   stroke-linecap="round"
   stroke-linejoin="round"
   stroke-width="1.77558"
   vectornator:layerName="Curve 48"
   id="path454" />
<path
   d="M437.11 509.313C437.162 504.01 432.725 523.909 439.334 520.604C442.199 519.172 441.958 507.888 440.361 505.891C438.318 503.337 437.097 510.627 437.11 509.313Z"
   fill="none"
   opacity="1"
   stroke="#000002"
   stroke-linecap="round"
   stroke-linejoin="round"
   stroke-width="1.77558"
   vectornator:layerName="Curve 49"
   id="path456" />
<path
   d="M446.862 515.472C446.976 515.7 447.09 515.928 447.204 516.156"
   fill="none"
   opacity="1"
   stroke="#000002"
   stroke-linecap="round"
   stroke-linejoin="round"
   stroke-width="1.77558"
   vectornator:layerName="Curve 50"
   id="path458" />
<path
   d="M454.732 509.313C454.606 508.685 453.233 504.039 454.047 503.496C454.589 503.135 457.527 506.04 458.495 506.233C459.055 506.345 459.803 506.637 460.206 506.233C460.461 505.978 460.803 504.952 460.548 505.207C459.234 506.521 458.005 516.825 457.469 519.236C457.348 519.779 456.246 521.776 456.785 522.315C456.898 522.429 457.469 520.448 457.469 520.262"
   fill="none"
   opacity="1"
   stroke="#000002"
   stroke-linecap="round"
   stroke-linejoin="round"
   stroke-width="1.77558"
   vectornator:layerName="Curve 51"
   id="path460" />
<path
   d="M510.847 508.457C510.743 508.905 509.945 506.604 509.478 510.339C509.14 513.046 508.431 520.471 512.9 519.578C516.934 518.771 515.807 504.821 513.926 502.47C512.395 500.556 509.758 505.021 510.162 506.233C510.503 507.254 510.984 507.867 510.847 508.457Z"
   fill="none"
   opacity="1"
   stroke="#000002"
   stroke-linecap="round"
   stroke-linejoin="round"
   stroke-width="1.77558"
   vectornator:layerName="Curve 52"
   id="path462" />
</g>
</svg>
