<?xml version="1.0" encoding="UTF-8" standalone="no"?>
<!-- Created with Vectornator (http://vectornator.io/) -->

<svg
   height="178.43449"
   stroke-miterlimit="10"
   style="clip-rule:evenodd;fill-rule:nonzero;stroke-linecap:round;stroke-linejoin:round"
   version="1.1"
   viewBox="0 0 490.42426 178.4345"
   width="490.42426"
   xml:space="preserve"
   id="svg635"
   sodipodi:docname="modular_example3.svg"
   inkscape:version="1.2.1 (9c6d41e4, 2022-07-14)"
   xmlns:inkscape="http://www.inkscape.org/namespaces/inkscape"
   xmlns:sodipodi="http://sodipodi.sourceforge.net/DTD/sodipodi-0.dtd"
   xmlns="http://www.w3.org/2000/svg"
   xmlns:svg="http://www.w3.org/2000/svg"
   xmlns:vectornator="http://vectornator.io"><sodipodi:namedview
   id="namedview637"
   pagecolor="#ffffff"
   bordercolor="#999999"
   borderopacity="1"
   inkscape:showpageshadow="0"
   inkscape:pageopacity="1"
   inkscape:pagecheckerboard="0"
   inkscape:deskcolor="#d1d1d1"
   showgrid="false"
   inkscape:zoom="1.5856219"
   inkscape:cx="263.93429"
   inkscape:cy="301.14367"
   inkscape:window-width="2560"
   inkscape:window-height="1387"
   inkscape:window-x="0"
   inkscape:window-y="25"
   inkscape:window-maximized="0"
   inkscape:current-layer="svg635" />
<defs
   id="defs429">




































































































<clipPath
   clipPathUnits="userSpaceOnUse"
   id="clipPath377"><g
     id="g381"><rect
       height="595.34998"
       width="841.995"
       x="0"
       y="0"
       id="rect379" /></g></clipPath><clipPath
   clipPathUnits="userSpaceOnUse"
   id="clipPath383"><g
     id="g387"><rect
       height="595.34998"
       width="841.995"
       x="0"
       y="0"
       id="rect385" /></g></clipPath><clipPath
   clipPathUnits="userSpaceOnUse"
   id="clipPath389"><g
     id="g393"><rect
       height="595.34998"
       width="841.995"
       x="0"
       y="0"
       id="rect391" /></g></clipPath><clipPath
   clipPathUnits="userSpaceOnUse"
   id="clipPath395"><g
     id="g399"><rect
       height="595.34998"
       width="841.995"
       x="0"
       y="0"
       id="rect397" /></g></clipPath><clipPath
   clipPathUnits="userSpaceOnUse"
   id="clipPath401"><g
     id="g405"><rect
       height="595.34998"
       width="841.995"
       x="0"
       y="0"
       id="rect403" /></g></clipPath><clipPath
   clipPathUnits="userSpaceOnUse"
   id="clipPath407"><g
     id="g411"><rect
       height="595.34998"
       width="841.995"
       x="0"
       y="0"
       id="rect409" /></g></clipPath><clipPath
   clipPathUnits="userSpaceOnUse"
   id="clipPath413"><g
     id="g417"><rect
       height="595.34998"
       width="841.995"
       x="0"
       y="0"
       id="rect415" /></g></clipPath><clipPath
   clipPathUnits="userSpaceOnUse"
   id="clipPath419"><g
     id="g423"><rect
       height="595.34998"
       width="841.995"
       x="0"
       y="0"
       id="rect421" /></g></clipPath><clipPath
   clipPathUnits="userSpaceOnUse"
   id="clipPath425"><g
     id="g429"><rect
       height="595.34998"
       width="841.995"
       x="0"
       y="0"
       id="rect427" /></g></clipPath><clipPath
   clipPathUnits="userSpaceOnUse"
   id="clipPath431"><g
     id="g435"><rect
       height="595.34998"
       width="841.995"
       x="0"
       y="0"
       id="rect433" /></g></clipPath><clipPath
   clipPathUnits="userSpaceOnUse"
   id="clipPath437"><g
     id="g441"><rect
       height="595.34998"
       width="841.995"
       x="0"
       y="0"
       id="rect439" /></g></clipPath><clipPath
   clipPathUnits="userSpaceOnUse"
   id="clipPath443"><g
     id="g447"><rect
       height="595.34998"
       width="841.995"
       x="0"
       y="0"
       id="rect445" /></g></clipPath><clipPath
   clipPathUnits="userSpaceOnUse"
   id="clipPath449"><g
     id="g453"><rect
       height="595.34998"
       width="841.995"
       x="0"
       y="0"
       id="rect451" /></g></clipPath><clipPath
   clipPathUnits="userSpaceOnUse"
   id="clipPath455"><g
     id="g459"><rect
       height="595.34998"
       width="841.995"
       x="0"
       y="0"
       id="rect457" /></g></clipPath><clipPath
   clipPathUnits="userSpaceOnUse"
   id="clipPath461"><g
     id="g465"><rect
       height="595.34998"
       width="841.995"
       x="0"
       y="0"
       id="rect463" /></g></clipPath><clipPath
   clipPathUnits="userSpaceOnUse"
   id="clipPath467"><g
     id="g471"><rect
       height="595.34998"
       width="841.995"
       x="0"
       y="0"
       id="rect469" /></g></clipPath><clipPath
   clipPathUnits="userSpaceOnUse"
   id="clipPath473"><g
     id="g477"><rect
       height="595.34998"
       width="841.995"
       x="0"
       y="0"
       id="rect475" /></g></clipPath><clipPath
   clipPathUnits="userSpaceOnUse"
   id="clipPath479"><g
     id="g483"><rect
       height="595.34998"
       width="841.995"
       x="0"
       y="0"
       id="rect481" /></g></clipPath><clipPath
   clipPathUnits="userSpaceOnUse"
   id="clipPath485"><g
     id="g489"><rect
       height="595.34998"
       width="841.995"
       x="0"
       y="0"
       id="rect487" /></g></clipPath><clipPath
   clipPathUnits="userSpaceOnUse"
   id="clipPath491"><g
     id="g495"><rect
       height="595.34998"
       width="841.995"
       x="0"
       y="0"
       id="rect493" /></g></clipPath><clipPath
   clipPathUnits="userSpaceOnUse"
   id="clipPath497"><g
     id="g501"><rect
       height="595.34998"
       width="841.995"
       x="0"
       y="0"
       id="rect499" /></g></clipPath><clipPath
   clipPathUnits="userSpaceOnUse"
   id="clipPath503"><g
     id="g507"><rect
       height="595.34998"
       width="841.995"
       x="0"
       y="0"
       id="rect505" /></g></clipPath><clipPath
   clipPathUnits="userSpaceOnUse"
   id="clipPath509"><g
     id="g513"><rect
       height="595.34998"
       width="841.995"
       x="0"
       y="0"
       id="rect511" /></g></clipPath><clipPath
   clipPathUnits="userSpaceOnUse"
   id="clipPath515"><g
     id="g519"><rect
       height="595.34998"
       width="841.995"
       x="0"
       y="0"
       id="rect517" /></g></clipPath><clipPath
   clipPathUnits="userSpaceOnUse"
   id="clipPath521"><g
     id="g525"><rect
       height="595.34998"
       width="841.995"
       x="0"
       y="0"
       id="rect523" /></g></clipPath><clipPath
   clipPathUnits="userSpaceOnUse"
   id="clipPath527"><g
     id="g531"><rect
       height="595.34998"
       width="841.995"
       x="0"
       y="0"
       id="rect529" /></g></clipPath><clipPath
   clipPathUnits="userSpaceOnUse"
   id="clipPath533"><g
     id="g537"><rect
       height="595.34998"
       width="841.995"
       x="0"
       y="0"
       id="rect535" /></g></clipPath><clipPath
   clipPathUnits="userSpaceOnUse"
   id="clipPath539"><g
     id="g543"><rect
       height="595.34998"
       width="841.995"
       x="0"
       y="0"
       id="rect541" /></g></clipPath><clipPath
   clipPathUnits="userSpaceOnUse"
   id="clipPath545"><g
     id="g549"><rect
       height="595.34998"
       width="841.995"
       x="0"
       y="0"
       id="rect547" /></g></clipPath><clipPath
   clipPathUnits="userSpaceOnUse"
   id="clipPath551"><g
     id="g555"><rect
       height="595.34998"
       width="841.995"
       x="0"
       y="0"
       id="rect553" /></g></clipPath><clipPath
   clipPathUnits="userSpaceOnUse"
   id="clipPath557"><g
     id="g561"><rect
       height="595.34998"
       width="841.995"
       x="0"
       y="0"
       id="rect559" /></g></clipPath><clipPath
   clipPathUnits="userSpaceOnUse"
   id="clipPath563"><g
     id="g567"><rect
       height="595.34998"
       width="841.995"
       x="0"
       y="0"
       id="rect565" /></g></clipPath><clipPath
   clipPathUnits="userSpaceOnUse"
   id="clipPath569"><g
     id="g573"><rect
       height="595.34998"
       width="841.995"
       x="0"
       y="0"
       id="rect571" /></g></clipPath><clipPath
   clipPathUnits="userSpaceOnUse"
   id="clipPath575"><g
     id="g579"><rect
       height="595.34998"
       width="841.995"
       x="0"
       y="0"
       id="rect577" /></g></clipPath><clipPath
   clipPathUnits="userSpaceOnUse"
   id="clipPath581"><g
     id="g585"><rect
       height="595.34998"
       width="841.995"
       x="0"
       y="0"
       id="rect583" /></g></clipPath><clipPath
   clipPathUnits="userSpaceOnUse"
   id="clipPath587"><g
     id="g591"><rect
       height="595.34998"
       width="841.995"
       x="0"
       y="0"
       id="rect589" /></g></clipPath><clipPath
   clipPathUnits="userSpaceOnUse"
   id="clipPath593"><g
     id="g597"><rect
       height="595.34998"
       width="841.995"
       x="0"
       y="0"
       id="rect595" /></g></clipPath><clipPath
   clipPathUnits="userSpaceOnUse"
   id="clipPath599"><g
     id="g603"><rect
       height="595.34998"
       width="841.995"
       x="0"
       y="0"
       id="rect601" /></g></clipPath><clipPath
   clipPathUnits="userSpaceOnUse"
   id="clipPath605"><g
     id="g609"><rect
       height="595.34998"
       width="841.995"
       x="0"
       y="0"
       id="rect607" /></g></clipPath><clipPath
   clipPathUnits="userSpaceOnUse"
   id="clipPath611"><g
     id="g615"><rect
       height="595.34998"
       width="841.995"
       x="0"
       y="0"
       id="rect613" /></g></clipPath><clipPath
   clipPathUnits="userSpaceOnUse"
   id="clipPath617"><g
     id="g621"><rect
       height="595.34998"
       width="841.995"
       x="0"
       y="0"
       id="rect619" /></g></clipPath><clipPath
   clipPathUnits="userSpaceOnUse"
   id="clipPath623"><g
     id="g627"><rect
       height="595.34998"
       width="841.995"
       x="0"
       y="0"
       id="rect625" /></g></clipPath><clipPath
   clipPathUnits="userSpaceOnUse"
   id="clipPath629"><g
     id="g633"><rect
       height="595.34998"
       width="841.995"
       x="0"
       y="0"
       id="rect631" /></g></clipPath><clipPath
   clipPathUnits="userSpaceOnUse"
   id="clipPath635"><g
     id="g639"><rect
       height="595.34998"
       width="841.995"
       x="0"
       y="0"
       id="rect637" /></g></clipPath><clipPath
   clipPathUnits="userSpaceOnUse"
   id="clipPath641"><g
     id="g645"><rect
       height="595.34998"
       width="841.995"
       x="0"
       y="0"
       id="rect643" /></g></clipPath><clipPath
   clipPathUnits="userSpaceOnUse"
   id="clipPath647"><g
     id="g651"><rect
       height="595.34998"
       width="841.995"
       x="0"
       y="0"
       id="rect649" /></g></clipPath><clipPath
   clipPathUnits="userSpaceOnUse"
   id="clipPath653"><g
     id="g657"><rect
       height="595.34998"
       width="841.995"
       x="0"
       y="0"
       id="rect655" /></g></clipPath><clipPath
   clipPathUnits="userSpaceOnUse"
   id="clipPath659"><g
     id="g663"><rect
       height="595.34998"
       width="841.995"
       x="0"
       y="0"
       id="rect661" /></g></clipPath><clipPath
   clipPathUnits="userSpaceOnUse"
   id="clipPath665"><g
     id="g669"><rect
       height="595.34998"
       width="841.995"
       x="0"
       y="0"
       id="rect667" /></g></clipPath><clipPath
   clipPathUnits="userSpaceOnUse"
   id="clipPath671"><g
     id="g675"><rect
       height="595.34998"
       width="841.995"
       x="0"
       y="0"
       id="rect673" /></g></clipPath><clipPath
   clipPathUnits="userSpaceOnUse"
   id="clipPath677"><g
     id="g681"><rect
       height="595.34998"
       width="841.995"
       x="0"
       y="0"
       id="rect679" /></g></clipPath><clipPath
   clipPathUnits="userSpaceOnUse"
   id="clipPath683"><g
     id="g687"><rect
       height="595.34998"
       width="841.995"
       x="0"
       y="0"
       id="rect685" /></g></clipPath><clipPath
   clipPathUnits="userSpaceOnUse"
   id="clipPath689"><g
     id="g693"><rect
       height="595.34998"
       width="841.995"
       x="0"
       y="0"
       id="rect691" /></g></clipPath><clipPath
   clipPathUnits="userSpaceOnUse"
   id="clipPath695"><g
     id="g699"><rect
       height="595.34998"
       width="841.995"
       x="0"
       y="0"
       id="rect697" /></g></clipPath><clipPath
   clipPathUnits="userSpaceOnUse"
   id="clipPath701"><g
     id="g705"><rect
       height="595.34998"
       width="841.995"
       x="0"
       y="0"
       id="rect703" /></g></clipPath><clipPath
   clipPathUnits="userSpaceOnUse"
   id="clipPath707"><g
     id="g711"><rect
       height="595.34998"
       width="841.995"
       x="0"
       y="0"
       id="rect709" /></g></clipPath><clipPath
   clipPathUnits="userSpaceOnUse"
   id="clipPath713"><g
     id="g717"><rect
       height="595.34998"
       width="841.995"
       x="0"
       y="0"
       id="rect715" /></g></clipPath><clipPath
   clipPathUnits="userSpaceOnUse"
   id="clipPath719"><g
     id="g723"><rect
       height="595.34998"
       width="841.995"
       x="0"
       y="0"
       id="rect721" /></g></clipPath><clipPath
   clipPathUnits="userSpaceOnUse"
   id="clipPath725"><g
     id="g729"><rect
       height="595.34998"
       width="841.995"
       x="0"
       y="0"
       id="rect727" /></g></clipPath><clipPath
   clipPathUnits="userSpaceOnUse"
   id="clipPath731"><g
     id="g735"><rect
       height="595.34998"
       width="841.995"
       x="0"
       y="0"
       id="rect733" /></g></clipPath><clipPath
   clipPathUnits="userSpaceOnUse"
   id="clipPath737"><g
     id="g741"><rect
       height="595.34998"
       width="841.995"
       x="0"
       y="0"
       id="rect739" /></g></clipPath><clipPath
   clipPathUnits="userSpaceOnUse"
   id="clipPath743"><g
     id="g747"><rect
       height="595.34998"
       width="841.995"
       x="0"
       y="0"
       id="rect745" /></g></clipPath><clipPath
   clipPathUnits="userSpaceOnUse"
   id="clipPath749"><g
     id="g753"><rect
       height="595.34998"
       width="841.995"
       x="0"
       y="0"
       id="rect751" /></g></clipPath><clipPath
   clipPathUnits="userSpaceOnUse"
   id="clipPath755"><g
     id="g759"><rect
       height="595.34998"
       width="841.995"
       x="0"
       y="0"
       id="rect757" /></g></clipPath><clipPath
   clipPathUnits="userSpaceOnUse"
   id="clipPath761"><g
     id="g765"><rect
       height="595.34998"
       width="841.995"
       x="0"
       y="0"
       id="rect763" /></g></clipPath><clipPath
   clipPathUnits="userSpaceOnUse"
   id="clipPath767"><g
     id="g771"><rect
       height="595.34998"
       width="841.995"
       x="0"
       y="0"
       id="rect769" /></g></clipPath><clipPath
   clipPathUnits="userSpaceOnUse"
   id="clipPath773"><g
     id="g777"><rect
       height="595.34998"
       width="841.995"
       x="0"
       y="0"
       id="rect775" /></g></clipPath><clipPath
   clipPathUnits="userSpaceOnUse"
   id="clipPath779"><g
     id="g783"><rect
       height="595.34998"
       width="841.995"
       x="0"
       y="0"
       id="rect781" /></g></clipPath><clipPath
   clipPathUnits="userSpaceOnUse"
   id="clipPath785"><g
     id="g789"><rect
       height="595.34998"
       width="841.995"
       x="0"
       y="0"
       id="rect787" /></g></clipPath><clipPath
   clipPathUnits="userSpaceOnUse"
   id="clipPath791"><g
     id="g795"><rect
       height="595.34998"
       width="841.995"
       x="0"
       y="0"
       id="rect793" /></g></clipPath><clipPath
   clipPathUnits="userSpaceOnUse"
   id="clipPath797"><g
     id="g801"><rect
       height="595.34998"
       width="841.995"
       x="0"
       y="0"
       id="rect799" /></g></clipPath><clipPath
   clipPathUnits="userSpaceOnUse"
   id="clipPath803"><g
     id="g807"><rect
       height="595.34998"
       width="841.995"
       x="0"
       y="0"
       id="rect805" /></g></clipPath><clipPath
   clipPathUnits="userSpaceOnUse"
   id="clipPath809"><g
     id="g813"><rect
       height="595.34998"
       width="841.995"
       x="0"
       y="0"
       id="rect811" /></g></clipPath><clipPath
   clipPathUnits="userSpaceOnUse"
   id="clipPath815"><g
     id="g819"><rect
       height="595.34998"
       width="841.995"
       x="0"
       y="0"
       id="rect817" /></g></clipPath><clipPath
   clipPathUnits="userSpaceOnUse"
   id="clipPath821"><g
     id="g825"><rect
       height="595.34998"
       width="841.995"
       x="0"
       y="0"
       id="rect823" /></g></clipPath><clipPath
   clipPathUnits="userSpaceOnUse"
   id="clipPath827"><g
     id="g831"><rect
       height="595.34998"
       width="841.995"
       x="0"
       y="0"
       id="rect829" /></g></clipPath><clipPath
   clipPathUnits="userSpaceOnUse"
   id="clipPath833"><g
     id="g837"><rect
       height="595.34998"
       width="841.995"
       x="0"
       y="0"
       id="rect835" /></g></clipPath><clipPath
   clipPathUnits="userSpaceOnUse"
   id="clipPath839"><g
     id="g843"><rect
       height="595.34998"
       width="841.995"
       x="0"
       y="0"
       id="rect841" /></g></clipPath><clipPath
   clipPathUnits="userSpaceOnUse"
   id="clipPath845"><g
     id="g849"><rect
       height="595.34998"
       width="841.995"
       x="0"
       y="0"
       id="rect847" /></g></clipPath><clipPath
   clipPathUnits="userSpaceOnUse"
   id="clipPath851"><g
     id="g855"><rect
       height="595.34998"
       width="841.995"
       x="0"
       y="0"
       id="rect853" /></g></clipPath><clipPath
   clipPathUnits="userSpaceOnUse"
   id="clipPath857"><g
     id="g861"><rect
       height="595.34998"
       width="841.995"
       x="0"
       y="0"
       id="rect859" /></g></clipPath><clipPath
   clipPathUnits="userSpaceOnUse"
   id="clipPath863"><g
     id="g867"><rect
       height="595.34998"
       width="841.995"
       x="0"
       y="0"
       id="rect865" /></g></clipPath><clipPath
   clipPathUnits="userSpaceOnUse"
   id="clipPath869"><g
     id="g873"><rect
       height="595.34998"
       width="841.995"
       x="0"
       y="0"
       id="rect871" /></g></clipPath><clipPath
   clipPathUnits="userSpaceOnUse"
   id="clipPath875"><g
     id="g879"><rect
       height="595.34998"
       width="841.995"
       x="0"
       y="0"
       id="rect877" /></g></clipPath><clipPath
   clipPathUnits="userSpaceOnUse"
   id="clipPath881"><g
     id="g885"><rect
       height="595.34998"
       width="841.995"
       x="0"
       y="0"
       id="rect883" /></g></clipPath><clipPath
   clipPathUnits="userSpaceOnUse"
   id="clipPath887"><g
     id="g891"><rect
       height="595.34998"
       width="841.995"
       x="0"
       y="0"
       id="rect889" /></g></clipPath><clipPath
   clipPathUnits="userSpaceOnUse"
   id="clipPath893"><g
     id="g897"><rect
       height="595.34998"
       width="841.995"
       x="0"
       y="0"
       id="rect895" /></g></clipPath><clipPath
   clipPathUnits="userSpaceOnUse"
   id="clipPath899"><g
     id="g903"><rect
       height="595.34998"
       width="841.995"
       x="0"
       y="0"
       id="rect901" /></g></clipPath><clipPath
   clipPathUnits="userSpaceOnUse"
   id="clipPath905"><g
     id="g909"><rect
       height="595.34998"
       width="841.995"
       x="0"
       y="0"
       id="rect907" /></g></clipPath><clipPath
   clipPathUnits="userSpaceOnUse"
   id="clipPath911"><g
     id="g915"><rect
       height="595.34998"
       width="841.995"
       x="0"
       y="0"
       id="rect913" /></g></clipPath><clipPath
   clipPathUnits="userSpaceOnUse"
   id="clipPath917"><g
     id="g921"><rect
       height="595.34998"
       width="841.995"
       x="0"
       y="0"
       id="rect919" /></g></clipPath><clipPath
   clipPathUnits="userSpaceOnUse"
   id="clipPath923"><g
     id="g927"><rect
       height="595.34998"
       width="841.995"
       x="0"
       y="0"
       id="rect925" /></g></clipPath><clipPath
   clipPathUnits="userSpaceOnUse"
   id="clipPath929"><g
     id="g933"><rect
       height="595.34998"
       width="841.995"
       x="0"
       y="0"
       id="rect931" /></g></clipPath><clipPath
   clipPathUnits="userSpaceOnUse"
   id="clipPath935"><g
     id="g939"><rect
       height="595.34998"
       width="841.995"
       x="0"
       y="0"
       id="rect937" /></g></clipPath><clipPath
   clipPathUnits="userSpaceOnUse"
   id="clipPath941"><g
     id="g945"><rect
       height="595.34998"
       width="841.995"
       x="0"
       y="0"
       id="rect943" /></g></clipPath><clipPath
   clipPathUnits="userSpaceOnUse"
   id="clipPath947"><g
     id="g951"><rect
       height="595.34998"
       width="841.995"
       x="0"
       y="0"
       id="rect949" /></g></clipPath><clipPath
   clipPathUnits="userSpaceOnUse"
   id="clipPath953"><g
     id="g957"><rect
       height="595.34998"
       width="841.995"
       x="0"
       y="0"
       id="rect955" /></g></clipPath><clipPath
   clipPathUnits="userSpaceOnUse"
   id="clipPath959"><g
     id="g963"><rect
       height="595.34998"
       width="841.995"
       x="0"
       y="0"
       id="rect961" /></g></clipPath><clipPath
   clipPathUnits="userSpaceOnUse"
   id="clipPath965"><g
     id="g969"><rect
       height="595.34998"
       width="841.995"
       x="0"
       y="0"
       id="rect967" /></g></clipPath><clipPath
   clipPathUnits="userSpaceOnUse"
   id="clipPath971"><g
     id="g975"><rect
       height="595.34998"
       width="841.995"
       x="0"
       y="0"
       id="rect973" /></g></clipPath></defs>

<path
   d="m 229,24.2733 c 0,-8.1742 7.086,-14.80069 15.828,-14.80069 8.742,0 15.829,6.62649 15.829,14.80069 0,8.1742 -7.087,14.8007 -15.829,14.8007 C 236.086,39.074 229,32.4475 229,24.2733 Z"
   fill="none"
   opacity="1"
   stroke="#000002"
   stroke-linecap="butt"
   stroke-linejoin="round"
   stroke-width="1.64827"
   vectornator:layerName="Oval 1"
   id="path434"
   clip-path="url(#clipPath971)"
   transform="translate(-164.03886,-2.892645)" /><path
   d="m 304.031,89.2319 c 0,-8.1742 7.087,-14.8007 15.828,-14.8007 8.742,0 15.829,6.6265 15.829,14.8007 0,8.1742 -7.087,14.8011 -15.829,14.8011 -8.741,0 -15.828,-6.6269 -15.828,-14.8011 z"
   fill="none"
   opacity="1"
   stroke="#000002"
   stroke-linecap="butt"
   stroke-linejoin="round"
   stroke-width="1.64827"
   vectornator:layerName="Oval 2"
   id="path436"
   clip-path="url(#clipPath965)"
   transform="translate(-164.03886,-2.892645)" /><path
   d="m 164.863,89.2319 c 0,-8.1742 7.087,-14.8007 15.829,-14.8007 8.742,0 15.828,6.6265 15.828,14.8007 0,8.1742 -7.086,14.8011 -15.828,14.8011 -8.742,0 -15.829,-6.6269 -15.829,-14.8011 z"
   fill="none"
   opacity="1"
   stroke="#000002"
   stroke-linecap="butt"
   stroke-linejoin="round"
   stroke-width="1.64827"
   vectornator:layerName="Oval 3"
   id="path438"
   clip-path="url(#clipPath959)"
   transform="translate(-164.03886,-2.892645)" /><path
   d="m 229,165.702 c 0,-8.174 7.086,-14.801 15.828,-14.801 8.742,0 15.829,6.627 15.829,14.801 0,8.174 -7.087,14.801 -15.829,14.801 -8.742,0 -15.828,-6.627 -15.828,-14.801 z"
   fill="none"
   opacity="1"
   stroke="#000002"
   stroke-linecap="butt"
   stroke-linejoin="round"
   stroke-width="1.64827"
   vectornator:layerName="Oval 4"
   id="path440"
   clip-path="url(#clipPath953)"
   transform="translate(-164.03886,-2.892645)" /><path
   d="m 257.671,155.586 52.506,-51.553"
   fill="none"
   opacity="1"
   stroke="#000002"
   stroke-linecap="butt"
   stroke-linejoin="round"
   stroke-width="1.64827"
   vectornator:layerName="Line 1"
   id="path442"
   clip-path="url(#clipPath947)"
   transform="translate(-164.03886,-2.892645)" /><path
   d="M 188.02,78.1968 232.43,33.3182"
   fill="none"
   opacity="1"
   stroke="#000002"
   stroke-linecap="butt"
   stroke-linejoin="round"
   stroke-width="1.64827"
   vectornator:layerName="Line 2"
   id="path444"
   clip-path="url(#clipPath941)"
   transform="translate(-164.03886,-2.892645)" /><path
   d="m 260.657,33.3182 49.52,44.8786"
   fill="none"
   opacity="1"
   stroke="#000002"
   stroke-linecap="butt"
   stroke-linejoin="round"
   stroke-width="1.64827"
   vectornator:layerName="Line 3"
   id="path446"
   clip-path="url(#clipPath935)"
   transform="translate(-164.03886,-2.892645)" /><path
   d="m 190.521,100.818 46.314,50.083"
   fill="none"
   opacity="1"
   stroke="#000002"
   stroke-linecap="butt"
   stroke-linejoin="round"
   stroke-width="1.64827"
   vectornator:layerName="Line 4"
   id="path448"
   clip-path="url(#clipPath929)"
   transform="translate(-164.03886,-2.892645)" /><path
   d="m 248.027,39.074 -3.199,111.827"
   fill="none"
   opacity="1"
   stroke="#000002"
   stroke-linecap="butt"
   stroke-linejoin="round"
   stroke-width="1.64827"
   vectornator:layerName="Line 5"
   id="path450"
   clip-path="url(#clipPath923)"
   transform="translate(-164.03886,-2.892645)" /><path
   d="M 196.52,89.2319 H 304.031"
   fill="none"
   opacity="1"
   stroke="#000002"
   stroke-linecap="butt"
   stroke-linejoin="round"
   stroke-width="1.64827"
   vectornator:layerName="Line 6"
   id="path452"
   clip-path="url(#clipPath917)"
   transform="translate(-164.03886,-2.892645)" /><path
   d="m 546.951,18.5175 c 0,-8.1742 7.086,-14.80072 15.828,-14.80072 8.742,0 15.829,6.62652 15.829,14.80072 0,8.1742 -7.087,14.8007 -15.829,14.8007 -8.742,0 -15.828,-6.6265 -15.828,-14.8007 z"
   fill="none"
   opacity="1"
   stroke="#000002"
   stroke-linecap="butt"
   stroke-linejoin="round"
   stroke-width="1.64827"
   vectornator:layerName="Oval 5"
   id="path454"
   clip-path="url(#clipPath911)"
   transform="translate(-164.03886,-2.892645)" /><path
   d="m 621.982,83.4761 c 0,-8.1742 7.087,-14.8007 15.829,-14.8007 8.741,0 15.828,6.6265 15.828,14.8007 0,8.1742 -7.087,14.8007 -15.828,14.8007 -8.742,0 -15.829,-6.6265 -15.829,-14.8007 z"
   fill="none"
   opacity="1"
   stroke="#000002"
   stroke-linecap="butt"
   stroke-linejoin="round"
   stroke-width="1.64827"
   vectornator:layerName="Oval 6"
   id="path456"
   clip-path="url(#clipPath905)"
   transform="translate(-164.03886,-2.892645)" /><path
   d="m 482.814,83.4761 c 0,-8.1742 7.087,-14.8007 15.829,-14.8007 8.742,0 15.829,6.6265 15.829,14.8007 0,8.1742 -7.087,14.8007 -15.829,14.8007 -8.742,0 -15.829,-6.6265 -15.829,-14.8007 z"
   fill="none"
   opacity="1"
   stroke="#000002"
   stroke-linecap="butt"
   stroke-linejoin="round"
   stroke-width="1.64827"
   vectornator:layerName="Oval 7"
   id="path458"
   clip-path="url(#clipPath899)"
   transform="translate(-164.03886,-2.892645)" /><path
   d="m 546.951,159.946 c 0,-8.174 7.086,-14.8 15.828,-14.8 8.742,0 15.829,6.626 15.829,14.8 0,8.175 -7.087,14.801 -15.829,14.801 -8.742,0 -15.828,-6.626 -15.828,-14.801 z"
   fill="none"
   opacity="1"
   stroke="#000002"
   stroke-linecap="butt"
   stroke-linejoin="round"
   stroke-width="1.64827"
   vectornator:layerName="Oval 8"
   id="path460"
   clip-path="url(#clipPath893)"
   transform="translate(-164.03886,-2.892645)" /><path
   d="M 575.622,149.831 628.128,98.2768"
   fill="none"
   opacity="1"
   stroke="#000002"
   stroke-linecap="butt"
   stroke-linejoin="round"
   stroke-width="1.64827"
   vectornator:layerName="Line 7"
   id="path462"
   clip-path="url(#clipPath887)"
   transform="translate(-164.03886,-2.892645)" /><path
   d="m 505.971,72.441 44.41,-44.8787"
   fill="none"
   opacity="1"
   stroke="#000002"
   stroke-linecap="butt"
   stroke-linejoin="round"
   stroke-width="1.64827"
   vectornator:layerName="Line 8"
   id="path464"
   clip-path="url(#clipPath881)"
   transform="translate(-164.03886,-2.892645)" /><path
   d="m 578.608,27.5623 49.52,44.8787"
   fill="none"
   opacity="1"
   stroke="#000002"
   stroke-linecap="butt"
   stroke-linejoin="round"
   stroke-width="1.64827"
   vectornator:layerName="Line 9"
   id="path466"
   clip-path="url(#clipPath875)"
   transform="translate(-164.03886,-2.892645)" /><path
   d="m 508.472,95.0626 46.314,50.0834"
   fill="none"
   opacity="1"
   stroke="#000002"
   stroke-linecap="butt"
   stroke-linejoin="round"
   stroke-width="1.64827"
   vectornator:layerName="Line 10"
   id="path468"
   clip-path="url(#clipPath869)"
   transform="translate(-164.03886,-2.892645)" /><path
   d="M 565.978,33.3182 562.779,145.146"
   fill="none"
   opacity="1"
   stroke="#000002"
   stroke-linecap="butt"
   stroke-linejoin="round"
   stroke-width="1.64827"
   vectornator:layerName="Line 11"
   id="path470"
   clip-path="url(#clipPath863)"
   transform="translate(-164.03886,-2.892645)" /><path
   d="m 514.472,83.4761 h 107.51"
   fill="none"
   opacity="1"
   stroke="#000002"
   stroke-linecap="butt"
   stroke-linejoin="round"
   stroke-width="1.64827"
   vectornator:layerName="Line 12"
   id="path472"
   clip-path="url(#clipPath857)"
   transform="translate(-164.03886,-2.892645)" /><path
   d="M 338.465,89.2319 482.814,83.4761"
   fill="none"
   opacity="1"
   stroke="#000002"
   stroke-linecap="butt"
   stroke-linejoin="round"
   stroke-width="1.64827"
   vectornator:layerName="Line 13"
   id="path474"
   clip-path="url(#clipPath851)"
   transform="translate(-164.03886,-2.892645)" /><path
   d="m 179.225,85.3689 c 0.014,-0.1177 0.028,-0.4466 -0.044,-0.353 -0.097,0.1243 0.551,3.5188 0.589,3.7511 0.329,2.0207 0.028,4.0504 0.28,6.0607 0.109,0.8769 0.546,3.2934 -0.728,2.3023"
   fill="none"
   opacity="1"
   stroke="#000002"
   stroke-linecap="round"
   stroke-linejoin="round"
   stroke-width="1.64827"
   vectornator:layerName="Curve 1"
   id="path476"
   clip-path="url(#clipPath845)"
   transform="translate(-164.03886,-2.892645)" /><path
   d="m 240.043,21.3384 c -0.812,-2.4358 5.402,-3.7736 7.164,-3.5533 0.749,0.0936 1.986,0.2586 2.121,1.2035 0.397,2.7829 -3.563,4.5759 -5.387,5.7312 -1.303,0.8248 -2.473,1.7835 -3.668,2.7509 -0.261,0.2107 -0.781,0.6084 -1.032,0.8597 -0.053,0.0531 -1.778,1.6609 -1.547,1.8913 0.04,0.0405 0.114,0 0.172,0 1.047,0 2.442,-0.6268 3.496,-0.8024 2.684,-0.4475 5.356,-0.877 8.08,-0.9743 1.01,-0.0361 2.027,0 3.038,0 0.115,0 0.344,0.1146 0.344,0 0,-0.1025 -0.708,-0.0573 -0.745,-0.0573"
   fill="none"
   opacity="1"
   stroke="#000002"
   stroke-linecap="round"
   stroke-linejoin="round"
   stroke-width="1.64827"
   vectornator:layerName="Curve 2"
   id="path478"
   clip-path="url(#clipPath839)"
   transform="translate(-164.03886,-2.892645)" /><path
   d="m 241.729,162.888 c 0,-2.376 5.915,-2.654 6.46,-0.747 0.488,1.707 -2.029,2.613 -3.164,3.208 -0.047,0.024 -1.43,0.886 -1.363,0.483 0.08,-0.475 1.639,-0.701 1.978,-0.747 1.253,-0.171 4.233,-0.489 4.351,1.407 0.165,2.643 -4.006,4.846 -6.285,4.966 -0.696,0.036 -3.624,-0.835 -1.67,-0.835"
   fill="none"
   opacity="1"
   stroke="#000002"
   stroke-linecap="round"
   stroke-linejoin="round"
   stroke-width="1.64827"
   vectornator:layerName="Curve 3"
   id="path480"
   clip-path="url(#clipPath833)"
   transform="translate(-164.03886,-2.892645)" /><path
   d="m 317.374,82.116 c -0.042,-0.0841 -0.068,-0.368 -0.068,-0.2739 0,1.1541 -0.106,2.2187 -0.343,3.3552 -0.27,1.2985 -0.747,2.5832 -1.164,3.8344 -0.036,0.1083 -0.095,0.2791 0,0.3424 0.872,0.5809 6.409,-1.1101 7.532,-1.3694 0.023,-0.0053 3.972,-0.719 3.219,-0.3424"
   fill="none"
   opacity="1"
   stroke="#000002"
   stroke-linecap="round"
   stroke-linejoin="round"
   stroke-width="1.64827"
   vectornator:layerName="Curve 4"
   id="path482"
   clip-path="url(#clipPath827)"
   transform="translate(-164.03886,-2.892645)" /><path
   d="m 322.359,82.7019 c 0,-0.2513 -0.405,-0.1587 -0.375,-0.0375 0.04,0.1589 0.637,0.3886 0.75,0.7503 0.245,0.7816 0.123,1.672 0.151,2.4761 0.089,2.5862 0.142,4.6856 -0.751,7.1657 -0.243,0.6757 -0.395,1.353 -0.45,2.0634 -0.013,0.1694 0.113,0.9722 0.113,0.7503"
   fill="none"
   opacity="1"
   stroke="#000002"
   stroke-linecap="round"
   stroke-linejoin="round"
   stroke-width="1.64827"
   vectornator:layerName="Curve 5"
   id="path484"
   clip-path="url(#clipPath821)"
   transform="translate(-164.03886,-2.892645)" /><path
   d="m 492.129,78.2893 c 2.669,0.516 6.159,-0.3539 8.765,-0.9025 0.529,-0.1115 1.042,-0.3 1.574,-0.3948 0.119,-0.0211 2.435,-0.3904 1.675,0.1238"
   fill="none"
   opacity="1"
   stroke="#000002"
   stroke-linecap="round"
   stroke-linejoin="round"
   stroke-width="1.64827"
   vectornator:layerName="Curve 6"
   id="path486"
   clip-path="url(#clipPath815)"
   transform="translate(-164.03886,-2.892645)" /><path
   d="m 492.536,78.7675 c -0.432,-0.0835 0.922,1.8123 0.957,2.2826 0.095,1.2468 -0.488,2.0802 -1.269,2.9509 -0.049,0.0544 -0.153,0.1035 -0.134,0.1739 0.038,0.1353 1.276,-0.5935 1.42,-0.6246 0.74,-0.1609 1.605,-0.3529 2.363,-0.3421 3.156,0.045 7.272,0.4832 8.182,4.1787 0.891,3.6213 -3.739,4.2949 -6.376,4.5608 -0.322,0.0325 -2.724,0.354 -2.866,-0.1547 -0.202,-0.7201 1.538,-0.5018 1.882,-0.4352"
   fill="none"
   opacity="1"
   stroke="#000002"
   stroke-linecap="round"
   stroke-linejoin="round"
   stroke-width="1.64827"
   vectornator:layerName="Curve 7"
   id="path488"
   clip-path="url(#clipPath809)"
   transform="translate(-164.03886,-2.892645)" /><path
   d="m 563.705,10.8211 c -1.499,-2.21778 -3.401,2.3591 -3.904,3.1409 -1.861,2.8949 -2.777,6.2763 -3.265,9.6568 -0.156,1.0776 -0.352,3.1827 0.852,3.8603 1.442,0.8121 3.464,-0.1179 4.745,-0.7805 0.978,-0.5058 1.816,-1.0961 2.565,-1.9014 1.361,-1.4613 1.807,-5.1729 -1.091,-5.2051 -1.326,-0.0148 -2.675,0.6372 -3.897,1.0444 -0.738,0.2455 -2.509,0.3058 -2.454,1.3236"
   fill="none"
   opacity="1"
   stroke="#000002"
   stroke-linecap="round"
   stroke-linejoin="round"
   stroke-width="1.64827"
   vectornator:layerName="Curve 8"
   id="path490"
   clip-path="url(#clipPath803)"
   transform="translate(-164.03886,-2.892645)" /><path
   d="m 557.186,157.689 c -0.283,-0.055 0.181,-2.058 1.006,-2.103 0.862,-0.047 1.605,0.744 2.41,0.965 1.484,0.407 3.051,0.528 4.582,0.586 0.108,0.005 2.545,0.326 1.63,-0.683 -2.268,-2.502 -2.677,4.795 -2.831,5.345 -0.135,0.48 -0.73,1.904 -0.947,2.315 -0.322,0.608 -3.544,4.009 -2.512,4.209"
   fill="none"
   opacity="1"
   stroke="#000002"
   stroke-linecap="round"
   stroke-linejoin="round"
   stroke-width="1.64827"
   vectornator:layerName="Curve 9"
   id="path492"
   clip-path="url(#clipPath797)"
   transform="translate(-164.03886,-2.892645)" /><path
   d="m 641.143,80.1268 c 4.573,-6.8596 -8.562,-8.1019 -9.675,-3.0929 -0.404,1.8192 2.876,2.0821 3.965,2.2999 1.364,0.2727 2.726,0.6932 4.124,0.793 2.786,0.199 3.975,-0.1032 4.521,3.1723 0.125,0.752 -0.261,1.5734 -0.555,2.2206 -0.62,1.3636 -1.379,2.6509 -2.697,3.4895 -3.454,2.1979 -6.662,-0.5976 -6.662,-4.1239 0,-0.761 0.38,-1.5518 0.714,-2.2206 0.874,-1.7482 1.542,-1.2246 2.776,-2.4586"
   fill="none"
   opacity="1"
   stroke="#000002"
   stroke-linecap="round"
   stroke-linejoin="round"
   stroke-width="1.64827"
   vectornator:layerName="Curve 10"
   id="path494"
   clip-path="url(#clipPath791)"
   transform="translate(-164.03886,-2.892645)" /><path
   d="m -32.702,124.677 c -0.9753,-1.951 -1.9821,-3.49 -2.3163,-5.662 -0.3278,-2.131 -0.2573,-0.888 -0.2573,-2.831 0,-0.172 0.1715,-0.515 0,-0.515 -1.1806,0 -2.5737,2.882 -2.5737,3.861"
   fill="none"
   opacity="1"
   stroke="#000002"
   stroke-linecap="round"
   stroke-linejoin="round"
   stroke-width="1.64827"
   vectornator:layerName="Curve 13"
   id="path496"
   clip-path="url(#clipPath785)"
   transform="translate(-164.03886,-2.892645)" />


</svg>
