<?xml version="1.0" encoding="UTF-8" standalone="no"?>
<!-- Created with Inkscape (http://www.inkscape.org/) -->

<svg
   width="280mm"
   height="180mm"
   viewBox="0 0 280 180"
   version="1.1"
   id="svg5"
   inkscape:version="1.1.2 (1:1.1+202202050950+0a00cf5339)"
   sodipodi:docname="peaks.svg"
   xmlns:inkscape="http://www.inkscape.org/namespaces/inkscape"
   xmlns:sodipodi="http://sodipodi.sourceforge.net/DTD/sodipodi-0.dtd"
   xmlns="http://www.w3.org/2000/svg"
   xmlns:svg="http://www.w3.org/2000/svg">
  <sodipodi:namedview
     id="namedview7"
     pagecolor="#191919"
     bordercolor="#666666"
     borderopacity="1.0"
     inkscape:pageshadow="2"
     inkscape:pageopacity="0"
     inkscape:pagecheckerboard="0"
     inkscape:document-units="mm"
     showgrid="false"
     inkscape:zoom="1.5336542"
     inkscape:cx="467.83689"
     inkscape:cy="355.36042"
     inkscape:window-width="2488"
     inkscape:window-height="1343"
     inkscape:window-x="1272"
     inkscape:window-y="231"
     inkscape:window-maximized="1"
     inkscape:current-layer="layer1"
     inkscape:snap-global="false" />
  <defs
     id="defs2" />
  <g
     inkscape:label="Layer 1"
     inkscape:groupmode="layer"
     id="layer1">
    <g
       id="g1768"
       transform="matrix(1.7949691,0,0,1.7949691,-27.135218,-11.341666)" />
    <path
       style="opacity:0.8;fill:#ffffff;fill-opacity:0.8;stroke:#ffffff;stroke-width:0.79375;paint-order:fill markers stroke;stop-color:#000000"
       id="path881"
       d="m 38.09358,84.3497 c 4.098832,-0.06372 8.18882,-0.35161 12.279114,-0.6027 8.010099,-0.500483 16.037605,-0.580342 24.060136,-0.686504 9.744636,-0.07959 19.489029,-0.206541 29.23409,-0.196622 11.42945,0.05082 22.84741,0.604258 34.25642,1.24307 10.13681,0.585412 20.27429,1.17524 30.39368,2.018303 7.2482,0.603858 8.6293,0.778462 15.82593,1.513356 9.14708,0.970827 18.26695,2.178219 27.40681,3.211176 4.96137,0.560716 6.16227,0.658376 10.97125,1.123096 8.07175,0.581781 16.16191,0.908624 24.2546,0.922557 1.47161,-0.02447 1.73359,-0.01503 3.07194,-0.08025 0.17604,-0.0086 1.6075,-0.02781 1.80651,-0.194977 0.12661,-0.106346 0.17162,-0.282659 0.25743,-0.423986 0.0127,-0.494734 -0.68701,-0.512617 -0.69965,-0.01789 v 0 c 0.0841,-0.07336 0.2361,-0.10967 0.25221,-0.220078 0.0118,-0.08086 -0.15141,0.06505 -0.23176,0.07988 -0.1869,0.03449 -0.37707,0.04837 -0.56617,0.06738 -1.29384,0.130122 -2.59416,0.187521 -3.89378,0.216699 -8.07704,0.10609 -16.15893,-0.127092 -24.21265,-0.766619 -1.70978,-0.151803 -3.42083,-0.290042 -5.12936,-0.455409 -11.1051,-1.074854 -22.16141,-2.595359 -33.26032,-3.728032 -2.61119,-0.263697 -5.22081,-0.543513 -7.83358,-0.791091 -12.77616,-1.210625 -25.58575,-2.028418 -38.39284,-2.827653 -11.41478,-0.668027 -22.84005,-1.246454 -34.27676,-1.315878 -9.746681,0.01397 -19.493208,0.08252 -29.23954,0.162933 -8.030792,0.0872 -16.064277,0.165616 -24.084777,0.621953 -4.085058,0.219287 -8.172405,0.479981 -12.265467,0.447927 -0.480375,0.01169 -0.463841,0.691044 0.01654,0.679352 z" />
    <path
       style="opacity:0.8;fill:#ffff00;fill-opacity:0.8;stroke:#ffff00;stroke-width:0.79375;paint-order:fill markers stroke;stop-color:#000000"
       id="path883"
       d="m 43.139975,81.746787 c 1.555901,-0.304996 3.142607,-0.465825 4.679371,-0.866516 0.355491,-0.09269 0.705035,-0.206854 1.057553,-0.310279 1.409967,-0.469241 2.795807,-1.034071 4.064582,-1.815563 0.793175,-0.488548 1.040452,-0.712235 1.771784,-1.280515 1.624661,-1.306068 2.900717,-2.956255 4.107551,-4.638799 1.200782,-1.754097 2.43309,-3.48597 3.6937,-5.197504 1.14813,-1.549403 2.603589,-2.824641 4.231851,-3.844597 1.143582,-0.607118 2.424512,-0.936813 3.721695,-0.749694 0.234448,0.03382 0.462847,0.101047 0.69427,0.151569 1.578118,0.466167 2.581722,1.345936 3.69467,2.502458 1.27262,1.40388 2.538847,2.815 3.715729,4.300654 0.980895,1.369693 1.787203,2.853426 2.675507,4.283573 0.635838,0.987954 1.29622,2.013773 2.227453,2.754931 0.158927,0.12649 0.332573,0.233291 0.498861,0.349938 1.196827,0.665517 2.542622,0.960898 3.877641,1.20174 0.844015,0.142746 1.695754,0.21944 2.534139,0.394195 0.854165,0.203089 1.71972,0.351039 2.579275,0.528246 0.50306,0.115906 1.008277,0.217715 1.504085,0.36199 0.610371,0.194733 1.235391,0.331523 1.865531,0.442883 1.22647,0.169127 0.58308,0.07897 1.93005,0.271338 0.45206,0.06691 0.54668,-0.572386 0.0946,-0.639297 v 0 c -1.33686,-0.204845 -0.70286,-0.105465 -1.9022,-0.296867 -0.60525,-0.116396 -1.20547,-0.257506 -1.793275,-0.444556 -0.514353,-0.150852 -1.040996,-0.245994 -1.563445,-0.364384 -0.859316,-0.170728 -1.722114,-0.324879 -2.574501,-0.528818 -0.845841,-0.177792 -1.704248,-0.250039 -2.557124,-0.386543 -1.24156,-0.215452 -2.493018,-0.48691 -3.610322,-1.093393 -1.095602,-0.752596 -1.868336,-1.767152 -2.548662,-2.901474 -0.904925,-1.44931 -1.72299,-2.955541 -2.726846,-4.339899 -1.195609,-1.496404 -2.465969,-2.930657 -3.751987,-4.34975 -0.454514,-0.474615 -0.718378,-0.777491 -1.219988,-1.196718 -0.824812,-0.689346 -1.783585,-1.188707 -2.81105,-1.499148 -0.262392,-0.0546 -0.52157,-0.127979 -0.78718,-0.163809 -1.43773,-0.193939 -2.855106,0.176149 -4.118356,0.854546 -1.687864,1.074775 -3.207269,2.403232 -4.405119,4.015637 -1.256774,1.717045 -2.487967,3.452762 -3.695764,5.204616 -1.172035,1.631341 -2.405168,3.235706 -3.978023,4.506881 -0.692613,0.540686 -0.9407,0.764518 -1.691384,1.228852 -1.225158,0.757817 -2.565648,1.304626 -3.928768,1.757799 -0.339837,0.09889 -0.676871,0.207981 -1.019511,0.296666 -1.524133,0.394491 -3.09693,0.5631 -4.644872,0.833343 -0.471125,0.07671 -0.362646,0.742973 0.108479,0.666268 z" />
    <path
       style="opacity:0.8;fill:#ffff00;fill-opacity:0.8;stroke:#ffff00;stroke-width:0.79375;paint-order:fill markers stroke;stop-color:#000000"
       id="path885"
       d="m 100.20425,80.113562 c 1.49135,-0.10926 2.94053,-0.443445 4.35952,-0.900846 1.17478,-0.365905 2.29189,-0.885875 3.42683,-1.355611 1.35202,-0.563935 2.77021,-0.941903 4.19632,-1.263277 0.98948,-0.159395 2.08876,-0.419986 3.09568,-0.248118 0.13345,0.02278 0.26029,0.07461 0.39043,0.111913 0.65399,0.350785 1.02584,1.00406 1.40063,1.61652 0.25814,0.421844 0.51116,0.846809 0.76898,1.268849 0.5957,0.895763 1.2031,1.988476 2.28273,2.374892 0.22085,0.07905 0.45812,0.101105 0.68719,0.151659 1.87268,0.07744 3.3453,-1.018802 4.72013,-2.151578 0.56671,-0.461042 1.11007,-1.114124 1.89074,-1.181076 0.51032,-0.04377 0.72956,0.0504 1.23815,0.163943 1.24935,0.319096 2.09297,1.333638 3.17195,1.952456 0.21927,0.125756 0.45387,0.222673 0.68081,0.33401 0.90551,0.285417 2.20151,0.870524 3.1689,0.583456 0.18378,-0.05453 0.35065,-0.155035 0.52597,-0.232552 0.66558,-0.356738 1.17305,-0.927788 1.77642,-1.367399 0.24975,-0.181967 0.17505,-0.197744 0.32562,-0.08067 0.82145,0.662128 1.55397,1.424125 2.40245,2.051863 1.08598,0.631674 2.40023,0.809601 3.64364,0.782695 0.28347,-0.0061 0.56521,-0.04611 0.84781,-0.06916 0.27446,-0.06955 0.55492,-0.118708 0.82339,-0.208661 1.84125,-0.616926 3.56959,-2.054447 5.04211,-3.278949 2.49164,-2.218785 5.20147,-4.167643 7.77336,-6.288799 2.36455,-2.007891 4.49424,-4.286041 6.91647,-6.227731 0.4443,-0.356158 0.90828,-0.687054 1.36242,-1.030581 1.80913,-1.2085 3.69943,-2.443451 5.83765,-2.980923 0.27965,-0.0703 0.56677,-0.10655 0.85016,-0.159824 0.47839,0.0027 0.71647,-0.08213 1.11214,0.194349 0.60341,0.421635 1.03454,1.778038 1.28538,2.420038 0.7265,2.111701 1.3597,4.254003 2.04737,6.378451 0.6793,2.284508 1.83439,4.365175 3.11674,6.35817 1.06006,1.477711 2.22452,2.979068 3.80038,3.944086 0.23692,0.145087 0.49202,0.258151 0.73803,0.387225 1.06716,0.447342 2.19907,0.756351 3.35587,0.83298 0.90586,-0.0104 1.78434,0.237913 2.68388,0.290396 1.10771,-0.130469 2.1662,-0.55781 3.29526,-0.557376 0.27624,1.05e-4 0.55034,0.04857 0.82552,0.07285 1.69468,0.445207 2.87924,1.714299 3.80447,3.137239 0.46471,0.857131 1.18145,0.716978 2.03627,0.627644 0.60334,-0.06305 1.20445,-0.14584 1.80711,-0.215018 1.10424,-0.148635 1.25116,0.113072 2.14267,0.575214 0.76954,0.398915 0.82142,0.3785 1.67162,0.665652 1.20308,0.335936 2.4627,0.343824 3.67458,0.632407 0.57026,0.1358 1.49165,0.431255 2.03476,0.598879 1.74538,0.436367 3.73047,0.987034 5.4747,0.201504 1.22264,-0.550627 1.94551,-1.348639 2.92607,-2.231678 2.15124,-2.255491 3.94112,-4.819946 6.1831,-6.993517 1.66022,-1.609561 2.22301,-1.964563 4.06037,-3.391574 3.39389,-2.396906 7.10365,-4.453451 11.1165,-5.609635 0.59201,-0.170567 1.19918,-0.283253 1.79876,-0.424879 1.63476,-0.228306 3.67691,-0.436449 4.83068,1.048298 0.536,0.689758 0.56276,1.234723 0.76278,2.069782 0.26817,2.239672 -0.0486,4.487678 -0.0597,6.729984 -0.003,0.592267 -0.0119,1.187019 0.0491,1.776143 0.062,0.598559 0.21253,1.184603 0.3188,1.776904 0.64087,1.604439 0.63414,2.070526 1.99384,3.326244 1.21106,1.118442 2.44393,1.636094 3.87689,2.37231 0.36985,0.188351 0.63622,-0.334687 0.26637,-0.523039 v 0 c -1.93503,-0.976461 -3.71608,-1.762395 -4.89692,-3.70849 -0.29419,-0.484838 -0.42815,-1.050311 -0.64222,-1.575467 -0.10305,-0.561895 -0.24945,-1.117547 -0.30916,-1.685684 -0.0605,-0.575892 -0.0529,-1.157396 -0.0504,-1.736452 0.01,-2.300645 0.34366,-4.605848 0.0693,-6.904003 -0.25374,-1.007658 -0.27112,-1.588003 -0.95739,-2.404229 -1.34384,-1.598343 -3.54872,-1.432208 -5.39309,-1.146826 -0.61512,0.151672 -1.23812,0.274349 -1.84535,0.455017 -4.05974,1.207889 -7.82751,3.289763 -11.26876,5.725681 -1.87719,1.454071 -2.43041,1.799669 -4.12879,3.438948 -2.23598,2.158167 -4.02683,4.701355 -6.17659,6.937484 -0.88573,0.794972 -1.5927,1.561436 -2.68659,2.070174 -1.626,0.756213 -3.49422,0.212257 -5.12114,-0.206074 -0.5709,-0.179779 -1.50672,-0.486296 -2.10114,-0.629412 -1.18359,-0.284969 -2.41298,-0.287329 -3.58955,-0.608885 -0.79155,-0.268309 -0.82571,-0.242779 -1.54074,-0.622083 -0.19987,-0.106029 -0.38294,-0.242181 -0.58403,-0.345882 -0.68044,-0.350883 -1.21431,-0.411705 -1.97474,-0.304567 -0.17937,0.02093 -1.61261,0.188933 -1.78485,0.205748 -0.23354,0.02281 -0.46762,0.0406 -0.70191,0.05383 -0.42191,0.02381 -0.50362,-0.01159 -0.72116,-0.395438 -0.85929,-1.249733 -1.89828,-2.474077 -3.32106,-3.097372 -0.31716,-0.138946 -0.65909,-0.212619 -0.98863,-0.318931 -0.31279,-0.025 -0.62458,-0.07518 -0.93837,-0.07499 -1.0933,5.29e-4 -2.13537,0.361455 -3.20234,0.532254 -0.89856,-0.03838 -1.77419,-0.305644 -2.67837,-0.29597 -1.06496,-0.0535 -2.10865,-0.325245 -3.09178,-0.73341 -0.22238,-0.113765 -0.4527,-0.213195 -0.66714,-0.341299 -1.51461,-0.904766 -2.63009,-2.336197 -3.64198,-3.745968 -1.25211,-1.948056 -2.36967,-3.983649 -3.03856,-6.213665 -0.69568,-2.134667 -1.32947,-4.289129 -2.05034,-6.41545 -0.44182,-1.151483 -0.89413,-2.835516 -2.34663,-3.040012 -0.25933,-0.03651 -0.52363,0.01201 -0.78545,0.01804 -0.88699,0.179057 -1.06042,0.180147 -1.94522,0.509947 -1.7913,0.667692 -3.41291,1.719752 -4.98464,2.787889 -0.46369,0.350356 -0.93768,0.687469 -1.39106,1.051067 -2.41986,1.940669 -4.52562,4.239229 -6.90089,6.231292 -0.49198,0.404622 -0.97798,0.816621 -1.47594,1.213866 -2.1083,1.681909 -4.32588,3.228825 -6.32029,5.051484 -1.64963,1.369599 -3.38842,2.80439 -5.51866,3.315266 -0.25621,0.02339 -0.51143,0.06338 -0.76861,0.07016 -1.10913,0.02926 -2.28666,-0.131744 -3.26687,-0.67057 -0.47134,-0.341638 -0.88762,-0.721016 -1.31849,-1.112301 -0.15443,-0.140239 -0.75715,-0.695449 -0.94669,-0.821528 -0.15899,-0.105754 -0.33946,-0.174948 -0.50919,-0.262422 -0.16034,0.01445 -0.3273,-0.0045 -0.48101,0.04337 -0.11667,0.03631 -0.20854,0.12809 -0.30615,0.201583 -0.55027,0.414292 -1.01832,0.93926 -1.62733,1.276731 -0.2578,0.127328 -0.40325,0.235471 -0.69491,0.249227 -0.82972,0.03913 -1.65193,-0.34643 -2.42324,-0.583092 -0.20077,-0.09702 -0.40846,-0.180866 -0.60231,-0.291068 -0.42942,-0.244115 -0.74079,-0.517824 -1.13914,-0.810921 -0.69951,-0.514686 -1.4186,-0.98615 -2.26222,-1.234424 -0.62956,-0.133274 -0.90406,-0.249547 -1.54382,-0.169421 -0.88555,0.110913 -1.51058,0.770252 -2.1445,1.328931 -1.21156,1.006432 -2.5116,2.020154 -4.16651,2.00008 -0.17233,-0.03178 -0.35019,-0.04162 -0.517,-0.09533 -0.96795,-0.311674 -1.48718,-1.345864 -2.02079,-2.120466 -0.54464,-0.888738 -1.23522,-2.303351 -2.06524,-2.918357 -0.15224,-0.112802 -0.33104,-0.184433 -0.49656,-0.276651 -0.17233,-0.04323 -0.34139,-0.102669 -0.51699,-0.129709 -1.07473,-0.165486 -2.23583,0.09714 -3.28986,0.27614 -1.46255,0.330748 -2.91709,0.716997 -4.30616,1.289696 -1.12006,0.460573 -2.22152,0.972248 -3.3768,1.341514 -1.36844,0.447069 -2.76761,0.779812 -4.21145,0.854236 -0.481277,0.04077 -0.423627,0.7214 0.0577,0.68063 z" />
    <path
       style="opacity:0.8;fill:#ffffff;fill-opacity:0.8;stroke:#ffffff;stroke-width:0.62868;paint-order:fill markers stroke;stop-color:#000000"
       id="path899"
       d="m 45.57238,73.415898 c 1.415447,-0.100496 2.837243,-0.161143 4.256328,-0.237853 1.285797,-0.05503 2.557446,-0.151086 3.817086,-0.320596 2.213463,-0.32327 4.493649,-0.393872 6.758355,-0.408146 2.282399,0.0077 4.563115,-0.05011 6.845289,-0.01206 2.181292,0.05238 4.360348,0.129181 6.537375,0.228916 2.476509,0.0891 4.951708,0.178004 7.42459,0.302358 3.41085,0.195379 6.839076,0.117683 10.257097,0.06594 3.641378,-0.06796 7.279407,-0.171358 10.92274,-0.185116 3.87201,0.02687 7.73636,0.193181 11.60535,0.281115 3.23657,0.06206 6.47441,0.08926 9.71184,0.126139 3.75852,0.07042 7.51778,0.10147 11.27785,0.100815 3.70464,-0.01964 7.40903,0.01421 11.11353,0.02571 3.9822,0.004 7.96474,0.02793 11.94681,0.0012 3.4485,-0.08153 6.89617,-0.0091 10.34385,0.03644 0.42443,4.97e-4 0.84889,0.0048 1.27327,0.0013 2.23387,-0.01871 0.38045,-0.03412 2.95281,-0.04629 2.04567,-0.0097 4.08378,0.04945 6.12614,0.113059 4.3897,0.172181 8.78482,0.265106 13.18012,0.356751 4.71234,0.07343 9.42252,0.16586 14.12677,0.356371 5.39991,0.251229 10.79755,0.521891 16.18387,0.87011 5.11417,0.378097 10.23276,0.725828 15.3592,1.031762 3.90018,0.231372 7.79781,0.477632 11.70697,0.641903 3.52384,0.103307 7.04822,0.187386 10.56984,0.318985 2.37469,0.122515 4.76491,0.15708 7.13142,0.338021 0.0555,0.0057 0.11114,0.01146 0.16671,0.01719 0.48841,0.03868 0.57573,-0.39399 0.0874,-0.432664 v 0 c -0.0617,-0.0036 -0.12343,-0.0071 -0.18515,-0.01066 -2.38479,-0.120901 -4.77821,-0.16869 -7.16309,-0.291132 -3.52014,-0.139362 -7.04509,-0.205798 -10.56692,-0.325279 -3.90394,-0.154741 -7.79811,-0.386245 -11.69354,-0.608026 -5.1249,-0.30661 -10.24314,-0.651505 -15.3562,-1.028033 -5.39446,-0.339379 -10.7982,-0.613589 -16.20251,-0.883521 -4.70992,-0.197004 -9.42734,-0.27218 -14.14548,-0.351232 -4.39191,-0.09411 -8.78278,-0.209174 -13.16994,-0.369326 -2.05495,-0.06441 -4.1076,-0.125219 -6.1657,-0.128806 -1.83904,-0.0032 -1.29955,0.01469 -2.94455,0.03266 -0.41993,0.0046 -0.83997,0.004 -1.25995,0.0061 -3.45412,-0.03339 -6.9083,-0.103164 -10.36271,-0.02463 -3.97822,0.03465 -7.95667,0.01734 -11.93507,0.0016 -3.70609,-0.02163 -7.4125,-0.03933 -11.11876,-0.02619 -3.75606,0.0068 -7.51136,-0.02944 -11.26533,-0.110646 -3.23428,-0.03913 -6.46912,-0.06137 -9.70274,-0.121044 -3.87742,-0.07673 -7.7489,-0.242402 -11.6283,-0.27532 -3.647567,0.0036 -7.28998,0.11112 -10.934851,0.190315 -3.397324,0.05211 -6.802164,0.100873 -10.191949,-0.08996 -2.474544,-0.125373 -4.951323,-0.222729 -7.430223,-0.307279 -2.188527,-0.09374 -4.377347,-0.190307 -6.569827,-0.240008 -2.288931,-0.01744 -4.577828,0.02719 -6.866911,0.01773 -2.305662,0.02537 -4.626684,0.09965 -6.887347,0.403489 -1.23371,0.159972 -2.478739,0.258351 -3.7355,0.317416 -1.426207,0.07572 -2.854369,0.137404 -4.27883,0.225752 -0.47957,0.03493 -0.400708,0.459758 0.07886,0.424827 z" />
    <path
       style="opacity:0.8;fill:#ffffff;fill-opacity:0.8;stroke:#ffffff;stroke-width:0.79375;paint-order:fill markers stroke;stop-color:#000000"
       id="path901"
       d="m 56.759132,89.76472 c -0.08921,1.646883 -0.248735,3.291094 -0.268991,4.941036 -0.02225,0.417467 0.219445,1.392174 0.836919,0.659265 -0.08635,-0.187047 -0.172709,-0.374095 -0.259061,-0.561142 -0.437867,-0.227576 -0.759709,0.39166 -0.321845,0.619236 v 0 c -0.0047,-0.144597 -0.0094,-0.289195 -0.01405,-0.433792 0.477502,-0.451604 0.517753,0.372099 0.462545,-0.01619 -0.01262,-0.08868 -0.0168,-0.178368 -0.02519,-0.267552 -0.02196,-1.639427 0.137486,-3.275226 0.264954,-4.907949 0.02328,-0.477507 -0.652026,-0.510421 -0.675299,-0.03291 z" />
    <path
       style="opacity:0.8;fill:#ffffff;fill-opacity:0.8;stroke:#ffffff;stroke-width:0.79375;paint-order:fill markers stroke;stop-color:#000000"
       id="path903"
       d="m 57.892774,92.816628 c 2.650302,-0.313827 5.314942,-0.371861 7.98009,-0.397925 2.464522,-0.07068 4.926168,0.02191 7.388264,0.112368 2.248554,0.0787 4.497631,0.116171 6.74742,0.108442 0.646629,0.02387 1.302578,-0.04891 1.947318,0.02831 0.868944,-0.56637 -0.295878,-0.716941 -0.495885,-0.776555 -0.47062,-0.137525 -0.665107,0.528029 -0.19449,0.665555 v 0 c 0.212053,0.06109 0.247407,0.08051 0.456531,0.108301 0.400605,0.05324 0.262742,-0.0013 0.429916,-0.671234 0.0026,-0.01058 -0.129463,-0.02339 -0.134366,-0.02397 -0.67051,-0.0441 -1.344837,0.0067 -2.015704,0.0069 -2.238915,0.03751 -4.478335,0.0123 -6.715681,-0.08499 -2.47238,-0.10301 -4.943533,-0.163475 -7.418493,-0.09637 -2.680658,0.01826 -5.355122,0.102299 -8.026056,0.348861 -0.475411,0.03616 -0.424273,0.708491 0.05114,0.67233 z" />
    <path
       style="opacity:0.8;fill:#ffffff;fill-opacity:0.8;stroke:#ffffff;stroke-width:0.79375;paint-order:fill markers stroke;stop-color:#000000"
       id="path905"
       d="m 80.902356,90.694823 c 0.348149,1.552501 0.438399,3.144401 0.699968,4.711679 0.02543,0.390893 0.132252,0.428345 -0.03317,0.337981 -0.241845,0.427647 0.36294,0.769668 0.604785,0.342019 v 0 c 0.182081,-0.502732 0.146394,-0.238254 0.09028,-0.79552 -0.287988,-1.578504 -0.378939,-3.18389 -0.702098,-4.756711 -0.113528,-0.466526 -0.773295,-0.305972 -0.659765,0.160552 z" />
    <path
       style="opacity:0.8;fill:#ffffff;fill-opacity:0.8;stroke:#ffffff;stroke-width:0.79375;paint-order:fill markers stroke;stop-color:#000000"
       id="path907"
       d="m 153.76365,92.478784 c -0.10067,1.525133 -0.42623,3.022058 -0.74884,4.512302 -0.0791,0.297291 -0.0977,0.289222 0.0567,0.02244 -0.43887,0.231934 -0.11086,0.85258 0.328,0.620646 v 0 c 0.28513,-0.323492 0.20537,-0.147132 0.2819,-0.507642 0.29064,-1.530274 0.62315,-3.056618 0.76034,-4.610907 0.026,-0.479492 -0.65207,-0.516316 -0.67811,-0.03682 z" />
    <path
       style="opacity:0.8;fill:#ffffff;fill-opacity:0.8;stroke:#ffffff;stroke-width:0.79375;paint-order:fill markers stroke;stop-color:#000000"
       id="path909"
       d="m 155.21338,94.573133 c 2.51962,0.42603 5.05874,0.73006 7.58635,1.110536 3.71406,0.543581 7.42098,1.131385 11.14603,1.595715 2.32246,0.348102 4.67028,0.37587 7.00737,0.536287 0.8903,0.07023 1.77906,0.163817 2.66197,0.29909 0.33482,0.0513 0.71118,0.09555 1.0343,0.213458 0.015,-0.240268 0.0452,-0.480068 0.045,-0.720807 -2e-5,-0.02461 -0.25113,-0.430765 -0.2775,-0.491876 -0.13175,-0.305271 -0.15868,-0.441331 -0.25387,-0.770888 -0.16352,-0.580699 -0.17266,-1.174546 -0.071,-1.764942 -0.0125,0.282863 0.0261,-0.303319 -0.68002,0.02252 -0.10401,0.048 -0.0176,0.228478 -0.0303,0.342333 -0.0288,0.259051 -0.0601,0.51784 -0.0941,0.776264 -0.10527,0.80042 -0.19663,1.388272 -0.31667,2.194015 -0.13848,0.882806 -0.22601,1.773087 -0.38354,2.652982 -0.0575,0.32131 -0.0232,0.23747 -0.10196,0.3979 -0.15743,0.46835 0.50492,0.69099 0.66235,0.22264 v 0 c 0.28213,-1.0311 0.22542,-2.136121 0.45657,-3.17742 0.15409,-0.997736 0.31788,-1.994855 0.45854,-2.994615 0.0184,-0.131159 0.13807,-0.298032 0.0473,-0.394525 -0.60502,-0.643441 -0.62176,-0.43809 -0.70644,-0.148641 -0.0971,0.690822 -0.0881,1.382906 0.10624,2.059242 0.1474,0.514736 0.2912,1.123627 0.68046,1.522502 0.0806,0.08261 0.17655,0.268698 0.27569,0.209571 0.20469,-0.12207 0.25605,-0.402026 0.38407,-0.603041 -1.25155,-0.327382 -2.57599,-0.330342 -3.85155,-0.499327 -2.32589,-0.164787 -4.66548,-0.134725 -6.97892,-0.47531 -3.71925,-0.465802 -7.42169,-1.047639 -11.12664,-1.614411 -2.51151,-0.389668 -5.03986,-0.682728 -7.53592,-1.159603 -0.46694,-0.101724 -0.6108,0.55862 -0.14386,0.660345 z" />
    <path
       style="opacity:0.8;fill:#ffffff;fill-opacity:0.8;stroke:#ffffff;stroke-width:0.79375;paint-order:fill markers stroke;stop-color:#000000"
       id="path911"
       d="m 220.04616,98.65027 c -0.0526,1.36421 -0.20979,2.72683 -0.17638,4.09347 0.002,0.20094 0.004,0.12039 -0.001,0.24175 0.006,0.49618 0.70752,0.48795 0.7017,-0.008 v 0 c -0.008,-0.13769 -0.003,-0.0505 -0.0147,-0.26166 -0.0806,-1.35451 0.0925,-2.70952 0.17383,-4.059809 0.004,-0.48323 -0.67948,-0.488752 -0.68339,-0.0055 z" />
    <path
       style="opacity:0.8;fill:#ffffff;fill-opacity:0.8;stroke:#ffffff;stroke-width:0.79375;paint-order:fill markers stroke;stop-color:#000000"
       id="path913"
       d="m 220.44665,101.19387 c 2.73892,0.0293 5.47006,0.2452 8.19992,0.45096 3.36093,0.30006 6.73363,0.41778 10.10154,0.60924 2.9456,0.1469 5.88727,0.38023 8.83537,0.47095 2.01768,0.0345 4.03184,0.16092 6.04696,0.25882 0.82081,0.0171 0.65522,0.28289 0.61087,-0.72593 -0.44086,-0.2147 -0.74449,0.40877 -0.30363,0.62346 v 0 c 0.50765,-0.80483 0.48627,-0.53267 -0.28178,-0.57244 -2.0183,-0.0541 -4.03416,-0.17552 -6.05282,-0.22006 -2.9425,-0.0908 -5.88057,-0.27679 -8.81878,-0.45621 -3.36358,-0.20064 -6.7345,-0.26942 -10.09152,-0.57616 -2.7353,-0.22349 -5.46958,-0.46514 -8.21401,-0.54392 -0.48174,-0.0227 -0.51387,0.65857 -0.0321,0.68129 z" />
    <path
       style="opacity:0.8;fill:#ffffff;fill-opacity:0.8;stroke:#ffffff;stroke-width:0.79375;paint-order:fill markers stroke;stop-color:#000000"
       id="path915"
       d="m 252.43222,100.19875 c 0.0941,1.67515 0.0918,3.35804 0.2985,5.02505 0.0671,0.47756 0.74247,0.38266 0.67536,-0.0949 v 0 c -0.26027,-1.643 -0.24233,-3.31355 -0.29874,-4.97174 -0.0294,-0.477378 -0.70452,-0.43579 -0.67512,0.0416 z" />
    <text
       xml:space="preserve"
       style="font-style:normal;font-variant:normal;font-weight:normal;font-stretch:normal;font-size:11.4348px;line-height:1.25;font-family:arial;-inkscape-font-specification:'arial, Normal';font-variant-ligatures:normal;font-variant-position:normal;font-variant-caps:normal;font-variant-numeric:normal;font-variant-alternates:normal;font-feature-settings:normal;text-indent:0;text-align:start;text-decoration:none;text-decoration-line:none;text-decoration-style:solid;text-decoration-color:#000000;letter-spacing:0px;word-spacing:0px;text-transform:none;writing-mode:lr-tb;direction:ltr;text-orientation:mixed;dominant-baseline:auto;baseline-shift:baseline;text-anchor:start;white-space:normal;shape-padding:0;opacity:1;vector-effect:none;fill:#ffff00;fill-opacity:1;stroke:none;stroke-width:0.857609;stroke-linecap:butt;stroke-linejoin:miter;stroke-miterlimit:4;stroke-dasharray:none;stroke-dashoffset:0;stroke-opacity:1"
       x="6.6170659"
       y="78.620079"
       id="text1673"><tspan
         sodipodi:role="line"
         id="tspan1671"
         style="fill:#ffff00;stroke-width:0.857609;stroke:none"
         x="6.6170659"
         y="78.620079">Wiggle</tspan></text>
    <text
       xml:space="preserve"
       style="font-style:normal;font-variant:normal;font-weight:normal;font-stretch:normal;font-size:11.4348px;line-height:1.25;font-family:arial;-inkscape-font-specification:'arial, Normal';font-variant-ligatures:normal;font-variant-position:normal;font-variant-caps:normal;font-variant-numeric:normal;font-variant-alternates:normal;font-feature-settings:normal;text-indent:0;text-align:start;text-decoration:none;text-decoration-line:none;text-decoration-style:solid;text-decoration-color:#000000;letter-spacing:0px;word-spacing:0px;text-transform:none;writing-mode:lr-tb;direction:ltr;text-orientation:mixed;dominant-baseline:auto;baseline-shift:baseline;text-anchor:start;white-space:normal;shape-padding:0;opacity:1;vector-effect:none;fill:#ffff00;fill-opacity:1;stroke:none;stroke-width:0.857609;stroke-linecap:butt;stroke-linejoin:miter;stroke-miterlimit:4;stroke-dasharray:none;stroke-dashoffset:0;stroke-opacity:1"
       x="57.698978"
       y="58.127441"
       id="text7568"><tspan
         sodipodi:role="line"
         id="tspan7566"
         style="fill:#ffffff;stroke:none;stroke-width:0.857609"
         x="57.698978"
         y="58.127441">Peak</tspan></text>
    <text
       xml:space="preserve"
       style="font-style:normal;font-variant:normal;font-weight:normal;font-stretch:normal;font-size:11.4348px;line-height:1.25;font-family:arial;-inkscape-font-specification:'arial, Normal';font-variant-ligatures:normal;font-variant-position:normal;font-variant-caps:normal;font-variant-numeric:normal;font-variant-alternates:normal;font-feature-settings:normal;text-indent:0;text-align:start;text-decoration:none;text-decoration-line:none;text-decoration-style:solid;text-decoration-color:#000000;letter-spacing:0px;word-spacing:0px;text-transform:none;writing-mode:lr-tb;direction:ltr;text-orientation:mixed;dominant-baseline:auto;baseline-shift:baseline;text-anchor:start;white-space:normal;shape-padding:0;opacity:1;vector-effect:none;fill:#ffff00;fill-opacity:1;stroke:none;stroke-width:0.857609;stroke-linecap:butt;stroke-linejoin:miter;stroke-miterlimit:4;stroke-dasharray:none;stroke-dashoffset:0;stroke-opacity:1"
       x="161.95055"
       y="59.244125"
       id="text8934"><tspan
         sodipodi:role="line"
         id="tspan8932"
         style="fill:#ffffff;stroke:none;stroke-width:0.857609"
         x="161.95055"
         y="59.244125">Peak</tspan></text>
    <text
       xml:space="preserve"
       style="font-style:normal;font-variant:normal;font-weight:normal;font-stretch:normal;font-size:11.4348px;line-height:1.25;font-family:arial;-inkscape-font-specification:'arial, Normal';font-variant-ligatures:normal;font-variant-position:normal;font-variant-caps:normal;font-variant-numeric:normal;font-variant-alternates:normal;font-feature-settings:normal;text-indent:0;text-align:start;text-decoration:none;text-decoration-line:none;text-decoration-style:solid;text-decoration-color:#000000;letter-spacing:0px;word-spacing:0px;text-transform:none;writing-mode:lr-tb;direction:ltr;text-orientation:mixed;dominant-baseline:auto;baseline-shift:baseline;text-anchor:start;white-space:normal;shape-padding:0;opacity:1;vector-effect:none;fill:#ffff00;fill-opacity:1;stroke:none;stroke-width:0.857609;stroke-linecap:butt;stroke-linejoin:miter;stroke-miterlimit:4;stroke-dasharray:none;stroke-dashoffset:0;stroke-opacity:1"
       x="232.74828"
       y="64.917419"
       id="text8938"><tspan
         sodipodi:role="line"
         id="tspan8936"
         style="fill:#ffffff;stroke:none;stroke-width:0.857609"
         x="232.74828"
         y="64.917419">Peak</tspan></text>
    <text
       xml:space="preserve"
       style="font-style:normal;font-variant:normal;font-weight:normal;font-stretch:normal;font-size:11.4348px;line-height:1.25;font-family:arial;-inkscape-font-specification:'arial, Normal';font-variant-ligatures:normal;font-variant-position:normal;font-variant-caps:normal;font-variant-numeric:normal;font-variant-alternates:normal;font-feature-settings:normal;text-indent:0;text-align:start;text-decoration:none;text-decoration-line:none;text-decoration-style:solid;text-decoration-color:#000000;letter-spacing:0px;word-spacing:0px;text-transform:none;writing-mode:lr-tb;direction:ltr;text-orientation:mixed;dominant-baseline:auto;baseline-shift:baseline;text-anchor:start;white-space:normal;shape-padding:0;opacity:1;vector-effect:none;fill:#ffff00;fill-opacity:1;stroke:none;stroke-width:0.857609;stroke-linecap:butt;stroke-linejoin:miter;stroke-miterlimit:4;stroke-dasharray:none;stroke-dashoffset:0;stroke-opacity:1"
       x="77.039131"
       y="109.11318"
       id="text8942"><tspan
         sodipodi:role="line"
         id="tspan8940"
         style="fill:#ffffff;stroke:none;stroke-width:0.857609"
         x="77.039131"
         y="109.11318">Regions</tspan></text>
  </g>
</svg>
