<?xml version="1.0" encoding="UTF-8" standalone="no"?>
<!-- Created with Inkscape (http://www.inkscape.org/) -->

<svg
   xmlns:dc="http://purl.org/dc/elements/1.1/"
   xmlns:cc="http://creativecommons.org/ns#"
   xmlns:rdf="http://www.w3.org/1999/02/22-rdf-syntax-ns#"
   xmlns:svg="http://www.w3.org/2000/svg"
   xmlns="http://www.w3.org/2000/svg"
   xmlns:sodipodi="http://sodipodi.sourceforge.net/DTD/sodipodi-0.dtd"
   xmlns:inkscape="http://www.inkscape.org/namespaces/inkscape"
   width="1600"
   height="300"
   viewBox="0 0 1600 300"
   id="svg4161"
   version="1.1"
   inkscape:version="0.92.5 (2060ec1f9f, 2020-04-08)"
   sodipodi:docname="subject-query-one-vs-many-integrate.svg">
  <defs
     id="defs4163" />
  <sodipodi:namedview
     id="base"
     pagecolor="#000000"
     bordercolor="#666666"
     borderopacity="1.0"
     inkscape:pageopacity="1"
     inkscape:pageshadow="2"
     inkscape:zoom="0.49467604"
     inkscape:cx="1383.9044"
     inkscape:cy="603.16891"
     inkscape:document-units="px"
     inkscape:current-layer="layer1"
     showgrid="false"
     units="px"
     inkscape:window-width="2488"
     inkscape:window-height="1343"
     inkscape:window-x="1272"
     inkscape:window-y="231"
     inkscape:window-maximized="1"
     inkscape:snap-global="false" />
  <metadata
     id="metadata4166">
    <rdf:RDF>
      <cc:Work
         rdf:about="">
        <dc:format>image/svg+xml</dc:format>
        <dc:type
           rdf:resource="http://purl.org/dc/dcmitype/StillImage" />
        <dc:title></dc:title>
      </cc:Work>
    </rdf:RDF>
  </metadata>
  <g
     inkscape:label="Layer 1"
     inkscape:groupmode="layer"
     id="layer1"
     transform="translate(0,-752.3622)">
    <text
       xml:space="preserve"
       style="color:#000000;font-style:normal;font-variant:normal;font-weight:normal;font-stretch:normal;line-height:0%;font-family:Arial;-inkscape-font-specification:'Arial, Normal';text-indent:0;text-align:center;text-decoration:none;text-decoration-line:none;text-decoration-style:solid;text-decoration-color:#000000;letter-spacing:0px;word-spacing:0px;text-transform:none;writing-mode:lr-tb;direction:ltr;baseline-shift:baseline;text-anchor:middle;white-space:normal;clip-rule:nonzero;display:inline;overflow:visible;visibility:visible;opacity:1;isolation:auto;mix-blend-mode:normal;color-interpolation:sRGB;color-interpolation-filters:linearRGB;solid-color:#000000;solid-opacity:1;fill:#55ddff;fill-opacity:1;fill-rule:nonzero;stroke:none;stroke-width:1px;stroke-linecap:butt;stroke-linejoin:miter;stroke-miterlimit:4;stroke-dasharray:none;stroke-dashoffset:0;stroke-opacity:1;marker:none;color-rendering:auto;image-rendering:auto;shape-rendering:auto;text-rendering:auto;enable-background:accumulate"
       x="1200.7174"
       y="851.61938"
       id="text4809"
       transform="scale(1.0002138,0.99978625)"><tspan
         sodipodi:role="line"
         id="tspan4811"
         x="1200.7174"
         y="851.61938"
         style="font-size:60px;line-height:0;fill:#55ddff;fill-opacity:1;stroke:none;stroke-width:1px">many subjects</tspan></text>
    <text
       transform="scale(1.0002138,0.99978625)"
       id="text4805"
       y="851.61938"
       x="407.31271"
       style="color:#000000;font-style:normal;font-variant:normal;font-weight:normal;font-stretch:normal;line-height:0%;font-family:Arial;-inkscape-font-specification:'Arial, Normal';text-indent:0;text-align:center;text-decoration:none;text-decoration-line:none;text-decoration-style:solid;text-decoration-color:#000000;letter-spacing:0px;word-spacing:0px;text-transform:none;writing-mode:lr-tb;direction:ltr;baseline-shift:baseline;text-anchor:middle;white-space:normal;clip-rule:nonzero;display:inline;overflow:visible;visibility:visible;opacity:1;isolation:auto;mix-blend-mode:normal;color-interpolation:sRGB;color-interpolation-filters:linearRGB;solid-color:#000000;solid-opacity:1;fill:#ff9955;fill-opacity:1;fill-rule:nonzero;stroke:none;stroke-width:1px;stroke-linecap:butt;stroke-linejoin:miter;stroke-miterlimit:4;stroke-dasharray:none;stroke-dashoffset:0;stroke-opacity:1;marker:none;color-rendering:auto;image-rendering:auto;shape-rendering:auto;text-rendering:auto;enable-background:accumulate"
       xml:space="preserve"><tspan
         style="font-size:60px;line-height:0;fill:#ff9955;stroke:none;stroke-width:1px"
         y="851.61938"
         x="407.31271"
         id="tspan4807"
         sodipodi:role="line">one query</tspan></text>
    <g
       id="g4183"
       transform="matrix(0.90449782,0,0,1,60.800903,86)"
       style="stroke-width:1.05146837">
      <path
         style="fill:#ffffff;fill-rule:evenodd;stroke:#ffffff;stroke-width:1.05146837px;stroke-linecap:butt;stroke-linejoin:miter;stroke-opacity:1"
         d="M -2.885493,868.59235 H 771.02461"
         id="path4813"
         inkscape:connector-curvature="0" />
      <path
         inkscape:connector-curvature="0"
         id="path4776"
         d="M 346.28939,868.59235 H 192.84291"
         style="color:#000000;clip-rule:nonzero;display:inline;overflow:visible;visibility:visible;opacity:1;isolation:auto;mix-blend-mode:normal;color-interpolation:sRGB;color-interpolation-filters:linearRGB;solid-color:#000000;solid-opacity:1;fill:#ff9955;fill-opacity:1;fill-rule:nonzero;stroke:#ffb380;stroke-width:8.41174698;stroke-linecap:butt;stroke-linejoin:miter;stroke-miterlimit:4;stroke-dasharray:none;stroke-dashoffset:0;stroke-opacity:1;marker:none;color-rendering:auto;image-rendering:auto;shape-rendering:auto;text-rendering:auto;enable-background:accumulate" />
      <path
         inkscape:connector-curvature="0"
         id="path4776-3"
         d="m 607.12858,868.85428 h -83.6979"
         style="color:#000000;clip-rule:nonzero;display:inline;overflow:visible;visibility:visible;opacity:1;isolation:auto;mix-blend-mode:normal;color-interpolation:sRGB;color-interpolation-filters:linearRGB;solid-color:#000000;solid-opacity:1;fill:#ff9955;fill-opacity:1;fill-rule:nonzero;stroke:#ffb380;stroke-width:8.41174698;stroke-linecap:butt;stroke-linejoin:miter;stroke-miterlimit:4;stroke-dasharray:none;stroke-dashoffset:0;stroke-opacity:1;marker:none;color-rendering:auto;image-rendering:auto;shape-rendering:auto;text-rendering:auto;enable-background:accumulate" />
    </g>
    <text
       xml:space="preserve"
       style="color:#000000;font-style:normal;font-variant:normal;font-weight:bold;font-stretch:normal;line-height:0%;font-family:Arial;-inkscape-font-specification:'Arial Bold';text-indent:0;text-align:center;text-decoration:none;text-decoration-line:none;text-decoration-style:solid;text-decoration-color:#000000;letter-spacing:0px;word-spacing:0px;text-transform:none;writing-mode:lr-tb;direction:ltr;baseline-shift:baseline;text-anchor:middle;white-space:normal;clip-rule:nonzero;display:inline;overflow:visible;visibility:visible;opacity:1;isolation:auto;mix-blend-mode:normal;color-interpolation:sRGB;color-interpolation-filters:linearRGB;solid-color:#000000;solid-opacity:1;fill:#ffffff;fill-opacity:1;fill-rule:nonzero;stroke:none;stroke-width:1px;stroke-linecap:butt;stroke-linejoin:miter;stroke-miterlimit:4;stroke-dasharray:none;stroke-dashoffset:0;stroke-opacity:1;marker:none;color-rendering:auto;image-rendering:auto;shape-rendering:auto;text-rendering:auto;enable-background:accumulate"
       x="797.75763"
       y="845.26086"
       id="text4179"><tspan
         sodipodi:role="line"
         id="tspan4181"
         x="797.75763"
         y="845.26086"
         style="font-size:50.56238174px;line-height:0">vs</tspan></text>
    <g
       id="g127"
       transform="translate(37.057576)">
      <g
         style="stroke-width:1.05146849"
         transform="matrix(0.687792,0,0,0.6956059,435.53767,264.65052)"
         id="g4156">
        <path
           style="fill:#ffffff;fill-rule:evenodd;stroke:#55ddff;stroke-width:1.44573867px;stroke-linecap:butt;stroke-linejoin:miter;stroke-opacity:1"
           d="M 551.32858,916.78686 H 1569.0781"
           id="path4168"
           inkscape:connector-curvature="0" />
        <path
           style="fill:#ffffff;fill-rule:evenodd;stroke:#55ddff;stroke-width:11.56590939;stroke-linecap:butt;stroke-linejoin:miter;stroke-miterlimit:4;stroke-dasharray:none;stroke-opacity:1"
           d="m 557.73045,917.29066 c 71.12274,0 71.12274,0 71.12274,0"
           id="path4136"
           inkscape:connector-curvature="0" />
        <path
           inkscape:connector-curvature="0"
           id="path4138"
           d="m 663.23113,917.29066 c 63.99221,0 63.99221,0 63.99221,0"
           style="fill:#ffffff;fill-rule:evenodd;stroke:#55ddff;stroke-width:11.56590939;stroke-linecap:butt;stroke-linejoin:miter;stroke-miterlimit:4;stroke-dasharray:none;stroke-opacity:1" />
        <path
           style="fill:#ffffff;fill-rule:evenodd;stroke:#55ddff;stroke-width:11.56590939;stroke-linecap:butt;stroke-linejoin:miter;stroke-miterlimit:4;stroke-dasharray:none;stroke-opacity:1"
           d="m 847.99993,917.29066 c 80.19525,0 80.19525,0 80.19525,0"
           id="path4140"
           inkscape:connector-curvature="0" />
        <path
           inkscape:connector-curvature="0"
           id="path4142"
           d="m 950.33129,917.29066 c 93.39401,0 93.39401,0 93.39401,0"
           style="fill:#ffffff;fill-rule:evenodd;stroke:#55ddff;stroke-width:11.56590939;stroke-linecap:butt;stroke-linejoin:miter;stroke-miterlimit:4;stroke-dasharray:none;stroke-opacity:1" />
        <path
           style="fill:#ffffff;fill-rule:evenodd;stroke:#55ddff;stroke-width:11.56590939;stroke-linecap:butt;stroke-linejoin:miter;stroke-miterlimit:4;stroke-dasharray:none;stroke-opacity:1"
           d="m 1086.9633,917.29066 c 48.118,0 48.118,0 48.118,0"
           id="path4144"
           inkscape:connector-curvature="0" />
        <path
           inkscape:connector-curvature="0"
           id="path4146"
           d="m 1394.8176,917.29066 c 70.4099,0 70.4099,0 70.4099,0"
           style="fill:#ffffff;fill-rule:evenodd;stroke:#55ddff;stroke-width:11.56590939;stroke-linecap:butt;stroke-linejoin:miter;stroke-miterlimit:4;stroke-dasharray:none;stroke-opacity:1" />
        <path
           inkscape:connector-curvature="0"
           id="path4166"
           d="m 1289.9861,917.29066 c 77.9117,0 77.9117,0 77.9117,0"
           style="fill:#ffffff;fill-rule:evenodd;stroke:#55ddff;stroke-width:11.56590939;stroke-linecap:butt;stroke-linejoin:miter;stroke-miterlimit:4;stroke-dasharray:none;stroke-opacity:1" />
        <path
           style="fill:#ffffff;fill-rule:evenodd;stroke:#55ddff;stroke-width:11.56590939;stroke-linecap:butt;stroke-linejoin:miter;stroke-miterlimit:4;stroke-dasharray:none;stroke-opacity:1"
           d="m 1524.624,917.29066 c 37.0029,0 37.0029,0 37.0029,0"
           id="path4572"
           inkscape:connector-curvature="0" />
        <path
           style="fill:#ffffff;fill-rule:evenodd;stroke:#55ddff;stroke-width:11.56590939;stroke-linecap:butt;stroke-linejoin:miter;stroke-miterlimit:4;stroke-dasharray:none;stroke-opacity:1"
           d="m 746.60028,917.29066 c 38.937,0 38.937,0 38.937,0"
           id="path4574"
           inkscape:connector-curvature="0" />
        <path
           inkscape:connector-curvature="0"
           id="path4576"
           d="m 1202.4956,917.29066 c 47.4595,0 47.4595,0 47.4595,0"
           style="fill:#ffffff;fill-rule:evenodd;stroke:#55ddff;stroke-width:11.56590939;stroke-linecap:butt;stroke-linejoin:miter;stroke-miterlimit:4;stroke-dasharray:none;stroke-opacity:1" />
      </g>
      <path
         style="fill:#ffffff;fill-rule:evenodd;stroke:#55ddff;stroke-width:0.99999994px;stroke-linecap:butt;stroke-linejoin:miter;stroke-opacity:1"
         d="M 814.73706,922.3729 H 1514.737"
         id="path4223"
         inkscape:connector-curvature="0" />
      <path
         style="fill:#ffffff;fill-rule:evenodd;stroke:#55ddff;stroke-width:7.99999952;stroke-linecap:butt;stroke-linejoin:miter;stroke-miterlimit:4;stroke-dasharray:none;stroke-opacity:1"
         d="m 855.32012,922.7233 c 48.91765,0 48.91765,0 48.91765,0"
         id="path4225"
         inkscape:connector-curvature="0" />
      <path
         inkscape:connector-curvature="0"
         id="path4227"
         d="m 927.88264,922.7233 c 44.01333,0 44.01333,0 44.01333,0"
         style="fill:#ffffff;fill-rule:evenodd;stroke:#55ddff;stroke-width:7.99999952;stroke-linecap:butt;stroke-linejoin:miter;stroke-miterlimit:4;stroke-dasharray:none;stroke-opacity:1" />
      <path
         style="fill:#ffffff;fill-rule:evenodd;stroke:#55ddff;stroke-width:7.99999952;stroke-linecap:butt;stroke-linejoin:miter;stroke-miterlimit:4;stroke-dasharray:none;stroke-opacity:1"
         d="m 1473.4323,922.7233 c -55.1577,0 -55.1577,0 -55.1577,0"
         id="path4229"
         inkscape:connector-curvature="0" />
      <path
         style="fill:#ffffff;fill-rule:evenodd;stroke:#55ddff;stroke-width:7.99999952;stroke-linecap:butt;stroke-linejoin:miter;stroke-miterlimit:4;stroke-dasharray:none;stroke-opacity:1"
         d="m 1327.1651,922.7233 c -33.0952,0 -33.0952,0 -33.0952,0"
         id="path4233"
         inkscape:connector-curvature="0" />
      <path
         inkscape:connector-curvature="0"
         id="path4235"
         d="m 1133.5153,922.7233 c -48.4273,0 -48.4273,0 -48.4273,0"
         style="fill:#ffffff;fill-rule:evenodd;stroke:#55ddff;stroke-width:7.99999952;stroke-linecap:butt;stroke-linejoin:miter;stroke-miterlimit:4;stroke-dasharray:none;stroke-opacity:1" />
      <path
         style="fill:#ffffff;fill-rule:evenodd;stroke:#55ddff;stroke-width:7.99999952;stroke-linecap:butt;stroke-linejoin:miter;stroke-miterlimit:4;stroke-dasharray:none;stroke-opacity:1"
         d="m 1062.3255,922.7233 c -25.4504,0 -25.4504,0 -25.4504,0"
         id="path4239"
         inkscape:connector-curvature="0" />
      <path
         inkscape:connector-curvature="0"
         id="path4243"
         d="m 1247.7029,922.7233 c -32.6422,0 -32.6422,0 -32.6422,0"
         style="fill:#ffffff;fill-rule:evenodd;stroke:#55ddff;stroke-width:7.99999952;stroke-linecap:butt;stroke-linejoin:miter;stroke-miterlimit:4;stroke-dasharray:none;stroke-opacity:1" />
      <path
         inkscape:connector-curvature="0"
         id="path4247"
         d="M 814.73706,942.3729 H 1514.737"
         style="fill:#ffffff;fill-rule:evenodd;stroke:#55ddff;stroke-width:0.99999994px;stroke-linecap:butt;stroke-linejoin:miter;stroke-opacity:1" />
      <path
         inkscape:connector-curvature="0"
         id="path4249"
         d="m 975.82392,942.7233 c -48.91766,0 -48.91766,0 -48.91766,0"
         style="fill:#ffffff;fill-rule:evenodd;stroke:#55ddff;stroke-width:7.99999952;stroke-linecap:butt;stroke-linejoin:miter;stroke-miterlimit:4;stroke-dasharray:none;stroke-opacity:1" />
      <path
         style="fill:#ffffff;fill-rule:evenodd;stroke:#55ddff;stroke-width:7.99999952;stroke-linecap:butt;stroke-linejoin:miter;stroke-miterlimit:4;stroke-dasharray:none;stroke-opacity:1"
         d="m 903.26139,942.7233 c -44.01333,0 -44.01333,0 -44.01333,0"
         id="path4251"
         inkscape:connector-curvature="0" />
      <path
         style="fill:#ffffff;fill-rule:evenodd;stroke:#55ddff;stroke-width:7.99999952;stroke-linecap:butt;stroke-linejoin:miter;stroke-miterlimit:4;stroke-dasharray:none;stroke-opacity:1"
         d="m 1443.3094,942.7233 c -64.2356,0 -64.2356,0 -64.2356,0"
         id="path4255"
         inkscape:connector-curvature="0" />
      <path
         inkscape:connector-curvature="0"
         id="path4257"
         d="m 1183.1423,942.7233 c 33.0952,0 33.0952,0 33.0952,0"
         style="fill:#ffffff;fill-rule:evenodd;stroke:#55ddff;stroke-width:7.99999952;stroke-linecap:butt;stroke-linejoin:miter;stroke-miterlimit:4;stroke-dasharray:none;stroke-opacity:1" />
      <path
         style="fill:#ffffff;fill-rule:evenodd;stroke:#55ddff;stroke-width:7.99999952;stroke-linecap:butt;stroke-linejoin:miter;stroke-miterlimit:4;stroke-dasharray:none;stroke-opacity:1"
         d="m 1137.5953,942.7233 c -48.4273,0 -48.4273,0 -48.4273,0"
         id="path4259"
         inkscape:connector-curvature="0" />
      <path
         style="fill:#ffffff;fill-rule:evenodd;stroke:#55ddff;stroke-width:7.99999952;stroke-linecap:butt;stroke-linejoin:miter;stroke-miterlimit:4;stroke-dasharray:none;stroke-opacity:1"
         d="m 1209.6976,942.7233 c -53.587,0 -53.587,0 -53.587,0"
         id="path4261"
         inkscape:connector-curvature="0" />
      <path
         inkscape:connector-curvature="0"
         id="path4265"
         d="m 845.92076,942.7233 c -26.78056,0 -26.78056,0 -26.78056,0"
         style="fill:#ffffff;fill-rule:evenodd;stroke:#55ddff;stroke-width:7.99999952;stroke-linecap:butt;stroke-linejoin:miter;stroke-miterlimit:4;stroke-dasharray:none;stroke-opacity:1" />
      <path
         style="fill:#ffffff;fill-rule:evenodd;stroke:#55ddff;stroke-width:0.99999994px;stroke-linecap:butt;stroke-linejoin:miter;stroke-opacity:1"
         d="M 814.73706,982.3729 H 1514.737"
         id="path4271"
         inkscape:connector-curvature="0" />
      <path
         style="fill:#ffffff;fill-rule:evenodd;stroke:#55ddff;stroke-width:8;stroke-linecap:butt;stroke-linejoin:miter;stroke-miterlimit:4;stroke-dasharray:none;stroke-opacity:1"
         d="m 819.14023,982.7233 c 81.83004,0 81.83004,0 81.83004,0"
         id="path4273"
         inkscape:connector-curvature="0" />
      <path
         inkscape:connector-curvature="0"
         id="path4275"
         d="m 891.70273,982.7233 c 44.01333,0 44.01333,0 44.01333,0"
         style="fill:#ffffff;fill-rule:evenodd;stroke:#55ddff;stroke-width:7.99999952;stroke-linecap:butt;stroke-linejoin:miter;stroke-miterlimit:4;stroke-dasharray:none;stroke-opacity:1" />
      <path
         style="fill:#ffffff;fill-rule:evenodd;stroke:#55ddff;stroke-width:7.99999952;stroke-linecap:butt;stroke-linejoin:miter;stroke-miterlimit:4;stroke-dasharray:none;stroke-opacity:1"
         d="m 964.51532,982.7233 c 55.15768,0 55.15768,0 55.15768,0"
         id="path4277"
         inkscape:connector-curvature="0" />
      <path
         inkscape:connector-curvature="0"
         id="path4279"
         d="m 1034.8981,982.7233 c 64.2356,0 64.2356,0 64.2356,0"
         style="fill:#ffffff;fill-rule:evenodd;stroke:#55ddff;stroke-width:7.99999952;stroke-linecap:butt;stroke-linejoin:miter;stroke-miterlimit:4;stroke-dasharray:none;stroke-opacity:1" />
      <path
         style="fill:#ffffff;fill-rule:evenodd;stroke:#55ddff;stroke-width:7.99999952;stroke-linecap:butt;stroke-linejoin:miter;stroke-miterlimit:4;stroke-dasharray:none;stroke-opacity:1"
         d="m 1112.7464,982.7233 c 103.4911,0 103.4911,0 103.4911,0"
         id="path4281"
         inkscape:connector-curvature="0" />
      <path
         inkscape:connector-curvature="0"
         id="path4285"
         d="m 1322.7798,982.7233 c 53.587,0 53.587,0 53.587,0"
         style="fill:#ffffff;fill-rule:evenodd;stroke:#55ddff;stroke-width:7.99999952;stroke-linecap:butt;stroke-linejoin:miter;stroke-miterlimit:4;stroke-dasharray:none;stroke-opacity:1" />
      <path
         inkscape:connector-curvature="0"
         id="path4295"
         d="M 1514.737,1002.3729 H 814.73703"
         style="fill:#ffffff;fill-rule:evenodd;stroke:#55ddff;stroke-width:0.99999994px;stroke-linecap:butt;stroke-linejoin:miter;stroke-opacity:1" />
      <path
         inkscape:connector-curvature="0"
         id="path4297"
         d="m 1510.3339,1002.7233 c -120.2278,0 -120.2278,0 -120.2278,0"
         style="fill:#ffffff;fill-rule:evenodd;stroke:#55ddff;stroke-width:7.99999952;stroke-linecap:butt;stroke-linejoin:miter;stroke-miterlimit:4;stroke-dasharray:none;stroke-opacity:1" />
      <path
         inkscape:connector-curvature="0"
         id="path4301"
         d="m 1103.9692,1002.7233 c 55.1576,0 55.1576,0 55.1576,0"
         style="fill:#ffffff;fill-rule:evenodd;stroke:#55ddff;stroke-width:7.99999952;stroke-linecap:butt;stroke-linejoin:miter;stroke-miterlimit:4;stroke-dasharray:none;stroke-opacity:1" />
      <path
         style="fill:#ffffff;fill-rule:evenodd;stroke:#55ddff;stroke-width:7.99999952;stroke-linecap:butt;stroke-linejoin:miter;stroke-miterlimit:4;stroke-dasharray:none;stroke-opacity:1"
         d="m 1174.3518,1002.7233 c 64.2357,0 64.2357,0 64.2357,0"
         id="path4303"
         inkscape:connector-curvature="0" />
      <path
         inkscape:connector-curvature="0"
         id="path4305"
         d="m 1268.3263,1002.7233 c 33.0951,0 33.0951,0 33.0951,0"
         style="fill:#ffffff;fill-rule:evenodd;stroke:#55ddff;stroke-width:7.99999952;stroke-linecap:butt;stroke-linejoin:miter;stroke-miterlimit:4;stroke-dasharray:none;stroke-opacity:1" />
      <path
         inkscape:connector-curvature="0"
         id="path4311"
         d="m 1023.5875,1002.7233 c -203.7256,0 -203.7256,0 -203.7256,0"
         style="fill:#ffffff;fill-rule:evenodd;stroke:#55ddff;stroke-width:7.99999952;stroke-linecap:butt;stroke-linejoin:miter;stroke-miterlimit:4;stroke-dasharray:none;stroke-opacity:1" />
      <path
         inkscape:connector-curvature="0"
         id="path4313"
         d="m 1034.2272,1002.7233 c 26.7807,0 26.7807,0 26.7807,0"
         style="fill:#ffffff;fill-rule:evenodd;stroke:#55ddff;stroke-width:7.99999952;stroke-linecap:butt;stroke-linejoin:miter;stroke-miterlimit:4;stroke-dasharray:none;stroke-opacity:1" />
      <path
         style="fill:#ffffff;fill-rule:evenodd;stroke:#55ddff;stroke-width:7.99999952;stroke-linecap:butt;stroke-linejoin:miter;stroke-miterlimit:4;stroke-dasharray:none;stroke-opacity:1"
         d="m 1347.7884,1002.7233 c 32.6423,0 32.6423,0 32.6423,0"
         id="path4315"
         inkscape:connector-curvature="0" />
      <g
         style="stroke-width:1.05146849"
         transform="matrix(-0.687792,0,0,0.6956059,1893.9364,324.65052)"
         id="g4317">
        <path
           style="fill:#ffffff;fill-rule:evenodd;stroke:#55ddff;stroke-width:1.44573867px;stroke-linecap:butt;stroke-linejoin:miter;stroke-opacity:1"
           d="M 551.32858,916.78686 H 1569.0781"
           id="path4319"
           inkscape:connector-curvature="0" />
        <path
           style="fill:#ffffff;fill-rule:evenodd;stroke:#55ddff;stroke-width:11.56590939;stroke-linecap:butt;stroke-linejoin:miter;stroke-miterlimit:4;stroke-dasharray:none;stroke-opacity:1"
           d="m 557.73045,917.29066 c 71.12274,0 71.12274,0 71.12274,0"
           id="path4321"
           inkscape:connector-curvature="0" />
        <path
           inkscape:connector-curvature="0"
           id="path4323"
           d="m 663.23113,917.29066 c 63.99221,0 63.99221,0 63.99221,0"
           style="fill:#ffffff;fill-rule:evenodd;stroke:#55ddff;stroke-width:11.56590939;stroke-linecap:butt;stroke-linejoin:miter;stroke-miterlimit:4;stroke-dasharray:none;stroke-opacity:1" />
        <path
           style="fill:#ffffff;fill-rule:evenodd;stroke:#55ddff;stroke-width:11.56590939;stroke-linecap:butt;stroke-linejoin:miter;stroke-miterlimit:4;stroke-dasharray:none;stroke-opacity:1"
           d="m 847.99993,917.29066 c 80.19525,0 80.19525,0 80.19525,0"
           id="path4325"
           inkscape:connector-curvature="0" />
        <path
           inkscape:connector-curvature="0"
           id="path4327"
           d="m 950.33129,917.29066 c 93.39401,0 93.39401,0 93.39401,0"
           style="fill:#ffffff;fill-rule:evenodd;stroke:#55ddff;stroke-width:11.56590939;stroke-linecap:butt;stroke-linejoin:miter;stroke-miterlimit:4;stroke-dasharray:none;stroke-opacity:1" />
        <path
           style="fill:#ffffff;fill-rule:evenodd;stroke:#55ddff;stroke-width:11.56590939;stroke-linecap:butt;stroke-linejoin:miter;stroke-miterlimit:4;stroke-dasharray:none;stroke-opacity:1"
           d="m 1086.9633,917.29066 c 48.118,0 48.118,0 48.118,0"
           id="path4329"
           inkscape:connector-curvature="0" />
        <path
           inkscape:connector-curvature="0"
           id="path4331"
           d="m 1394.8176,917.29066 c 70.4099,0 70.4099,0 70.4099,0"
           style="fill:#ffffff;fill-rule:evenodd;stroke:#55ddff;stroke-width:11.56590939;stroke-linecap:butt;stroke-linejoin:miter;stroke-miterlimit:4;stroke-dasharray:none;stroke-opacity:1" />
        <path
           inkscape:connector-curvature="0"
           id="path4333"
           d="m 1289.9861,917.29066 c 77.9117,0 77.9117,0 77.9117,0"
           style="fill:#ffffff;fill-rule:evenodd;stroke:#55ddff;stroke-width:11.56590939;stroke-linecap:butt;stroke-linejoin:miter;stroke-miterlimit:4;stroke-dasharray:none;stroke-opacity:1" />
        <path
           style="fill:#ffffff;fill-rule:evenodd;stroke:#55ddff;stroke-width:11.56590939;stroke-linecap:butt;stroke-linejoin:miter;stroke-miterlimit:4;stroke-dasharray:none;stroke-opacity:1"
           d="m 1524.624,917.29066 c 37.0029,0 37.0029,0 37.0029,0"
           id="path4335"
           inkscape:connector-curvature="0" />
        <path
           style="fill:#ffffff;fill-rule:evenodd;stroke:#55ddff;stroke-width:11.56590939;stroke-linecap:butt;stroke-linejoin:miter;stroke-miterlimit:4;stroke-dasharray:none;stroke-opacity:1"
           d="m 746.60028,917.29066 c 38.937,0 38.937,0 38.937,0"
           id="path4337"
           inkscape:connector-curvature="0" />
        <path
           inkscape:connector-curvature="0"
           id="path4339"
           d="m 1202.4956,917.29066 c 47.4595,0 47.4595,0 47.4595,0"
           style="fill:#ffffff;fill-rule:evenodd;stroke:#55ddff;stroke-width:11.56590939;stroke-linecap:butt;stroke-linejoin:miter;stroke-miterlimit:4;stroke-dasharray:none;stroke-opacity:1" />
      </g>
    </g>
    <g
       id="g121"
       transform="matrix(1.1147124,0,0,1.1147124,-119.30543,1251.5706)"
       style="fill:#ffffff;stroke-width:0.89709234">
      <path
         id="path4"
         d="m 92.5,67.5 h -30 C 61.119,67.5 60,68.619 60,70 v 10 c 0,1.381 1.119,2.5 2.5,2.5 h 30 C 93.881,82.5 95,81.381 95,80 V 70 c 0,-1.381 -1.119,-2.5 -2.5,-2.5 z M 90,77.5 H 65 v -5 h 25 z"
         inkscape:connector-curvature="0"
         style="fill:#ffffff;stroke-width:0.89709234" />
      <path
         id="path6"
         d="m 92.5,42.5 h -30 C 61.119,42.5 60,43.619 60,45 v 10 c 0,1.381 1.119,2.5 2.5,2.5 h 30 C 93.881,57.5 95,56.381 95,55 V 45 c 0,-1.381 -1.119,-2.5 -2.5,-2.5 z M 90,52.5 H 65 v -5 h 25 z"
         inkscape:connector-curvature="0"
         style="fill:#ffffff;stroke-width:0.89709234" />
      <path
         id="path8"
         d="m 92.5,17.5 h -30 C 61.119,17.5 60,18.619 60,20 v 10 c 0,1.381 1.119,2.5 2.5,2.5 h 30 C 93.881,32.5 95,31.381 95,30 V 20 c 0,-1.381 -1.119,-2.5 -2.5,-2.5 z M 90,27.5 H 65 v -5 h 25 z"
         inkscape:connector-curvature="0"
         style="fill:#ffffff;stroke-width:0.89709234" />
      <path
         id="path10"
         d="m 37.5,82.5 h 15 C 53.881,82.5 55,81.381 55,80 V 70 c 0,-1.381 -1.119,-2.5 -2.5,-2.5 h -15 C 27.851,67.5 20,59.649 20,50 20,41.199 26.53,33.895 35,32.678 V 35 c 0,0.922 0.508,1.769 1.32,2.204 0.813,0.435 1.8,0.387 2.566,-0.124 l 15,-10 C 54.582,26.617 55,25.836 55,25 55,24.164 54.582,23.383 53.887,22.92 l -15,-10 C 38.121,12.409 37.133,12.36 36.321,12.796 35.508,13.231 35,14.078 35,15 v 2.595 C 18.243,18.876 5,32.92 5,50 5,67.92 19.579,82.5 37.5,82.5 Z m 0,-60 C 38.881,22.5 40,21.381 40,20 V 19.671 L 47.993,25 40,30.329 V 30 C 40,28.619 38.881,27.5 37.5,27.5 25.094,27.5 15,37.593 15,50 15,62.407 25.094,72.5 37.5,72.5 H 50 v 5 H 37.5 C 22.337,77.5 10,65.164 10,50 10,34.836 22.337,22.5 37.5,22.5 Z"
         inkscape:connector-curvature="0"
         style="fill:#ffffff;stroke-width:0.89709234" />
    </g>
    <text
       transform="scale(1.0002138,0.99978625)"
       id="text125"
       y="831.90533"
       x="131.55923"
       style="color:#000000;font-style:normal;font-variant:normal;font-weight:normal;font-stretch:normal;line-height:0%;font-family:Arial;-inkscape-font-specification:'Arial, Normal';text-indent:0;text-align:center;text-decoration:none;text-decoration-line:none;text-decoration-style:solid;text-decoration-color:#000000;letter-spacing:0px;word-spacing:0px;text-transform:none;writing-mode:lr-tb;direction:ltr;baseline-shift:baseline;text-anchor:middle;white-space:normal;clip-rule:nonzero;display:inline;overflow:visible;visibility:visible;opacity:1;isolation:auto;mix-blend-mode:normal;color-interpolation:sRGB;color-interpolation-filters:linearRGB;solid-color:#000000;solid-opacity:1;fill:#55ddff;fill-opacity:1;fill-rule:nonzero;stroke:none;stroke-width:1px;stroke-linecap:butt;stroke-linejoin:miter;stroke-miterlimit:4;stroke-dasharray:none;stroke-dashoffset:0;stroke-opacity:1;marker:none;color-rendering:auto;image-rendering:auto;shape-rendering:auto;text-rendering:auto;enable-background:accumulate"
       xml:space="preserve"><tspan
         style="font-size:60px;line-height:0;fill:#ffffff;fill-opacity:1;stroke:none;stroke-width:1px"
         y="831.90533"
         x="131.55923"
         id="tspan123"
         sodipodi:role="line">integrate</tspan></text>
    <g
       style="fill:#ffffff;stroke-width:0.94840026"
       id="g4"
       transform="matrix(1.0544072,0,0,-1.0544072,62.009637,940.19254)">
      <path
         style="fill:#ffffff;stroke-width:0.94840026"
         d="m 85.73,63 c -1.65,0 -3.211,0.38 -4.61,1.05 l -8.37,-11.3 1.17,0.17 c 1.09,0.17 2.11,-0.58 2.271,-1.68 0.17,-1.09 -0.58,-2.11 -1.681,-2.27 L 69.39,48.2 60.18,35.74 C 63.12,33 64.96,29.11 64.96,24.79 64.96,16.55 58.25,9.84 50,9.84 c -8.25,0 -14.96,6.71 -14.96,14.95 0,4.21 1.75,8.02 4.56,10.74 l -9.37,12.67 -5.12,0.77 c -1.1,0.16 -1.85,1.18 -1.69,2.27 0.17,1.1 1.19,1.859 2.28,1.68 L 26.87,52.75 18.6,63.93 C 17.28,63.33 15.81,63 14.27,63 8.44,63 3.7,67.74 3.7,73.58 c 0,5.83 4.74,10.57 10.57,10.57 5.83,0 10.58,-4.74 10.58,-10.57 0,-2.86 -1.14,-5.45 -2.98,-7.36 l 8.2,-11.09 0.18,1.16 c 0.14,0.99 1,1.7 1.97,1.7 0.1,0 0.2,0 0.3,-0.021 1.09,-0.16 1.85,-1.18 1.68,-2.27 l -0.77,-5.11 9.38,-12.69 c 1.58,0.87 3.33,1.47 5.19,1.71 v 10.61 l -3.82,3.82 c -0.78,0.79 -0.78,2.05 0,2.83 0.78,0.78 2.05,0.78 2.83,0 L 48,55.88 v 7.311 c -4.88,0.939 -8.58,5.229 -8.58,10.39 0,5.83 4.75,10.57 10.58,10.57 5.83,0 10.58,-4.74 10.58,-10.57 0,-5.16 -3.7,-9.45 -8.58,-10.39 V 55.88 l 0.99,0.99 c 0.39,0.39 0.899,0.59 1.41,0.59 0.52,0 1.029,-0.2 1.42,-0.59 0.779,-0.78 0.779,-2.04 0,-2.83 L 52,50.23 V 39.61 c 1.75,-0.23 3.41,-0.77 4.91,-1.56 l 9.28,12.54 -0.77,5.11 c -0.17,1.09 0.59,2.109 1.68,2.27 0.1,0.02 0.2,0.02 0.3,0.02 0.97,0 1.819,-0.71 1.97,-1.7 l 0.17,-1.16 8.38,11.32 c -1.72,1.88 -2.77,4.38 -2.77,7.13 0,5.83 4.739,10.57 10.58,10.57 5.829,0 10.569,-4.74 10.569,-10.57 C 96.3,67.74 91.56,63 85.73,63 Z M 14.27,79.15 C 11.2,79.15 8.7,76.65 8.7,73.58 8.7,70.5 11.2,68 14.27,68 c 1.15,0 2.21,0.34 3.1,0.93 0.01,0 0.01,0.011 0.02,0.021 1.48,1.01 2.46,2.71 2.46,4.63 0,3.069 -2.5,5.569 -5.58,5.569 z m 41.31,-5.57 c 0,3.07 -2.5,5.57 -5.58,5.57 -3.08,0 -5.58,-2.5 -5.58,-5.57 0,-3.08 2.5,-5.58 5.58,-5.58 3.08,0 5.58,2.5 5.58,5.58 z M 50,34.75 c -5.49,0 -9.96,-4.47 -9.96,-9.96 0,-5.48 4.47,-9.95 9.96,-9.95 5.49,0 9.96,4.47 9.96,9.95 0,5.49 -4.47,9.96 -9.96,9.96 z m 35.73,44.4 c -3.08,0 -5.58,-2.5 -5.58,-5.57 0,-3.08 2.5,-5.58 5.58,-5.58 3.069,0 5.569,2.5 5.569,5.58 10e-4,3.07 -2.499,5.57 -5.569,5.57 z"
         id="path6-9"
         inkscape:connector-curvature="0" />
    </g>
    <path
       style="fill:none;stroke:#ffffff;stroke-width:1.00000002px;stroke-linecap:butt;stroke-linejoin:miter;stroke-opacity:1;font-variant-east_asian:normal;opacity:1;vector-effect:none;fill-opacity:1;stroke-miterlimit:4;stroke-dasharray:none;stroke-dashoffset:0"
       d="m 848.78783,901.50589 -36.38745,59.63499"
       id="path179"
       inkscape:connector-curvature="0" />
    <path
       inkscape:connector-curvature="0"
       id="path195"
       d="m 848.78783,922.7319 -36.38745,38.40898"
       style="opacity:1;vector-effect:none;fill:none;fill-opacity:1;stroke:#ffffff;stroke-width:1px;stroke-linecap:butt;stroke-linejoin:miter;stroke-miterlimit:4;stroke-dasharray:none;stroke-dashoffset:0;stroke-opacity:1"
       sodipodi:nodetypes="cc" />
    <path
       sodipodi:nodetypes="cc"
       style="opacity:1;vector-effect:none;fill:none;fill-opacity:1;stroke:#ffffff;stroke-width:1px;stroke-linecap:butt;stroke-linejoin:miter;stroke-miterlimit:4;stroke-dasharray:none;stroke-dashoffset:0;stroke-opacity:1"
       d="m 848.78783,940.92563 -36.38745,20.21525"
       id="path197"
       inkscape:connector-curvature="0" />
    <path
       inkscape:connector-curvature="0"
       id="path199"
       d="m 848.78783,960.88819 -36.38745,0.25269"
       style="opacity:1;vector-effect:none;fill:none;fill-opacity:1;stroke:#ffffff;stroke-width:1px;stroke-linecap:butt;stroke-linejoin:miter;stroke-miterlimit:4;stroke-dasharray:none;stroke-dashoffset:0;stroke-opacity:1"
       sodipodi:nodetypes="cc" />
    <path
       sodipodi:nodetypes="cc"
       style="opacity:1;vector-effect:none;fill:none;fill-opacity:1;stroke:#ffffff;stroke-width:1px;stroke-linecap:butt;stroke-linejoin:miter;stroke-miterlimit:4;stroke-dasharray:none;stroke-dashoffset:0;stroke-opacity:1"
       d="M 848.78783,981.60882 812.40038,961.14088"
       id="path201"
       inkscape:connector-curvature="0" />
    <path
       inkscape:connector-curvature="0"
       id="path203"
       d="M 848.78783,1001.3187 812.40038,961.14088"
       style="opacity:1;vector-effect:none;fill:none;fill-opacity:1;stroke:#ffffff;stroke-width:1px;stroke-linecap:butt;stroke-linejoin:miter;stroke-miterlimit:4;stroke-dasharray:none;stroke-dashoffset:0;stroke-opacity:1"
       sodipodi:nodetypes="cc" />
    <path
       id="path205"
       d="m 822.75161,938.50406 h -35.68057 c -2.88844,0 -5.09723,2.2088 -5.09723,5.09723 v 28.8843 c 0,2.88842 2.20879,5.09724 5.09723,5.09724 h 35.68057 c 2.88844,0 5.09724,-2.20882 5.09724,-5.09724 v -28.8843 c 0,-2.88843 -2.2088,-5.09723 -5.09724,-5.09723 z m -25.48611,35.6806 h -11.89357 v -5.09723 h 11.89357 z m 0,-6.79631 h -11.89357 v -5.09722 h 11.89357 z m 0,-6.7963 h -11.89357 v -5.09723 h 11.89357 z m 0,-6.79631 h -11.89357 v -5.09722 h 11.89357 z m 0,-6.7963 h -11.89357 v -5.09723 h 11.89357 z m 13.59259,27.18522 h -11.89353 v -5.09723 h 11.89353 z m 0,-6.79631 h -11.89353 v -5.09722 h 11.89353 z m 0,-6.7963 h -11.89353 v -5.09723 h 11.89353 z m 0,-6.79631 h -11.89353 v -5.09722 h 11.89353 z m 0,-6.7963 h -11.89353 v -5.09723 h 11.89353 z m 13.59263,27.18522 h -11.89357 v -5.09723 h 11.89357 z m 0,-6.79631 h -11.89357 v -5.09722 h 11.89357 z m 0,-6.7963 h -11.89357 v -5.09723 h 11.89357 z m 0,-6.79631 h -11.89357 v -5.09722 h 11.89357 z m 0,-6.7963 h -11.89357 v -5.09723 h 11.89357 z"
       inkscape:connector-curvature="0"
       style="clip-rule:evenodd;fill:#ffffff;fill-rule:evenodd;stroke-width:1" />
  </g>
</svg>
