<?xml version="1.0" encoding="UTF-8" standalone="no"?>
<!-- Created with Inkscape (http://www.inkscape.org/) -->

<svg
   width="280mm"
   height="180mm"
   viewBox="0 0 280 180"
   version="1.1"
   id="svg5"
   inkscape:version="1.1.2 (1:1.1+202202050950+0a00cf5339)"
   sodipodi:docname="gene-by-env.svg"
   xmlns:inkscape="http://www.inkscape.org/namespaces/inkscape"
   xmlns:sodipodi="http://sodipodi.sourceforge.net/DTD/sodipodi-0.dtd"
   xmlns="http://www.w3.org/2000/svg"
   xmlns:svg="http://www.w3.org/2000/svg">
  <sodipodi:namedview
     id="namedview7"
     pagecolor="#191919"
     bordercolor="#666666"
     borderopacity="1.0"
     inkscape:pageshadow="2"
     inkscape:pageopacity="0"
     inkscape:pagecheckerboard="0"
     inkscape:document-units="mm"
     showgrid="false"
     inkscape:zoom="0.86570781"
     inkscape:cx="462.62722"
     inkscape:cy="279.54005"
     inkscape:window-width="2488"
     inkscape:window-height="1343"
     inkscape:window-x="1272"
     inkscape:window-y="231"
     inkscape:window-maximized="1"
     inkscape:current-layer="layer1"
     inkscape:snap-global="false" />
  <defs
     id="defs2" />
  <g
     inkscape:label="Layer 1"
     inkscape:groupmode="layer"
     id="layer1">
    <g
       id="g1768"
       transform="matrix(1.7949691,0,0,1.7949691,-27.135218,-11.341666)" />
    <path
       style="font-variation-settings:normal;vector-effect:none;fill:#a8cbfe;fill-opacity:1;stroke:none;stroke-width:0.845508;stroke-linecap:butt;stroke-linejoin:miter;stroke-miterlimit:4;stroke-dasharray:none;stroke-dashoffset:0;stroke-opacity:1;-inkscape-stroke:none;paint-order:fill markers stroke;stop-color:#000000"
       id="path9456"
       d="m 83.859388,48.634571 c 3.123721,0.007 6.225738,-0.44896 9.324062,-0.79451 5.398458,-0.496 10.80094,-0.95395 16.20837,-1.34183 7.9546,-0.40294 15.85756,-1.39988 23.78117,-2.15832 8.65808,-0.61739 17.34228,-0.78592 26.01649,-1.06325 7.08651,-0.27144 14.17565,-0.39226 21.26691,-0.36729 6.2421,0.04 12.48326,0.15943 18.72515,0.2198 3.38983,-0.0188 6.77567,0.11502 10.16105,0.26649 2.72394,0.1034 5.44895,0.22454 8.17463,0.13504 3.0515,-0.13412 6.10596,-0.16052 9.15995,-0.16025 1.34388,0.0806 2.6811,-0.11337 4.0219,-0.13166 0.40429,-0.068 1.39461,0.30194 1.72363,0.16087 0.19985,-0.0857 0.35015,-0.25794 0.52523,-0.38691 -0.0538,-0.27138 -0.10759,-0.54277 -0.16138,-0.81415 0.001,-0.0106 -0.0289,-0.0134 -0.0299,-0.003 v 0 c -0.0758,-0.0422 -0.15152,-0.0844 -0.22729,-0.12661 -0.0196,-0.0426 -0.0163,-0.10827 -0.0589,-0.12782 -0.0748,-0.0343 -0.16446,-0.006 -0.24648,-0.0122 -0.51576,-0.0397 -1.02956,-0.10895 -1.54732,-0.12269 -1.33366,0.0231 -2.66307,0.21087 -3.99986,0.1443 -3.0742,0.002 -6.15075,0.0125 -9.22094,0.1865 -2.6851,0.1493 -5.37413,0.0924 -8.06032,-0.0129 -3.39975,-0.13115 -6.80036,-0.25644 -10.20355,-0.21884 -6.24448,-0.0464 -12.48814,-0.16451 -18.73275,-0.19769 -7.10505,-0.009 -14.20827,0.11297 -21.30798,0.40197 -8.69701,0.29133 -17.4027,0.49866 -26.08235,1.14526 -7.91475,0.76063 -15.80851,1.76389 -23.75351,2.17952 -5.42135,0.38977 -10.837195,0.85265 -16.248905,1.35805 -3.057271,0.34157 -6.112677,0.77084 -9.192961,0.83077 -0.357553,-0.005 -0.371716,1.0063 -0.01416,1.01131 z" />
    <path
       style="font-variation-settings:normal;vector-effect:none;fill:#a8cbfe;fill-opacity:1;stroke:none;stroke-width:0.845508;stroke-linecap:butt;stroke-linejoin:miter;stroke-miterlimit:4;stroke-dasharray:none;stroke-dashoffset:0;stroke-opacity:1;-inkscape-stroke:none;paint-order:fill markers stroke;stop-color:#000000"
       id="path9458"
       d="m 140.61976,25.422621 c -1.56839,-1.3714 -2.99415,-1.45885 -4.474,0.2311 -0.96642,1.10363 -1.01139,1.78373 -1.42972,3.1518 -0.17311,1.55681 -0.12769,3.23561 1.05737,4.43492 0.29118,0.29469 0.64258,0.58758 1.04938,0.66592 1.28193,0.24689 1.75275,-0.44188 2.65439,-1.1358 0.33284,-0.47168 0.70632,-0.91715 0.99852,-1.41502 1.20171,-2.04764 1.88945,-4.6274 1.63005,-6.99853 -0.40063,-0.0416 -0.86776,-0.3498 -1.20188,-0.12487 -0.31115,0.20947 -0.20009,0.72595 -0.24429,1.09843 -0.23857,2.01031 0.36003,4.07018 0.83778,5.99779 0.43872,1.85514 0.8044,3.85814 -0.22982,5.59414 -0.55189,0.92637 -0.92326,1.11838 -1.72811,1.77949 -0.66792,0.29866 -1.31838,0.69173 -2.08954,0.65565 -1.18013,-0.0552 -2.30868,-1.36352 -3.09841,-2.12928 -0.004,-0.01 -0.0318,5.3e-4 -0.0281,0.0105 v 0 c 0.006,0.36089 -0.0932,0.73892 0.0169,1.08267 0.1355,0.42325 0.38808,0.81606 0.69414,1.13828 1.62613,1.71199 3.52169,1.23135 5.33008,0.21172 0.97878,-0.85691 1.41596,-1.08989 2.0553,-2.28163 1.0756,-2.00495 0.77,-4.24061 0.25367,-6.3535 -0.36438,-1.46559 -0.74934,-2.9309 -0.83221,-4.44715 -0.0199,-0.36343 0.0209,-0.72776 0.0204,-1.09173 -2.2e-4,-0.16598 0.0926,-0.37791 -0.0226,-0.49743 -0.23834,-0.24731 -0.60963,-0.31659 -0.91443,-0.47489 0.39411,2.08188 -0.31635,4.41106 -1.33095,6.22296 -0.23481,0.41933 -0.53413,0.79913 -0.80119,1.1987 -0.20219,0.1878 -0.92087,1.01815 -1.39559,0.98713 -0.25099,-0.0164 -0.48386,-0.17867 -0.66917,-0.34876 -0.97704,-0.89675 -0.98971,-2.23281 -0.87822,-3.44483 0.13487,-0.47628 0.2147,-0.97172 0.40461,-1.42885 0.28314,-0.68156 1.21717,-2.15704 2.1239,-2.2181 0.51468,-0.0347 1.03149,0.42231 1.40362,0.68003 0.26548,0.29633 1.10363,-0.45457 0.83815,-0.7509 z" />
    <path
       style="font-variation-settings:normal;vector-effect:none;fill:#a8cbfe;fill-opacity:1;stroke:none;stroke-width:0.845508;stroke-linecap:butt;stroke-linejoin:miter;stroke-miterlimit:4;stroke-dasharray:none;stroke-dashoffset:0;stroke-opacity:1;-inkscape-stroke:none;paint-order:fill markers stroke;stop-color:#000000"
       id="path9460"
       d="m 147.97099,29.967741 c 1.27827,-0.36156 3.464,-1.13583 3.03858,-2.91555 -0.0757,-0.31652 -0.30662,-0.57413 -0.45993,-0.86119 -0.32991,-0.18499 -0.62743,-0.44636 -0.98973,-0.55496 -1.33509,-0.40018 -2.8025,0.28335 -3.62435,1.34472 -0.91925,1.18717 -0.88082,1.86716 -1.16005,3.28353 0.0311,0.54918 -0.0109,1.10743 0.0933,1.64753 0.31747,1.64628 1.40765,2.91436 3.19464,2.9548 1.38698,0.0314 1.9601,-0.51877 3.04602,-1.18204 0.33586,-0.18281 0.67171,-0.36563 1.00757,-0.54845 0.009,-0.005 -0.005,-0.0314 -0.0143,-0.0264 v 0 c -0.33443,0.18218 -0.66887,0.36436 -1.00331,0.54655 -1.08697,0.12547 -2.81749,0.39741 -3.85958,-0.093 -1.20038,-0.56495 -1.25326,-1.95831 -1.30168,-3.08618 0.0785,-0.4734 0.097,-0.96079 0.23556,-1.42021 0.32436,-1.07515 1.05743,-2.07911 2.18289,-2.40653 0.55447,-0.1613 0.88378,-0.0299 1.40244,0.0837 0.12575,0.1192 0.29014,0.20782 0.37724,0.35759 0.69473,1.1947 -1.67215,1.88181 -2.35741,2.06887 -0.28538,0.0679 -0.0932,0.87513 0.19218,0.80718 z" />
    <path
       style="font-variation-settings:normal;vector-effect:none;fill:#a8cbfe;fill-opacity:1;stroke:none;stroke-width:0.845508;stroke-linecap:butt;stroke-linejoin:miter;stroke-miterlimit:4;stroke-dasharray:none;stroke-dashoffset:0;stroke-opacity:1;-inkscape-stroke:none;paint-order:fill markers stroke;stop-color:#000000"
       id="path9462"
       d="m 154.2464,26.544321 c 0.30916,1.3029 0.62311,2.60507 0.96661,3.89945 0.20653,0.77825 0.38581,1.55314 0.74821,2.27303 0.32003,-0.0231 0.70816,0.12932 0.96008,-0.0694 0.25327,-0.19977 0.21554,-0.60896 0.29597,-0.92135 0.34919,-1.35621 0.15807,-1.18696 0.58989,-2.61385 0.41903,-1.38461 0.50016,-1.38014 1.18394,-2.60257 0.31414,-0.35893 0.8094,-1.09946 1.37969,-1.22486 0.11153,-0.0245 0.22844,0.0837 0.29259,0.17817 0.0997,0.14687 0.11708,0.33525 0.17097,0.50441 0.46997,1.47534 0.30143,0.89211 0.63724,2.5882 0.29491,1.22108 0.14087,3.10304 0.78311,4.2192 0.0901,0.15662 0.24352,0.26703 0.36528,0.40054 0.005,0.01 0.0316,-0.003 0.0271,-0.0129 v 0 c -0.0698,-0.81842 0.0645,-1.21943 0.13353,-2.03696 0.11082,-1.31239 0.0294,-1.42836 -0.10989,-2.80901 -0.17296,-0.86205 -0.38205,-2.33823 -0.87582,-3.11865 -1.37414,-2.17185 -2.84419,-0.60462 -3.82811,0.78137 -0.22258,0.46189 -0.47937,0.9088 -0.66772,1.38566 -0.39486,0.99972 -0.57786,1.91186 -0.80059,2.95416 -0.0831,0.38876 -0.16668,0.7776 -0.23539,1.16915 -0.0283,0.16124 -0.15184,0.35569 -0.0554,0.48797 0.13478,0.1849 0.41486,0.19314 0.62228,0.28971 -0.33753,-0.61969 -0.4772,-1.39787 -0.65691,-2.07038 -0.34744,-1.30016 -0.65917,-2.60975 -1.02946,-3.90381 -0.0893,-0.31721 -0.98653,-0.0645 -0.89719,0.25268 z" />
    <path
       style="font-variation-settings:normal;vector-effect:none;fill:#a8cbfe;fill-opacity:1;stroke:none;stroke-width:0.845508;stroke-linecap:butt;stroke-linejoin:miter;stroke-miterlimit:4;stroke-dasharray:none;stroke-dashoffset:0;stroke-opacity:1;-inkscape-stroke:none;paint-order:fill markers stroke;stop-color:#000000"
       id="path9464"
       d="m 167.16126,28.073621 c 1.50275,0.009 4.06695,-0.10327 4.96367,-1.57835 0.15584,-0.25634 0.17942,-0.57253 0.26912,-0.8588 -0.13104,-0.3239 -0.17172,-0.70139 -0.39314,-0.97168 -0.79913,-0.97553 -2.33989,-0.90124 -3.34317,-0.35896 -1.17087,0.63287 -1.42932,1.24994 -2.18993,2.3003 -0.67992,1.53529 -1.73999,3.86281 -0.31174,5.36206 0.75331,0.79076 1.57632,0.85697 2.56514,1.119 1.43017,0.1754 2.95254,0.40474 4.2669,-0.3818 0.33229,-0.19886 0.56118,-0.53378 0.84176,-0.80067 0.009,-0.005 -0.005,-0.0314 -0.0143,-0.0264 v 0 c -0.3162,0.0577 -0.62797,0.15058 -0.9486,0.17324 -0.39607,0.028 -0.79403,-0.0123 -1.19097,-0.0221 -1.66646,-0.0411 -1.00355,-0.002 -2.64167,-0.18765 -0.40049,-0.0936 -1.37322,-0.25486 -1.77507,-0.55208 -1.15126,-0.85152 -0.11347,-2.98358 0.26937,-3.93853 0.24804,-0.36699 0.4584,-0.76249 0.74412,-1.10096 0.80891,-0.95826 1.91285,-1.49073 3.03789,-0.77305 0.028,0.13366 0.12,0.26924 0.084,0.40096 -0.36973,1.35251 -3.12772,1.3436 -4.17925,1.35568 -0.29689,-0.0191 -0.35097,0.8206 -0.0541,0.83972 z" />
    <path
       style="font-variation-settings:normal;vector-effect:none;fill:#a8cbfe;fill-opacity:1;stroke:none;stroke-width:0.845508;stroke-linecap:butt;stroke-linejoin:miter;stroke-miterlimit:4;stroke-dasharray:none;stroke-dashoffset:0;stroke-opacity:1;-inkscape-stroke:none;paint-order:fill markers stroke;stop-color:#000000"
       id="path9466"
       d="m 180.36838,23.720881 c -1.38286,0.27058 -3.45204,0.60474 -4.24986,1.96154 -0.17591,0.29916 -0.32072,0.6538 -0.2912,0.99959 0.0345,0.40461 0.31492,0.74862 0.47238,1.12293 0.97416,0.99251 2.23869,1.40224 3.50552,1.86925 0.5962,0.2198 1.38137,0.39465 1.82957,0.92356 0.11864,0.14002 0.11304,0.34921 0.16957,0.52382 -1.05756,1.75209 -3.28018,2.14753 -5.12983,2.49875 -0.0106,-5.3e-4 -0.0118,0.0295 -0.001,0.03 v 0 c 0.58742,0.14775 1.15834,0.39645 1.76224,0.44325 1.63781,0.1269 3.62212,-0.58935 4.3424,-2.20439 0.18596,-0.41697 0.10502,-0.90705 0.15753,-1.36057 -0.20604,-0.32624 -0.34268,-0.70851 -0.61813,-0.97871 -0.51571,-0.50586 -1.46304,-0.7604 -2.10425,-0.99141 -0.99763,-0.35942 -2.02531,-0.68422 -2.87808,-1.34055 -0.11001,-0.0974 -0.26884,-0.15864 -0.33003,-0.29223 -0.53165,-1.16058 2.83295,-1.91785 3.45591,-2.00338 0.42476,-0.0327 0.33227,-1.23412 -0.0925,-1.20142 z" />
    <path
       style="font-variation-settings:normal;vector-effect:none;fill:#a8cbfe;fill-opacity:1;stroke:none;stroke-width:0.845508;stroke-linecap:butt;stroke-linejoin:miter;stroke-miterlimit:4;stroke-dasharray:none;stroke-dashoffset:0;stroke-opacity:1;-inkscape-stroke:none;paint-order:fill markers stroke;stop-color:#000000"
       id="path9468"
       d="m 84.199962,49.000801 c 1.122939,2.68016 1.386404,5.61133 1.661123,8.47551 0.384408,3.59004 0.05532,7.18364 -0.204063,10.76731 -0.298103,4.41745 -0.0975,8.84732 0.02703,13.2673 0.100756,4.47817 0.279426,8.9529 0.507378,13.42619 0.153807,4.393686 0.539448,8.771719 1.059566,13.135669 0.576829,3.9333 1.247206,7.84748 1.675104,11.80116 0.363564,3.13075 0.553537,6.27404 0.556122,9.42484 -0.08778,2.93615 -0.07681,5.87083 0.02796,8.8061 0.153318,2.13247 0.118518,4.26658 0.05935,6.40119 -0.01138,1.61621 -0.03403,3.2217 -0.286438,4.81979 -0.254045,1.4797 -0.290883,2.98391 -0.326747,4.48131 -0.0032,0.69281 -0.241692,1.30123 1.083963,0.94933 0.145553,-0.0386 -0.09362,-0.28627 -0.14043,-0.4294 -0.06613,-0.0882 -0.132255,-0.17637 -0.198382,-0.26456 -0.0024,-0.0103 -0.0316,-0.004 -0.02926,0.007 v 0 c -0.03137,0.0654 -0.06274,0.13086 -0.0941,0.19628 -0.072,-0.0117 -0.278559,-0.0726 -0.216006,-0.035 1.172083,0.70303 0.871807,0.4908 0.912905,-0.39168 0.03443,-1.43931 0.06402,-2.88493 0.310809,-4.30721 0.261022,-1.65407 0.292346,-3.31556 0.302236,-4.98846 0.06145,-2.16298 0.09197,-4.32466 -0.0584,-6.48563 -0.105778,-2.92008 -0.110337,-5.83978 -0.02619,-8.76074 -0.0074,-3.19765 -0.193186,-6.38761 -0.565076,-9.56488 -0.428961,-3.95849 -1.094134,-7.87823 -1.675847,-11.81578 -0.519293,-4.33378 -0.894712,-8.682519 -1.054304,-13.045669 -0.224967,-4.46369 -0.407194,-8.92865 -0.523819,-13.39665 -0.127127,-4.37708 -0.331846,-8.76398 -0.0539,-13.13935 0.256336,-3.65458 0.573741,-7.31912 0.178403,-10.97869 -0.293576,-3.01366 -0.577895,-6.09654 -1.795613,-8.90439 -0.194281,-0.39363 -1.30765,0.15588 -1.113369,0.54951 z" />
    <g
       id="g9586"
       transform="rotate(-90,144.37529,-17.931749)">
      <path
         style="font-variation-settings:normal;opacity:1;vector-effect:none;fill:#a8cbfe;fill-opacity:1;stroke:none;stroke-width:0.845508;stroke-linecap:butt;stroke-linejoin:miter;stroke-miterlimit:4;stroke-dasharray:none;stroke-dashoffset:0;stroke-opacity:1;-inkscape-stroke:none;paint-order:fill markers stroke;stop-color:#000000;stop-opacity:1"
         id="path9470"
         d="m -25.903029,-93.149861 c 2.004944,0.838785 4.511561,1.657223 6.637326,0.693791 0.388731,-0.176178 0.711399,-0.471715 1.067098,-0.707573 0.238132,-0.331427 0.537683,-0.626417 0.714397,-0.994278 0.523762,-1.090295 0.356283,-2.427221 -0.595907,-3.238015 -0.912483,-0.776986 -1.472459,-0.647949 -2.598244,-0.75352 -0.490908,0.108521 -1.005917,0.138858 -1.472726,0.325561 -1.742741,0.697016 -3.069043,2.139416 -3.699419,3.896622 -0.590582,1.646278 -0.426238,2.336591 -0.397765,4.038148 0.157843,0.618119 0.222597,1.267825 0.47353,1.854353 0.480264,1.122572 1.281331,2.100826 2.466167,2.537685 1.224432,0.451459 2.608798,0.265195 3.809984,-0.107143 0.557342,-0.172762 1.064443,-0.478398 1.596665,-0.717597 1.274121,-1.146763 0.780044,-0.556512 1.568251,-1.69504 0.0084,-0.0064 -0.0097,-0.03029 -0.01818,-0.02387 v 0 c -1.205175,0.390337 -0.541613,0.172503 -1.989495,0.657117 -1.299096,0.485373 -2.846842,1.192352 -4.279484,0.791763 -1.546655,-0.43247 -2.048825,-1.948802 -2.348779,-3.332025 -0.05693,-1.447295 -0.208215,-2.026544 0.24574,-3.433323 0.461592,-1.430441 1.490476,-2.624537 2.866554,-3.244533 0.346168,-0.155966 0.73381,-0.195336 1.100715,-0.293005 0.7124,0.01159 1.0838,-0.08914 1.703638,0.288084 0.953129,0.580059 0.68157,1.67686 0.139747,2.423882 -0.23362,0.177377 -0.438426,0.401098 -0.700861,0.532125 -1.795158,0.896271 -4.013992,0.07081 -5.714596,-0.617498 -0.395373,-0.203065 -0.969726,0.915218 -0.574353,1.118283 z" />
      <path
         style="font-variation-settings:normal;opacity:1;vector-effect:none;fill:#a8cbfe;fill-opacity:1;stroke:none;stroke-width:0.845508;stroke-linecap:butt;stroke-linejoin:miter;stroke-miterlimit:4;stroke-dasharray:none;stroke-dashoffset:0;stroke-opacity:1;-inkscape-stroke:none;paint-order:fill markers stroke;stop-color:#000000;stop-opacity:1"
         id="path9472"
         d="m -16.227207,-96.080425 c 0.500576,1.528262 1.054008,3.038401 1.609839,4.547182 0.347346,0.942858 0.657182,1.901796 1.116387,2.796442 0.30458,0.05974 0.650463,0.343609 0.913742,0.179223 0.458081,-0.286014 0.455811,-2.954372 0.500634,-3.386653 0.175937,-1.69677 0.205112,-1.597861 0.578198,-3.267006 0.100988,-0.410988 1.181993,-3.584798 2.0771064,-3.073742 0.0944,0.0539 0.083404,0.201073 0.1160677,0.304753 0.1294934,0.411025 0.2467948,0.825791 0.3701923,1.238689 0.706035,2.140799 1.2849635,4.321127 1.8274268,6.508213 0.2357204,0.95037 0.3635195,1.982163 0.8526655,2.845511 0.00747,0.01802 0.014949,0.03604 0.022424,0.05405 -0.010033,0.0034 -2.911e-4,0.03182 0.00973,0.02838 v 0 c 0.096139,-0.01241 0.1922788,-0.02479 0.288418,-0.03719 0.117253,-0.17721 0.2999182,-0.325562 0.3517588,-0.53163 0.2122916,-0.843865 -0.079868,-1.893551 -0.2514997,-2.675742 -0.4985358,-2.272022 -1.1400626,-4.512746 -1.8647089,-6.722126 -0.317458,-0.614359 -0.4827958,-1.335423 -0.9523741,-1.843077 -0.2749923,-0.297291 -0.7353398,-0.414242 -1.1402803,-0.419261 -1.6259155,-0.02014 -2.5473825,2.927842 -2.8895655,4.066826 -0.121908,0.579355 -0.268863,1.154001 -0.365724,1.738069 -0.174803,1.054052 -0.239567,2.066927 -0.299997,3.128613 -0.01839,0.323149 -0.110638,0.653955 -0.04139,0.970132 0.07107,0.324517 1.38498,-0.666755 0.932579,0.351509 -0.447868,-0.832186 -0.724591,-1.774901 -1.050115,-2.658157 -0.554627,-1.504892 -1.105029,-3.011419 -1.63172,-4.526367 -0.135538,-0.381765 -1.215332,0.0016 -1.079794,0.38336 z" />
      <path
         style="font-variation-settings:normal;opacity:1;vector-effect:none;fill:#a8cbfe;fill-opacity:1;stroke:none;stroke-width:0.845508;stroke-linecap:butt;stroke-linejoin:miter;stroke-miterlimit:4;stroke-dasharray:none;stroke-dashoffset:0;stroke-opacity:1;-inkscape-stroke:none;paint-order:fill markers stroke;stop-color:#000000;stop-opacity:1"
         id="path9474"
         d="m -4.4042986,-97.098494 c 1.5332702,3.110608 2.4702762,6.471779 3.9590706,9.599874 0.37891151,0.451414 0.77989429,1.262226 1.6381462,0.693618 0.7377615,-0.488783 1.0518203,-2.298382 1.1979794,-2.967378 0.3243259,-1.484493 0.4948006,-2.684637 0.7358098,-4.187018 0.2183379,-1.683314 0.4982636,-3.361058 0.691148,-5.047763 0.05738,-0.501767 0.1634287,-0.899737 -0.1709359,-1.285509 0.030505,0.0106 0.06101,0.0211 0.091514,0.0317 0.00956,0.005 0.022543,-0.0225 0.01298,-0.0271 v 0 c -0.052537,-0.0293 -0.1050745,-0.0586 -0.1576115,-0.0879 -0.1434504,0.007 -0.302098,-0.0423 -0.4303514,0.0223 -0.652316,0.32901 -0.707652,1.963452 -0.7774758,2.473847 -0.6046875,4.4201 0.176829,-1.146257 -0.5111595,3.719046 -0.259612,1.612046 -0.3833373,2.500866 -0.714269,4.089377 -0.1052839,0.505372 -0.26207347,0.999765 -0.35274506,1.507966 -0.0337654,0.189248 -0.0670248,0.390215 -0.0191415,0.576395 0.0336335,0.130772 0.37418556,0.370911 0.24946836,0.319158 -0.15803328,-0.06558 -0.24041236,-0.243522 -0.36061852,-0.365281 -1.49694284,-3.144975 -2.41438218,-6.537967 -4.00240488,-9.64497 -0.2048749,-0.381627 -1.2842783,0.197848 -1.0794035,0.579475 z" />
      <path
         style="font-variation-settings:normal;opacity:1;vector-effect:none;fill:#a8cbfe;fill-opacity:1;stroke:none;stroke-width:0.845508;stroke-linecap:butt;stroke-linejoin:miter;stroke-miterlimit:4;stroke-dasharray:none;stroke-dashoffset:0;stroke-opacity:1;-inkscape-stroke:none;paint-order:fill markers stroke;stop-color:#000000;stop-opacity:1"
         id="path9476"
         d="m 7.0873455,-95.601037 c 0.133018,1.519727 0.3213748,3.034456 0.5183328,4.547031 0.037773,0.290081 0.3008217,2.311469 0.4069802,2.741147 0.054253,0.219591 0.1687089,0.419753 0.2530634,0.629629 0.3416321,-0.04883 0.2943402,0.04739 0.1973971,-0.253947 -0.00528,-0.0092 -0.031299,0.0057 -0.026019,0.01492 v 0 c 0.3316626,0.448035 0.1203547,0.386813 0.6475322,0.127656 0.025186,-0.225245 0.08223,-0.449183 0.075553,-0.675732 -0.01053,-0.357304 -0.3092186,-2.55301 -0.3327019,-2.736618 -0.1946585,-1.521968 -0.3608065,-3.048693 -0.6208546,-4.561482 -0.059179,-0.395724 -1.1784613,-0.228341 -1.1192822,0.167386 z" />
      <path
         style="font-variation-settings:normal;opacity:1;vector-effect:none;fill:#a8cbfe;fill-opacity:1;stroke:none;stroke-width:0.845508;stroke-linecap:butt;stroke-linejoin:miter;stroke-miterlimit:4;stroke-dasharray:none;stroke-dashoffset:0;stroke-opacity:1;-inkscape-stroke:none;paint-order:fill markers stroke;stop-color:#000000;stop-opacity:1"
         id="path9478"
         d="m 12.945076,-94.430809 c 0.09346,0.45435 0.189429,0.908193 0.280381,1.363051 0.26994,1.349992 0.573852,2.706709 0.762471,4.071438 0.06083,0.440126 0.05115,0.89721 0.05332,0.334568 0.331731,-0.12513 0.785724,-0.08933 0.995194,-0.375386 0.160222,-0.218797 -0.100665,-0.533386 -0.132503,-0.802701 -0.04051,-0.342672 -0.0786,-0.68672 -0.08436,-1.031729 -0.022,-1.317546 0.238557,-2.071817 0.731945,-3.269787 0.412087,-0.675174 1.001798,-2.146292 2.044792,-2.034148 0.202817,0.0218 0.381181,0.14546 0.570484,0.221453 0.501284,-0.150894 0.286858,-0.04373 0.657875,-0.290475 0.0079,0.0071 0.02787,-0.01535 0.01995,-0.02241 v 0 c 0.06129,-0.520335 0.08601,-0.245819 -0.137857,-0.815306 -0.192932,-0.100473 -0.371135,-0.236657 -0.578796,-0.301421 -1.926966,-0.60097 -3.127637,1.280972 -3.84158,2.756662 -0.159578,0.442219 -0.356729,0.872633 -0.478732,1.326655 -0.325069,1.209715 -0.312799,2.457482 -0.12951,3.685963 0.04595,0.308007 -0.03502,0.694275 0.183624,0.916027 0.322246,0.326822 0.841446,0.366864 1.262169,0.550297 0.120546,-0.719889 -0.106753,-1.43356 -0.246877,-2.14316 -0.29017,-1.469435 -0.594533,-2.937068 -0.983289,-4.384222 -0.08649,-0.335415 -1.035186,-0.09079 -0.948697,0.244626 z" />
      <path
         style="font-variation-settings:normal;opacity:1;vector-effect:none;fill:#a8cbfe;fill-opacity:1;stroke:none;stroke-width:0.845508;stroke-linecap:butt;stroke-linejoin:miter;stroke-miterlimit:4;stroke-dasharray:none;stroke-dashoffset:0;stroke-opacity:1;-inkscape-stroke:none;paint-order:fill markers stroke;stop-color:#000000;stop-opacity:1"
         id="path9480"
         d="m 21.881825,-94.695803 c -0.423902,1.671006 -1.615345,4.867384 -0.363418,6.401642 0.246072,0.301567 0.62677,0.461663 0.940154,0.692494 0.384856,0.07212 0.763441,0.198075 1.154569,0.216355 1.563355,0.07306 3.135581,-0.756386 4.194464,-1.852869 0.304485,-0.315299 0.548423,-0.683906 0.822635,-1.025859 0.860568,-1.398471 1.960568,-3.437472 0.679767,-4.968136 -0.231351,-0.276487 -0.562014,-0.451673 -0.843023,-0.677508 -1.773648,-0.715116 -3.787657,-0.897745 -5.568864,-0.05644 -0.808697,0.381968 -1.52644,1.075669 -2.19313,1.658964 -0.0093,0.0051 0.0051,0.03141 0.01441,0.02633 v 0 c 1.68485,-0.470188 0.542355,-0.189029 2.470451,-0.549778 0.449149,-0.08404 0.891096,-0.212473 1.345066,-0.264509 1.055289,-0.12096 2.127925,-0.01828 3.134062,0.316296 0.153458,0.08075 0.328583,0.129561 0.460375,0.242263 1.086728,0.92932 -5.3e-4,2.587255 -0.500068,3.489727 -0.217633,0.286962 -0.41021,0.594773 -0.652894,0.860883 -0.989604,1.085136 -2.388738,1.675122 -3.85191,1.520359 -0.162775,-0.06719 -0.357052,-0.0842 -0.488325,-0.201578 -0.439927,-0.393369 -0.426014,-0.977336 -0.397997,-1.514763 0.06968,-1.336638 0.501792,-2.636359 0.83775,-3.919448 0.139446,-0.422169 -1.054623,-0.81658 -1.194069,-0.394414 z" />
      <path
         style="font-variation-settings:normal;opacity:1;vector-effect:none;fill:#a8cbfe;fill-opacity:1;stroke:none;stroke-width:0.845508;stroke-linecap:butt;stroke-linejoin:miter;stroke-miterlimit:4;stroke-dasharray:none;stroke-dashoffset:0;stroke-opacity:1;-inkscape-stroke:none;paint-order:fill markers stroke;stop-color:#000000;stop-opacity:1"
         id="path9482"
         d="m 30.383136,-95.71407 c 0.871421,2.243487 1.444368,4.591791 2.292836,6.842239 0.114846,0.114469 0.198552,0.41398 0.344538,0.343408 1.112356,-0.537747 0.80808,-0.999276 0.780548,-1.904299 -0.01381,-0.454099 -0.03515,-0.908733 -0.01984,-1.362784 0.05259,-1.5597 0.110421,-1.493459 0.444108,-3.008522 0.120621,-0.415999 0.896517,-2.919912 1.792714,-2.490483 0.108921,0.05219 0.483499,0.72114 0.501115,0.75038 1.040564,2.406925 1.543659,5.018926 2.130862,7.566268 0.103047,0.167164 0.265641,2.164493 0.889129,1.218099 -0.0038,-0.0099 -0.03181,7.94e-4 -0.02806,0.01061 v 0 c 0.10867,0.08815 0.186373,0.255381 0.326007,0.264462 0.577553,0.03756 0.116138,-1.741776 0.07023,-1.779818 -0.322445,-1.430121 -0.642948,-2.861117 -1.025059,-4.27686 -0.191953,-0.711189 -0.558425,-2.015408 -0.84377,-2.720197 -0.147473,-0.364252 -0.342678,-0.707305 -0.514016,-1.060955 -0.255821,-0.292831 -0.445654,-0.660236 -0.767461,-0.878486 -2.07055,-1.404257 -3.344588,1.70873 -3.705403,3.159654 -0.101854,0.547894 -0.237558,1.090565 -0.305559,1.643682 -0.123563,1.005062 -0.104762,2.017691 -0.07158,3.026246 0.01019,0.3098 -0.17018,0.712986 0.05269,0.92841 0.199895,0.193209 0.553786,-0.04972 0.830678,-0.07457 0.05759,0.08337 0.115181,0.166732 0.17277,0.250097 -0.843703,-2.261335 -1.401566,-4.624895 -2.309519,-6.864855 -0.14788,-0.366975 -1.185844,0.0513 -1.037963,0.418272 z" />
      <path
         style="font-variation-settings:normal;opacity:1;vector-effect:none;fill:#a8cbfe;fill-opacity:1;stroke:none;stroke-width:0.845508;stroke-linecap:butt;stroke-linejoin:miter;stroke-miterlimit:4;stroke-dasharray:none;stroke-dashoffset:0;stroke-opacity:1;-inkscape-stroke:none;paint-order:fill markers stroke;stop-color:#000000;stop-opacity:1"
         id="path9484"
         d="m 40.829981,-95.994028 c 0.307917,1.646115 0.485135,3.313088 0.644729,4.978892 0.07319,0.763923 0.05582,1.542322 0.222006,2.291535 0.0337,0.151937 0.127966,0.283739 0.19195,0.425606 0.410197,-0.250135 0.958832,-0.354208 1.230593,-0.750409 0.240914,-0.351226 0.107109,-0.845092 0.154144,-1.268396 0.06152,-0.55362 0.109778,-1.10866 0.171505,-1.662256 0.122582,-1.099333 0.256384,-2.328759 0.488672,-3.415675 0.09335,-0.43679 0.233072,-0.862362 0.349605,-1.293543 -1.57952,0.849897 0.734298,-1.289534 0.68004,-0.913754 -0.02109,0.146071 -0.283745,0.172646 -0.307816,0.318254 -0.04391,0.265591 0.0866,0.531439 0.123258,0.798126 0.252252,1.835034 0.188259,1.382842 0.336699,3.282879 0.0274,0.472135 0.05249,0.944411 0.08219,1.416407 0.04905,0.77947 -0.0827,2.299155 1.43293,0.799436 0.243515,-0.240959 0.130191,-0.672688 0.192495,-1.009555 0.08,-0.432583 0.156287,-0.865846 0.234432,-1.298768 0.364056,-1.285994 0.371046,-3.142877 1.201713,-4.25526 0.04275,-0.05724 0.0033,0.164217 -0.05348,0.207542 -0.146045,0.11139 -0.337111,0.145955 -0.505669,0.218932 0.681868,2.828222 0.834731,5.759241 1.468292,8.592709 0.33488,0.229846 0.186452,0.253693 0.450797,-0.01355 -0.0042,-0.0098 -0.03176,0.0021 -0.0276,0.01175 v 0 c 0.496321,0.296302 0.273015,0.325699 0.662905,-0.130863 -0.03399,-1.363501 -0.249094,-2.699229 -0.458988,-4.04672 -0.138742,-0.89072 -0.441034,-2.724989 -0.635762,-3.638862 -0.09369,-0.439708 -0.216797,-0.872633 -0.325194,-1.308952 -0.338725,-0.288219 -0.587561,-0.745932 -1.016172,-0.864656 -0.245626,-0.06803 -0.479986,0.213043 -0.649658,0.403233 -0.181899,0.203901 -0.267015,0.47893 -0.364903,0.734042 -0.477774,1.245142 -0.634235,2.585733 -0.914326,3.880239 -0.07717,0.429347 -0.152789,0.858977 -0.231518,1.288042 -0.05573,0.30372 -0.336675,0.649168 -0.17186,0.910298 0.199231,0.315651 0.673391,0.327123 1.027461,0.445286 0.03788,0.01265 -0.0324,-0.07454 -0.03577,-0.114331 -0.06543,-0.772253 -0.04868,-1.550271 -0.121462,-2.321881 -0.06539,-0.862832 -0.168783,-2.712405 -0.381077,-3.555605 -0.124616,-0.494951 -0.203248,-1.060567 -0.560795,-1.424803 -1.219737,-1.242554 -1.997268,0.45466 -2.297835,1.280303 -0.122486,0.468196 -0.268023,0.930958 -0.367458,1.404586 -0.355058,1.691203 -0.474052,3.420694 -0.660046,5.134861 -0.04141,0.381598 -0.315804,0.804852 -0.135207,1.14355 0.164457,0.308433 0.642961,0.274426 0.964441,0.411639 -0.172332,0.298876 -0.03706,0.087 -0.120076,-0.810392 -0.203584,-2.200807 -0.353888,-4.415153 -0.838854,-6.577923 -0.105354,-0.399277 -1.234686,-0.101296 -1.129334,0.297985 z" />
      <path
         style="font-variation-settings:normal;opacity:1;vector-effect:none;fill:#a8cbfe;fill-opacity:1;stroke:none;stroke-width:0.845508;stroke-linecap:butt;stroke-linejoin:miter;stroke-miterlimit:4;stroke-dasharray:none;stroke-dashoffset:0;stroke-opacity:1;-inkscape-stroke:none;paint-order:fill markers stroke;stop-color:#000000;stop-opacity:1"
         id="path9486"
         d="m 51.607193,-93.54922 c 1.593688,-0.334608 3.391019,-1.035492 3.866748,-2.781599 0.08071,-0.296235 0.0593,-0.611198 0.08895,-0.916797 -0.05448,-0.263427 -0.0565,-0.543444 -0.163423,-0.790281 -0.47343,-1.092925 -1.495631,-1.163918 -2.364994,-0.41355 -0.726908,0.627415 -0.890611,1.44783 -1.204616,2.301987 -0.06719,0.499459 -0.20057,0.994418 -0.20157,1.498375 -0.004,2.037823 0.982847,4.084161 2.848364,5.027461 0.333099,0.168431 0.7122,0.223769 1.0683,0.335651 0.905245,-0.04953 1.22478,-0.02633 1.341554,-0.976091 0.0049,-0.0094 -0.02178,-0.02318 -0.02665,-0.01376 v 0 c -0.412975,0.129834 -0.441841,-0.223546 -0.931164,-0.208648 -0.237744,-0.07825 -0.489294,-0.122962 -0.71323,-0.234759 -1.412843,-0.705355 -2.212065,-2.211276 -2.253498,-3.765259 -0.0109,-0.409035 0.08929,-0.813472 0.133934,-1.220208 0.11016,-0.337508 0.191564,-0.685797 0.330481,-1.012518 0.114848,-0.270116 0.391358,-0.595374 0.496334,-0.90438 0.02072,-0.06101 -0.03033,-0.167278 0.02957,-0.19103 0.193709,-0.07681 0.443153,0.525831 0.347196,0.519864 0.01164,0.176943 0.05455,0.354595 0.03493,0.530831 -0.160139,1.438487 -1.641814,1.98052 -2.862339,2.234552 -0.346541,0.04778 -0.211413,1.027938 0.135128,0.980162 z" />
      <path
         style="font-variation-settings:normal;opacity:1;vector-effect:none;fill:#a8cbfe;fill-opacity:1;stroke:none;stroke-width:0.845508;stroke-linecap:butt;stroke-linejoin:miter;stroke-miterlimit:4;stroke-dasharray:none;stroke-dashoffset:0;stroke-opacity:1;-inkscape-stroke:none;paint-order:fill markers stroke;stop-color:#000000;stop-opacity:1"
         id="path9488"
         d="m 58.341683,-96.663165 c 0.502967,1.541174 0.923589,3.107563 1.331145,4.676103 0.116506,0.448384 0.222816,0.899403 0.341844,1.347126 0.07789,0.292986 0.125132,0.598017 0.248862,0.874781 0.077,0.172241 0.228915,0.299974 0.343373,0.449959 0.401654,-0.30361 0.932001,-0.487746 1.204961,-0.910826 0.212436,-0.329266 0.09031,-0.778475 0.136025,-1.167648 0.05387,-0.458568 0.100898,-0.918007 0.162716,-1.375572 0.08864,-0.656148 0.256757,-1.862008 0.473532,-2.524006 0.08611,-0.262974 0.237967,-0.499657 0.356952,-0.749485 0.05082,-0.05432 0.355878,-0.53536 0.599242,-0.417684 0.04825,0.02334 -0.0026,0.107762 0.0059,0.160671 0.01572,0.09744 0.03481,0.195072 0.06657,0.288525 0.671465,1.975911 -0.19649,-0.886862 0.545592,1.644899 0.293516,1.181597 0.513715,2.379728 0.720979,3.578894 0.131369,0.760063 0.168357,1.524677 0.527677,2.212435 0.312775,0.158121 0.38667,0.182589 0.203955,0.113731 -0.01019,-0.003 -0.01865,0.02577 -0.0085,0.02878 v 0 c 0.325202,0.08195 0.108754,0.061 0.633814,-0.154514 0.06436,-0.186917 0.176364,-0.36377 0.193093,-0.56075 0.02043,-0.240487 -0.220916,-1.779108 -0.236074,-1.872477 -0.203274,-1.252053 -0.448961,-2.498207 -0.761616,-3.727778 -0.174279,-0.570394 -0.43239,-1.586177 -0.789395,-2.09513 -0.62896,-0.896654 -1.46729,-1.178017 -2.339682,-0.4191 -0.219561,0.191006 -0.363188,0.454819 -0.544782,0.682228 -0.145547,0.332722 -0.325766,0.652341 -0.436639,0.998167 -0.412914,1.287892 -0.505254,2.707447 -0.657612,4.042233 -0.03943,0.345408 -0.303249,0.744731 -0.114458,1.036651 0.177919,0.275114 0.632936,0.169598 0.949401,0.254397 0.03148,0.408143 0.0289,0.263009 -0.22548,-0.70856 -0.416581,-1.59105 -0.797811,-3.188591 -1.276797,-4.763121 -0.140822,-0.462921 -0.300697,-0.91983 -0.451046,-1.379744 -0.154437,-0.425535 -1.358035,0.01127 -1.203598,0.436816 z" />
      <path
         style="font-variation-settings:normal;opacity:1;vector-effect:none;fill:#a8cbfe;fill-opacity:1;stroke:none;stroke-width:0.845508;stroke-linecap:butt;stroke-linejoin:miter;stroke-miterlimit:4;stroke-dasharray:none;stroke-dashoffset:0;stroke-opacity:1;-inkscape-stroke:none;paint-order:fill markers stroke;stop-color:#000000;stop-opacity:1"
         id="path9490"
         d="m 68.510811,-103.65243 c 0.520866,4.209375 1.076827,8.414549 1.840677,12.587581 0.592611,0.100304 -0.06986,0.996649 0.265633,1.269138 0.06468,0.05253 0.07865,-0.151919 0.142648,-0.205285 0.04369,-0.03643 0.200342,-0.0067 0.163243,-0.0498 -0.100539,-0.116888 -0.268224,-0.152117 -0.402336,-0.228177 -0.0068,-0.0081 -0.0298,0.01114 -0.02299,0.01929 v 0 c 0.150596,0.362305 0.232029,0.871852 0.83439,0.797692 0.66702,-0.08212 0.258146,-1.59258 0.262872,-1.802283 -0.57889,-4.200388 -1.226318,-8.391493 -1.780165,-12.595426 -0.07329,-0.46103 -1.377262,-0.25375 -1.303975,0.20728 z" />
      <path
         style="font-variation-settings:normal;opacity:1;vector-effect:none;fill:#a8cbfe;fill-opacity:1;stroke:none;stroke-width:0.845508;stroke-linecap:butt;stroke-linejoin:miter;stroke-miterlimit:4;stroke-dasharray:none;stroke-dashoffset:0;stroke-opacity:1;-inkscape-stroke:none;paint-order:fill markers stroke;stop-color:#000000;stop-opacity:1"
         id="path9492"
         d="m 66.713676,-97.484995 c 1.827821,0.08393 3.6527,-0.107035 5.469848,-0.275135 0.369914,-0.03422 2.836002,-0.241684 3.318748,-0.412096 0.309803,-0.109363 0.533323,-0.383824 0.799983,-0.575736 0.0024,-0.131546 0.0048,-0.263089 0.0072,-0.394634 0.0069,-0.008 -0.01588,-0.02758 -0.02278,-0.01953 v 0 c -0.04553,-0.07564 -0.09105,-0.151278 -0.136578,-0.22692 -1.312677,-0.299103 -0.536511,-0.215087 -2.288749,-0.04153 -2.322959,0.230092 -4.652213,0.497033 -6.99,0.470855 -0.521391,-0.05576 -0.679112,1.418961 -0.157718,1.474722 z" />
    </g>
    <path
       style="fill:#e25563;stroke-width:0.845508;-inkscape-stroke:none;paint-order:fill markers stroke;stop-color:#000000"
       id="path10033"
       d="m 111.80335,61.39748 c -1.34171,3.322201 -2.9065,6.544019 -4.48872,9.756193 -0.66552,1.524822 -0.36926,0.359992 -0.28619,1.568698 0.003,0.04243 -0.0488,0.06964 -0.0733,0.104458 -0.009,0.005 0.005,0.03147 0.0141,0.02649 v 0 c 1.04608,-0.1978 0.87956,-0.09342 1.50019,-1.10985 1.68611,-3.18779 3.21292,-6.45649 4.57522,-9.795984 0.19445,-0.43887 -1.04686,-0.988875 -1.24131,-0.550005 z" />
    <path
       style="fill:#e25563;stroke-width:0.845508;-inkscape-stroke:none;paint-order:fill markers stroke;stop-color:#000000"
       id="path10035"
       d="m 106.32981,64.694024 c 2.16708,1.965473 4.59218,3.596733 7.10467,5.081886 0.35231,0.18696 0.6967,0.389695 1.05695,0.560883 0.51799,0.246147 0.9495,0.524446 1.43037,0.07096 -2.7e-4,0.01061 0.0296,0.01164 0.03,0.0011 v 0 c 0.0345,-0.108535 0.11673,-0.212498 0.10346,-0.325602 -0.0808,-0.688514 -0.31423,-0.63433 -0.88531,-0.967645 -0.32892,-0.191976 -0.65824,-0.383262 -0.98736,-0.574894 -1.41909,-0.881007 -2.82846,-1.773968 -4.17457,-2.765192 -0.94194,-0.693613 -1.28731,-1.009423 -2.14977,-1.715434 -0.20931,-0.171339 -0.42089,-0.339884 -0.63133,-0.509826 -0.4044,-0.317167 -1.30149,0.826659 -0.89709,1.143826 z" />
    <path
       style="fill:#e25563;stroke-width:0.845508;-inkscape-stroke:none;paint-order:fill markers stroke;stop-color:#000000"
       id="path10037"
       d="m 208.11827,90.578272 c -1.56356,2.822697 -2.91702,5.75578 -4.35264,8.644501 -0.2573,0.410914 -0.40421,0.816517 -0.51397,1.275037 -0.0105,-0.002 -0.015,0.028 -0.005,0.0297 v 0 c 0.11822,0.0684 0.21806,0.20573 0.35468,0.20537 0.61766,-0.002 0.89662,-0.52991 1.25782,-0.921706 0.23565,-0.407032 0.48266,-0.807698 0.70696,-1.221097 1.30686,-2.408642 2.42709,-4.917291 3.79448,-7.293969 0.25378,-0.439383 -0.98898,-1.157169 -1.24276,-0.717786 z" />
    <path
       style="fill:#e25563;stroke-width:0.845508;-inkscape-stroke:none;paint-order:fill markers stroke;stop-color:#000000"
       id="path10039"
       d="m 202.83381,93.354214 c 1.19321,2.181569 2.95741,3.96856 4.93767,5.450144 0.40093,0.299969 0.82886,0.562055 1.2433,0.843085 0.6082,0.290377 1.25309,0.732807 1.98395,0.632877 0.76356,-0.384087 0.42351,-0.334917 0.97115,-0.345516 0.0106,7.94e-4 0.0128,-0.02915 0.002,-0.02992 v 0 c -0.6172,-0.104995 0.0489,0.07938 -0.6375,-0.603983 -0.19312,-0.192265 -1.3592,-0.827797 -1.48021,-0.896488 -0.37997,-0.255529 -0.7724,-0.493429 -1.1399,-0.766588 -1.82395,-1.35573 -3.45864,-2.985166 -4.55737,-4.989988 -0.24975,-0.467845 -1.57301,0.238529 -1.32327,0.706376 z" />
    <path
       style="fill:#e25563;stroke-width:0.845508;-inkscape-stroke:none;paint-order:fill markers stroke;stop-color:#000000"
       id="path10041"
       d="m 146.43105,136.27474 c -0.20841,0.28464 -0.42259,0.56515 -0.62524,0.85393 -1.02241,1.45698 -1.98905,2.95032 -3.04719,4.38273 -0.90935,1.23099 -1.02951,1.34636 -1.95163,2.45645 -0.78082,0.83153 -0.68169,0.75651 -0.81904,1.76728 -0.007,0.008 0.0168,0.027 0.0234,0.0187 v 0 c 1.12024,-0.3324 0.79122,0.0543 1.76746,-0.94199 0.33219,-0.3667 0.67709,-0.72227 0.99656,-1.10011 1.73001,-2.04612 3.14021,-4.32883 4.70718,-6.49564 0.33283,-0.37177 -0.7187,-1.31316 -1.05153,-0.94139 z" />
    <path
       style="fill:#e25563;stroke-width:0.845508;-inkscape-stroke:none;paint-order:fill markers stroke;stop-color:#000000"
       id="path10043"
       d="m 140.20336,138.68586 c 1.8528,0.52281 3.43337,1.65559 5.05113,2.65264 0.46242,0.285 0.90817,0.6012 1.39455,0.84304 0.37929,0.18859 0.79412,0.29508 1.19118,0.44263 0.23873,0.13385 0.47747,0.2677 0.71621,0.40155 0.008,0.007 0.0284,-0.0143 0.0208,-0.0216 v 0 c -0.15607,-0.24586 -0.31214,-0.49171 -0.46821,-0.73756 -0.26325,-0.34875 -0.48026,-0.7378 -0.78975,-1.04626 -0.39166,-0.39034 -0.85431,-0.70291 -1.29733,-1.03382 -1.66279,-1.24203 -3.4408,-2.38036 -5.45352,-2.95551 -0.51439,-0.12906 -0.87943,1.32584 -0.36505,1.4549 z" />
  </g>
</svg>
