<?xml version="1.0" standalone="yes"?>

<svg version="1.1" viewBox="0.0 0.0 740.0 941.0" fill="none" stroke="none" stroke-linecap="square" stroke-miterlimit="10" xmlns="http://www.w3.org/2000/svg" xmlns:xlink="http://www.w3.org/1999/xlink"><clipPath id="p.0"><path d="m0 0l740.0 0l0 941.0l-740.0 0l0 -941.0z" clip-rule="nonzero"></path></clipPath><g clip-path="url(#p.0)"><path fill="#000000" fill-opacity="0.0" d="m0 0l740.53284 0l0 941.2677l-740.53284 0z" fill-rule="nonzero"></path><path fill="#000000" fill-opacity="0.0" d="m-136.0 200.0l144.0 0l0 48.0l-144.0 0z" fill-rule="nonzero"></path><path fill="#000000" fill-opacity="0.0" d="m215.69734 279.61276l-23.370071 -79.37009" fill-rule="nonzero"></path><path stroke="#000000" stroke-width="2.0" stroke-linejoin="round" stroke-linecap="round" stroke-dasharray="6.0,8.0" d="m215.69734 279.61276l-23.370071 -79.37009" fill-rule="nonzero"></path><path fill="#000000" fill-opacity="0.0" d="m135.69733 271.61276l56.62993 -71.37009" fill-rule="nonzero"></path><path stroke="#000000" stroke-width="2.0" stroke-linejoin="round" stroke-linecap="round" stroke-dasharray="6.0,8.0" d="m135.69733 271.61276l56.62993 -71.37009" fill-rule="nonzero"></path><path fill="#000000" fill-opacity="0.0" d="m103.69734 103.61274l88.62991 96.62992" fill-rule="nonzero"></path><path stroke="#000000" stroke-width="2.0" stroke-linejoin="round" stroke-linecap="round" stroke-dasharray="6.0,8.0" d="m103.69734 103.61274l88.62991 96.62992" fill-rule="nonzero"></path><path fill="#000000" fill-opacity="0.0" d="m223.69734 87.61274l-31.370071 112.62992" fill-rule="nonzero"></path><path stroke="#000000" stroke-width="2.0" stroke-linejoin="round" stroke-linecap="round" stroke-dasharray="6.0,8.0" d="m223.69734 87.61274l-31.370071 112.62992" fill-rule="nonzero"></path><path fill="#000000" fill-opacity="0.0" d="m79.69734 207.61273l112.62993 -7.3700714" fill-rule="nonzero"></path><path stroke="#000000" stroke-width="2.0" stroke-linejoin="round" stroke-linecap="round" stroke-dasharray="6.0,8.0" d="m79.69734 207.61273l112.62993 -7.3700714" fill-rule="nonzero"></path><path fill="#000000" fill-opacity="0.0" d="m287.69736 135.61273l-95.37009 64.62993" fill-rule="nonzero"></path><path stroke="#000000" stroke-width="2.0" stroke-linejoin="round" stroke-linecap="round" stroke-dasharray="6.0,8.0" d="m287.69736 135.61273l-95.37009 64.62993" fill-rule="nonzero"></path><path fill="#000000" fill-opacity="0.0" d="m295.69736 223.61273l-103.3701 -23.370071" fill-rule="nonzero"></path><path stroke="#000000" stroke-width="2.0" stroke-linejoin="round" stroke-linecap="round" stroke-dasharray="6.0,8.0" d="m295.69736 223.61273l-103.3701 -23.370071" fill-rule="nonzero"></path><path fill="#000000" fill-opacity="0.0" d="m447.29135 291.43307l65.13382 -36.0" fill-rule="nonzero"></path><path stroke="#000000" stroke-width="3.0" stroke-linejoin="round" stroke-linecap="butt" d="m447.29135 291.43307l65.13382 -36.0" fill-rule="nonzero"></path><path fill="#000000" fill-opacity="0.0" d="m538.79266 304.24146l-26.614197 -49.19684" fill-rule="nonzero"></path><path stroke="#000000" stroke-width="3.0" stroke-linejoin="round" stroke-linecap="butt" d="m538.79266 304.24146l-26.614197 -49.19684" fill-rule="nonzero"></path><path fill="#000000" fill-opacity="0.0" d="m447.67673 94.90748l88.62991 96.62992" fill-rule="nonzero"></path><path stroke="#000000" stroke-width="2.0" stroke-linejoin="round" stroke-linecap="round" stroke-dasharray="6.0,8.0" d="m447.67673 94.90748l88.62991 96.62992" fill-rule="nonzero"></path><path fill="#000000" fill-opacity="0.0" d="m567.6767 78.90748l-31.370056 112.62992" fill-rule="nonzero"></path><path stroke="#000000" stroke-width="2.0" stroke-linejoin="round" stroke-linecap="round" stroke-dasharray="6.0,8.0" d="m567.6767 78.90748l-31.370056 112.62992" fill-rule="nonzero"></path><path fill="#000000" fill-opacity="0.0" d="m423.67673 198.90749l112.62991 -7.3700867" fill-rule="nonzero"></path><path stroke="#000000" stroke-width="2.0" stroke-linejoin="round" stroke-linecap="round" stroke-dasharray="6.0,8.0" d="m423.67673 198.90749l112.62991 -7.3700867" fill-rule="nonzero"></path><path fill="#000000" fill-opacity="0.0" d="m631.6767 126.90748l-95.370056 64.62992" fill-rule="nonzero"></path><path stroke="#000000" stroke-width="2.0" stroke-linejoin="round" stroke-linecap="round" stroke-dasharray="6.0,8.0" d="m631.6767 126.90748l-95.370056 64.62992" fill-rule="nonzero"></path><path fill="#000000" fill-opacity="0.0" d="m639.6767 214.90749l-103.370056 -23.370087" fill-rule="nonzero"></path><path stroke="#000000" stroke-width="2.0" stroke-linejoin="round" stroke-linecap="round" stroke-dasharray="6.0,8.0" d="m639.6767 214.90749l-103.370056 -23.370087" fill-rule="nonzero"></path><path fill="#000000" fill-opacity="0.0" d="m512.4368 255.41595l23.874023 -63.905518" fill-rule="nonzero"></path><path stroke="#000000" stroke-width="2.0" stroke-linejoin="round" stroke-linecap="butt" stroke-dasharray="8.0,6.0" d="m512.4368 255.41595l23.874023 -63.905518" fill-rule="nonzero"></path><path fill="#000000" fill-opacity="0.0" d="m88.326035 255.3379l56.0 0l0 48.000015l-56.0 0z" fill-rule="nonzero"></path><path fill="#000000" d="m113.438446 276.39853l1.453125 0l0 -0.734375q0 -1.25 0.265625 -1.859375q0.265625 -0.609375 0.96875 -0.984375q0.71875 -0.390625 1.796875 -0.390625q1.109375 0 2.1875 0.328125l-0.359375 1.8125q-0.625 -0.140625 -1.203125 -0.140625q-0.5625 0 -0.8125 0.265625q-0.234375 0.265625 -0.234375 1.015625l0 0.6875l1.9375 0l0 2.0625l-1.9375 0l0 7.796875l-2.609375 0l0 -7.796875l-1.453125 0l0 -2.0625z" fill-rule="nonzero"></path><path fill="#000000" fill-opacity="0.0" d="m191.69734 279.61276l48.0 0l0 40.0l-48.0 0z" fill-rule="nonzero"></path><path fill="#000000" d="m211.12436 307.189l2.96875 0.359375q0.078125 0.515625 0.34375 0.703125q0.375 0.28125 1.171875 0.28125q1.03125 0 1.53125 -0.296875q0.34375 -0.203125 0.515625 -0.65625q0.125 -0.328125 0.125 -1.203125l0 -1.4375q-1.171875 1.59375 -2.953125 1.59375q-1.984375 0 -3.140625 -1.671875q-0.90625 -1.328125 -0.90625 -3.3125q0 -2.46875 1.1875 -3.78125q1.1875 -1.3125 2.96875 -1.3125q1.828125 0 3.015625 1.609375l0 -1.390625l2.4375 0l0 8.84375q0 1.75 -0.296875 2.609375q-0.28125 0.859375 -0.796875 1.34375q-0.515625 0.5 -1.390625 0.78125q-0.859375 0.28125 -2.1875 0.28125q-2.515625 0 -3.5625 -0.859375q-1.046875 -0.859375 -1.046875 -2.171875q0 -0.140625 0.015625 -0.3125zm2.328125 -5.78125q0 1.5625 0.609375 2.296875q0.609375 0.71875 1.5 0.71875q0.953125 0 1.609375 -0.734375q0.65625 -0.75 0.65625 -2.21875q0 -1.53125 -0.640625 -2.265625q-0.625 -0.75 -1.578125 -0.75q-0.9375 0 -1.546875 0.734375q-0.609375 0.71875 -0.609375 2.21875z" fill-rule="nonzero"></path><path fill="#000000" fill-opacity="0.0" d="m295.7056 207.00398l40.0 0l0 40.0l-40.0 0z" fill-rule="nonzero"></path><path fill="#000000" d="m313.83023 227.08023l-2.359375 -0.4375q0.390625 -1.421875 1.359375 -2.109375q0.984375 -0.6875 2.90625 -0.6875q1.734375 0 2.59375 0.421875q0.859375 0.40625 1.203125 1.046875q0.34375 0.625 0.34375 2.328125l-0.03125 3.046875q0 1.296875 0.125 1.921875q0.125 0.609375 0.46875 1.3125l-2.578125 0q-0.09375 -0.265625 -0.25 -0.765625q-0.0625 -0.234375 -0.09375 -0.3125q-0.65625 0.65625 -1.421875 0.984375q-0.765625 0.3125 -1.625 0.3125q-1.515625 0 -2.40625 -0.8125q-0.875 -0.828125 -0.875 -2.09375q0 -0.84375 0.390625 -1.484375q0.40625 -0.65625 1.125 -1.0q0.71875 -0.359375 2.078125 -0.625q1.828125 -0.328125 2.53125 -0.625l0 -0.265625q0 -0.75 -0.375 -1.0625q-0.359375 -0.328125 -1.390625 -0.328125q-0.703125 0 -1.09375 0.28125q-0.390625 0.265625 -0.625 0.953125zm3.484375 2.109375q-0.5 0.171875 -1.59375 0.40625q-1.078125 0.234375 -1.40625 0.453125q-0.515625 0.359375 -0.515625 0.921875q0 0.546875 0.40625 0.953125q0.40625 0.390625 1.046875 0.390625q0.703125 0 1.34375 -0.46875q0.46875 -0.359375 0.625 -0.859375q0.09375 -0.34375 0.09375 -1.28125l0 -0.515625z" fill-rule="nonzero"></path><path fill="#000000" fill-opacity="0.0" d="m287.69736 103.61274l56.0 0l0 55.999992l-56.0 0z" fill-rule="nonzero"></path><path fill="#000000" d="m311.24936 138.53273l0 -13.593742l2.609375 0l0 4.8906174q1.203125 -1.375 2.859375 -1.375q1.796875 0 2.96875 1.3125q1.1875 1.296875 1.1875 3.734375q0 2.53125 -1.203125 3.890625q-1.203125 1.359375 -2.921875 1.359375q-0.84375 0 -1.671875 -0.421875q-0.8125 -0.421875 -1.40625 -1.25l0 1.453125l-2.421875 0zm2.59375 -5.140625q0 1.53125 0.484375 2.265625q0.671875 1.03125 1.796875 1.03125q0.859375 0 1.46875 -0.734375q0.609375 -0.734375 0.609375 -2.328125q0 -1.6875 -0.609375 -2.421875q-0.609375 -0.75 -1.578125 -0.75q-0.9375 0 -1.5625 0.734375q-0.609375 0.71875 -0.609375 2.203125z" fill-rule="nonzero"></path><path fill="#000000" fill-opacity="0.0" d="m199.08858 40.23183l48.0 0l0 56.000004l-48.0 0z" fill-rule="nonzero"></path><path fill="#000000" d="m227.85385 68.21433l-2.5625 0.46875q-0.140625 -0.78125 -0.59375 -1.171875q-0.453125 -0.390625 -1.1875 -0.390625q-0.984375 0 -1.5625 0.671875q-0.578125 0.671875 -0.578125 2.25q0 1.765625 0.578125 2.484375q0.59375 0.71875 1.59375 0.71875q0.75 0 1.21875 -0.421875q0.46875 -0.421875 0.671875 -1.453125l2.546875 0.4375q-0.390625 1.765625 -1.53125 2.671875q-1.125 0.890625 -3.03125 0.890625q-2.15625 0 -3.453125 -1.359375q-1.28125 -1.359375 -1.28125 -3.78125q0 -2.4375 1.296875 -3.796875q1.296875 -1.359375 3.484375 -1.359375q1.796875 0 2.859375 0.78125q1.0625 0.765625 1.53125 2.359375z" fill-rule="nonzero"></path><path fill="#000000" fill-opacity="0.0" d="m56.01341 63.313156l56.000004 0l0 56.0l-56.000004 0z" fill-rule="nonzero"></path><path fill="#000000" d="m88.72167 98.233154l-2.421875 0l0 -1.453125q-0.609375 0.84375 -1.4375 1.265625q-0.8125 0.40625 -1.640625 0.40625q-1.703125 0 -2.921875 -1.359375q-1.203125 -1.375 -1.203125 -3.828125q0 -2.5 1.171875 -3.796875q1.1875 -1.3125 2.984375 -1.3125q1.65625 0 2.859375 1.375l0 -4.890625l2.609375 0l0 13.59375zm-6.96875 -5.140625q0 1.578125 0.4375 2.28125q0.640625 1.015625 1.765625 1.015625q0.90625 0 1.53125 -0.765625q0.625 -0.765625 0.625 -2.28125q0 -1.703125 -0.609375 -2.4375q-0.609375 -0.75 -1.5625 -0.75q-0.9375 0 -1.5625 0.734375q-0.625 0.734375 -0.625 2.203125z" fill-rule="nonzero"></path><path fill="#000000" fill-opacity="0.0" d="m32.323982 176.24626l56.0 0l0 48.0l-56.0 0z" fill-rule="nonzero"></path><path fill="#000000" d="m62.198624 204.02563l2.609375 0.4375q-0.5 1.4375 -1.59375 2.1875q-1.078125 0.734375 -2.703125 0.734375q-2.5625 0 -3.796875 -1.671875q-0.96875 -1.34375 -0.96875 -3.40625q0 -2.4375 1.265625 -3.828125q1.28125 -1.390625 3.25 -1.390625q2.1875 0 3.453125 1.453125q1.28125 1.453125 1.234375 4.453125l-6.53125 0q0.015625 1.15625 0.625 1.8125q0.609375 0.640625 1.5 0.640625q0.609375 0 1.03125 -0.328125q0.421875 -0.34375 0.625 -1.09375zm0.15625 -2.625q-0.03125 -1.140625 -0.59375 -1.71875q-0.546875 -0.59375 -1.34375 -0.59375q-0.859375 0 -1.40625 0.625q-0.5625 0.609375 -0.546875 1.6875l3.890625 0z" fill-rule="nonzero"></path><path fill="#000000" fill-opacity="0.0" d="m639.68494 198.29872l40.0 0l0 40.0l-40.0 0z" fill-rule="nonzero"></path><path fill="#000000" d="m657.8096 218.37497l-2.359375 -0.4375q0.390625 -1.421875 1.359375 -2.109375q0.984375 -0.6875 2.90625 -0.6875q1.734375 0 2.59375 0.421875q0.859375 0.40625 1.203125 1.046875q0.34375 0.625 0.34375 2.328125l-0.03125 3.046875q0 1.296875 0.125 1.921875q0.125 0.609375 0.46875 1.3125l-2.578125 0q-0.09375 -0.265625 -0.25 -0.765625q-0.0625 -0.234375 -0.09375 -0.3125q-0.65625 0.65625 -1.421875 0.984375q-0.765625 0.3125 -1.625 0.3125q-1.515625 0 -2.40625 -0.8125q-0.875 -0.828125 -0.875 -2.09375q0 -0.84375 0.390625 -1.484375q0.40625 -0.65625 1.125 -1.0q0.71875 -0.359375 2.078125 -0.625q1.828125 -0.328125 2.53125 -0.625l0 -0.265625q0 -0.75 -0.375 -1.0625q-0.359375 -0.328125 -1.390625 -0.328125q-0.703125 0 -1.09375 0.28125q-0.390625 0.265625 -0.625 0.953125zm3.484375 2.109375q-0.5 0.171875 -1.59375 0.40625q-1.078125 0.234375 -1.40625 0.453125q-0.515625 0.359375 -0.515625 0.921875q0 0.546875 0.40625 0.953125q0.40625 0.390625 1.046875 0.390625q0.703125 0 1.34375 -0.46875q0.46875 -0.359375 0.625 -0.859375q0.09375 -0.34375 0.09375 -1.28125l0 -0.515625z" fill-rule="nonzero"></path><path fill="#000000" fill-opacity="0.0" d="m631.6767 94.90748l56.0 0l0 56.000008l-56.0 0z" fill-rule="nonzero"></path><path fill="#000000" d="m655.2287 129.82748l0 -13.593758l2.609375 0l0 4.890625q1.203125 -1.375 2.859375 -1.375q1.796875 0 2.96875 1.3125q1.1875 1.296875 1.1875 3.734375q0 2.53125 -1.203125 3.8906326q-1.203125 1.359375 -2.921875 1.359375q-0.84375 0 -1.671875 -0.421875q-0.8125 -0.421875 -1.40625 -1.25l0 1.453125l-2.421875 0zm2.59375 -5.1406326q0 1.53125 0.484375 2.265625q0.671875 1.03125 1.796875 1.03125q0.859375 0 1.46875 -0.734375q0.609375 -0.734375 0.609375 -2.328125q0 -1.6875 -0.609375 -2.421875q-0.609375 -0.75 -1.578125 -0.75q-0.9375 0 -1.5625 0.734375q-0.609375 0.71875 -0.609375 2.203125z" fill-rule="nonzero"></path><path fill="#000000" fill-opacity="0.0" d="m543.06793 31.526575l48.0 0l0 56.0l-48.0 0z" fill-rule="nonzero"></path><path fill="#000000" d="m571.8332 59.50907l-2.5625 0.46875q-0.140625 -0.78125 -0.59375 -1.171875q-0.453125 -0.390625 -1.1875 -0.390625q-0.984375 0 -1.5625 0.671875q-0.578125 0.671875 -0.578125 2.25q0 1.765625 0.578125 2.484375q0.59375 0.71875 1.59375 0.71875q0.75 0 1.21875 -0.421875q0.46875 -0.421875 0.671875 -1.453125l2.546875 0.4375q-0.390625 1.765625 -1.53125 2.671875q-1.125 0.890625 -3.03125 0.890625q-2.15625 0 -3.453125 -1.359375q-1.28125 -1.359375 -1.28125 -3.78125q0 -2.4375 1.296875 -3.796875q1.296875 -1.359375 3.484375 -1.359375q1.796875 0 2.859375 0.78125q1.0625 0.765625 1.53125 2.359375z" fill-rule="nonzero"></path><path fill="#000000" fill-opacity="0.0" d="m399.99277 54.6079l56.0 0l0 55.999996l-56.0 0z" fill-rule="nonzero"></path><path fill="#000000" d="m432.70105 89.52789l-2.421875 0l0 -1.453125q-0.609375 0.84375 -1.4375 1.265625q-0.8125 0.40625 -1.640625 0.40625q-1.703125 0 -2.921875 -1.359375q-1.203125 -1.375 -1.203125 -3.828125q0 -2.5 1.171875 -3.796875q1.1875 -1.3125 2.984375 -1.3125q1.65625 0 2.859375 1.375l0 -4.890625l2.609375 0l0 13.59375zm-6.96875 -5.140625q0 1.578125 0.4375 2.28125q0.640625 1.015625 1.765625 1.015625q0.90625 0 1.53125 -0.765625q0.625 -0.765625 0.625 -2.28125q0 -1.703125 -0.609375 -2.4375q-0.609375 -0.75 -1.5625 -0.75q-0.9375 0 -1.5625 0.734375q-0.625 0.734375 -0.625 2.203125z" fill-rule="nonzero"></path><path fill="#000000" fill-opacity="0.0" d="m376.30334 167.54102l56.0 0l0 48.0l-56.0 0z" fill-rule="nonzero"></path><path fill="#000000" d="m406.178 195.32039l2.609375 0.4375q-0.5 1.4375 -1.59375 2.1875q-1.078125 0.734375 -2.703125 0.734375q-2.5625 0 -3.796875 -1.671875q-0.96875 -1.34375 -0.96875 -3.40625q0 -2.4375 1.265625 -3.828125q1.28125 -1.390625 3.25 -1.390625q2.1875 0 3.453125 1.453125q1.28125 1.453125 1.234375 4.453125l-6.53125 0q0.015625 1.15625 0.625 1.8125q0.609375 0.640625 1.5 0.640625q0.609375 0 1.03125 -0.328125q0.421875 -0.34375 0.625 -1.09375zm0.15625 -2.625q-0.03125 -1.140625 -0.59375 -1.71875q-0.546875 -0.59375 -1.34375 -0.59375q-0.859375 0 -1.40625 0.625q-0.5625 0.609375 -0.546875 1.6875l3.890625 0z" fill-rule="nonzero"></path><path fill="#000000" fill-opacity="0.0" d="m406.66388 259.1433l48.0 0l0 56.0l-48.0 0z" fill-rule="nonzero"></path><path fill="#000000" d="m427.77628 284.20395l1.453125 0l0 -0.734375q0 -1.25 0.265625 -1.859375q0.265625 -0.609375 0.96875 -0.984375q0.71875 -0.390625 1.796875 -0.390625q1.109375 0 2.1875 0.328125l-0.359375 1.8125q-0.625 -0.140625 -1.203125 -0.140625q-0.5625 0 -0.8125 0.265625q-0.234375 0.265625 -0.234375 1.015625l0 0.6875l1.9375 0l0 2.0625l-1.9375 0l0 7.796875l-2.609375 0l0 -7.796875l-1.453125 0l0 -2.0625z" fill-rule="nonzero"></path><path fill="#000000" fill-opacity="0.0" d="m525.2205 279.61276l56.0 0l0 48.0l-56.0 0z" fill-rule="nonzero"></path><path fill="#000000" d="m548.6475 311.189l2.96875 0.359375q0.078125 0.515625 0.34375 0.703125q0.375 0.28125 1.171875 0.28125q1.03125 0 1.53125 -0.296875q0.34375 -0.203125 0.515625 -0.65625q0.125 -0.328125 0.125 -1.203125l0 -1.4375q-1.171875 1.59375 -2.953125 1.59375q-1.984375 0 -3.140625 -1.671875q-0.90625 -1.328125 -0.90625 -3.3125q0 -2.46875 1.1875 -3.78125q1.1875 -1.3125 2.96875 -1.3125q1.828125 0 3.015625 1.609375l0 -1.390625l2.4375 0l0 8.84375q0 1.75 -0.296875 2.609375q-0.28125 0.859375 -0.796875 1.34375q-0.515625 0.5 -1.390625 0.78125q-0.859375 0.28125 -2.1875 0.28125q-2.515625 0 -3.5625 -0.859375q-1.046875 -0.859375 -1.046875 -2.171875q0 -0.140625 0.015625 -0.3125zm2.328125 -5.78125q0 1.5625 0.609375 2.296875q0.609375 0.71875 1.5 0.71875q0.953125 0 1.609375 -0.734375q0.65625 -0.75 0.65625 -2.21875q0 -1.53125 -0.640625 -2.265625q-0.625 -0.75 -1.578125 -0.75q-0.9375 0 -1.546875 0.734375q-0.609375 0.71875 -0.609375 2.21875z" fill-rule="nonzero"></path><path fill="#000000" fill-opacity="0.0" d="m517.1847 235.72073l32.0 0l0 32.0l-32.0 0z" fill-rule="nonzero"></path><path fill="#000000" d="m535.33044 258.64075l0 -1.46875q-0.53125 0.78125 -1.40625 1.234375q-0.875 0.453125 -1.859375 0.453125q-0.984375 0 -1.78125 -0.4375q-0.78125 -0.4375 -1.140625 -1.21875q-0.34375 -0.796875 -0.34375 -2.1875153l0 -6.234375l2.609375 0l0 4.53125q0 2.078125 0.140625 2.546875q0.140625 0.46876526 0.515625 0.75001526q0.390625 0.265625 0.96875 0.265625q0.671875 0 1.203125 -0.359375q0.53125 -0.375 0.71875 -0.90626526q0.1875 -0.546875 0.1875 -2.671875l0 -4.15625l2.609375 0l0 9.85939l-2.421875 0z" fill-rule="nonzero"></path><path fill="#000000" fill-opacity="0.0" d="m86.65174 521.2303l80.314964 9.606323" fill-rule="nonzero"></path><path stroke="#000000" stroke-width="3.0" stroke-linejoin="round" stroke-linecap="round" d="m86.65174 521.2303l80.314964 9.606323" fill-rule="nonzero"></path><path fill="#000000" fill-opacity="0.0" d="m122.96588 604.33594l49.543304 -39.496033" fill-rule="nonzero"></path><path stroke="#000000" stroke-width="3.0" stroke-linejoin="round" stroke-linecap="butt" d="m122.96588 604.33594l49.543304 -39.496033" fill-rule="nonzero"></path><path fill="#000000" fill-opacity="0.0" d="m209.96588 602.33594l-37.732285 -37.858276" fill-rule="nonzero"></path><path stroke="#000000" stroke-width="3.0" stroke-linejoin="round" stroke-linecap="butt" d="m209.96588 602.33594l-37.732285 -37.858276" fill-rule="nonzero"></path><path fill="#000000" fill-opacity="0.0" d="m114.747536 412.32874l88.62992 96.62991" fill-rule="nonzero"></path><path stroke="#000000" stroke-width="2.0" stroke-linejoin="round" stroke-linecap="round" stroke-dasharray="6.0,8.0" d="m114.747536 412.32874l88.62992 96.62991" fill-rule="nonzero"></path><path fill="#000000" fill-opacity="0.0" d="m234.74754 396.32874l-31.370087 112.62991" fill-rule="nonzero"></path><path stroke="#000000" stroke-width="2.0" stroke-linejoin="round" stroke-linecap="round" stroke-dasharray="6.0,8.0" d="m234.74754 396.32874l-31.370087 112.62991" fill-rule="nonzero"></path><path fill="#000000" fill-opacity="0.0" d="m304.4567 453.00525l-101.10237 55.968506" fill-rule="nonzero"></path><path stroke="#000000" stroke-width="2.0" stroke-linejoin="round" stroke-linecap="round" stroke-dasharray="6.0,8.0" d="m304.4567 453.00525l-101.10237 55.968506" fill-rule="nonzero"></path><path fill="#000000" fill-opacity="0.0" d="m303.04724 542.25195l-99.68504 -33.29132" fill-rule="nonzero"></path><path stroke="#000000" stroke-width="2.0" stroke-linejoin="round" stroke-linecap="round" stroke-dasharray="6.0,8.0" d="m303.04724 542.25195l-99.68504 -33.29132" fill-rule="nonzero"></path><path fill="#000000" fill-opacity="0.0" d="m165.95538 531.5066l37.984253 -23.307129" fill-rule="nonzero"></path><path stroke="#000000" stroke-width="2.0" stroke-linejoin="round" stroke-linecap="butt" stroke-dasharray="8.0,6.0" d="m165.95538 531.5066l37.984253 -23.307129" fill-rule="nonzero"></path><path fill="#000000" fill-opacity="0.0" d="m166.96588 530.8373l6.4881897 34.992126" fill-rule="nonzero"></path><path stroke="#000000" stroke-width="3.0" stroke-linejoin="round" stroke-linecap="butt" d="m166.96588 530.8373l6.4881897 34.992126" fill-rule="nonzero"></path><path fill="#000000" fill-opacity="0.0" d="m299.48938 525.40894l40.0 0l0 40.0l-40.0 0z" fill-rule="nonzero"></path><path fill="#000000" d="m317.614 545.4852l-2.359375 -0.4375q0.390625 -1.421875 1.359375 -2.109375q0.984375 -0.6875 2.90625 -0.6875q1.734375 0 2.59375 0.421875q0.859375 0.40625 1.203125 1.046875q0.34375 0.625 0.34375 2.328125l-0.03125 3.046875q0 1.296875 0.125 1.921875q0.125 0.609375 0.46875 1.3125l-2.578125 0q-0.09375 -0.265625 -0.25 -0.765625q-0.0625 -0.234375 -0.09375 -0.3125q-0.65625 0.65625 -1.421875 0.984375q-0.765625 0.3125 -1.625 0.3125q-1.515625 0 -2.40625 -0.8125q-0.875 -0.828125 -0.875 -2.09375q0 -0.84375 0.390625 -1.484375q0.40625 -0.65625 1.125 -1.0q0.71875 -0.359375 2.078125 -0.625q1.828125 -0.328125 2.53125 -0.625l0 -0.265625q0 -0.75 -0.375 -1.0625q-0.359375 -0.328125 -1.390625 -0.328125q-0.703125 0 -1.09375 0.28125q-0.390625 0.265625 -0.625 0.953125zm3.484375 2.109375q-0.5 0.171875 -1.59375 0.40625q-1.078125 0.234375 -1.40625 0.453125q-0.515625 0.359375 -0.515625 0.921875q0 0.546875 0.40625 0.953125q0.40625 0.390625 1.046875 0.390625q0.703125 0 1.34375 -0.46875q0.46875 -0.359375 0.625 -0.859375q0.09375 -0.34375 0.09375 -1.28125l0 -0.515625z" fill-rule="nonzero"></path><path fill="#000000" fill-opacity="0.0" d="m294.24753 416.32742l56.0 0l0 56.0l-56.0 0z" fill-rule="nonzero"></path><path fill="#000000" d="m317.79956 451.24744l0 -13.59375l2.609375 0l0 4.890625q1.203125 -1.375 2.859375 -1.375q1.796875 0 2.96875 1.3125q1.1875 1.296875 1.1875 3.734375q0 2.53125 -1.203125 3.890625q-1.203125 1.359375 -2.921875 1.359375q-0.84375 0 -1.671875 -0.421875q-0.8125 -0.421875 -1.40625 -1.25l0 1.453125l-2.421875 0zm2.59375 -5.140625q0 1.53125 0.484375 2.265625q0.671875 1.03125 1.796875 1.03125q0.859375 0 1.46875 -0.734375q0.609375 -0.734375 0.609375 -2.328125q0 -1.6875 -0.609375 -2.421875q-0.609375 -0.75 -1.578125 -0.75q-0.9375 0 -1.5625 0.734375q-0.609375 0.71875 -0.609375 2.203125z" fill-rule="nonzero"></path><path fill="#000000" fill-opacity="0.0" d="m212.14009 349.94916l48.000015 0l0 56.0l-48.000015 0z" fill-rule="nonzero"></path><path fill="#000000" d="m240.90536 377.93164l-2.5625 0.46875q-0.140625 -0.78125 -0.59375 -1.171875q-0.453125 -0.390625 -1.1875 -0.390625q-0.984375 0 -1.5625 0.671875q-0.578125 0.671875 -0.578125 2.25q0 1.765625 0.578125 2.484375q0.59375 0.71875 1.59375 0.71875q0.75 0 1.21875 -0.421875q0.46875 -0.421875 0.671875 -1.453125l2.546875 0.4375q-0.390625 1.765625 -1.53125 2.671875q-1.125 0.890625 -3.03125 0.890625q-2.15625 0 -3.453125 -1.359375q-1.28125 -1.359375 -1.28125 -3.78125q0 -2.4375 1.296875 -3.796875q1.296875 -1.359375 3.484375 -1.359375q1.796875 0 2.859375 0.78125q1.0625 0.765625 1.53125 2.359375z" fill-rule="nonzero"></path><path fill="#000000" fill-opacity="0.0" d="m72.56361 372.52652l56.000008 0l0 56.0l-56.000008 0z" fill-rule="nonzero"></path><path fill="#000000" d="m105.271866 407.44653l-2.421875 0l0 -1.453125q-0.609375 0.84375 -1.4375 1.265625q-0.8125 0.40625 -1.640625 0.40625q-1.703125 0 -2.921875 -1.359375q-1.203125 -1.375 -1.203125 -3.828125q0 -2.5 1.171875 -3.796875q1.1875 -1.3125 2.984375 -1.3125q1.65625 0 2.859375 1.375l0 -4.890625l2.609375 0l0 13.59375zm-6.96875 -5.140625q0 1.578125 0.4375 2.28125q0.640625 1.015625 1.765625 1.015625q0.90625 0 1.53125 -0.765625q0.625 -0.765625 0.625 -2.28125q0 -1.703125 -0.609375 -2.4375q-0.609375 -0.75 -1.5625 -0.75q-0.9375 0 -1.5625 0.734375q-0.625 0.734375 -0.625 2.203125z" fill-rule="nonzero"></path><path fill="#000000" fill-opacity="0.0" d="m169.24893 544.4068l32.0 0l0 32.0l-32.0 0z" fill-rule="nonzero"></path><path fill="#000000" d="m187.3947 567.32684l0 -1.46875q-0.53125 0.78125 -1.40625 1.234375q-0.875 0.453125 -1.859375 0.453125q-0.984375 0 -1.78125 -0.4375q-0.78125 -0.4375 -1.140625 -1.21875q-0.34375 -0.796875 -0.34375 -2.1875l0 -6.234375l2.609375 0l0 4.53125q0 2.078125 0.140625 2.546875q0.140625 0.46875 0.515625 0.75q0.390625 0.265625 0.96875 0.265625q0.671875 0 1.203125 -0.359375q0.53125 -0.375 0.71875 -0.90625q0.1875 -0.546875 0.1875 -2.671875l0 -4.15625l2.609375 0l0 9.859375l-2.421875 0z" fill-rule="nonzero"></path><path fill="#000000" fill-opacity="0.0" d="m49.37418 492.46228l55.999996 0l0 48.0l-55.999996 0z" fill-rule="nonzero"></path><path fill="#000000" d="m79.24882 520.24164l2.609375 0.4375q-0.5 1.4375 -1.59375 2.1875q-1.078125 0.734375 -2.703125 0.734375q-2.5625 0 -3.796875 -1.671875q-0.96875 -1.34375 -0.96875 -3.40625q0 -2.4375 1.265625 -3.828125q1.28125 -1.390625 3.25 -1.390625q2.1875 0 3.453125 1.453125q1.28125 1.453125 1.234375 4.453125l-6.53125 0q0.015625 1.15625 0.625 1.8125q0.609375 0.640625 1.5 0.640625q0.609375 0 1.03125 -0.328125q0.421875 -0.34375 0.625 -1.09375zm0.15625 -2.625q-0.03125 -1.140625 -0.59375 -1.71875q-0.546875 -0.59375 -1.34375 -0.59375q-0.859375 0 -1.40625 0.625q-0.5625 0.609375 -0.546875 1.6875l3.890625 0z" fill-rule="nonzero"></path><path fill="#000000" fill-opacity="0.0" d="m90.236015 581.06586l41.16535 0l0 41.41736l-41.16535 0z" fill-rule="nonzero"></path><path fill="#000000" d="m107.93111 598.83514l1.453125 0l0 -0.734375q0 -1.25 0.265625 -1.859375q0.265625 -0.609375 0.96875 -0.984375q0.71875 -0.390625 1.796875 -0.390625q1.109375 0 2.1875 0.328125l-0.359375 1.8125q-0.625 -0.140625 -1.203125 -0.140625q-0.5625 0 -0.8125 0.265625q-0.234375 0.265625 -0.234375 1.015625l0 0.6875l1.9375 0l0 2.0625l-1.9375 0l0 7.796875l-2.609375 0l0 -7.796875l-1.453125 0l0 -2.0625z" fill-rule="nonzero"></path><path fill="#000000" fill-opacity="0.0" d="m195.79002 571.034l56.0 0l0 48.0l-56.0 0z" fill-rule="nonzero"></path><path fill="#000000" d="m219.21704 602.6102l2.96875 0.359375q0.078125 0.515625 0.34375 0.703125q0.375 0.28125 1.171875 0.28125q1.03125 0 1.53125 -0.296875q0.34375 -0.203125 0.515625 -0.65625q0.125 -0.328125 0.125 -1.203125l0 -1.4375q-1.171875 1.59375 -2.953125 1.59375q-1.984375 0 -3.140625 -1.671875q-0.90625 -1.328125 -0.90625 -3.3125q0 -2.46875 1.1875 -3.78125q1.1875 -1.3125 2.96875 -1.3125q1.828125 0 3.015625 1.609375l0 -1.390625l2.4375 0l0 8.84375q0 1.75 -0.296875 2.609375q-0.28125 0.859375 -0.796875 1.34375q-0.515625 0.5 -1.390625 0.78125q-0.859375 0.28125 -2.1875 0.28125q-2.515625 0 -3.5625 -0.859375q-1.046875 -0.859375 -1.046875 -2.171875q0 -0.140625 0.015625 -0.3125zm2.328125 -5.78125q0 1.5625 0.609375 2.296875q0.609375 0.71875 1.5 0.71875q0.953125 0 1.609375 -0.734375q0.65625 -0.75 0.65625 -2.21875q0 -1.53125 -0.640625 -2.265625q-0.625 -0.75 -1.578125 -0.75q-0.9375 0 -1.546875 0.734375q-0.609375 0.71875 -0.609375 2.21875z" fill-rule="nonzero"></path><path fill="#000000" fill-opacity="0.0" d="m166.2559 517.82153l34.992126 0l0 32.0l-34.992126 0z" fill-rule="nonzero"></path><path fill="#000000" d="m182.64224 540.7415l-3.96875 -9.859375l2.734375 0l1.84375 5.03125l0.546875 1.6875q0.21875 -0.640625 0.265625 -0.84375q0.125 -0.421875 0.28125 -0.84375l1.875 -5.03125l2.671875 0l-3.90625 9.859375l-2.34375 0z" fill-rule="nonzero"></path><path fill="#000000" fill-opacity="0.0" d="m577.1071 402.51773l1.7952881 61.637787" fill-rule="nonzero"></path><path stroke="#000000" stroke-width="3.0" stroke-linejoin="round" stroke-linecap="round" d="m577.1071 402.51773l1.7952881 61.637787" fill-rule="nonzero"></path><path fill="#000000" fill-opacity="0.0" d="m645.4068 460.44095l-66.51965 3.7165222" fill-rule="nonzero"></path><path stroke="#000000" stroke-width="3.0" stroke-linejoin="round" stroke-linecap="round" d="m645.4068 460.44095l-66.51965 3.7165222" fill-rule="nonzero"></path><path fill="#000000" fill-opacity="0.0" d="m429.01132 527.94684l80.31497 9.606323" fill-rule="nonzero"></path><path stroke="#000000" stroke-width="3.0" stroke-linejoin="round" stroke-linecap="round" d="m429.01132 527.94684l80.31497 9.606323" fill-rule="nonzero"></path><path fill="#000000" fill-opacity="0.0" d="m465.32547 610.52496l49.543304 -39.496094" fill-rule="nonzero"></path><path stroke="#000000" stroke-width="3.0" stroke-linejoin="round" stroke-linecap="butt" d="m465.32547 610.52496l49.543304 -39.496094" fill-rule="nonzero"></path><path fill="#000000" fill-opacity="0.0" d="m552.32544 608.52496l-37.73224 -37.858276" fill-rule="nonzero"></path><path stroke="#000000" stroke-width="3.0" stroke-linejoin="round" stroke-linecap="butt" d="m552.32544 608.52496l-37.73224 -37.858276" fill-rule="nonzero"></path><path fill="#000000" fill-opacity="0.0" d="m509.32547 537.02625l5.7637634 34.897644" fill-rule="nonzero"></path><path stroke="#000000" stroke-width="3.0" stroke-linejoin="round" stroke-linecap="butt" d="m509.32547 537.02625l5.7637634 34.897644" fill-rule="nonzero"></path><path fill="#000000" fill-opacity="0.0" d="m457.10712 418.51773l88.629944 96.62991" fill-rule="nonzero"></path><path stroke="#000000" stroke-width="2.0" stroke-linejoin="round" stroke-linecap="round" stroke-dasharray="6.0,8.0" d="m457.10712 418.51773l88.629944 96.62991" fill-rule="nonzero"></path><path fill="#000000" fill-opacity="0.0" d="m645.4068 548.4409l-99.685 -33.29132" fill-rule="nonzero"></path><path stroke="#000000" stroke-width="2.0" stroke-linejoin="round" stroke-linecap="round" stroke-dasharray="6.0,8.0" d="m645.4068 548.4409l-99.685 -33.29132" fill-rule="nonzero"></path><path fill="#000000" fill-opacity="0.0" d="m508.32547 538.02625l37.984222 -23.653564" fill-rule="nonzero"></path><path stroke="#000000" stroke-width="2.0" stroke-linejoin="round" stroke-linecap="butt" stroke-dasharray="8.0,6.0" d="m508.32547 538.02625l37.984222 -23.653564" fill-rule="nonzero"></path><path fill="#000000" fill-opacity="0.0" d="m578.9029 464.15747l-33.66931 50.48822" fill-rule="nonzero"></path><path stroke="#000000" stroke-width="2.0" stroke-linejoin="round" stroke-linecap="butt" stroke-dasharray="8.0,6.0" d="m578.9029 464.15747l-33.66931 50.48822" fill-rule="nonzero"></path><path fill="#000000" fill-opacity="0.0" d="m642.1141 528.40894l40.0 0l0 40.0l-40.0 0z" fill-rule="nonzero"></path><path fill="#000000" d="m660.2387 548.4852l-2.359375 -0.4375q0.390625 -1.421875 1.359375 -2.109375q0.984375 -0.6875 2.90625 -0.6875q1.734375 0 2.59375 0.421875q0.859375 0.40625 1.203125 1.046875q0.34375 0.625 0.34375 2.328125l-0.03125 3.046875q0 1.296875 0.125 1.921875q0.125 0.609375 0.46875 1.3125l-2.578125 0q-0.09375 -0.265625 -0.25 -0.765625q-0.0625 -0.234375 -0.09375 -0.3125q-0.65625 0.65625 -1.421875 0.984375q-0.765625 0.3125 -1.625 0.3125q-1.515625 0 -2.40625 -0.8125q-0.875 -0.828125 -0.875 -2.09375q0 -0.84375 0.390625 -1.484375q0.40625 -0.65625 1.125 -1.0q0.71875 -0.359375 2.078125 -0.625q1.828125 -0.328125 2.53125 -0.625l0 -0.265625q0 -0.75 -0.375 -1.0625q-0.359375 -0.328125 -1.390625 -0.328125q-0.703125 0 -1.09375 0.28125q-0.390625 0.265625 -0.625 0.953125zm3.484375 2.109375q-0.5 0.171875 -1.59375 0.40625q-1.078125 0.234375 -1.40625 0.453125q-0.515625 0.359375 -0.515625 0.921875q0 0.546875 0.40625 0.953125q0.40625 0.390625 1.046875 0.390625q0.703125 0 1.34375 -0.46875q0.46875 -0.359375 0.625 -0.859375q0.09375 -0.34375 0.09375 -1.28125l0 -0.515625z" fill-rule="nonzero"></path><path fill="#000000" fill-opacity="0.0" d="m639.10583 433.51642l44.15747 0l0 42.42517l-44.15747 0z" fill-rule="nonzero"></path><path fill="#000000" d="m656.7366 461.649l0 -13.59375l2.609375 0l0 4.890625q1.203125 -1.375 2.859375 -1.375q1.796875 0 2.96875 1.3125q1.1875 1.296875 1.1875 3.734375q0 2.53125 -1.203125 3.890625q-1.203125 1.359375 -2.921875 1.359375q-0.84375 0 -1.671875 -0.421875q-0.8125 -0.421875 -1.40625 -1.25l0 1.453125l-2.421875 0zm2.59375 -5.140625q0 1.53125 0.484375 2.265625q0.671875 1.03125 1.796875 1.03125q0.859375 0 1.46875 -0.734375q0.609375 -0.734375 0.609375 -2.328125q0 -1.6875 -0.609375 -2.421875q-0.609375 -0.75 -1.578125 -0.75q-0.9375 0 -1.5625 0.734375q-0.609375 0.71875 -0.609375 2.203125z" fill-rule="nonzero"></path><path fill="#000000" fill-opacity="0.0" d="m554.4997 364.13812l43.653503 0l0 42.92914l-43.653503 0z" fill-rule="nonzero"></path><path fill="#000000" d="m581.09174 385.58517l-2.5625 0.46875q-0.140625 -0.78125 -0.59375 -1.171875q-0.453125 -0.390625 -1.1875 -0.390625q-0.984375 0 -1.5625 0.671875q-0.578125 0.671875 -0.578125 2.25q0 1.765625 0.578125 2.484375q0.59375 0.71875 1.59375 0.71875q0.75 0 1.21875 -0.421875q0.46875 -0.421875 0.671875 -1.453125l2.546875 0.4375q-0.390625 1.765625 -1.53125 2.671875q-1.125 0.890625 -3.03125 0.890625q-2.15625 0 -3.453125 -1.359375q-1.28125 -1.359375 -1.28125 -3.78125q0 -2.4375 1.296875 -3.796875q1.296875 -1.359375 3.484375 -1.359375q1.796875 0 2.859375 0.78125q1.0625 0.765625 1.53125 2.359375z" fill-rule="nonzero"></path><path fill="#000000" fill-opacity="0.0" d="m408.9232 376.71814l56.0 0l0 56.0l-56.0 0z" fill-rule="nonzero"></path><path fill="#000000" d="m441.63144 411.63812l-2.421875 0l0 -1.453125q-0.609375 0.84375 -1.4375 1.265625q-0.8125 0.40625 -1.640625 0.40625q-1.703125 0 -2.921875 -1.359375q-1.203125 -1.375 -1.203125 -3.828125q0 -2.5 1.171875 -3.796875q1.1875 -1.3125 2.984375 -1.3125q1.65625 0 2.859375 1.375l0 -4.890625l2.609375 0l0 13.59375zm-6.96875 -5.140625q0 1.578125 0.4375 2.28125q0.640625 1.015625 1.765625 1.015625q0.90625 0 1.53125 -0.765625q0.625 -0.765625 0.625 -2.28125q0 -1.703125 -0.609375 -2.4375q-0.609375 -0.75 -1.5625 -0.75q-0.9375 0 -1.5625 0.734375q-0.625 0.734375 -0.625 2.203125z" fill-rule="nonzero"></path><path fill="#000000" fill-opacity="0.0" d="m509.48517 548.4409l32.0 0l0 32.0l-32.0 0z" fill-rule="nonzero"></path><path fill="#000000" d="m527.6309 571.36096l0 -1.46875q-0.53125 0.78125 -1.40625 1.234375q-0.875 0.453125 -1.859375 0.453125q-0.984375 0 -1.78125 -0.4375q-0.78125 -0.4375 -1.140625 -1.21875q-0.34375 -0.796875 -0.34375 -2.1875l0 -6.234375l2.609375 0l0 4.53125q0 2.078125 0.140625 2.546875q0.140625 0.46875 0.515625 0.75q0.390625 0.265625 0.96875 0.265625q0.671875 0 1.203125 -0.359375q0.53125 -0.375 0.71875 -0.90625q0.1875 -0.546875 0.1875 -2.671875l0 -4.15625l2.609375 0l0 9.859375l-2.421875 0z" fill-rule="nonzero"></path><path fill="#000000" fill-opacity="0.0" d="m384.73376 498.65125l56.0 0l0 48.0l-56.0 0z" fill-rule="nonzero"></path><path fill="#000000" d="m414.6084 526.4306l2.609375 0.4375q-0.5 1.4375 -1.59375 2.1875q-1.078125 0.734375 -2.703125 0.734375q-2.5625 0 -3.796875 -1.671875q-0.96875 -1.34375 -0.96875 -3.40625q0 -2.4375 1.265625 -3.828125q1.28125 -1.390625 3.25 -1.390625q2.1875 0 3.453125 1.453125q1.28125 1.453125 1.234375 4.453125l-6.53125 0q0.015625 1.15625 0.625 1.8125q0.609375 0.640625 1.5 0.640625q0.609375 0 1.03125 -0.328125q0.421875 -0.34375 0.625 -1.09375zm0.15625 -2.625q-0.03125 -1.140625 -0.59375 -1.71875q-0.546875 -0.59375 -1.34375 -0.59375q-0.859375 0 -1.40625 0.625q-0.5625 0.609375 -0.546875 1.6875l3.890625 0z" fill-rule="nonzero"></path><path fill="#000000" fill-opacity="0.0" d="m430.0943 574.75354l48.0 0l0 56.0l-48.0 0z" fill-rule="nonzero"></path><path fill="#000000" d="m451.2067 599.81415l1.453125 0l0 -0.734375q0 -1.25 0.265625 -1.859375q0.265625 -0.609375 0.96875 -0.984375q0.71875 -0.390625 1.796875 -0.390625q1.109375 0 2.1875 0.328125l-0.359375 1.8125q-0.625 -0.140625 -1.203125 -0.140625q-0.5625 0 -0.8125 0.265625q-0.234375 0.265625 -0.234375 1.015625l0 0.6875l1.9375 0l0 2.0625l-1.9375 0l0 7.796875l-2.609375 0l0 -7.796875l-1.453125 0l0 -2.0625z" fill-rule="nonzero"></path><path fill="#000000" fill-opacity="0.0" d="m538.1496 577.22296l56.0 0l0 48.0l-56.0 0z" fill-rule="nonzero"></path><path fill="#000000" d="m561.57666 608.7992l2.96875 0.359375q0.078125 0.515625 0.34375 0.703125q0.375 0.28125 1.171875 0.28125q1.03125 0 1.53125 -0.296875q0.34375 -0.203125 0.515625 -0.65625q0.125 -0.328125 0.125 -1.203125l0 -1.4375q-1.171875 1.59375 -2.953125 1.59375q-1.984375 0 -3.140625 -1.671875q-0.90625 -1.328125 -0.90625 -3.3125q0 -2.46875 1.1875 -3.78125q1.1875 -1.3125 2.96875 -1.3125q1.828125 0 3.015625 1.609375l0 -1.390625l2.4375 0l0 8.84375q0 1.75 -0.296875 2.609375q-0.28125 0.859375 -0.796875 1.34375q-0.515625 0.5 -1.390625 0.78125q-0.859375 0.28125 -2.1875 0.28125q-2.515625 0 -3.5625 -0.859375q-1.046875 -0.859375 -1.046875 -2.171875q0 -0.140625 0.015625 -0.3125zm2.328125 -5.78125q0 1.5625 0.609375 2.296875q0.609375 0.71875 1.5 0.71875q0.953125 0 1.609375 -0.734375q0.65625 -0.75 0.65625 -2.21875q0 -1.53125 -0.640625 -2.265625q-0.625 -0.75 -1.578125 -0.75q-0.9375 0 -1.546875 0.734375q-0.609375 0.71875 -0.609375 2.21875z" fill-rule="nonzero"></path><path fill="#000000" fill-opacity="0.0" d="m504.98163 525.4094l36.503906 0l0 32.0l-36.503906 0z" fill-rule="nonzero"></path><path fill="#000000" d="m522.12384 548.32947l-3.96875 -9.859375l2.734375 0l1.84375 5.03125l0.546875 1.6875q0.21875 -0.640625 0.265625 -0.84375q0.125 -0.421875 0.28125 -0.84375l1.875 -5.03125l2.671875 0l-3.90625 9.859375l-2.34375 0z" fill-rule="nonzero"></path><path fill="#000000" fill-opacity="0.0" d="m547.2336 442.15747l36.503967 0l0 34.48819l-36.503967 0z" fill-rule="nonzero"></path><path fill="#000000" d="m561.433 466.32156l-3.125 -9.859375l2.53125 0l1.859375 6.46875l1.6875 -6.46875l2.515625 0l1.640625 6.46875l1.890625 -6.46875l2.5625 0l-3.15625 9.859375l-2.515625 0l-1.6875 -6.34375l-1.671875 6.34375l-2.53125 0z" fill-rule="nonzero"></path><path fill="#000000" fill-opacity="0.0" d="m272.20422 687.8602l87.811035 72.12598" fill-rule="nonzero"></path><path stroke="#000000" stroke-width="3.0" stroke-linejoin="round" stroke-linecap="round" d="m272.20422 687.8602l87.811035 72.12598" fill-rule="nonzero"></path><path fill="#000000" fill-opacity="0.0" d="m396.20422 678.3602l1.7952881 61.637817" fill-rule="nonzero"></path><path stroke="#000000" stroke-width="3.0" stroke-linejoin="round" stroke-linecap="round" d="m396.20422 678.3602l1.7952881 61.637817" fill-rule="nonzero"></path><path fill="#000000" fill-opacity="0.0" d="m464.50394 736.28345l-66.519684 3.7165527" fill-rule="nonzero"></path><path stroke="#000000" stroke-width="3.0" stroke-linejoin="round" stroke-linecap="round" d="m464.50394 736.28345l-66.519684 3.7165527" fill-rule="nonzero"></path><path fill="#000000" fill-opacity="0.0" d="m457.75067 835.16534l-92.944885 -44.188965" fill-rule="nonzero"></path><path stroke="#000000" stroke-width="3.0" stroke-linejoin="round" stroke-linecap="round" d="m457.75067 835.16534l-92.944885 -44.188965" fill-rule="nonzero"></path><path fill="#000000" fill-opacity="0.0" d="m251.71523 804.8504l75.937 8.220459" fill-rule="nonzero"></path><path stroke="#000000" stroke-width="3.0" stroke-linejoin="round" stroke-linecap="round" d="m251.71523 804.8504l75.937 8.220459" fill-rule="nonzero"></path><path fill="#000000" fill-opacity="0.0" d="m284.42258 886.36743l49.543304 -39.496033" fill-rule="nonzero"></path><path stroke="#000000" stroke-width="3.0" stroke-linejoin="round" stroke-linecap="butt" d="m284.42258 886.36743l49.543304 -39.496033" fill-rule="nonzero"></path><path fill="#000000" fill-opacity="0.0" d="m371.42258 884.36743l-37.7323 -37.858215" fill-rule="nonzero"></path><path stroke="#000000" stroke-width="3.0" stroke-linejoin="round" stroke-linecap="butt" d="m371.42258 884.36743l-37.7323 -37.858215" fill-rule="nonzero"></path><path fill="#000000" fill-opacity="0.0" d="m327.42258 813.8688l37.984253 -23.653564" fill-rule="nonzero"></path><path stroke="#000000" stroke-width="3.0" stroke-linejoin="round" stroke-linecap="butt" d="m327.42258 813.8688l37.984253 -23.653564" fill-rule="nonzero"></path><path fill="#000000" fill-opacity="0.0" d="m328.42258 812.8688l6.236206 35.716553" fill-rule="nonzero"></path><path stroke="#000000" stroke-width="3.0" stroke-linejoin="round" stroke-linecap="butt" d="m328.42258 812.8688l6.236206 35.716553" fill-rule="nonzero"></path><path fill="#000000" fill-opacity="0.0" d="m398.0 740.0l-37.984253 20.0" fill-rule="nonzero"></path><path stroke="#000000" stroke-width="3.0" stroke-linejoin="round" stroke-linecap="butt" d="m398.0 740.0l-37.984253 20.0" fill-rule="nonzero"></path><path fill="#000000" fill-opacity="0.0" d="m360.0 760.0l4.7559204 31.653564" fill-rule="nonzero"></path><path stroke="#000000" stroke-width="3.0" stroke-linejoin="round" stroke-linecap="butt" d="m360.0 760.0l4.7559204 31.653564" fill-rule="nonzero"></path><path fill="#000000" fill-opacity="0.0" d="m452.70984 815.25146l40.0 0l0 40.0l-40.0 0z" fill-rule="nonzero"></path><path fill="#000000" d="m470.8345 835.3277l-2.359375 -0.4375q0.390625 -1.421875 1.359375 -2.109375q0.984375 -0.6875 2.90625 -0.6875q1.734375 0 2.59375 0.421875q0.859375 0.40625 1.203125 1.046875q0.34375 0.625 0.34375 2.328125l-0.03125 3.046875q0 1.296875 0.125 1.921875q0.125 0.609375 0.46875 1.3125l-2.578125 0q-0.09375 -0.265625 -0.25 -0.765625q-0.0625 -0.234375 -0.09375 -0.3125q-0.65625 0.65625 -1.421875 0.984375q-0.765625 0.3125 -1.625 0.3125q-1.515625 0 -2.40625 -0.8125q-0.875 -0.828125 -0.875 -2.09375q0 -0.84375 0.390625 -1.484375q0.40625 -0.65625 1.125 -1.0q0.71875 -0.359375 2.078125 -0.625q1.828125 -0.328125 2.53125 -0.625l0 -0.265625q0 -0.75 -0.375 -1.0625q-0.359375 -0.328125 -1.390625 -0.328125q-0.703125 0 -1.09375 0.28125q-0.390625 0.265625 -0.625 0.953125zm3.484375 2.109375q-0.5 0.171875 -1.59375 0.40625q-1.078125 0.234375 -1.40625 0.453125q-0.515625 0.359375 -0.515625 0.921875q0 0.546875 0.40625 0.953125q0.40625 0.390625 1.046875 0.390625q0.703125 0 1.34375 -0.46875q0.46875 -0.359375 0.625 -0.859375q0.09375 -0.34375 0.09375 -1.28125l0 -0.515625z" fill-rule="nonzero"></path><path fill="#000000" fill-opacity="0.0" d="m456.70422 706.8602l45.259857 0l0 44.661438l-45.259857 0z" fill-rule="nonzero"></path><path fill="#000000" d="m474.88617 736.11096l0 -13.59375l2.609375 0l0 4.890625q1.203125 -1.375 2.859375 -1.375q1.796875 0 2.96875 1.3125q1.1875 1.296875 1.1875 3.734375q0 2.53125 -1.203125 3.890625q-1.203125 1.359375 -2.921875 1.359375q-0.84375 0 -1.671875 -0.421875q-0.8125 -0.421875 -1.40625 -1.25l0 1.453125l-2.421875 0zm2.59375 -5.140625q0 1.53125 0.484375 2.265625q0.671875 1.03125 1.796875 1.03125q0.859375 0 1.46875 -0.734375q0.609375 -0.734375 0.609375 -2.328125q0 -1.6875 -0.609375 -2.421875q-0.609375 -0.75 -1.578125 -0.75q-0.9375 0 -1.5625 0.734375q-0.609375 0.71875 -0.609375 2.203125z" fill-rule="nonzero"></path><path fill="#000000" fill-opacity="0.0" d="m371.59415 634.4793l48.0 0l0 56.0l-48.0 0z" fill-rule="nonzero"></path><path fill="#000000" d="m400.35944 662.46185l-2.5625 0.46875q-0.140625 -0.78125 -0.59375 -1.171875q-0.453125 -0.390625 -1.1875 -0.390625q-0.984375 0 -1.5625 0.671875q-0.578125 0.671875 -0.578125 2.25q0 1.765625 0.578125 2.484375q0.59375 0.71875 1.59375 0.71875q0.75 0 1.21875 -0.421875q0.46875 -0.421875 0.671875 -1.453125l2.546875 0.4375q-0.390625 1.765625 -1.53125 2.671875q-1.125 0.890625 -3.03125 0.890625q-2.15625 0 -3.453125 -1.359375q-1.28125 -1.359375 -1.28125 -3.78125q0 -2.4375 1.296875 -3.796875q1.296875 -1.359375 3.484375 -1.359375q1.796875 0 2.859375 0.78125q1.0625 0.765625 1.53125 2.359375z" fill-rule="nonzero"></path><path fill="#000000" fill-opacity="0.0" d="m228.0203 652.56067l56.0 0l0 56.0l-56.0 0z" fill-rule="nonzero"></path><path fill="#000000" d="m260.72855 687.48065l-2.421875 0l0 -1.453125q-0.609375 0.84375 -1.4375 1.265625q-0.8125 0.40625 -1.6406097 0.40625q-1.703125 0 -2.921875 -1.359375q-1.203125 -1.375 -1.203125 -3.828125q0 -2.5 1.171875 -3.796875q1.1875 -1.3125 2.984375 -1.3125q1.6562347 0 2.8593597 1.375l0 -4.890625l2.609375 0l0 13.59375zm-6.9687347 -5.140625q0 1.578125 0.4375 2.28125q0.640625 1.015625 1.765625 1.015625q0.90623474 0 1.5312347 -0.765625q0.625 -0.765625 0.625 -2.28125q0 -1.703125 -0.609375 -2.4375q-0.609375 -0.75 -1.5624847 -0.75q-0.9375 0 -1.5625 0.734375q-0.625 0.734375 -0.625 2.203125z" fill-rule="nonzero"></path><path fill="#000000" fill-opacity="0.0" d="m330.20697 825.49603l32.0 0l0 32.0l-32.0 0z" fill-rule="nonzero"></path><path fill="#000000" d="m348.35272 848.4161l0 -1.46875q-0.53125 0.78125 -1.40625 1.234375q-0.875 0.453125 -1.859375 0.453125q-0.984375 0 -1.78125 -0.4375q-0.78125 -0.4375 -1.140625 -1.21875q-0.34375 -0.796875 -0.34375 -2.1875l0 -6.234375l2.609375 0l0 4.53125q0 2.078125 0.140625 2.546875q0.140625 0.46875 0.515625 0.75q0.390625 0.265625 0.96875 0.265625q0.671875 0 1.203125 -0.359375q0.53125 -0.375 0.71875 -0.90625q0.1875 -0.546875 0.1875 -2.671875l0 -4.15625l2.609375 0l0 9.859375l-2.421875 0z" fill-rule="nonzero"></path><path fill="#000000" fill-opacity="0.0" d="m218.08284 776.99506l40.25197 0l0 38.677185l-40.25197 0z" fill-rule="nonzero"></path><path fill="#000000" d="m240.08347 800.11304l2.609375 0.4375q-0.5 1.4375 -1.59375 2.1875q-1.078125 0.734375 -2.703125 0.734375q-2.5625 0 -3.796875 -1.671875q-0.96875 -1.34375 -0.96875 -3.40625q0 -2.4375 1.265625 -3.828125q1.28125 -1.390625 3.25 -1.390625q2.1875 0 3.453125 1.453125q1.28125 1.453125 1.234375 4.453125l-6.53125 0q0.015625 1.15625 0.625 1.8125q0.609375 0.640625 1.5 0.640625q0.609375 0 1.03125 -0.328125q0.421875 -0.34375 0.625 -1.09375zm0.15625 -2.625q-0.03125 -1.140625 -0.59375 -1.71875q-0.546875 -0.59375 -1.34375 -0.59375q-0.859375 0 -1.40625 0.625q-0.5625 0.609375 -0.546875 1.6875l3.890625 0z" fill-rule="nonzero"></path><path fill="#000000" fill-opacity="0.0" d="m249.19142 850.59607l47.999985 0l0 56.0l-47.999985 0z" fill-rule="nonzero"></path><path fill="#000000" d="m270.30383 875.6567l1.453125 0l0 -0.734375q0 -1.25 0.265625 -1.859375q0.265625 -0.609375 0.96875 -0.984375q0.71875 -0.390625 1.796875 -0.390625q1.109375 0 2.1875 0.328125l-0.359375 1.8125q-0.625 -0.140625 -1.203125 -0.140625q-0.5625 0 -0.8125 0.265625q-0.234375 0.265625 -0.234375 1.015625l0 0.6875l1.9375 0l0 2.0625l-1.9375 0l0 7.796875l-2.609375 0l0 -7.796875l-1.453125 0l0 -2.0625z" fill-rule="nonzero"></path><path fill="#000000" fill-opacity="0.0" d="m357.2467 853.06555l56.0 0l0 48.0l-56.0 0z" fill-rule="nonzero"></path><path fill="#000000" d="m380.67374 884.6418l2.96875 0.359375q0.078125 0.515625 0.34375 0.703125q0.375 0.28125 1.171875 0.28125q1.03125 0 1.53125 -0.296875q0.34375 -0.203125 0.515625 -0.65625q0.125 -0.328125 0.125 -1.203125l0 -1.4375q-1.171875 1.59375 -2.953125 1.59375q-1.984375 0 -3.140625 -1.671875q-0.90625 -1.328125 -0.90625 -3.3125q0 -2.46875 1.1875 -3.78125q1.1875 -1.3125 2.96875 -1.3125q1.828125 0 3.015625 1.609375l0 -1.390625l2.4375 0l0 8.84375q0 1.75 -0.296875 2.609375q-0.28125 0.859375 -0.796875 1.34375q-0.515625 0.5 -1.390625 0.78125q-0.859375 0.28125 -2.1875 0.28125q-2.515625 0 -3.5625 -0.859375q-1.046875 -0.859375 -1.046875 -2.171875q0 -0.140625 0.015625 -0.3125zm2.328125 -5.78125q0 1.5625 0.609375 2.296875q0.609375 0.71875 1.5 0.71875q0.953125 0 1.609375 -0.734375q0.65625 -0.75 0.65625 -2.21875q0 -1.53125 -0.640625 -2.265625q-0.625 -0.75 -1.578125 -0.75q-0.9375 0 -1.546875 0.734375q-0.609375 0.71875 -0.609375 2.21875z" fill-rule="nonzero"></path><path fill="#000000" fill-opacity="0.0" d="m327.91995 800.19946l34.992126 0l0 32.0l-34.992126 0z" fill-rule="nonzero"></path><path fill="#000000" d="m344.30627 823.11945l-3.96875 -9.859375l2.734375 0l1.84375 5.03125l0.546875 1.6875q0.21875 -0.640625 0.265625 -0.84375q0.125 -0.421875 0.28125 -0.84375l1.875 -5.03125l2.671875 0l-3.90625 9.859375l-2.34375 0z" fill-rule="nonzero"></path><path fill="#000000" fill-opacity="0.0" d="m387.83203 734.50134l36.503937 0l0 34.48816l-36.503937 0z" fill-rule="nonzero"></path><path fill="#000000" d="m402.0314 758.6654l-3.125 -9.859375l2.53125 0l1.859375 6.46875l1.6875 -6.46875l2.515625 0l1.640625 6.46875l1.890625 -6.46875l2.5625 0l-3.15625 9.859375l-2.515625 0l-1.6875 -6.34375l-1.671875 6.34375l-2.53125 0z" fill-rule="nonzero"></path><path fill="#000000" fill-opacity="0.0" d="m347.24933 728.6667l28.0 0l0 25.984253l-28.0 0z" fill-rule="nonzero"></path><path fill="#000000" d="m356.17087 748.5788l3.5625 -5.078125l-3.40625 -4.78125l3.171875 0l1.75 2.71875l1.828125 -2.71875l3.0625 0l-3.328125 4.671875l3.640625 5.1875l-3.203125 0l-2.0 -3.046875l-2.03125 3.046875l-3.046875 0z" fill-rule="nonzero"></path><path fill="#000000" fill-opacity="0.0" d="m338.24933 768.16797l29.51184 0l0 26.992126l-29.51184 0z" fill-rule="nonzero"></path><path fill="#000000" d="m347.94238 778.7247l2.78125 0l2.359375 7.0l2.296875 -7.0l2.703125 0l-3.484375 9.484375l-0.625 1.71875q-0.34375 0.859375 -0.65625 1.3125q-0.296875 0.46875 -0.703125 0.75q-0.40625 0.28125 -1.0 0.4375q-0.59375 0.15625 -1.328125 0.15625q-0.75 0 -1.46875 -0.15625l-0.234375 -2.046875q0.609375 0.125 1.09375 0.125q0.921875 0 1.34375 -0.53125q0.4375 -0.53125 0.671875 -1.359375l-3.75 -9.890625z" fill-rule="nonzero"></path><path fill="#000000" fill-opacity="0.0" d="m334.32022 177.66667l41.984253 -1.6692963" fill-rule="nonzero"></path><path stroke="#000000" stroke-width="4.0" stroke-linejoin="round" stroke-linecap="butt" d="m334.32022 177.66667l18.003174 -0.71580505" fill-rule="evenodd"></path><path fill="#000000" stroke="#000000" stroke-width="4.0" stroke-linecap="butt" d="m352.5859 183.55257l17.87555 -7.322876l-18.400543 -5.880539z" fill-rule="evenodd"></path><path fill="#000000" fill-opacity="0.0" d="m356.5328 325.60104l-32.787384 25.921265" fill-rule="nonzero"></path><path stroke="#000000" stroke-width="4.0" stroke-linejoin="round" stroke-linecap="butt" d="m356.5328 325.60104l-13.960388 11.036926" fill-rule="evenodd"></path><path fill="#000000" stroke="#000000" stroke-width="4.0" stroke-linecap="butt" d="m338.4749 331.45508l-10.142303 16.440643l18.33728 -6.0749207z" fill-rule="evenodd"></path><path fill="#000000" fill-opacity="0.0" d="m346.65353 488.0l41.259857 -0.25198364" fill-rule="nonzero"></path><path stroke="#000000" stroke-width="4.0" stroke-linejoin="round" stroke-linecap="butt" d="m346.65353 488.0l17.260315 -0.105407715" fill-rule="evenodd"></path><path fill="#000000" stroke="#000000" stroke-width="4.0" stroke-linecap="butt" d="m363.9542 494.5014l18.111694 -6.7176514l-18.192413 -6.4959717z" fill-rule="evenodd"></path><path fill="#000000" fill-opacity="0.0" d="m487.17322 644.0l-29.29132 29.228333" fill-rule="nonzero"></path><path stroke="#000000" stroke-width="4.0" stroke-linejoin="round" stroke-linecap="butt" d="m487.17322 644.0l-12.302521 12.276062" fill-rule="evenodd"></path><path fill="#000000" stroke="#000000" stroke-width="4.0" stroke-linecap="butt" d="m470.20395 651.59924l-8.182739 17.498657l17.516266 -8.14502z" fill-rule="evenodd"></path><path fill="#000000" fill-opacity="0.0" d="m364.021 17.67979l54.078735 0l0 62.393703l-54.078735 0z" fill-rule="nonzero"></path><path fill="#000000" d="m381.84943 37.69039l9.15625 0q2.71875 0 4.046875 0.234375q1.34375 0.21875 2.390625 0.9375q1.0625 0.71875 1.765625 1.921875q0.703125 1.1875 0.703125 2.671875q0 1.609375 -0.875 2.953125q-0.859375 1.34375 -2.34375 2.015625q2.09375 0.609375 3.21875 2.078125q1.125 1.46875 1.125 3.453125q0 1.5625 -0.734375 3.046875q-0.71875 1.46875 -1.984375 2.359375q-1.25 0.875 -3.09375 1.078125q-1.15625 0.125 -5.578125 0.15625l-7.796875 0l0 -22.90625zm4.625 3.8125l0 5.296875l3.03125 0q2.703125 0 3.359375 -0.078125q1.1875 -0.140625 1.859375 -0.8125q0.6875 -0.6875 0.6875 -1.796875q0 -1.0625 -0.59375 -1.71875q-0.578125 -0.671875 -1.734375 -0.8125q-0.6875 -0.078125 -3.953125 -0.078125l-2.65625 0zm0 9.109375l0 6.125l4.28125 0q2.5 0 3.171875 -0.140625q1.03125 -0.1875 1.671875 -0.90625q0.65625 -0.734375 0.65625 -1.953125q0 -1.03125 -0.5 -1.75q-0.5 -0.71875 -1.453125 -1.046875q-0.9375 -0.328125 -4.09375 -0.328125l-3.734375 0z" fill-rule="nonzero"></path><path fill="#000000" fill-opacity="0.0" d="m15.9973755 349.86353l54.078743 0l0 62.393707l-54.078743 0z" fill-rule="nonzero"></path><path fill="#000000" d="m48.46643 384.3585l4.484375 1.421875q-1.03125 3.75 -3.4375 5.578125q-2.390625 1.8125 -6.078125 1.8125q-4.5625 0 -7.5 -3.109375q-2.9375 -3.125 -2.9375 -8.53125q0 -5.71875 2.953125 -8.875q2.953125 -3.171875 7.765625 -3.171875q4.203125 0 6.828125 2.484375q1.5625 1.46875 2.34375 4.21875l-4.578125 1.09375q-0.40625 -1.78125 -1.703125 -2.8125q-1.28125 -1.03125 -3.125 -1.03125q-2.546875 0 -4.140625 1.828125q-1.578125 1.828125 -1.578125 5.921875q0 4.34375 1.5625 6.1875q1.5625 1.84375 4.0625 1.84375q1.84375 0 3.171875 -1.171875q1.328125 -1.171875 1.90625 -3.6875z" fill-rule="nonzero"></path><path fill="#000000" fill-opacity="0.0" d="m160.96326 669.56433l54.078735 0l0 62.393677l-54.078735 0z" fill-rule="nonzero"></path><path fill="#000000" d="m179.65887 712.48114l0 -22.90625l16.984375 0l0 3.875l-12.359375 0l0 5.078125l11.5 0l0 3.859375l-11.5 0l0 6.234375l12.796875 0l0 3.859375l-17.421875 0z" fill-rule="nonzero"></path><path fill="#000000" fill-opacity="0.0" d="m18.874016 17.834646l54.078743 0l0 62.3937l-54.078743 0z" fill-rule="nonzero"></path><path fill="#000000" d="m57.34307 60.751495l-5.03125 0l-2.0 -5.203125l-9.15625 0l-1.890625 5.203125l-4.90625 0l8.921875 -22.90625l4.890625 0l9.171875 22.90625zm-8.515625 -9.0625l-3.15625 -8.5l-3.09375 8.5l6.25 0z" fill-rule="nonzero"></path><path fill="#000000" fill-opacity="0.0" d="m376.01837 352.09973l54.078735 0l0 62.393707l-54.078735 0z" fill-rule="nonzero"></path><path fill="#000000" d="m393.81555 372.11035l8.453125 0q2.859375 0 4.359375 0.4375q2.015625 0.59375 3.453125 2.109375q1.4375 1.515625 2.1875 3.71875q0.75 2.1875 0.75 5.40625q0 2.828125 -0.703125 4.875q-0.859375 2.5 -2.453125 4.046875q-1.203125 1.171875 -3.25 1.828125q-1.53125 0.484375 -4.09375 0.484375l-8.703125 0l0 -22.90625zm4.625 3.875l0 15.171875l3.453125 0q1.9375 0 2.796875 -0.21875q1.125 -0.28125 1.859375 -0.953125q0.75 -0.671875 1.21875 -2.203125q0.46875 -1.546875 0.46875 -4.203125q0 -2.65625 -0.46875 -4.078125q-0.46875 -1.421875 -1.3125 -2.21875q-0.84375 -0.796875 -2.140625 -1.078125q-0.96875 -0.21875 -3.796875 -0.21875l-2.078125 0z" fill-rule="nonzero"></path></g></svg>

